<?xml version="1.0" encoding="UTF-8" ?>
<!DOCTYPE svg PUBLIC "-//W3C//DTD SVG 1.1//EN" "http://www.w3.org/Graphics/SVG/1.1/DTD/svg11.dtd">
<svg width="573pt" height="409pt" viewBox="0 0 573 409" version="1.1" xmlns="http://www.w3.org/2000/svg">
<g id="#a9d6b5ff">
<path fill="#a9d6b5" opacity="1.00" d=" M 22.19 19.18 C 31.19 9.26 44.94 5.29 57.98 5.06 C 81.17 4.79 104.12 8.78 126.90 12.61 C 154.75 17.25 182.64 22.69 210.97 22.98 C 223.75 23.21 236.48 21.64 249.08 19.61 C 259.36 17.81 269.71 15.61 279.25 11.25 C 282.28 9.70 285.69 8.23 287.51 5.18 C 289.85 8.81 294.13 10.41 297.88 12.18 C 311.57 17.70 326.31 19.92 340.89 21.69 C 359.81 24.09 378.97 22.86 397.84 20.56 C 433.99 16.20 469.53 7.19 505.97 5.23 C 520.28 4.38 535.84 5.38 547.76 14.24 C 559.99 23.17 565.28 38.49 567.01 52.99 C 569.69 76.06 566.27 99.26 562.83 122.07 C 559.66 143.33 555.16 164.86 557.84 186.44 C 558.92 192.89 560.32 200.32 566.00 204.39 C 560.12 205.12 558.35 212.00 556.89 216.80 C 552.97 234.70 555.65 253.19 558.31 271.07 C 562.37 298.17 567.70 325.52 565.29 353.03 C 563.85 368.05 559.15 384.11 546.87 393.85 C 535.19 403.24 519.42 404.66 504.99 403.83 C 457.92 401.48 412.23 387.24 365.04 386.08 C 353.34 385.65 341.66 386.75 330.09 388.42 C 319.58 389.99 309.02 391.96 299.10 395.87 C 294.69 397.74 290.05 399.84 287.12 403.81 C 285.59 401.06 282.55 399.82 279.88 398.44 C 269.77 393.80 258.79 391.48 247.89 389.55 C 235.69 387.58 223.37 386.00 210.99 386.00 C 179.34 386.05 148.23 392.55 117.12 397.64 C 96.25 401.04 75.18 404.44 53.96 403.89 C 39.89 403.48 25.13 398.07 16.72 386.26 C 6.34 371.84 4.87 353.27 5.01 336.06 C 5.50 311.48 10.34 287.31 13.80 263.05 C 15.62 249.44 16.92 235.57 15.02 221.90 C 13.98 215.65 12.42 208.70 7.10 204.64 C 8.56 204.41 10.19 204.38 11.16 203.08 C 14.93 199.16 16.33 193.64 17.31 188.45 C 19.46 175.00 18.24 161.30 16.57 147.87 C 12.57 119.08 6.28 90.29 7.73 61.07 C 8.63 46.25 11.81 30.44 22.19 19.18 M 25.02 22.01 C 15.62 32.24 12.68 46.60 11.80 60.05 C 10.07 90.35 16.88 120.17 20.85 150.03 C 22.49 164.56 23.79 179.57 20.11 193.91 C 19.06 198.39 16.87 202.49 14.11 206.15 C 18.78 214.97 19.87 225.14 19.94 234.97 C 20.08 252.82 16.60 270.40 14.01 287.98 C 10.76 309.15 7.76 330.63 9.54 352.09 C 10.52 363.52 13.31 375.28 20.42 384.53 C 27.07 393.48 38.04 398.34 48.93 399.49 C 59.53 400.56 70.21 399.72 80.79 398.74 C 121.40 394.61 161.16 383.82 202.05 382.17 C 218.93 381.35 235.80 383.34 252.38 386.35 C 264.33 388.76 276.54 391.48 287.10 397.85 C 296.78 391.06 308.55 388.43 319.95 386.11 C 334.46 383.47 349.21 381.66 363.99 382.05 C 408.92 383.02 452.48 395.82 497.15 399.38 C 511.24 400.25 526.44 401.32 539.23 394.20 C 550.78 387.93 557.37 375.45 559.82 362.93 C 563.71 342.82 561.53 322.19 559.00 302.05 C 556.04 278.74 550.41 255.60 551.00 231.96 C 551.42 222.10 552.70 211.60 558.79 203.46 C 558.10 200.34 556.15 197.58 555.47 194.42 C 551.68 179.99 552.95 164.85 554.59 150.20 C 558.40 121.92 564.59 93.72 563.92 65.03 C 563.45 51.16 561.44 36.45 552.94 25.00 C 545.91 15.21 533.92 10.15 522.16 9.33 C 509.15 8.45 496.10 9.73 483.19 11.26 C 445.74 15.93 408.86 25.25 371.05 26.82 C 353.73 27.67 336.40 25.65 319.41 22.40 C 308.39 20.01 297.01 17.50 287.55 11.07 C 281.05 15.46 273.57 18.10 266.02 20.00 C 244.18 25.44 221.52 28.08 199.03 26.58 C 157.88 24.10 117.84 13.07 76.79 9.68 C 68.27 9.11 59.69 8.60 51.18 9.54 C 41.43 10.65 31.67 14.59 25.02 22.01 Z" />
<path fill="#a9d6b5" opacity="1.00" d=" M 39.39 24.43 C 48.94 18.86 60.41 20.01 71.00 20.30 C 119.35 23.23 166.37 38.22 215.01 37.99 C 234.66 37.57 254.21 34.37 273.16 29.24 C 278.13 27.92 282.94 26.09 287.57 23.87 C 291.88 25.94 296.33 27.71 300.95 28.98 C 319.88 34.18 339.40 37.42 359.05 37.98 C 393.42 38.35 427.16 30.89 460.94 25.50 C 480.48 22.43 500.21 19.46 520.04 20.17 C 529.44 20.39 539.36 24.28 544.72 32.32 C 550.05 40.11 552.11 49.60 552.60 58.90 C 554.38 86.19 549.04 113.21 545.04 140.07 C 541.82 160.57 539.80 182.05 546.43 202.12 C 538.97 219.04 539.05 238.06 541.22 256.11 C 545.22 288.61 553.32 321.11 550.19 354.06 C 549.07 365.73 544.68 378.82 533.71 384.69 C 524.41 390.04 513.26 389.01 502.97 388.74 C 457.59 386.09 413.50 372.85 368.02 371.16 C 350.83 370.39 333.62 372.40 316.77 375.75 C 307.62 377.83 298.29 379.68 289.74 383.70 C 288.38 384.19 286.95 385.29 285.48 384.51 C 280.84 382.74 276.20 380.91 271.36 379.69 C 252.31 374.72 232.72 371.50 213.01 371.02 C 175.88 370.78 139.56 379.47 103.03 384.90 C 86.46 387.31 69.74 389.50 52.96 388.84 C 43.55 388.63 33.62 384.73 28.25 376.68 C 23.12 369.18 20.97 360.07 20.46 351.10 C 18.10 319.10 25.83 287.64 29.69 256.09 C 31.59 239.92 31.87 223.18 26.67 207.55 C 30.43 199.17 32.43 190.06 33.18 180.94 C 34.54 159.74 30.07 138.82 27.00 117.97 C 23.79 96.01 20.77 73.63 23.66 51.46 C 25.20 40.99 29.78 29.90 39.39 24.43 M 33.16 34.14 C 28.95 40.64 26.64 48.27 26.13 55.98 C 24.02 79.75 27.79 103.51 31.41 126.94 C 34.35 145.82 37.80 164.94 35.91 184.10 C 34.95 191.70 33.14 199.20 30.55 206.40 C 29.66 208.82 30.88 211.32 31.32 213.70 C 35.17 228.04 34.15 243.10 32.50 257.69 C 28.49 289.26 20.87 320.82 23.61 352.84 C 24.04 360.27 26.23 367.57 30.07 373.95 C 34.62 381.85 44.13 385.56 52.90 385.84 C 70.57 386.51 88.18 384.10 105.62 381.50 C 141.26 376.06 176.76 367.77 213.00 368.01 C 231.32 368.43 249.54 371.30 267.32 375.65 C 273.93 377.14 280.39 379.18 286.68 381.68 C 296.46 377.01 307.16 374.92 317.65 372.56 C 333.57 369.49 349.80 367.51 366.04 368.09 C 412.55 369.44 457.61 383.27 504.00 385.78 C 513.41 385.96 523.59 386.99 532.10 382.10 C 540.68 377.86 544.46 368.15 546.47 359.38 C 549.62 338.64 547.09 317.58 544.28 296.95 C 541.23 274.73 536.09 252.57 537.08 230.00 C 537.40 220.38 540.18 211.10 542.82 201.92 C 542.45 196.18 540.09 190.74 539.65 184.98 C 537.34 163.50 541.85 142.15 544.99 121.00 C 548.25 99.36 551.36 77.39 549.30 55.48 C 548.65 46.90 545.80 38.30 540.37 31.55 C 534.69 25.55 526.14 23.01 518.04 23.09 C 496.18 22.71 474.51 26.27 453.01 29.83 C 421.57 35.00 390.06 41.51 358.04 40.96 C 340.44 40.37 322.93 37.63 305.87 33.30 C 299.53 31.88 293.37 29.81 287.39 27.31 C 283.32 29.13 279.13 30.70 274.83 31.85 C 254.69 37.28 233.93 40.85 213.03 41.01 C 166.72 40.79 121.87 27.24 75.89 23.61 C 68.57 23.12 61.23 22.80 53.91 23.26 C 45.90 23.72 37.78 27.40 33.16 34.14 Z" />
</g>
<g id="#cc6666ff">
<path fill="#cc6666" opacity="1.00" d=" M 25.02 22.01 C 31.67 14.59 41.43 10.65 51.18 9.54 C 59.69 8.60 68.27 9.11 76.79 9.68 C 117.84 13.07 157.88 24.10 199.03 26.58 C 221.52 28.08 244.18 25.44 266.02 20.00 C 273.57 18.10 281.05 15.46 287.55 11.07 C 297.01 17.50 308.39 20.01 319.41 22.40 C 336.40 25.65 353.73 27.67 371.05 26.82 C 408.86 25.25 445.74 15.93 483.19 11.26 C 496.10 9.73 509.15 8.45 522.16 9.33 C 533.92 10.15 545.91 15.21 552.94 25.00 C 561.44 36.45 563.45 51.16 563.92 65.03 C 564.59 93.72 558.40 121.92 554.59 150.20 C 552.95 164.85 551.68 179.99 555.47 194.42 C 556.15 197.58 558.10 200.34 558.79 203.46 C 552.70 211.60 551.42 222.10 551.00 231.96 C 550.41 255.60 556.04 278.74 559.00 302.05 C 561.53 322.19 563.71 342.82 559.82 362.93 C 557.37 375.45 550.78 387.93 539.23 394.20 C 526.44 401.32 511.24 400.25 497.15 399.38 C 452.48 395.82 408.92 383.02 363.99 382.05 C 349.21 381.66 334.46 383.47 319.95 386.11 C 308.55 388.43 296.78 391.06 287.10 397.85 C 276.54 391.48 264.33 388.76 252.38 386.35 C 235.80 383.34 218.93 381.35 202.05 382.17 C 161.16 383.82 121.40 394.61 80.79 398.74 C 70.21 399.72 59.53 400.56 48.93 399.49 C 38.04 398.34 27.07 393.48 20.42 384.53 C 13.31 375.28 10.52 363.52 9.54 352.09 C 7.76 330.63 10.76 309.15 14.01 287.98 C 16.60 270.40 20.08 252.82 19.94 234.97 C 19.87 225.14 18.78 214.97 14.11 206.15 C 16.87 202.49 19.06 198.39 20.11 193.91 C 23.79 179.57 22.49 164.56 20.85 150.03 C 16.88 120.17 10.07 90.35 11.80 60.05 C 12.68 46.60 15.62 32.24 25.02 22.01 M 39.39 24.43 C 29.78 29.90 25.20 40.99 23.66 51.46 C 20.77 73.63 23.79 96.01 27.00 117.97 C 30.07 138.82 34.54 159.74 33.18 180.94 C 32.43 190.06 30.43 199.17 26.67 207.55 C 31.87 223.18 31.59 239.92 29.69 256.09 C 25.83 287.64 18.10 319.10 20.46 351.10 C 20.97 360.07 23.12 369.18 28.25 376.68 C 33.62 384.73 43.55 388.63 52.96 388.84 C 69.74 389.50 86.46 387.31 103.03 384.90 C 139.56 379.47 175.88 370.78 213.01 371.02 C 232.72 371.50 252.31 374.72 271.36 379.69 C 276.20 380.91 280.84 382.74 285.48 384.51 C 286.95 385.29 288.38 384.19 289.74 383.70 C 298.29 379.68 307.62 377.83 316.77 375.75 C 333.62 372.40 350.83 370.39 368.02 371.16 C 413.50 372.85 457.59 386.09 502.97 388.74 C 513.26 389.01 524.41 390.04 533.71 384.69 C 544.68 378.82 549.07 365.73 550.19 354.06 C 553.32 321.11 545.22 288.61 541.22 256.11 C 539.05 238.06 538.97 219.04 546.43 202.12 C 539.80 182.05 541.82 160.57 545.04 140.07 C 549.04 113.21 554.38 86.19 552.60 58.90 C 552.11 49.60 550.05 40.11 544.72 32.32 C 539.36 24.28 529.44 20.39 520.04 20.17 C 500.21 19.46 480.48 22.43 460.94 25.50 C 427.16 30.89 393.42 38.35 359.05 37.98 C 339.40 37.42 319.88 34.18 300.95 28.98 C 296.33 27.71 291.88 25.94 287.57 23.87 C 282.94 26.09 278.13 27.92 273.16 29.24 C 254.21 34.37 234.66 37.57 215.01 37.99 C 166.37 38.22 119.35 23.23 71.00 20.30 C 60.41 20.01 48.94 18.86 39.39 24.43 Z" />
<path fill="#cc6666" opacity="1.00" d=" M 39.01 41.96 C 44.17 34.59 53.51 31.90 62.06 31.21 C 78.09 30.21 93.76 34.71 109.14 38.63 C 133.34 45.09 157.80 51.95 183.03 52.38 C 216.91 53.00 251.29 48.86 283.08 36.69 C 276.01 42.01 267.27 44.28 258.87 46.59 C 237.91 51.77 216.41 54.44 194.93 56.30 C 181.14 56.55 167.43 58.65 154.03 61.83 C 146.71 63.45 140.45 67.74 133.61 70.59 C 128.75 72.77 123.62 74.28 118.37 75.12 C 114.32 79.87 109.89 84.37 104.42 87.47 C 101.94 95.79 94.53 102.04 85.91 103.07 C 82.97 114.95 74.15 123.87 67.81 133.95 C 64.83 138.93 61.19 143.54 58.92 148.91 C 55.65 156.57 53.93 164.79 52.89 173.03 C 51.48 183.47 47.54 193.78 40.42 201.68 C 50.66 186.71 52.75 167.62 49.50 150.10 C 44.42 124.00 35.26 98.66 33.23 72.01 C 32.64 61.82 32.95 50.65 39.01 41.96 M 55.23 44.80 C 59.17 44.73 63.16 45.67 65.91 48.67 C 65.51 41.88 69.96 36.05 75.93 33.29 C 68.13 35.20 61.42 39.86 55.23 44.80 M 77.39 35.42 C 72.19 36.68 68.15 41.57 68.02 46.94 C 67.46 54.01 74.00 60.47 81.04 59.98 C 88.08 59.84 94.03 52.91 92.89 45.91 C 92.21 38.69 84.35 33.37 77.39 35.42 M 85.84 33.63 C 91.23 36.36 95.07 41.70 95.12 47.83 C 97.11 43.54 100.92 40.35 105.59 39.41 C 99.01 37.47 92.62 34.89 85.84 33.63 M 96.86 49.08 C 92.50 59.27 101.11 71.32 111.85 71.78 C 122.01 73.01 129.51 62.23 128.88 52.96 C 128.63 49.01 125.27 46.37 121.77 45.23 C 122.65 47.35 124.03 49.55 123.41 51.94 C 122.47 55.89 119.16 58.87 115.67 60.67 C 112.16 62.53 107.32 60.99 105.73 57.31 C 104.61 55.03 105.88 52.56 106.31 50.27 C 106.22 53.09 105.91 56.59 108.65 58.36 C 114.07 61.94 122.27 56.32 121.09 49.96 C 120.26 46.60 117.28 44.24 114.26 42.87 C 108.08 40.89 99.30 42.15 96.86 49.08 M 55.36 47.47 C 49.68 49.17 48.13 57.45 52.83 61.08 C 56.98 64.97 64.60 62.53 65.74 56.96 C 67.55 51.10 61.03 45.14 55.36 47.47 M 130.51 48.68 C 131.71 54.85 130.38 61.42 126.24 66.25 C 127.39 70.16 131.54 68.34 134.05 67.06 C 146.79 60.70 160.96 58.21 174.97 56.50 C 159.84 55.97 145.06 52.56 130.51 48.68 M 36.82 69.76 C 40.41 65.23 45.94 62.26 51.84 63.07 C 48.91 60.45 47.77 56.65 47.82 52.81 C 43.64 58.11 39.25 63.36 36.82 69.76 M 86.00 61.04 C 89.64 61.57 93.13 62.85 96.20 64.87 C 94.40 61.55 93.46 57.85 93.49 54.06 C 91.73 57.08 89.13 59.48 86.00 61.04 M 68.21 55.25 C 67.70 60.90 62.85 65.27 57.17 65.18 C 60.80 67.54 63.09 71.32 63.98 75.52 C 66.21 69.08 71.42 63.93 77.92 61.85 C 73.97 60.89 70.50 58.62 68.21 55.25 M 67.00 73.08 C 79.89 74.32 89.41 88.62 86.29 101.09 C 93.19 99.86 99.09 95.26 101.93 88.85 C 88.92 89.34 77.08 76.33 78.96 63.46 C 73.99 65.24 69.81 68.62 67.00 73.08 M 81.38 66.13 C 80.34 71.38 83.58 76.32 87.14 79.86 C 90.35 82.84 94.29 85.75 98.84 85.83 C 101.31 85.71 101.95 82.88 103.18 81.21 C 102.50 77.28 101.47 73.24 98.82 70.13 C 96.30 66.77 92.46 64.88 88.68 63.30 C 91.49 65.51 95.64 69.09 93.17 73.04 C 91.68 76.21 88.04 75.94 85.28 74.88 C 87.33 74.37 90.96 75.36 91.54 72.52 C 92.10 68.80 88.96 65.48 85.60 64.41 C 84.07 63.80 81.58 64.12 81.38 66.13 M 46.30 65.44 C 40.40 66.88 36.20 73.04 37.10 79.07 C 37.76 85.69 44.47 90.88 51.06 89.90 C 57.69 89.18 62.97 82.53 61.89 75.89 C 61.19 68.65 53.27 63.34 46.30 65.44 M 102.03 71.09 C 104.33 75.17 105.21 79.81 105.03 84.47 C 108.86 81.79 112.42 78.74 115.69 75.40 C 110.84 75.16 106.02 73.96 102.03 71.09 M 73.01 87.45 C 75.54 87.02 75.66 83.84 76.82 82.07 C 76.82 84.89 76.26 88.43 72.90 89.03 C 69.06 90.46 66.52 86.68 64.76 83.93 C 66.14 90.56 70.13 96.87 76.60 99.47 C 79.09 100.88 83.52 100.43 84.01 97.04 C 84.65 92.09 82.52 87.19 79.79 83.16 C 77.09 79.33 72.93 75.76 67.96 76.03 C 63.70 79.53 67.99 87.33 73.01 87.45 M 35.85 83.11 C 36.81 89.48 38.75 95.63 40.39 101.85 C 41.20 97.60 43.88 94.05 47.69 92.02 C 42.51 91.14 38.31 87.65 35.85 83.11 M 56.82 90.13 C 60.05 90.56 63.17 91.56 66.06 93.08 C 64.41 89.99 63.34 86.62 62.96 83.14 C 61.53 85.95 59.40 88.31 56.82 90.13 M 48.26 94.17 C 41.37 98.30 41.19 109.69 47.78 114.17 C 53.65 117.39 61.88 110.81 59.56 104.39 C 58.49 101.30 54.95 100.81 52.25 99.95 C 54.26 100.15 56.34 100.05 58.28 100.69 C 61.80 102.51 63.06 107.48 60.86 110.78 C 57.50 115.63 50.61 119.09 45.08 115.65 C 45.89 117.97 46.49 120.37 47.58 122.58 C 49.92 125.17 53.77 125.59 57.05 125.10 C 61.98 124.34 67.06 122.22 70.13 118.13 C 74.05 112.69 73.19 104.84 69.36 99.58 C 64.82 93.11 55.33 90.21 48.26 94.17 M 72.49 99.60 C 76.89 106.12 76.49 114.39 74.16 121.59 C 78.26 116.01 81.48 109.82 83.54 103.21 C 79.67 102.70 75.83 101.68 72.49 99.60 M 64.47 124.53 C 59.52 127.16 53.77 127.83 48.34 126.41 C 51.31 137.09 53.37 148.08 53.67 159.18 C 56.29 148.96 60.93 139.35 66.37 130.36 C 67.08 129.05 67.84 127.68 67.88 126.15 C 67.75 124.56 65.78 123.44 64.47 124.53 Z" />
<path fill="#cc6666" opacity="1.00" d=" M 463.33 39.32 C 475.70 36.02 488.16 32.69 500.94 31.37 C 511.13 30.53 522.27 30.99 531.00 36.93 C 539.47 43.00 541.84 54.12 542.00 63.95 C 542.14 84.08 536.57 103.63 531.84 123.03 C 527.92 139.42 522.59 156.03 524.50 173.10 C 525.33 183.29 529.00 193.04 534.56 201.58 C 530.25 196.83 527.06 191.14 525.00 185.08 C 521.63 175.79 521.91 165.69 518.77 156.33 C 516.91 149.00 512.91 142.53 508.71 136.33 C 502.20 125.25 492.36 115.86 489.11 103.08 C 480.49 102.01 473.07 95.81 470.60 87.48 C 465.15 84.35 460.70 79.89 456.66 75.15 C 447.63 73.83 439.34 69.87 431.32 65.73 C 424.40 62.11 416.63 60.71 409.02 59.32 C 401.06 58.05 393.08 56.63 384.99 56.53 C 373.63 56.09 362.35 54.57 351.09 53.11 C 337.30 51.18 323.50 48.86 310.12 44.92 C 303.74 42.97 297.26 40.79 291.90 36.68 C 326.21 49.72 363.47 53.78 399.97 52.01 C 421.55 50.57 442.51 44.86 463.33 39.32 M 498.79 33.12 C 504.86 35.88 509.60 41.77 509.09 48.72 C 511.97 45.57 516.21 44.39 520.38 45.26 C 513.93 40.07 506.95 35.16 498.79 33.12 M 469.45 39.41 C 474.09 40.36 477.87 43.52 479.89 47.78 C 479.96 41.64 483.87 36.37 489.23 33.61 C 482.44 34.90 476.03 37.45 469.45 39.41 M 491.33 35.44 C 486.80 36.56 483.14 40.48 482.27 45.06 C 480.69 51.90 486.00 59.18 492.95 59.90 C 500.32 61.07 507.60 54.39 507.00 46.94 C 506.94 39.27 498.67 33.20 491.33 35.44 M 454.16 49.10 C 452.02 55.63 460.60 62.12 466.31 58.40 C 469.12 56.68 468.75 53.18 468.74 50.35 C 469.16 52.62 470.41 55.10 469.30 57.37 C 467.63 61.01 462.80 62.56 459.30 60.65 C 455.87 58.82 452.55 55.92 451.63 51.99 C 450.95 49.58 452.36 47.35 453.27 45.23 C 451.33 46.22 449.02 46.89 447.76 48.80 C 445.36 51.97 445.80 56.34 447.12 59.87 C 448.84 64.65 452.05 69.35 457.05 71.07 C 463.32 73.15 470.66 70.85 474.96 65.92 C 480.25 60.32 481.04 50.26 475.19 44.79 C 468.83 39.99 457.53 41.25 454.16 49.10 M 514.37 47.47 C 510.88 48.63 508.52 52.44 509.11 56.09 C 509.58 60.29 513.82 63.56 518.01 62.94 C 522.28 62.50 525.63 58.19 524.95 53.94 C 524.45 49.09 518.92 45.65 514.37 47.47 M 400.06 56.56 C 414.06 58.15 428.21 60.73 440.94 67.04 C 443.45 68.31 447.62 70.19 448.78 66.28 C 444.66 61.44 443.32 54.86 444.52 48.69 C 429.97 52.63 415.17 55.85 400.06 56.56 M 527.18 52.76 C 527.24 56.65 526.18 60.57 523.04 63.11 C 528.95 62.20 534.52 65.16 538.17 69.66 C 535.76 63.26 531.32 58.07 527.18 52.76 M 481.52 54.07 C 481.53 57.85 480.63 61.56 478.80 64.87 C 481.90 62.89 485.37 61.58 489.02 61.04 C 485.89 59.48 483.31 57.07 481.52 54.07 M 497.12 61.84 C 503.61 63.93 508.80 69.07 511.04 75.50 C 511.90 71.30 514.25 67.57 517.84 65.18 C 512.17 65.26 507.32 60.91 506.87 55.25 C 504.52 58.58 501.08 60.90 497.12 61.84 M 471.84 81.16 C 473.04 82.85 473.69 85.66 476.16 85.83 C 480.23 85.81 483.83 83.36 486.84 80.83 C 490.76 77.33 494.27 72.43 493.82 66.91 C 493.83 65.39 492.65 63.98 491.05 64.13 C 486.79 64.41 482.34 68.79 483.69 73.23 C 484.99 75.21 487.78 74.43 489.78 74.89 C 488.22 75.16 486.69 75.80 485.10 75.66 C 482.43 74.93 480.47 71.85 481.31 69.13 C 482.03 66.53 484.57 65.08 486.38 63.29 C 478.44 65.73 472.53 72.87 471.84 81.16 M 496.09 63.48 C 497.92 76.35 486.08 89.40 473.04 88.83 C 475.98 95.21 481.79 99.85 488.73 101.09 C 485.61 88.63 495.14 74.32 508.03 73.08 C 505.24 68.60 501.03 65.27 496.09 63.48 M 522.35 65.44 C 517.98 66.52 514.43 70.18 513.38 74.54 C 511.47 81.47 516.76 89.12 523.88 89.89 C 531.27 91.11 538.61 84.42 538.01 76.94 C 537.94 69.28 529.70 63.20 522.35 65.44 M 459.33 75.40 C 462.60 78.74 466.16 81.79 470.00 84.47 C 469.82 79.79 470.68 75.11 473.06 71.04 C 469.06 73.95 464.21 75.16 459.33 75.40 M 494.78 83.83 C 492.32 87.72 490.42 92.36 491.01 97.04 C 491.51 100.43 495.96 100.89 498.46 99.47 C 504.90 96.84 508.91 90.56 510.25 83.93 C 508.52 86.72 505.93 90.48 502.09 89.02 C 498.84 88.41 498.24 84.93 498.04 82.19 C 499.01 83.84 499.59 85.81 501.01 87.16 C 506.45 88.62 511.63 79.63 507.03 76.01 C 501.76 75.78 497.50 79.71 494.78 83.83 M 527.34 92.02 C 531.11 94.08 533.87 97.56 534.65 101.84 C 536.29 95.54 538.27 89.31 539.20 82.85 C 536.90 87.59 532.58 91.11 527.34 92.02 M 512.03 83.06 C 511.71 86.58 510.63 89.97 508.96 93.08 C 511.84 91.53 514.97 90.54 518.22 90.14 C 515.60 88.31 513.46 85.91 512.03 83.06 M 513.57 93.50 C 506.86 95.99 502.13 102.91 502.36 110.09 C 502.17 115.68 505.95 120.79 510.99 122.96 C 515.86 125.23 522.37 126.74 526.97 123.11 C 528.66 121.00 528.97 118.12 529.96 115.65 C 524.41 119.08 517.53 115.63 514.17 110.77 C 512.00 107.52 513.17 102.58 516.64 100.75 C 518.61 100.02 520.77 100.10 522.84 99.82 C 520.14 100.78 516.61 101.28 515.48 104.36 C 512.96 111.00 522.02 117.84 527.80 113.81 C 533.41 109.29 533.53 99.65 528.00 95.02 C 523.96 91.91 518.21 91.72 513.57 93.50 M 491.49 103.21 C 493.52 109.82 496.75 115.98 500.83 121.55 C 498.58 114.37 498.14 106.16 502.50 99.65 C 499.14 101.67 495.34 102.70 491.49 103.21 M 508.28 129.68 C 513.83 138.90 518.68 148.68 521.37 159.15 C 521.65 148.07 523.73 137.09 526.68 126.42 C 520.66 128.18 514.56 126.60 509.08 124.01 C 506.36 124.79 507.10 127.89 508.28 129.68 Z" />
<path fill="#cc6666" opacity="1.00" d=" M 281.88 76.97 C 284.77 74.02 286.19 70.02 287.50 66.19 C 288.81 70.01 290.21 74.01 293.10 76.95 C 296.14 80.20 301.95 78.51 304.48 82.44 C 306.58 86.64 306.24 91.61 305.00 96.02 C 327.97 96.10 350.95 95.93 373.91 96.51 C 353.97 97.14 334.00 96.74 314.04 96.99 C 310.08 97.09 306.01 96.54 302.16 97.73 C 326.04 98.54 349.98 97.69 373.87 98.52 C 329.23 99.27 284.58 98.95 239.94 98.92 C 226.67 98.73 213.39 99.07 200.14 98.46 C 224.36 97.77 248.62 98.46 272.84 97.73 C 269.00 96.52 264.95 97.09 261.01 97.00 C 240.74 96.81 220.47 97.07 200.21 96.54 C 223.47 95.86 246.76 96.17 270.03 96.02 C 268.69 91.42 268.32 86.05 270.94 81.83 C 273.78 78.68 278.96 80.01 281.88 76.97 M 275.13 83.16 C 271.55 84.40 271.03 88.86 271.30 92.10 C 271.32 94.09 272.61 96.33 274.91 95.95 C 283.29 95.85 291.68 95.84 300.07 95.95 C 302.40 96.35 303.69 94.06 303.70 92.04 C 303.96 88.82 303.43 84.41 299.90 83.16 C 295.43 81.36 291.25 78.93 287.50 75.91 C 283.72 78.88 279.61 81.41 275.13 83.16 Z" />
<path fill="#cc6666" opacity="1.00" d=" M 192.55 112.95 C 194.20 112.69 195.84 112.39 197.48 112.08 C 197.46 115.02 197.43 117.96 197.33 120.89 C 199.35 119.68 201.84 118.60 204.13 119.83 C 209.00 122.01 209.13 129.90 204.38 132.29 C 201.80 133.86 198.93 132.48 196.49 131.38 C 196.12 131.82 195.37 132.70 195.00 133.14 C 194.80 126.97 195.39 120.76 194.75 114.63 C 194.20 114.21 193.10 113.37 192.55 112.95 M 199.23 120.97 C 196.59 123.16 196.93 127.72 198.37 130.54 C 200.93 133.61 205.42 130.68 205.03 127.14 C 205.88 123.88 202.99 118.66 199.23 120.97 Z" />
<path fill="#cc6666" opacity="1.00" d=" M 288.62 113.11 C 290.48 112.79 292.36 112.48 294.24 112.17 C 294.26 118.49 294.05 124.83 294.40 131.15 C 295.06 131.55 296.38 132.35 297.04 132.74 C 295.26 132.51 292.73 133.46 291.89 131.31 C 289.84 132.94 287.05 133.69 284.72 132.17 C 280.09 129.59 280.50 121.43 285.65 119.68 C 287.86 118.63 290.13 119.81 292.13 120.75 C 291.98 118.58 291.85 116.41 291.70 114.24 C 290.67 113.86 289.64 113.49 288.62 113.11 M 286.18 120.91 C 283.58 123.05 283.82 127.14 285.04 129.97 C 286.25 132.71 290.40 132.19 291.55 129.67 C 292.00 127.26 292.00 124.74 291.52 122.35 C 290.37 120.73 287.97 119.70 286.18 120.91 Z" />
<path fill="#cc6666" opacity="1.00" d=" M 164.23 114.15 C 167.35 112.57 170.90 113.45 173.95 114.73 C 174.42 114.15 174.89 113.57 175.37 113.00 C 175.26 115.25 175.13 117.50 174.91 119.75 C 173.69 116.55 170.87 113.40 167.09 114.54 C 161.42 116.38 161.08 124.07 163.18 128.71 C 165.05 133.44 174.63 132.83 173.75 126.98 C 172.98 126.44 171.45 125.34 170.68 124.79 C 173.31 124.83 175.94 124.83 178.57 124.77 C 176.27 125.88 176.02 128.15 176.06 130.41 C 172.46 131.90 168.50 134.05 164.55 132.43 C 156.78 129.89 156.90 117.19 164.23 114.15 Z" />
<path fill="#cc6666" opacity="1.00" d=" M 319.18 113.74 C 324.22 113.43 329.27 113.56 334.32 113.57 C 334.36 115.20 334.39 116.82 334.45 118.45 C 333.62 117.27 333.02 115.87 331.87 114.96 C 329.66 114.24 327.29 114.48 325.00 114.37 C 325.00 117.06 325.00 119.75 325.01 122.44 C 326.27 122.22 327.54 122.00 328.81 121.78 C 329.35 120.91 329.90 120.05 330.46 119.19 C 330.44 121.67 330.43 124.15 330.41 126.63 C 329.94 125.74 329.49 124.85 329.04 123.97 C 327.71 123.61 326.38 123.26 325.05 122.92 C 325.01 125.62 325.04 128.32 325.17 131.02 C 327.61 131.37 330.30 132.15 332.64 130.94 C 333.76 129.90 334.55 128.57 335.45 127.35 C 335.33 129.13 335.25 130.91 335.16 132.70 C 329.72 132.67 324.28 132.84 318.86 132.50 C 319.98 131.98 321.10 131.48 322.23 130.98 C 322.34 125.67 322.34 120.37 322.24 115.07 C 321.21 114.63 320.19 114.19 319.18 113.74 Z" />
<path fill="#cc6666" opacity="1.00" d=" M 363.39 116.92 C 365.20 115.01 366.94 112.46 369.95 112.74 C 368.39 114.98 365.84 116.00 363.39 116.92 Z" />
<path fill="#cc6666" opacity="1.00" d=" M 250.17 120.35 C 251.57 119.12 252.90 117.81 254.22 116.49 C 254.22 117.29 254.23 118.88 254.24 119.68 C 255.22 119.80 257.18 120.03 258.16 120.15 C 256.84 120.56 255.52 120.95 254.21 121.33 C 254.22 124.73 253.97 128.16 254.56 131.52 C 256.05 131.96 257.55 131.31 259.05 131.20 C 257.22 132.51 254.73 133.94 252.64 132.23 C 250.05 128.79 253.95 123.01 250.17 120.35 Z" />
<path fill="#cc6666" opacity="1.00" d=" M 372.57 120.50 C 373.96 119.18 375.36 117.86 376.74 116.51 C 376.73 117.32 376.72 118.95 376.71 119.76 C 377.54 119.77 379.18 119.80 380.00 119.81 L 380.00 120.97 C 379.18 120.98 377.53 121.02 376.70 121.04 C 376.62 124.65 376.64 128.27 377.05 131.86 C 378.57 131.66 380.08 131.46 381.62 131.29 C 379.66 132.74 376.02 134.21 374.59 131.37 C 373.92 128.13 374.38 124.78 374.37 121.49 C 373.92 121.25 373.02 120.75 372.57 120.50 Z" />
<path fill="#cc6666" opacity="1.00" d=" M 180.58 123.32 C 179.85 117.93 190.44 117.60 190.13 122.97 C 190.31 125.59 190.11 128.22 190.38 130.83 C 191.15 131.11 192.68 131.66 193.45 131.94 C 191.95 132.34 190.45 132.77 188.96 133.20 C 188.55 132.37 188.15 131.54 187.75 130.71 C 186.31 131.69 184.95 133.27 183.02 133.00 C 180.82 133.00 179.10 130.31 180.57 128.44 C 182.49 126.23 185.52 125.50 188.07 124.27 C 187.66 122.41 187.38 120.11 184.98 120.03 C 183.55 121.19 182.41 122.77 180.58 123.32 M 182.38 129.09 C 182.12 131.01 184.41 132.50 185.90 131.19 C 188.04 130.02 187.59 127.23 188.02 125.22 C 185.94 126.17 183.67 127.07 182.38 129.09 Z" />
<path fill="#cc6666" opacity="1.00" d=" M 209.37 120.13 C 211.16 119.91 212.95 119.63 214.73 119.34 C 214.67 123.23 214.68 127.13 214.76 131.03 C 215.66 131.59 216.57 132.16 217.48 132.73 C 214.74 132.72 211.99 132.70 209.25 132.68 C 210.23 132.09 211.21 131.51 212.19 130.93 C 211.85 127.28 214.11 121.62 209.37 120.13 Z" />
<path fill="#cc6666" opacity="1.00" d=" M 217.84 120.30 C 219.43 119.96 221.04 119.62 222.64 119.28 C 222.68 119.82 222.74 120.88 222.78 121.41 C 225.24 119.56 229.90 117.80 231.81 121.23 C 232.61 124.45 232.12 127.84 232.38 131.13 C 233.03 131.52 234.34 132.30 234.99 132.69 C 232.52 132.70 230.05 132.72 227.58 132.72 C 228.36 132.15 229.14 131.57 229.92 131.00 C 230.13 127.46 230.09 123.89 229.20 120.44 C 227.03 120.41 224.15 120.55 223.41 123.08 C 223.03 125.72 223.21 128.40 223.22 131.05 C 223.84 131.47 225.08 132.29 225.70 132.71 C 223.25 132.71 220.80 132.70 218.35 132.70 C 219.15 132.10 219.95 131.50 220.75 130.90 C 220.78 127.77 220.79 124.65 220.78 121.53 C 220.04 121.22 218.57 120.60 217.84 120.30 Z" />
<path fill="#cc6666" opacity="1.00" d=" M 239.09 132.11 C 233.74 129.13 235.72 119.53 242.02 119.33 C 245.59 118.51 247.91 121.78 248.24 124.94 C 244.98 125.00 241.71 125.00 238.45 125.04 C 239.01 127.13 238.84 129.85 240.96 131.10 C 243.35 132.97 246.07 130.55 248.39 129.79 C 246.28 132.62 242.27 134.13 239.09 132.11 M 238.62 123.66 C 240.94 123.74 243.27 123.78 245.59 123.76 C 244.98 122.51 244.77 120.57 243.02 120.43 C 240.69 119.78 239.83 122.25 238.62 123.66 Z" />
<path fill="#cc6666" opacity="1.00" d=" M 263.06 132.09 C 257.75 129.10 259.72 119.56 266.00 119.34 C 269.57 118.50 271.91 121.77 272.24 124.94 C 268.98 125.00 265.71 125.00 262.45 125.04 C 263.00 127.15 262.85 129.88 265.00 131.13 C 267.40 132.95 270.08 130.54 272.39 129.78 C 270.28 132.63 266.24 134.13 263.06 132.09 M 262.62 123.66 C 264.94 123.74 267.27 123.78 269.59 123.76 C 268.99 122.50 268.78 120.62 267.05 120.43 C 264.70 119.77 263.83 122.24 262.62 123.66 Z" />
<path fill="#cc6666" opacity="1.00" d=" M 301.01 131.91 C 296.12 128.71 298.08 119.61 304.19 119.33 C 307.77 118.51 310.24 121.70 310.46 124.96 C 307.23 125.00 304.00 125.00 300.78 125.02 C 301.23 127.06 301.04 129.64 303.02 130.96 C 305.34 133.04 308.26 130.63 310.61 129.88 C 308.42 132.79 304.16 134.13 301.01 131.91 M 300.89 123.68 C 303.23 123.74 305.58 123.75 307.93 123.70 C 307.26 122.38 306.86 120.48 305.04 120.40 C 302.80 119.95 302.02 122.29 300.89 123.68 Z" />
<path fill="#cc6666" opacity="1.00" d=" M 340.51 119.65 C 342.16 119.06 343.93 119.67 345.63 119.80 C 345.72 120.68 345.92 122.44 346.02 123.32 C 344.87 121.22 341.29 118.24 340.15 122.04 C 341.73 124.40 344.58 125.38 346.44 127.47 C 347.42 128.92 346.46 130.63 346.24 132.16 C 344.03 132.99 341.72 133.00 339.49 132.29 C 339.17 132.38 338.52 132.57 338.20 132.66 C 338.22 131.14 338.25 129.62 338.27 128.11 C 339.55 129.63 340.41 132.53 342.93 131.98 C 344.39 132.31 345.07 130.43 344.67 129.32 C 342.88 127.70 340.69 126.60 338.93 124.95 C 338.04 123.12 338.50 120.52 340.51 119.65 Z" />
<path fill="#cc6666" opacity="1.00" d=" M 359.46 129.60 C 357.00 125.03 360.62 118.63 366.01 119.28 C 369.17 119.18 370.52 122.29 370.93 124.94 C 367.67 125.00 364.42 125.01 361.17 125.05 C 361.71 127.33 361.74 130.20 364.13 131.42 C 366.49 132.60 368.80 130.56 371.01 129.93 C 368.39 133.97 361.63 134.09 359.46 129.60 M 361.45 123.70 C 363.65 123.76 365.86 123.77 368.08 123.77 C 367.97 123.07 367.76 121.67 367.65 120.96 C 366.44 120.74 365.24 120.56 364.03 120.44 C 362.94 121.33 362.25 122.57 361.45 123.70 Z" />
<path fill="#cc6666" opacity="1.00" d=" M 381.50 120.23 C 383.32 119.92 385.16 119.62 387.00 119.31 C 386.99 123.22 386.99 127.13 387.04 131.04 C 387.93 131.58 388.83 132.13 389.73 132.68 C 387.03 132.68 384.33 132.71 381.63 132.83 C 386.16 130.92 384.24 125.55 384.47 121.71 C 383.47 121.22 382.48 120.73 381.50 120.23 Z" />
<path fill="#cc6666" opacity="1.00" d=" M 392.33 130.64 C 389.18 126.67 391.58 119.57 396.96 119.35 C 398.82 119.12 402.66 119.43 402.22 122.08 C 400.02 123.16 398.49 119.54 396.10 120.53 C 393.04 122.63 393.21 127.31 394.76 130.28 C 396.81 133.28 400.38 130.97 402.86 129.99 C 400.60 133.49 394.84 134.23 392.33 130.64 Z" />
<path fill="#cc6666" opacity="1.00" d=" M 405.09 122.81 C 404.25 118.77 410.48 118.69 413.02 119.92 C 415.95 122.80 413.27 127.77 415.04 131.14 C 415.68 131.34 416.94 131.72 417.57 131.92 C 415.48 132.88 413.30 133.51 411.75 131.24 C 409.65 132.87 405.60 134.20 404.41 130.86 C 403.94 126.62 409.41 125.87 412.23 124.32 C 412.16 122.02 411.10 120.15 408.65 119.93 C 407.59 121.05 407.13 123.78 405.09 122.81 M 406.67 129.12 C 406.47 130.81 408.54 132.54 409.96 131.25 C 412.35 130.23 411.73 127.22 412.16 125.18 C 410.16 126.20 407.89 127.11 406.67 129.12 Z" />
<path fill="#cc6666" opacity="1.00" d=" M 200.17 145.46 C 244.43 144.78 288.70 145.02 332.96 145.08 C 346.60 145.21 360.26 145.02 373.89 145.51 C 336.93 146.23 299.95 145.90 262.98 146.00 C 242.04 145.76 221.09 146.16 200.17 145.46 Z" />
<path fill="#cc6666" opacity="1.00" d=" M 40.21 207.12 C 50.26 218.07 53.78 233.45 53.68 247.96 C 53.54 267.39 47.74 286.16 41.50 304.38 C 38.22 314.55 34.30 325.21 36.25 336.05 C 37.40 342.96 41.72 348.68 46.07 353.95 C 52.66 362.71 61.22 370.19 71.46 374.34 C 78.81 377.15 86.85 375.44 94.12 373.27 C 106.34 369.42 118.14 364.35 130.39 360.62 C 146.74 355.47 163.82 352.51 180.98 352.34 C 195.77 352.13 210.47 354.12 225.10 356.06 C 239.29 358.09 253.50 360.51 267.21 364.80 C 272.80 366.60 278.40 368.71 283.11 372.32 C 252.24 360.50 218.91 356.27 186.00 356.57 C 165.32 356.66 144.95 360.87 125.05 366.17 C 108.15 370.36 91.47 375.87 74.08 377.63 C 63.66 378.52 52.15 378.00 43.39 371.62 C 35.08 365.17 33.03 353.91 32.99 343.98 C 33.09 323.67 38.79 303.98 43.55 284.40 C 47.14 269.48 51.81 254.43 50.74 238.90 C 50.23 227.58 46.56 216.50 40.21 207.12 Z" />
<path fill="#cc6666" opacity="1.00" d=" M 520.33 245.96 C 520.55 232.11 524.19 217.60 533.75 207.17 C 528.18 215.54 524.53 225.15 523.57 235.19 C 522.36 245.86 523.72 256.65 526.23 267.05 C 531.35 289.94 538.74 312.47 540.73 335.95 C 541.42 346.46 541.29 358.04 535.03 367.03 C 529.68 374.64 519.95 377.27 511.12 377.86 C 495.37 378.63 480.00 374.26 464.89 370.37 C 440.68 363.90 416.20 357.08 390.96 356.63 C 357.08 355.99 322.70 360.16 290.91 372.31 C 297.17 367.57 304.83 365.33 312.26 363.18 C 330.20 358.36 348.67 355.89 367.10 353.80 C 388.39 351.18 410.17 351.97 431.03 357.14 C 447.23 360.90 462.54 367.50 478.26 372.78 C 485.99 375.18 494.55 377.33 502.44 374.38 C 511.32 370.74 519.14 364.69 525.22 357.28 C 530.18 351.09 535.95 344.94 537.57 336.90 C 539.90 325.82 535.87 314.83 532.51 304.43 C 526.07 285.58 520.05 266.09 520.33 245.96 Z" />
<path fill="#cc6666" opacity="1.00" d=" M 98.02 298.89 C 188.66 297.85 279.31 297.96 369.95 298.13 C 402.30 298.30 434.64 298.38 466.98 298.81 C 475.68 298.98 484.41 298.81 493.09 299.54 C 468.10 300.52 443.09 300.36 418.09 300.63 C 330.39 301.12 242.70 301.11 155.01 300.64 C 129.64 300.39 104.26 300.48 78.91 299.59 C 85.26 298.94 91.65 299.04 98.02 298.89 Z" />
<path fill="#cc6666" opacity="1.00" d=" M 219.31 307.99 C 241.85 306.72 264.47 307.23 287.04 307.00 C 309.25 307.24 331.50 306.72 353.69 308.00 C 330.16 309.33 306.55 308.78 282.98 309.00 C 261.76 308.74 240.50 309.28 219.31 307.99 Z" />
</g>
<g id="#f6f3d4ff">
</g>
<g id="#d27e78ff">
<path fill="#d27e78" opacity="1.00" d=" M 211.96 112.96 C 212.69 112.99 214.14 113.06 214.87 113.09 C 216.52 116.60 210.19 116.59 211.96 112.96 Z" />
<path fill="#d27e78" opacity="1.00" d=" M 384.10 113.13 C 385.60 112.34 388.39 112.83 386.93 115.04 C 386.05 117.04 382.86 115.00 384.10 113.13 Z" />
</g>
<g id="#ce6e6cff">
<path fill="#ce6e6c" opacity="1.00" d=" M 348.85 120.48 C 350.26 119.14 351.66 117.80 353.03 116.41 C 353.02 117.25 353.01 118.92 353.00 119.75 C 353.81 119.77 355.44 119.79 356.25 119.81 L 356.22 120.99 C 355.41 121.00 353.81 121.01 353.00 121.02 C 352.97 124.63 352.98 128.25 353.25 131.86 C 354.73 131.59 356.21 131.33 357.71 131.09 C 355.96 132.85 352.94 134.01 350.99 131.88 C 350.09 129.03 350.73 125.97 350.53 123.04 C 350.63 121.81 350.07 120.96 348.85 120.48 Z" />
</g>
<g id="#f4efd0ff">
</g>
<g id="#dc5e5eff">
<path fill="#dc5e5e" opacity="1.00" d=" M 231.32 172.36 C 233.81 168.58 236.56 164.42 240.98 162.76 C 244.70 161.86 248.55 163.38 251.58 165.50 C 253.69 166.98 255.66 169.31 255.26 172.07 C 254.52 177.75 251.58 182.84 248.71 187.70 C 239.97 201.95 229.12 214.72 218.50 227.57 C 217.27 229.04 216.16 230.67 215.71 232.56 C 213.57 241.49 212.63 250.75 213.48 259.91 C 213.85 261.64 214.72 264.23 216.97 263.81 C 218.44 263.78 219.90 263.56 221.37 263.40 C 221.10 264.17 220.55 265.72 220.27 266.49 C 216.33 267.30 211.24 268.42 208.50 264.54 C 204.61 258.62 205.64 251.00 206.33 244.32 C 208.92 229.11 213.45 214.30 218.49 199.73 C 222.16 190.35 226.04 180.97 231.32 172.36 M 241.55 174.54 C 237.49 180.01 234.26 186.04 231.13 192.07 C 225.73 202.59 220.92 213.46 217.46 224.78 C 219.39 222.23 221.81 219.95 223.19 217.05 C 232.98 204.12 242.61 190.85 249.44 176.08 C 250.31 173.52 250.66 170.84 250.59 168.14 C 246.54 168.29 243.81 171.57 241.55 174.54 Z" />
<path fill="#dc5e5e" opacity="1.00" d=" M 70.72 182.86 C 88.78 176.32 107.78 172.06 127.03 171.58 C 136.62 171.43 146.44 171.61 155.64 174.67 C 160.50 176.27 165.17 179.27 167.48 183.99 C 169.62 190.85 167.22 198.25 162.19 203.19 C 151.83 213.65 137.84 220.00 123.61 223.20 C 127.30 223.71 130.97 224.35 134.57 225.31 C 141.93 227.35 149.42 231.45 152.84 238.62 C 154.25 243.31 154.89 248.46 153.21 253.16 C 151.13 259.18 146.08 263.62 140.72 266.75 C 128.43 273.74 112.81 273.73 100.10 267.83 C 97.49 266.82 96.22 264.26 95.18 261.85 C 104.24 266.62 114.98 265.50 124.46 262.68 C 132.74 259.94 140.75 255.20 145.88 248.01 C 148.03 244.57 147.72 239.98 145.09 236.90 C 141.24 232.29 135.46 229.88 129.89 228.07 C 121.62 225.49 112.85 226.77 104.58 228.60 C 104.56 226.93 103.75 224.68 105.54 223.61 C 108.94 221.59 113.17 221.95 116.86 220.67 C 129.75 216.79 143.06 211.57 152.22 201.29 C 155.85 197.15 158.11 191.56 157.35 186.01 C 156.75 182.73 154.05 180.33 151.24 178.83 C 146.24 176.24 140.48 175.72 134.94 175.52 C 126.62 175.39 118.22 176.03 110.20 178.35 C 96.53 182.31 83.11 187.08 69.59 191.55 C 67.84 191.94 65.91 192.87 64.14 192.11 C 63.04 190.52 62.93 188.51 62.50 186.69 C 64.84 184.69 67.90 183.94 70.72 182.86 Z" />
<path fill="#dc5e5e" opacity="1.00" d=" M 108.39 182.97 C 109.44 182.99 110.48 183.00 111.53 183.06 C 114.06 183.29 116.20 184.72 118.27 186.06 C 107.17 202.63 96.19 219.39 87.71 237.50 C 82.85 248.12 78.45 259.30 77.74 271.08 C 77.34 275.69 79.51 279.90 80.86 284.18 C 74.74 282.77 72.88 276.13 72.27 270.70 C 71.20 258.72 75.28 247.13 79.23 236.02 C 84.49 222.93 91.18 210.46 98.29 198.29 C 100.82 193.99 102.93 189.38 106.17 185.53 C 106.89 184.66 107.64 183.81 108.39 182.97 Z" />
<path fill="#dc5e5e" opacity="1.00" d=" M 362.71 198.97 C 368.89 194.36 373.95 188.54 379.10 182.86 C 378.58 189.66 377.36 197.27 371.48 201.61 C 368.28 201.77 365.24 200.96 362.71 198.97 Z" />
<path fill="#dc5e5e" opacity="1.00" d=" M 266.97 202.01 C 273.60 197.20 279.74 191.46 287.32 188.14 C 287.68 190.00 288.73 191.99 287.81 193.85 C 286.74 196.04 284.53 197.33 282.57 198.63 C 276.05 202.54 269.47 206.36 262.85 210.08 C 261.15 211.12 259.17 211.47 257.22 211.64 C 259.06 207.25 263.57 205.03 266.97 202.01 Z" />
<path fill="#dc5e5e" opacity="1.00" d=" M 381.02 206.08 C 386.53 204.84 393.58 205.85 396.36 211.42 C 397.50 218.38 395.28 225.21 393.06 231.72 C 395.80 226.85 398.87 222.17 402.21 217.71 C 405.57 213.03 410.82 208.74 416.95 209.53 C 420.00 209.64 422.43 211.93 423.63 214.59 C 425.90 226.66 421.16 238.46 417.87 249.87 C 420.41 247.22 422.96 244.57 425.43 241.85 C 430.78 236.05 436.07 230.19 441.50 224.46 C 444.56 220.96 449.80 221.36 453.89 222.41 C 451.28 232.88 446.52 243.02 446.50 253.99 C 446.36 256.74 447.20 259.43 448.99 261.53 C 449.52 260.41 450.58 258.18 451.11 257.07 L 451.17 259.05 C 451.43 262.02 450.98 265.13 448.26 266.86 C 444.83 265.52 441.08 263.69 440.11 259.78 C 437.05 249.69 439.65 239.07 440.92 228.89 C 431.51 239.38 424.93 252.08 415.51 262.54 C 413.23 265.57 409.50 263.72 406.78 262.42 C 409.93 248.54 414.59 234.88 415.58 220.59 C 415.27 219.07 414.88 217.56 414.50 216.06 C 410.92 216.75 407.58 218.44 405.27 221.32 C 393.83 234.30 387.96 250.87 380.48 266.20 C 378.47 265.54 376.46 264.89 374.45 264.26 C 374.80 260.12 375.80 256.07 377.04 252.11 C 380.46 240.43 384.78 228.92 386.36 216.79 C 386.52 214.50 386.95 212.08 386.17 209.86 C 384.54 208.49 382.73 207.35 381.02 206.08 Z" />
<path fill="#dc5e5e" opacity="1.00" d=" M 276.32 220.96 C 282.14 214.11 289.86 207.95 299.02 206.74 C 301.32 206.14 303.05 207.99 304.65 209.32 C 306.81 211.34 309.18 213.43 309.90 216.44 C 303.26 215.14 296.26 215.98 290.40 219.49 C 285.31 222.45 279.76 226.21 278.04 232.17 C 277.14 234.53 279.22 236.46 280.44 238.24 C 285.31 244.12 291.03 249.50 294.59 256.34 C 296.27 259.18 294.72 262.50 292.51 264.52 C 288.05 269.28 281.32 271.24 274.93 270.39 C 271.68 269.35 268.47 267.94 266.32 265.15 C 273.10 263.43 280.17 262.02 286.10 258.10 C 287.13 256.67 288.85 254.58 287.19 252.97 C 282.95 248.12 277.32 244.18 275.08 237.86 C 272.67 232.41 273.09 225.98 276.32 220.96 Z" />
<path fill="#dc5e5e" opacity="1.00" d=" M 311.82 225.61 C 316.24 216.44 325.29 209.62 335.04 207.03 C 339.35 205.32 342.53 209.11 345.22 211.85 C 346.54 213.09 347.38 214.71 347.91 216.44 C 341.25 215.14 334.25 215.99 328.39 219.50 C 323.30 222.46 317.77 226.21 316.04 232.16 C 315.14 234.52 317.21 236.44 318.43 238.22 C 323.30 244.11 329.01 249.48 332.58 256.32 C 334.74 260.03 331.68 263.82 328.85 266.05 C 322.06 271.90 310.26 272.51 304.32 265.15 C 311.10 263.42 318.18 262.01 324.12 258.09 C 325.15 256.66 326.86 254.56 325.17 252.95 C 321.32 248.42 316.12 244.89 313.70 239.26 C 311.56 235.06 311.21 230.22 311.82 225.61 Z" />
<path fill="#dc5e5e" opacity="1.00" d=" M 174.14 219.16 C 178.29 214.52 183.53 210.01 190.01 209.51 C 194.77 209.05 199.71 211.65 201.84 215.96 C 202.68 219.93 202.02 224.22 199.44 227.43 C 193.63 234.86 184.65 240.32 175.00 240.14 C 175.17 239.68 175.52 238.78 175.70 238.33 C 184.44 235.61 193.64 230.57 196.45 221.19 C 196.76 218.78 196.74 216.34 196.71 213.91 C 188.47 216.46 182.55 223.32 177.37 229.86 C 172.59 236.29 168.24 243.30 166.28 251.15 C 165.30 255.35 164.98 261.20 169.61 263.35 C 178.51 263.70 185.49 257.21 191.24 251.24 C 196.36 246.34 200.66 240.56 206.40 236.36 C 206.04 239.20 204.62 241.72 202.85 243.93 C 196.72 252.00 190.35 260.41 181.43 265.57 C 174.78 269.13 164.71 268.57 160.19 261.90 C 156.08 254.67 158.67 245.98 161.47 238.76 C 164.78 231.71 169.09 225.10 174.14 219.16 Z" />
<path fill="#dc5e5e" opacity="1.00" d=" M 479.94 215.93 C 483.94 212.60 488.62 209.38 494.04 209.47 C 499.74 209.37 506.21 210.32 510.23 214.77 C 512.06 216.70 511.72 219.46 511.39 221.86 C 508.18 219.35 506.35 214.64 501.90 214.12 C 495.29 213.44 489.58 217.76 484.95 221.95 C 478.10 228.56 472.34 236.26 467.46 244.41 C 464.55 249.45 461.97 255.23 463.44 261.17 C 466.23 260.79 468.95 259.85 471.04 257.89 C 482.62 248.00 490.71 234.90 500.18 223.18 C 503.14 223.36 505.44 225.52 507.87 226.98 C 505.69 233.42 501.95 239.27 500.53 245.98 C 499.25 251.41 498.41 257.37 500.26 262.75 C 501.13 265.54 504.49 265.09 506.74 265.67 L 505.71 266.00 C 501.88 267.45 496.92 267.18 494.45 263.48 C 489.06 255.98 491.53 246.04 492.93 237.65 C 487.30 245.71 482.24 254.28 475.32 261.33 C 472.44 264.06 469.12 266.90 465.01 267.30 C 459.30 267.11 455.22 261.42 455.14 256.02 C 454.95 249.39 458.79 243.63 461.63 237.92 C 466.54 229.70 472.64 222.13 479.94 215.93 Z" />
<path fill="#dc5e5e" opacity="1.00" d=" M 357.00 214.38 C 359.01 209.35 365.68 210.51 369.37 212.89 C 364.10 223.50 359.43 234.42 356.07 245.79 C 354.45 251.47 352.34 257.43 353.63 263.39 C 353.87 265.16 356.06 264.98 357.26 264.35 C 359.97 262.83 362.23 260.65 364.77 258.87 L 364.69 260.99 C 361.52 264.36 357.46 266.95 353.00 268.24 C 350.22 269.15 347.05 267.57 345.95 264.90 C 344.44 261.46 344.73 257.59 344.98 253.94 C 346.30 240.07 352.06 227.24 357.00 214.38 Z" />
<path fill="#dc5e5e" opacity="1.00" d=" M 250.75 223.80 C 253.46 221.75 256.57 223.93 258.73 225.68 C 252.69 234.24 245.62 242.07 240.19 251.05 C 237.90 254.75 235.42 260.24 239.30 263.79 C 241.83 263.70 244.15 262.59 246.28 261.31 C 254.91 256.08 262.97 249.93 270.44 243.14 C 270.24 243.73 269.85 244.89 269.65 245.47 C 265.17 252.04 258.35 256.45 252.03 261.05 C 247.80 263.71 243.29 267.24 237.99 266.57 C 234.62 266.27 232.28 263.21 231.97 260.01 C 231.01 253.12 234.84 246.92 237.62 240.93 C 241.29 234.78 244.75 228.01 250.75 223.80 Z" />
</g>
<g id="#bfbdaaff">
</g>
<g id="#efecceff">
</g>
<g id="#cccab4ff">
</g>
<g id="#d2d0b8ff">
</g>
<g id="#d8d6bdff">
</g>
<g id="#d5d3bbff">
</g>
<g id="#d6d3bbff">
</g>
<g id="#c3c1adff">
</g>
<g id="#d4d2baff">
</g>
<g id="#dad8bfff">
</g>
<g id="#d1cfb8ff">
</g>
<g id="#ceccb5ff">
</g>
<g id="#c1c0acff">
</g>
<g id="#f2efd1ff">
</g>
<g id="#c7c5b0ff">
</g>
</svg>
