<?xml version="1.0" encoding="utf-8"?>
<!-- Generator: Adobe Illustrator 19.0.0, SVG Export Plug-In . SVG Version: 6.00 Build 0)  -->
<svg version="1.1" id="Layer_1" xmlns="http://www.w3.org/2000/svg" xmlns:xlink="http://www.w3.org/1999/xlink" x="0px" y="0px"
	 viewBox="-451 176 56 210" style="enable-background:new -451 176 56 210;" xml:space="preserve">
<style type="text/css">
	.st0{fill:#F6F3D4;}
	.st1{fill:#A2CBAE;}
</style>
<g id="Layer_2">
	<rect x="-451" y="176" class="st0" width="56" height="135.4"/>
</g>
<g>
	<g>
		<path class="st1" d="M-451,301.7c1.7-2.3,4.7-3.7,7.6-3.1c1.8,0.2,3.2,1.4,4.7,2.3c0.7,0.5,1.4-0.3,2-0.7c1.2-1.1,2.8-1.7,4.3-2.3
			c3.1-0.1,6.2,0.9,8.3,3.2c0.7,0,1.5,0,2.2,0c1.2-1.1,2.6-2.1,4.1-2.6c0.6-0.1,1.1-0.3,1.7-0.4c1.4-0.1,2.7,0.1,4,0.4
			c1.3,0.6,2.5,1.4,3.5,2.4c0.8,0,1.6,0.1,2.2-0.5c1.5-1.1,3.2-1.8,5-1.9c2.4-0.1,4.9,1,6.3,3v11.6c-0.3,0-0.7,0.1-1,0.1
			c0,0.4-0.1,0.7-0.1,1.1c0.3,0,0.8,0,1.1,0v1.1c-0.3,0-0.8,0.1-1,0.1c0,0.6,0.1,1.2,0.1,1.8c0.2,0.1,0.7,0.3,0.9,0.4v1
			c-0.2,0-0.7,0-0.9,0c0,0.2,0,0.5,0,0.7c0.3,0.2,0.6,0.5,0.9,0.7v0.7c-0.2,0-0.5,0-0.7-0.1c0,1,0,1.9,0,2.9
			c0.2,0.1,0.5,0.4,0.7,0.5v11.3c-1.2,0.4-2.4,1-3.4,1.8c0.7,1.1,1.6,2.1,2.1,3.3c0.5,1.1,0.8,2.3,1.3,3.4v0.8
			c-1.7,0.3-3.9,1.6-3.3,3.6c0.4,1.5,1.9,2.2,3.3,2.4v12.5c-1.2-0.1-2.4-0.3-3.5-0.4c-1.7,0.5-3.2,1.4-4.5,2.6c0,0.3-0.1,1-0.1,1.3
			c1.1,1.2,2.1,2.4,3,3.8c1.7,0,3.4,0,5.2-0.1v12.4c-1.5,1.1-3,2.4-4.9,2.9c-2.5,0.7-5.5,0.5-7.6-1.3c-0.8-0.5-1.6-1.6-2.6-1.2
			c-1.4,0.9-2.7,1.8-4.3,2.3c-1.2,0.1-2.4,0.1-3.6,0c-1.6-0.5-3.1-1.5-4.2-2.8c-0.4,0-0.9,0-1.3,0c-1,1.3-2.5,2.2-4,2.8
			c-2.9,0.4-5.8-0.3-8-2.3c-0.3,0-0.9,0-1.3,0c-1.2,1.2-2.7,2.1-4.2,2.7c-3.3,0.5-6.7-0.3-9.1-2.8c-0.2,0-0.7-0.1-0.9-0.1v-12.6
			c1.8,0,3.6,0.3,5.3,0c1.1-1.2,2.2-2.5,3.1-3.9c0.2-1.5-1.5-2.3-2.6-2.9c-1.8-1.1-3.9-0.7-5.9-0.4V351c1.5-0.5,3.5-1.1,3.5-3
			c0.3-2-1.9-3-3.5-3.2v-0.9c0.2-0.1,0.6-0.4,0.8-0.6c0.4-1.7,1-3.3,1.9-4.8h0.1c0.2-0.2,0.4-0.5,0.7-0.7c0-0.2,0.1-0.5,0.1-0.7
			c-1.1-0.7-2.2-1.3-3.5-1.6v-11.3c1.1-0.7,0.9-1.9,1-3c-0.3-0.1-0.8-0.3-1-0.4V320c0.3,0,0.8-0.1,1.1-0.2c0-0.3,0-0.7,0.1-1
			c-0.3-0.1-0.9-0.3-1.1-0.4v-0.7c1.3-0.1,1.1-1.3,1.3-2.2c-0.3,0-0.9-0.1-1.3-0.1v-1.1c0.5,0,0.9,0,1.4,0c0-0.4,0-0.7,0-1.1
			c-0.4,0-0.9,0-1.3,0v-11.5H-451z M-447.4,300.5c-0.9,0.8-1.9,1.6-2.2,2.9c-0.1,1.3-0.1,2.6,0,3.9l-0.5,0.1c2,0.5,4.2,0.3,6.2,0.3
			c1.9-0.1,3.7,0.1,5.6,0.2c0.1-1.3,0.6-2.9-0.5-4c-0.9-1.9-2.7-3.3-4.7-3.8C-444.8,299.9-446.1,300.1-447.4,300.5z M-434,300.8
			c-0.9,0.5-1.7,1.1-2.6,1.8c-0.1,1.7,0,3.3,0.1,5c2.5,0.1,4.9-0.1,7.4,0.1c1.8,0.3,3.6,0.2,5.3,0.2c-0.1-0.8-0.1-1.7-0.2-2.5
			c-0.6-1.2-1.2-2.5-2.2-3.4c-1-0.9-2.2-1.4-3.4-1.9C-431.1,299.8-432.6,300.3-434,300.8z M-418.1,300.8c-1.6,1-2.8,2.5-3.6,4.1
			c-0.2,1-0.2,2-0.2,3c1.5,0,3,0,4.5,0v-0.3c2.6,0,5.3,0,7.9,0c0.1-0.5,0.2-1,0.3-1.5c0.1-1.1,0.1-2.2,0.1-3.3
			c-1.2-1.4-2.9-2.2-4.6-2.8C-415.2,299.8-416.7,300.3-418.1,300.8z M-403.7,300.6c-1.7,0.8-2.8,2.4-3.7,4c-0.1,1-0.1,2,0,3
			c3.6,0,7.1-0.2,10.7-0.1v-0.4c0.2,0,0.5,0.1,0.7,0.2c0-1.3,0-2.6,0-3.9c-0.7-1.5-1.8-2.6-3.3-3.3c-0.9-0.1-1.8-0.1-2.8-0.1
			C-402.7,300.2-403.2,300.4-403.7,300.6z M-435.7,309c0.1,0.6,0.3,0.7,0.8,0.3C-435,308.7-435.2,308.6-435.7,309z M-433.4,309
			c-0.4,0.8,1.2,1,1.3,0.3C-432.2,308.7-433,308.7-433.4,309z M-413.5,309c-0.5,0.8,1.3,1,1.4,0.2
			C-412.3,308.6-413.2,308.6-413.5,309z M-411,309c-0.2,0.6,0.8,0.7,1,0.3C-409.8,308.7-410.8,308.5-411,309z M-443.8,310.6
			c-0.2,0.6,0,0.9,0.7,0.7C-442.9,310.6-443.1,310.4-443.8,310.6z M-441.8,310.7c-0.2,0.6,0,0.8,0.6,0.6
			C-441.1,310.7-441.3,310.5-441.8,310.7z M-404.5,310.7c-0.2,0.7,0,0.9,0.7,0.7C-403.7,310.7-403.9,310.4-404.5,310.7z
			 M-402.4,310.5c-0.5,0.3-0.5,0.5,0,0.8C-401.9,311.1-401.9,310.8-402.4,310.5z M-448.8,313.1c0,0.4,0.1,0.8,0.1,1.2
			c0.6,0,1.3,0,1.9,0c0-0.4,0-0.8,0-1.1C-447.5,313.1-448.2,313.1-448.8,313.1z M-446.2,313.2c0,0.4,0.1,0.8,0.1,1.2
			c0.5,0,1,0,1.6,0c0-0.4,0-0.8-0.1-1.2C-445.1,313.2-445.7,313.2-446.2,313.2z M-443.8,313.1c0.1,0.4,0.2,0.9,0.4,1.3
			c0.4,0.1,1.1,0.2,1.4,0.3c0-0.5,0.4-1.1,0-1.5C-442.6,313.2-443.2,313.2-443.8,313.1z M-429.4,313.5c-0.6,1.2-1.9,2.1-2,3.5
			c1.7,0.9,3.3,2.1,5.1,3c1.1-0.2,2-0.7,3.1-0.7c1.3-0.2,2.4,0.5,3.6,0.7c0.7-0.2,1.3-0.7,2-1.1c1.1-0.8,2.4-1.3,3.5-2.2
			c-0.8-1-1.6-2.1-2.3-3.2c-2.2,0.1-4.3,0.2-6.4-0.3C-425,313.7-427.2,313.6-429.4,313.5z M-404,313.2c0,0.5,0.1,0.9,0.1,1.4
			c0.5-0.1,1.1-0.1,1.6-0.2c0-0.3,0.1-0.9,0.1-1.2C-402.8,313.2-403.4,313.2-404,313.2z M-401.2,313.2c0,0.4,0,0.8,0,1.2
			c0.5,0,1,0,1.5,0c0.1-0.4,0.1-0.8,0.2-1.2C-400.1,313.2-400.7,313.2-401.2,313.2z M-398.9,313.2c0,0.4,0,0.8,0,1.1
			c0.6,0,1.2,0,1.7,0c0-0.4,0-0.8,0.1-1.2C-397.7,313.1-398.3,313.1-398.9,313.2z M-441,313.4c0,0.4,0.1,0.9,0.1,1.3
			c0.7-0.1,1.8,0.4,1.8-0.7c0.4-0.8,0.7,0.6,0.9,0.7c0.7,0,1.4,0,2.2,0c0-0.4,0-0.9,0-1.3C-437.7,313.4-439.3,313.3-441,313.4z
			 M-435.2,313.3c0,0.4,0.1,1.2,0.1,1.5c0.6-0.4,1.1-0.9,1.6-1.5C-433.9,313.3-434.7,313.3-435.2,313.3z M-412.2,313.5
			c0.5,0.4,0.9,0.9,1.4,1.3c0-0.5,0.1-0.9,0.1-1.4C-411.2,313.5-411.7,313.5-412.2,313.5z M-409.9,313.5c0,0.4,0,0.9,0,1.3
			c0.8,0,1.6,0,2.4,0c0-0.5,0-0.9,0-1.4C-408.2,313.5-409.1,313.5-409.9,313.5z M-406.7,313.4c0,0.4,0.1,0.9,0.1,1.3
			c0.6,0,1.2-0.1,1.8-0.1c0-0.4,0-0.8,0.1-1.2C-405.4,313.4-406.1,313.4-406.7,313.4z M-448.5,315.5c0,0.7,0,1.4,0.1,2.1
			c0.5,0,1,0,1.5,0.1c0-0.7,0-1.4,0-2C-447.4,315.5-448,315.5-448.5,315.5z M-446,315.6c0,0.8,0,1.5,0,2.3c0.4,0,0.8,0.1,1.2,0.1
			c0-0.8,0.1-1.6,0.1-2.4C-445.2,315.6-445.6,315.6-446,315.6z M-443.6,315.6c-0.1,0.9-0.1,1.7-0.1,2.6c0.4,0,0.9,0.1,1.3,0.1
			c0-0.9,0-1.8,0-2.7C-442.8,315.6-443.2,315.6-443.6,315.6z M-438.5,315.6c0,0.6,0,1.2,0,1.8c0.9-0.6,1.7-1.2,2.5-1.9
			C-436.8,315.5-437.6,315.6-438.5,315.6z M-409.9,315.5c0.8,0.6,1.6,1.3,2.4,2c0-0.6,0-1.3,0-1.9
			C-408.2,315.6-409.1,315.5-409.9,315.5z M-403.5,315.6c0,0.9,0,1.8,0,2.7c0.5,0,1-0.1,1.5-0.1c0-0.9-0.1-1.8-0.3-2.6
			C-402.7,315.6-403.1,315.6-403.5,315.6z M-401.1,315.6c0,0.8,0,1.6,0.1,2.3c0.4,0,0.8,0,1.2,0c0-0.8,0-1.6,0-2.4
			C-400.3,315.6-400.7,315.6-401.1,315.6z M-398.8,315.5c0,0.7,0,1.4,0,2.1c0.5,0,1,0,1.6-0.1c0-0.7,0-1.4,0-2.1
			C-397.7,315.5-398.3,315.5-398.8,315.5z M-441.1,318.1c0.4,0.1,1.1,0.2,1.4,0.2c0.2-0.9,0.3-1.8,0.4-2.7c-0.4,0-1.3-0.1-1.7-0.1
			C-441.1,316.4-441.3,317.2-441.1,318.1z M-406.4,315.5c0.1,0.9,0.1,1.8,0.2,2.6c0.4,0,1.2,0.1,1.6,0.1c0-0.9,0-1.8,0-2.8
			C-405.1,315.5-406,315.5-406.4,315.5z M-448.5,318.5c0,0.4,0,0.9,0,1.3c0.5,0,1.1,0.1,1.6,0.1c0-0.4,0-0.9,0-1.3
			C-447.5,318.6-448,318.6-448.5,318.5z M-446,318.7c0,0.5,0.1,1,0.1,1.5c0.4,0,0.7,0,1.1,0c0-0.5,0-1,0-1.4
			C-445.2,318.7-445.6,318.7-446,318.7z M-434.4,319.2c-2,1.6-3.8,3.4-6,4.7c0.4,1.1,1.5,1.7,2.5,2.2c2,1,4.2,1.6,6.4,1.5
			c1.5-0.1,3-0.9,3.5-2.3c0.3-1.2,0.3-2.4,0.6-3.6c-1-1.7-2.8-2.7-4.6-3.3C-432.9,318-433.7,318.7-434.4,319.2z M-414.8,318.9
			c-0.2,0.1-0.6,0.3-0.8,0.4c-1.3,0.7-3.3,1.8-2.3,3.6c0.2,1-0.1,2.1,0.6,2.9c0.5,0.8,1.4,1.1,2.1,1.5c1.7,0.3,3.4-0.1,5.1-0.5
			c0.4-0.1,0.8-0.3,1.2-0.4c0.2-0.1,0.6-0.3,0.8-0.4c0.7-0.4,1.4-0.8,2.2-1.2c0-0.4,0.1-0.7,0.1-1.1c-2.6-1.4-4.4-4.1-7.2-5.2
			l-0.1-0.3C-413.7,318.4-414.3,318.7-414.8,318.9z M-401,318.8c0,0.3,0,1,0,1.4c0.4,0,0.7,0,1.1,0c0.1-0.5,0.1-1,0.2-1.5
			C-400.2,318.7-400.6,318.8-401,318.8z M-398.8,318.6c0,0.4,0,0.9-0.1,1.3c0.5,0,1.1-0.1,1.6-0.1c0-0.4,0-0.8,0-1.3
			C-397.7,318.6-398.2,318.6-398.8,318.6z M-443.7,318.9c0.1,0.4,0.1,0.8,0.2,1.3c0.3,0,0.9,0,1.2,0c0-0.3,0-1,0-1.3
			C-442.8,318.9-443.2,318.9-443.7,318.9z M-441,318.9c-0.2,0.5,0,0.7,0.5,0.6C-440.3,318.9-440.4,318.7-441,318.9z M-405.5,318.9
			c-0.3,0.5,0.6,0.9,0.9,0.5C-404.3,318.9-405.2,318.5-405.5,318.9z M-402.4,320.4c0.1-0.5,0.2-1,0.3-1.4c-0.4,0-1.1-0.1-1.5-0.1
			C-403.6,319.6-403.4,320.3-402.4,320.4z M-424.7,320.4c-0.6,0.1-0.4,1.1,0.2,0.8C-423.8,321.1-424.1,320.1-424.7,320.4z
			 M-421.8,320.5c-0.3,0.7,1.2,1.2,1.3,0.4C-420.7,320.4-421.4,320.1-421.8,320.5z M-445.9,321.1c0,0.6,0,1.1-0.1,1.7
			c0.4-0.2,0.9-0.5,1.3-0.7c0-0.2-0.1-0.7-0.1-1C-445.1,321.1-445.5,321.1-445.9,321.1z M-401.3,321.2c0.1,0.8,0.7,1.3,1.3,1.7
			c0-0.6,0-1.2,0.1-1.8C-400.4,321.1-400.8,321.1-401.3,321.2z M-448.8,323.5c0.4,0,1.2-0.1,1.6-0.1c0.1-0.8,0.2-1.5,0.3-2.3
			c-0.4,0-1.2-0.1-1.6-0.2C-448.6,321.8-448.7,322.6-448.8,323.5z M-398.7,321c0,0.7,0,1.4,0,2.1c0.5,0.1,1.1,0.3,1.6,0.4
			c0-0.9,0-1.8,0-2.6C-397.6,321-398.4,321-398.7,321z M-426.6,323.6c0.1,0.2,0.4,0.5,0.5,0.7c0.6-0.4,1.4-0.6,1.9-1.2
			c0.1-0.5,0.1-1,0.2-1.5C-425.1,322-426.3,322.4-426.6,323.6z M-421.8,321.7c-0.3,1.6,1.2,2.2,2.3,2.7c0-0.5,0.1-1.1,0.1-1.6
			C-420.2,322.3-421,322-421.8,321.7z M-426.1,327.3c0.9,0.3,1.6-0.5,2.3-1c-0.1-0.6-0.1-1.2-0.2-1.8
			C-425.1,324.9-426.6,325.9-426.1,327.3z M-421.8,324.4c0,0.9-0.3,2,0.6,2.7c0.6,0.4,1.4,0.5,2,0c-0.2-0.4-0.4-0.9-0.6-1.4
			C-420.5,325.2-421.1,324.8-421.8,324.4z M-443.3,325.8c-2.2,1.2-4.9,1.7-6.7,3.7c-0.1,1.3-0.1,2.7-0.1,4c1.6,1.1,3.1,3,5.3,2.7
			c1.9-0.2,4.4,0.4,5.6-1.5c1-1.3-0.6-2.8-0.1-4.2c0.2-1.1,1.3-2.9-0.1-3.7C-440.5,326-442,325.2-443.3,325.8z M-407.2,327.4
			c0.1,1,0.4,2,0.7,3c0.5,1.4-1,3-0.1,4.3c0.7,1.3,2.3,1.3,3.5,1.3c1.5,0,3.1,0.4,4.4-0.5c1-0.7,2.1-1.4,2.9-2.3
			c0-1.3,0.2-2.8-0.4-4c-1.5-1.9-4-2.3-6-3.4C-403.8,324.9-405.8,326.3-407.2,327.4z M-429.8,329.1c0.3,0.2,0.8,0.7,1.1,1l-0.1-0.4
			c0.5,0.5,1,1,1.6,1.4h0.1c0.4,0.4,0.7,0.8,1.1,1.2c0.2-0.2,0.7-0.5,0.9-0.7c-0.3-0.5-0.5-0.9-0.8-1.4l-0.1,0.5
			c-0.3-0.8-0.8-1.5-1.2-2.2l-0.4,0.1l0.6-0.5C-428.1,327.6-429,328.3-429.8,329.1z M-425,329.1c0.3,0.5,0.8,1,1.1,1.4
			c0.1-1.1,0.1-2.1,0-3.2C-424.2,327.9-425.1,328.4-425,329.1z M-422.1,327.6c-0.1,1-0.1,1.9,0,2.9c0.5-0.5,1.3-0.9,1.2-1.7
			C-420.9,328.1-421.6,327.8-422.1,327.6z M-420.2,330.9c-1.1,0.4,0.7,2,0.9,0.8c1.1-0.9,2.2-1.7,3.3-2.6c-0.6-0.5-1.3-1-2-1.4
			C-418.8,328.8-419.5,329.9-420.2,330.9z M-438,330.2c0.2,0,0.7,0.1,0.9,0.1c0.5-0.7,1-1.3,1.5-2
			C-436.6,328.7-437.4,329.3-438,330.2z M-435.8,330.9c0.3,0,0.7,0.1,1,0.1c0.6-0.8,1.3-1.4,2-2c-0.2,0-0.7,0-0.9,0
			c0-0.1-0.1-0.3-0.2-0.4C-434.8,329-436.1,329.6-435.8,330.9z M-413,329c0.8,0.6,1.4,1.3,2.1,2.1c0.3-0.2,0.9-0.6,1.2-0.8
			C-410.4,329.2-411.7,328.4-413,329z M-410.2,328.3c0.6,0.9,1.2,1.8,2.1,2.3C-408,329.3-409.2,328.7-410.2,328.3z M-433.4,331.2
			c0.2,0.1,0.5,0.3,0.7,0.4c0.6-0.7,1.2-1.3,1.9-1.9C-431.7,329.8-433.2,330.1-433.4,331.2z M-415,329.6c0.5,0.7,1.1,1.3,1.7,2
			c0.3-0.2,0.8-0.3,0.8-0.8C-413.1,330.1-414.1,329.8-415,329.6z M-431.4,331.3c0,0.4,0.5,0.5,0.8,0.7c0.5-0.5,1-0.9,1.5-1.4
			C-429.9,330.6-430.9,330.6-431.4,331.3z M-416.6,330.6c0.6,0.9,1.4,1.7,2.6,1.1C-414.7,330.9-415.6,330.5-416.6,330.6z
			 M-428.6,331.4c-0.5,0-1.1,0.8-0.4,1.1S-427.5,331.2-428.6,331.4z M-438,331.7c0.2,0.8,0.8,1.4,1.4,1.9c0.1-0.6,0.1-1.2,0.1-1.7
			C-437,331.8-437.5,331.7-438,331.7z M-417.6,331.6c-0.3,0.5,0.6,1.1,1,0.7C-416.3,331.7-417.2,331.2-417.6,331.6z M-409.4,333.2
			c1,0.1,1.6-0.8,1.7-1.7C-408.7,331.6-409.6,332.1-409.4,333.2z M-435.7,332.2c0.2,0.6,0.4,1.2,0.6,1.9c0.4,0.1,0.8,0.2,1.1,0.3
			c-0.1-0.6-0.1-1.2-0.2-1.7C-434.7,332.5-435.2,332.3-435.7,332.2z M-424.4,332.7c-0.6,0.5-1.2,1.1-1.7,1.7
			c-0.4,1.4,0.2,2.8,1.3,3.6c1.7,0.9,4,0.3,4.9-1.4c0.2-1.1,0.3-2.5-0.8-3.2C-421.6,332.3-423.1,332.5-424.4,332.7z M-411.5,332.6
			c-0.1,0.6-0.3,1.1-0.4,1.7c0.4-0.1,0.8-0.1,1.2-0.2c0.2-0.6,0.4-1.3,0.6-2C-410.5,332.3-411.2,332.5-411.5,332.6z M-433.3,332.7
			c0.2,1,0.7,1.7,1.8,1.7C-431.7,333.5-432.3,332.7-433.3,332.7z M-414.2,334.5c0.9-0.1,1.5-0.9,1.8-1.7
			C-413.5,332.7-414.1,333.4-414.2,334.5z M-430.9,333.1c0.5,0.5,1.1,1,1.7,1.4C-429,333.4-430.1,333.2-430.9,333.1z M-428.3,333.4
			c-0.2,0.6,0,0.7,0.6,0.6C-427.5,333.4-427.7,333.2-428.3,333.4z M-418,333.2c-0.1,0.1-0.3,0.4-0.4,0.5
			C-418,335.1-416.4,333-418,333.2z M-417,334.2c0.8,0,1.4-0.5,1.9-1C-415.8,333.4-416.4,333.8-417,334.2z M-411.3,335.5
			c-0.9,0.2-2.5-0.3-2.6,1c-0.3,1.8,1.1,3.2,2.4,4.3c1.7-0.4,3.6-0.7,4.7-2.3c0.8-1,0.1-2.4-0.8-3.1
			C-408.7,334.6-410,335.6-411.3,335.5z M-439.1,336.9l-0.3,0.1c0.2,2,2.2,3,3.9,3.3c0.3,0.1,0.8,0.2,1.1,0.3c0.5-0.5,1.1-1,1.7-1.5
			c0.6-1,0.7-2.2,0.5-3.3c-1.1,0-2.2,0-3.4-0.1C-436.8,335-438.8,335.2-439.1,336.9z M-431.2,335.7c0.1,0.8,0.3,1.5,0.5,2.3
			c0.5-0.2,1-0.5,1.6-0.8c0.4-0.1,0.9-0.3,1.3-0.4l0.2,0.2c0-0.5-0.1-1-0.1-1.5C-428.9,335.6-430,335.6-431.2,335.7z M-418.4,336.7
			c0.5,0.2,1,0.3,1.5,0.4c0.5,0.3,1.1,0.5,1.6,0.7c0.2-0.7,0.4-1.4,0.6-2.1l0,0c-1.1-0.2-2.2-0.4-3.4-0.2
			C-418.1,335.9-418.3,336.3-418.4,336.7z M-442.9,337.2c-0.2,0.6,0,0.7,0.6,0.6C-442.1,337.3-442.3,337.1-442.9,337.2z
			 M-403.6,337.3c-0.5,0.5,0.5,1.1,0.8,0.5C-402.3,337.2-403.3,336.7-403.6,337.3z M-445.3,338.2c-0.1,0.1-0.4,0.2-0.5,0.2
			c0.4,1.1,2.5,1.3,2.7,0C-443.8,338-444.6,337.9-445.3,338.2z M-427.4,338c-0.5,0.6,0.5,1.2,0.9,0.7
			C-426.1,338.1-427,337.4-427.4,338z M-419.1,338c-0.2,0.6,0,0.9,0.7,0.7C-418.3,338-418.5,337.8-419.1,338z M-404.8,338.2
			c-0.4,0.2-0.8,0.7-0.5,1.2C-404.5,339.8-403.7,337.9-404.8,338.2z M-402.7,338.2c0.1,0.3,0.4,0.8,0.5,1.1c0.8-0.1,1.6-0.3,2.3-0.6
			C-400.4,337.6-401.8,338.2-402.7,338.2z M-441.3,338.4c-0.2,0.6,0,0.8,0.6,0.6C-440.6,338.5-440.8,338.3-441.3,338.4z
			 M-428.3,338.5c-0.5,0-0.7,1-0.1,1C-427.9,339.5-427.7,338.5-428.3,338.5z M-417.6,338.5c-0.5,0.4,0.1,1.3,0.6,0.9
			C-416.5,339.1-417.1,338.2-417.6,338.5z M-426,338.9c-0.9,0.2,0.1,1.5,0.7,0.9C-424.9,339.4-425.5,338.8-426,338.9z M-419.9,338.9
			c-0.5-0.1-1.1,0.5-0.7,1C-420,340.4-419,339.1-419.9,338.9z M-442.4,339.4c-0.5,1.1-0.2,2.3,0.2,3.4c1.3-0.7,1.4-2.2,0.6-3.4
			C-441.9,339.4-442.3,339.4-442.4,339.4z M-430.4,339.5c-0.1,0.4-0.2,0.8-0.3,1.2c0.2-0.1,0.6-0.2,0.8-0.2c0-0.4,0-0.9,0.1-1.3
			C-430,339.3-430.3,339.4-430.4,339.5z M-416.1,338.8c-0.1,1,0.2,1.8,1,2.4C-414.9,340.3-415.3,339.4-416.1,338.8z M-404.2,339.4
			c-0.4,0.8-0.6,1.8-0.2,2.6c0.2,0.2,0.6,0.5,0.8,0.7c0.5-1,0.6-2.2,0.4-3.3C-403.5,339.4-403.9,339.4-404.2,339.4z M-447.1,339.7
			c0,0.2-0.1,0.7-0.1,0.9c0.8,0,1.6-0.1,2.4-0.2C-445.6,340.1-446.4,339.9-447.1,339.7z M-400.7,340.5c0.7,0.1,1.4,0.1,2.1,0.1
			c0-0.2,0-0.7,0-0.9C-399.5,339.8-400.2,340-400.7,340.5z M-432.9,342.5c1.4-0.2,1.3-1.6,1.2-2.7
			C-432.3,340.6-432.7,341.5-432.9,342.5z M-426.3,344.9c0,1.1,0.8,2,1.9,2.1c1.8,0.5,4.6,0.2,5-2c-1.5-1.4-2.6-3.2-3.5-5.1
			C-423.8,341.8-424.9,343.5-426.3,344.9z M-413.9,342.2c0.3,0,0.8,0.1,1,0.1c-0.2-0.9-0.6-1.8-1.3-2.4
			C-414.1,340.6-414,341.4-413.9,342.2z M-428.5,341.5c1,0.3,2.1,0.1,3-0.4C-426.4,340.4-427.9,340.1-428.5,341.5z M-420.3,341.2
			c0.9,0.4,1.9,0.6,2.8,0.5C-417.7,340.1-419.4,340.3-420.3,341.2z M-445.1,342.4c0.4,0.5,0.8,1,1.2,1.4c0.2-0.3,0.5-0.8,0.6-1.1
			c-0.2-0.5-0.4-1-0.6-1.5C-444.3,341.7-444.7,342-445.1,342.4z M-439.7,342.1c-0.9,1.5-0.4,3.5-0.7,5.2c1.1,0.3,2.3,0.7,3.3-0.2
			c1.6-1.1,1.3-3.2,1.7-4.9C-436.7,341.7-438.5,341.1-439.7,342.1z M-410.3,342.2c0.2,1.1,0.3,2.1,0.5,3.2c0.3,1.2,1.4,1.8,2.4,2.3
			c0.6-0.2,1.2-0.3,1.8-0.5c-0.1-1.6,0.1-3.3-0.5-4.9C-407.1,341.1-409,341.8-410.3,342.2z M-401.9,341.4c-0.2,0.7-0.4,1.4-0.5,2.1
			c0.4-0.2,1.1,0,1.2-0.6C-400.8,342.3-401.5,341.8-401.9,341.4z M-448.4,342c-0.5,0.9,1.3,1,1.3,0.1
			C-447.1,341.5-448.1,341.7-448.4,342z M-430.1,342.1c0,0.4,0,0.7,0,1.1c0.9,0.4,2,0.6,3,0.6c0.1-0.4,0.2-0.7,0.3-1.1
			C-427.9,342.5-429,342.2-430.1,342.1z M-419.2,342.7c0.4,0.4,0.6,1.1,1.3,1c0.8,0,1.5-0.3,2.2-0.5c0-0.4-0.1-0.8-0.1-1.2
			C-417,342.3-418.1,342.5-419.2,342.7z M-398.5,341.9c-0.4,0.6,0.6,1.2,1,0.7C-397,342-398.1,341.4-398.5,341.9z M-434.7,344.2
			c0.9-0.4,1.4-1.2,1.1-2.2C-434.1,342.6-434.5,343.3-434.7,344.2z M-412,342.4c-0.7,0.3,0,1.8,0.7,1.4
			C-411.1,343.3-411.5,342.4-412,342.4z M-449,343.3c-0.2,0.7,0,0.9,0.7,0.6C-448.1,343.3-448.3,343.1-449,343.3z M-446.1,343.4
			c-0.4,0.4,0.1,1.5,0.7,1.2C-445,344.2-445.5,343.2-446.1,343.4z M-400.7,344.9c1-0.2,1.2-1.1,1.2-1.9
			C-400.1,343.5-400.5,344.2-400.7,344.9z M-397.6,343.3c-0.4,0.5,0.5,1.1,0.9,0.6C-396.3,343.4-397.2,342.8-397.6,343.3z
			 M-432.2,343.9c0.3,0.5,0.6,1.2,1.2,1.4c0.6,0.1,1.3,0,2,0c-0.7-0.6-1.4-1.1-2.2-1.7C-431.5,343.7-432,343.8-432.2,343.9z
			 M-414.6,343.7c-0.5,0.4-1.1,0.7-1.6,1.1c-0.1,0.2-0.2,0.5-0.2,0.7c1.2,0.1,2.7-0.2,2.7-1.7C-413.9,343.7-414.4,343.7-414.6,343.7
			z M-443.2,345.1l0.5,0.1c-0.5,0.1-1,0.4-1.5,0.6c-0.4,0.2-0.8,0.3-1.1,0.5c-0.5,0.1-0.9,0.4-1.1,0.9c0.7,1.4,2.4,0.4,3.5,0.3
			l-0.2-0.4c0.5-0.1,0.9-0.4,1.4-0.7c0.4-0.5,0.7-1.2,0.5-1.9C-441.9,343.9-442.6,344.9-443.2,345.1z M-404.3,344.3
			c0,0.4,0,1.3,0,1.8l0.2,0.1c0.7,0.5,1.3,1.1,2.2,1.2c0.9,0.7,2,0.6,2.8-0.2c-0.2-0.3-0.7-0.8-1-1.1l0.1,0.5
			C-401.4,345.8-402.9,345.1-404.3,344.3z M-434,345.2c0.6,0.5,1.3,0.9,2.1,1.1C-432.5,345.7-433.1,345.1-434,345.2z M-413.9,346.4
			c0.8-0.2,1.6-0.4,2.3-0.7c-0.2-0.2-0.7-0.5-1-0.7C-413.1,345.4-413.5,345.9-413.9,346.4z M-435.4,346.7c-0.3,0.5-0.6,1-0.9,1.5
			c1.9,1.1,2.6,3.6,1.8,5.6c-0.7,1.5,0.8,2.8,2,3.3c1.2,0.4,2.2-0.4,3.3-0.8c1.7-0.8,3.5-1.1,5.3-1.4c-0.4-1.7-0.3-3.5-0.5-5.2
			c-0.2-1.1-1.1-1.8-2-2.2c-1.5-0.9-3.2-0.5-4.8-0.1C-432.6,347.8-434,347.1-435.4,346.7z M-411.3,346.9c-0.5,0.2-1,0.5-1.5,0.7
			c-0.6,0-1.1,0-1.7-0.1c-1.2-0.4-2.4-0.7-3.6-0.6c-0.5,0.2-1,0.4-1.5,0.6c-0.7,0.6-1.7,1-1.8,2c-0.1,1.8-0.3,3.5-0.5,5.3
			c1,0.1,2.1,0.4,3.1,0.5c0.5,0.2,1,0.4,1.5,0.6c1.5,0.8,3.7,1.7,5.1,0.2c1.7-1.3-0.1-3.5,0.5-5.2c0.2-1.2,1.1-2,2-2.8
			c-0.2-0.5-0.4-1-0.6-1.4C-410.7,346.9-411,346.9-411.3,346.9z M-440.9,348.5c0,0.2,0,0.5,0,0.6c0.2,0.4,0.4,0.9,0.6,1.3
			c0.4,0.1,0.8,0.1,1.2,0.2c-0.2-0.5-0.4-1.1-0.6-1.6C-440.1,348.8-440.5,348.6-440.9,348.5z M-406.9,350.5c0.4,0,0.9,0,1.3,0
			c0.2-0.7,0.5-1.4,0.6-2.2C-405.9,348.8-406.5,349.6-406.9,350.5z M-442.6,348.8c-0.3,0.6,0.5,1.5,1.1,1.2
			C-441.2,349.5-442,348.6-442.6,348.8z M-438.8,348.8c0.1,0.2,0.4,0.5,0.5,0.6c0.2,0.6,0.4,1.3,0.7,1.9c0.4,0,0.7,0,1.1,0
			c-0.1-0.6,0.2-1.5-0.5-2C-437.5,349-438.1,348.9-438.8,348.8z M-409.1,349.4c-0.1,0.6-0.5,1.4-0.1,1.9c1.4,0.3,1.3-1.8,2-2.6
			C-407.8,349-408.4,349.2-409.1,349.4z M-404.5,350.3c0.6-0.5,1.1-1,1.6-1.6C-403.7,348.9-404.2,349.6-404.5,350.3z M-448,350.9
			c-0.6,1.7,1.1,3,2.5,3.5c0.3-0.2,0.5-0.4,0.8-0.6c-0.8-1-1.6-2.1-2.6-2.9C-447.5,351-447.8,351-448,350.9z M-401,353.9l-0.4-0.1
			c0.6,0.7,1.3,0.7,2.1,0.4c0.9-0.7,1.5-1.7,1.9-2.7c-0.2-0.2-0.6-0.5-0.8-0.7C-399.3,351.7-400.2,352.8-401,353.9z M-444.1,351.2
			c-0.8,0.4,0,1.3,0.6,0.8C-442.7,351.5-443.6,350.6-444.1,351.2z M-436.5,352.8c1-0.1,1.8-0.7,1.4-1.8
			C-436,350.5-436.1,352.3-436.5,352.8z M-410.5,351.4c-0.4,0.4,0.1,1.4,0.7,1.1C-409.5,352.1-409.9,351.2-410.5,351.4z
			 M-402.4,351.2c-0.4,0.5,0.5,1.1,0.9,0.6S-402,350.8-402.4,351.2z M-449.7,351.9c-0.1,0.1-0.3,0.4-0.3,0.5
			C-449.8,353.6-448.4,351.6-449.7,351.9z M-442.1,352.1c-0.8,0.1-1.1,0.9-1.2,1.6c1.2,0.1,2.1-0.7,3.1-1
			C-440.3,351.6-441.4,352-442.1,352.1z M-405.4,352.2c0.7,0.8,1.6,1.7,2.8,1.6c-0.1-0.4,0-1.1-0.4-1.3
			C-403.7,351.8-404.6,352.1-405.4,352.2z M-396.5,352c-0.2,0.6,0,0.8,0.6,0.6C-395.7,352-395.9,351.8-396.5,352z M-448.9,352.7
			c-0.5,0.7-0.8,1.6-0.8,2.5c0.5-0.4,1.2-0.7,1.3-1.4C-448.5,353.4-448.7,353.1-448.9,352.7z M-440.8,354.4c1,0,2-0.1,3-0.6
			c0.3-0.2,0.3-1-0.3-0.9C-439.2,352.8-440.1,353.7-440.8,354.4z M-408.7,353.4c1.1,0.8,2.4,1.2,3.8,1c-0.6-0.6-1.2-1.2-2-1.5
			C-407.5,352.7-408.1,353.2-408.7,353.4z M-397.7,353.9c0.5,0.6,1.1,1,1.8,1.3c-0.1-0.9-0.4-1.8-1-2.5
			C-397.2,353.1-397.4,353.5-397.7,353.9z M-436.5,353.5c-0.3,0.2-0.9,1.1-0.2,1.2C-436,354.8-435.4,353-436.5,353.5z M-409.9,353.5
			c-0.3,0.6,0.6,1.5,1.2,1.2C-408.6,354.1-409.3,353.1-409.9,353.5z M-445.5,356.9c-0.1,1.7-0.1,3.4-0.2,5c1.6,0.8,3.1,1.9,4.6,2.9
			c0.7-0.2,1.2-0.8,1.8-1.2c1.8-1.7,3.8-3.1,5.6-4.7c-0.2-1.3-1.2-2.2-2.3-2.8c-1.3-0.2-2.6,0.5-3.9,0.3c-1.4-0.2-2.8-0.8-4-1.6
			C-444.6,355.3-445.4,355.9-445.5,356.9z M-409.4,355.7c-1.2,0.7-2.9,1.6-2.6,3.2c1.1,1.2,2.5,2.1,3.7,3.1c1.1,0.9,2.1,2,3.4,2.8
			c1.7-0.8,3.2-2.1,5-2.9c-0.2-1.8-0.2-3.5-0.3-5.3c-0.1-1-1-1.5-1.7-2C-404.1,356.2-406.9,356.7-409.4,355.7z M-449.4,356.3
			c-0.1,0.5-0.1,1-0.2,1.4c0.5-0.1,1.2-0.1,1.6-0.5c0.7-0.5,0.4-1.5,0.4-2.2C-448.2,355.4-448.9,355.8-449.4,356.3z M-398.4,355.1
			c-0.3,1.4,0.6,2.6,2,2.7c0-0.5,0-1.1,0.1-1.6C-397,355.8-397.7,355.4-398.4,355.1z M-449.3,360c1.6,0.7,2.7-1.2,2.5-2.5
			C-447.6,358.3-449.3,358.6-449.3,360z M-399.1,357.5c0.2,1.3,0.8,2.9,2.4,2.7c0-0.4,0-0.8,0-1.2
			C-397.5,358.5-398.3,358-399.1,357.5z M-424.2,359.7c0,0.5,0,1,0,1.6c0.9,0.1,1.8,0.1,2.7,0c0-0.4,0.1-0.9,0.1-1.3
			C-422.3,359.7-423.3,359.7-424.2,359.7z M-427.2,360.6c0.6,0.2,1.2,0.4,1.9,0.7c0-0.5,0.1-1,0.1-1.5
			C-425.9,360.1-426.5,360.4-427.2,360.6z M-420.6,359.9c0,0.5,0,1,0.1,1.4c0.5-0.1,1.1-0.2,1.6-0.4
			C-418.7,360-420.1,360.2-420.6,359.9z M-429.4,362.1c0,0.9,0,1.9,0.1,2.8c0.7,0,1.5,0.1,2.2,0.1c0-1-0.1-2-0.1-3
			C-428,362-428.7,362-429.4,362.1z M-426.6,362.1c0.1,0.9,0.2,1.9,0.3,2.8c0.4,0,0.9-0.1,1.3-0.1c-0.1-0.9-0.2-1.8-0.4-2.7
			C-425.8,362.1-426.2,362.1-426.6,362.1z M-420.6,362.2c-0.1,0.9-0.1,1.8-0.2,2.7c0.4,0,0.9,0,1.3,0c0-0.9,0.1-1.9,0.1-2.8
			C-419.7,362.1-420.1,362.1-420.6,362.2z M-418.6,362c-0.1,1-0.1,2-0.2,3c0.8,0,1.5-0.1,2.3-0.1c0-0.9,0.1-1.9,0.1-2.8
			C-417.1,362.1-417.8,362-418.6,362z M-432.1,363.1c0,0.4,0,0.8,0,1.3c0.7,0.1,1.4,0.1,2.1,0.2c0-0.8,0-1.7-0.1-2.5
			C-430.8,362.4-431.5,362.8-432.1,363.1z M-424.2,365c0.8,0,1.7,0,2.5,0c0-1,0-2.1,0-3.1l-0.1,0.5c-0.4-0.1-1.1-0.3-1.4-0.4
			c-0.2,0.1-0.7,0.2-0.9,0.2C-424.2,363.2-424.2,364.1-424.2,365z M-415.9,364.9c0.8-0.1,1.6-0.2,2.4-0.3c0-0.5,0-1.1-0.3-1.6
			c-0.2-0.1-0.7-0.3-0.9-0.4l0.2-0.3c-0.3-0.1-1-0.4-1.4-0.5C-416,362.9-416,363.9-415.9,364.9z M-434.6,365.2c0,0.5,0,1.1-0.1,1.6
			c0.4,0,0.9,0,1.3,0.1c0-0.6,0.1-1.1,0.1-1.7C-433.7,365.2-434.1,365.2-434.6,365.2z M-412.6,365.2c0,0.5,0.1,1.1,0.1,1.6
			c0.4,0,0.8,0,1.2,0c0.1-0.2,0.4-0.7,0.5-1c0.5-0.2,0.7,0.1,0.6,0.9c0.5,0,0.9,0,1.4,0C-410,365.9-411.1,364.7-412.6,365.2z
			 M-436.8,366.7c0.5,0,1,0.1,1.5,0.1c0-0.5,0-1,0-1.6C-435.8,365.7-436.3,366.2-436.8,366.7z M-432.2,365.5c0,0.6,0,1.2,0,1.8
			c0.5,0,1,0.1,1.6,0.1c0.2-0.5,0.3-1.1,0.5-1.6C-430.8,365.6-431.5,365.5-432.2,365.5z M-415.6,365.7c0.1,0.5,0.3,1.1,0.4,1.6
			c0.6,0,1.1,0,1.7-0.1c0-0.6,0-1.1-0.1-1.7C-414.3,365.6-414.9,365.6-415.6,365.7z M-426.2,366c-0.1,0.5-0.2,1.1-0.3,1.6
			c0.4,0,1.1,0,1.5,0c0-0.5,0.1-1.1,0.1-1.6C-425.4,366-425.8,366-426.2,366z M-424.3,367.7c0.9,0,1.8,0.1,2.6,0.1
			c0-0.7-0.1-1.4-0.1-2.1v0.3c-0.4-0.1-1.1-0.2-1.5-0.3C-424.4,365.7-424.2,366.8-424.3,367.7z M-420.7,366c0,0.5,0,1.1,0.1,1.6
			c0.4,0,0.9,0,1.3,0c0-0.5,0-1.1-0.1-1.6C-419.9,366-420.3,366-420.7,366z M-418.7,366c0,0.5,0.1,1.1,0.1,1.6
			c0.8,0,1.6-0.1,2.4-0.1c-0.1-0.5-0.1-1.1-0.2-1.6C-417.1,365.9-417.9,365.9-418.7,366z M-429.3,365.9c-0.1,0.5-0.3,1.1-0.4,1.6
			c0.8,0.1,1.6,0.1,2.5,0.1c0.1-0.4,0.2-1.2,0.3-1.6C-427.8,366-428.6,365.9-429.3,365.9z M-438.1,368.1c-0.2,0.9-0.3,1.8-0.5,2.7
			c0.9,0,1.9,0,2.8,0c0.1-0.9,0.2-1.8,0.2-2.7C-436.4,368-437.2,368-438.1,368.1z M-410.2,368c0.1,0.9,0.2,1.8,0.3,2.7
			c0.9,0,1.9,0,2.8,0c-0.2-0.9-0.3-1.7-0.6-2.5C-408.5,367.9-409.4,368.1-410.2,368z M-432.3,368.2c0,1-0.6,2.4,0.8,2.7
			c0.2-0.9,0.3-1.8,0.5-2.7C-431.3,368.2-431.9,368.2-432.3,368.2z M-430.1,368.3c-0.2,0.8-0.3,1.6-0.4,2.4c0.9,0,1.8,0,2.7,0
			c0.2-0.8,0.3-1.5,0.5-2.3C-428.3,368.4-429.2,368.3-430.1,368.3z M-426.5,368.5c-0.2,0.8-0.3,1.5-0.5,2.3c0.5,0,1.1,0,1.6,0
			c0.1-0.8,0.1-1.5,0.2-2.3C-425.7,368.5-426.1,368.5-426.5,368.5z M-424.1,368.3c-0.1,0.8-0.2,1.7-0.3,2.5c1,0,2,0,3.1,0
			c-0.1-0.9-0.3-1.7-0.4-2.6C-422.5,368.2-423.3,368.2-424.1,368.3z M-420.6,368.5c0.1,0.8,0.3,1.5,0.4,2.3c0.4,0,0.9,0,1.4,0
			c-0.1-0.7-0.2-1.5-0.3-2.2C-419.7,368.5-420.1,368.5-420.6,368.5z M-414.7,368.3c0.2,0.8,0.4,1.6,0.5,2.4c0.2,0,0.5,0,0.7,0
			c0-0.8,0-1.6,0-2.4C-413.9,368.3-414.3,368.3-414.7,368.3z M-412.3,368.3c0,0.8,0,1.7,0,2.5c0.5-0.1,1-0.2,1.6-0.3
			c-0.1-0.7-0.2-1.5-0.3-2.2C-411.5,368.3-411.9,368.3-412.3,368.3z M-441.1,370.7c0.5,0,1.1,0,1.6,0c0.2-0.8,0.4-1.5,0.6-2.3
			C-439.7,369.2-440.4,369.9-441.1,370.7z M-434.8,368.3c0,0.8-0.1,1.7-0.1,2.5c0.3,0,0.9-0.1,1.2-0.2c0.7-0.5,0.2-1.6,0.4-2.3
			C-433.8,368.3-434.5,368.3-434.8,368.3z M-418.3,368.4c0.2,0.8,0.3,1.5,0.5,2.3c0.8,0,1.6,0,2.4,0c0-0.6,0-1.3-0.1-1.9l-0.5,0.1
			l0.2-0.4C-416.6,368.4-417.5,368.4-418.3,368.4z M-406.9,368.5c0.2,0.7,0.4,1.5,0.6,2.2c0.5,0,0.9-0.1,1.4-0.1
			C-405.4,369.8-406.1,369.1-406.9,368.5z M-433.1,372.7c-0.2,0.6,0,0.9,0.7,0.7C-432.2,372.7-432.4,372.5-433.1,372.7z
			 M-410.1,373.6c-0.2,0.6,0,0.7,0.6,0.6C-409.4,373.6-409.6,373.4-410.1,373.6z M-442.1,374.6c-0.4,0.8,1.3,1.1,1.4,0.3
			C-440.8,374.3-441.7,374.2-442.1,374.6z M-439.4,374.6c-0.5,0.6,0.6,1.2,1,0.6C-438,374.7-439.1,374.1-439.4,374.6z M-407.3,374.6
			c-0.5,0.6,0.6,1.2,1,0.6C-405.8,374.6-406.9,374.1-407.3,374.6z M-405.1,374.6c-0.4,0.8,1.2,1,1.3,0.3
			C-403.9,374.3-404.8,374.3-405.1,374.6z M-449.9,376.1c0,1.2-0.1,2.3,0,3.5c0.8,2.1,2.8,3.8,5,4.3c2.4,0.5,4.8-0.3,6.6-1.9
			c0.3-0.3,0.7-0.6,0.7-1.1c0.1-1.5-0.1-3-0.2-4.5C-441.9,376.3-445.9,376.3-449.9,376.1z M-407.9,376.3c-0.2,1.6-0.5,3.2-0.4,4.8
			c1.7,2.3,4.8,3.4,7.6,2.8c2-0.6,3.7-2,4.6-3.9c0.2-1.3-0.1-2.6,0-3.9C-400,376.3-403.9,376.3-407.9,376.3z M-435.8,376.9
			c-0.2,0.8-0.3,1.6-0.2,2.4c0.9,1.7,2,3.4,3.8,4.2c2.2,0.9,5.2,0.8,6.7-1.3c1.3-1.5,0.8-3.6,0.8-5.5c-3.7,0.1-7.5-0.3-11.2-0.3
			C-435.8,376.5-435.8,376.8-435.8,376.9z M-421.1,376.6c-0.3,2-0.5,4.4,1,5.9c0.9,1.1,2.3,1.4,3.6,1.6c2.4-0.1,4.8-1.3,6-3.6
			c0.9-1.3,0.7-2.8,0.6-4.3C-413.6,376.3-417.4,376.7-421.1,376.6z"/>
	</g>
</g>
</svg>
