<?xml version="1.0" encoding="utf-8"?>
<!-- Generator: Adobe Illustrator 19.0.0, SVG Export Plug-In . SVG Version: 6.00 Build 0)  -->
<svg version="1.1" id="Layer_1" xmlns="http://www.w3.org/2000/svg" xmlns:xlink="http://www.w3.org/1999/xlink" x="0px" y="0px"
	 viewBox="0 0 56 210" style="enable-background:new 0 0 56 210;" xml:space="preserve">
<style type="text/css">
	.st0{fill:#E7E7E7;}
	.st1{fill:#A2CBAE;}
</style>
<g id="Layer_2">
	<rect y="0" class="st0" width="56" height="135.4"/>
</g>
<g>
	<g>
		<path class="st1" d="M0,125.7c1.7-2.3,4.7-3.7,7.6-3.1c1.8,0.2,3.2,1.4,4.7,2.3c0.7,0.5,1.4-0.3,2-0.7c1.2-1.1,2.8-1.7,4.3-2.3
			c3.1-0.1,6.2,0.9,8.3,3.2c0.7,0,1.5,0,2.2,0c1.2-1.1,2.6-2.1,4.1-2.6c0.6-0.1,1.1-0.3,1.7-0.4c1.4-0.1,2.7,0.1,4,0.4
			c1.3,0.6,2.5,1.4,3.5,2.4c0.8,0,1.6,0.1,2.2-0.5c1.5-1.1,3.2-1.8,5-1.9c2.4-0.1,4.9,1,6.3,3v11.6c-0.3,0-0.7,0.1-1,0.1
			c0,0.4-0.1,0.7-0.1,1.1c0.3,0,0.8,0,1.1,0v1.1c-0.3,0-0.8,0.1-1,0.1c0,0.6,0.1,1.2,0.1,1.8c0.2,0.1,0.7,0.3,0.9,0.4v1
			c-0.2,0-0.7,0-0.9,0c0,0.2,0,0.5,0,0.7c0.3,0.2,0.6,0.5,0.9,0.7v0.7c-0.2,0-0.5,0-0.7-0.1c0,1,0,1.9,0,2.9
			c0.2,0.1,0.5,0.4,0.7,0.5v11.3c-1.2,0.4-2.4,1-3.4,1.8c0.7,1.1,1.6,2.1,2.1,3.3c0.5,1.1,0.8,2.3,1.3,3.4v0.8
			c-1.7,0.3-3.9,1.6-3.3,3.6c0.4,1.5,1.9,2.2,3.3,2.4v12.5c-1.2-0.1-2.4-0.3-3.5-0.4c-1.7,0.5-3.2,1.4-4.5,2.6c0,0.3-0.1,1-0.1,1.3
			c1.1,1.2,2.1,2.4,3,3.8c1.7,0,3.4,0,5.2-0.1v12.4c-1.5,1.1-3,2.4-4.9,2.9c-2.5,0.7-5.5,0.5-7.6-1.3c-0.8-0.5-1.6-1.6-2.6-1.2
			c-1.4,0.9-2.7,1.8-4.3,2.3c-1.2,0.1-2.4,0.1-3.6,0c-1.6-0.5-3.1-1.5-4.2-2.8c-0.4,0-0.9,0-1.3,0c-1,1.3-2.5,2.2-4,2.8
			c-2.9,0.4-5.8-0.3-8-2.3c-0.3,0-0.9,0-1.3,0c-1.2,1.2-2.7,2.1-4.2,2.7c-3.3,0.5-6.7-0.3-9.1-2.8c-0.2,0-0.7-0.1-0.9-0.1v-12.6
			c1.8,0,3.6,0.3,5.3,0c1.1-1.2,2.2-2.5,3.1-3.9c0.2-1.5-1.5-2.3-2.6-2.9c-1.8-1.1-3.9-0.7-5.9-0.4V175c1.5-0.5,3.5-1.1,3.5-3
			c0.3-2-1.9-3-3.5-3.2v-0.9c0.2-0.1,0.6-0.4,0.8-0.6c0.4-1.7,1-3.3,1.9-4.8l0.1,0c0.2-0.2,0.4-0.5,0.7-0.7c0-0.2,0.1-0.5,0.1-0.7
			c-1.1-0.7-2.2-1.3-3.5-1.6v-11.3c1.1-0.7,0.9-1.9,1-3c-0.3-0.1-0.8-0.3-1-0.4v-0.8c0.3,0,0.8-0.1,1.1-0.2c0-0.3,0-0.7,0.1-1
			c-0.3-0.1-0.9-0.3-1.1-0.4v-0.7c1.3-0.1,1.1-1.3,1.3-2.2c-0.3,0-0.9-0.1-1.3-0.1v-1.1c0.5,0,0.9,0,1.4,0c0-0.4,0-0.7,0-1.1
			c-0.4,0-0.9,0-1.3,0V125.7z M3.6,124.5c-0.9,0.8-1.9,1.6-2.2,2.9c-0.1,1.3-0.1,2.6,0,3.9l-0.5,0.1c2,0.5,4.2,0.3,6.2,0.3
			c1.9-0.1,3.7,0.1,5.6,0.2c0.1-1.3,0.6-2.9-0.5-4c-0.9-1.9-2.7-3.3-4.7-3.8C6.2,123.9,4.9,124.1,3.6,124.5z M17,124.8
			c-0.9,0.5-1.7,1.1-2.6,1.8c-0.1,1.7,0,3.3,0.1,5c2.5,0.1,4.9-0.1,7.4,0.1c1.8,0.3,3.6,0.2,5.3,0.2c-0.1-0.8-0.1-1.7-0.2-2.5
			c-0.6-1.2-1.2-2.5-2.2-3.4c-1-0.9-2.2-1.4-3.4-1.9C19.9,123.8,18.4,124.3,17,124.8z M32.9,124.8c-1.6,1-2.8,2.5-3.6,4.1
			c-0.2,1-0.2,2-0.2,3c1.5,0,3,0,4.5,0l0-0.3c2.6,0,5.3,0,7.9,0c0.1-0.5,0.2-1,0.3-1.5c0.1-1.1,0.1-2.2,0.1-3.3
			c-1.2-1.4-2.9-2.2-4.6-2.8C35.8,123.8,34.3,124.3,32.9,124.8z M47.3,124.6c-1.7,0.8-2.8,2.4-3.7,4c-0.1,1-0.1,2,0,3
			c3.6,0,7.1-0.2,10.7-0.1l0-0.4c0.2,0,0.5,0.1,0.7,0.2c0-1.3,0-2.6,0-3.9c-0.7-1.5-1.8-2.6-3.3-3.3c-0.9-0.1-1.8-0.1-2.8-0.1
			C48.3,124.2,47.8,124.4,47.3,124.6z M15.3,133c0.1,0.6,0.3,0.7,0.8,0.3C16,132.7,15.8,132.6,15.3,133z M17.6,133
			c-0.4,0.8,1.2,1,1.3,0.3C18.8,132.7,18,132.7,17.6,133z M37.5,133c-0.5,0.8,1.3,1,1.4,0.2C38.7,132.6,37.8,132.6,37.5,133z
			 M40,133c-0.2,0.6,0.8,0.7,1,0.3C41.2,132.7,40.2,132.5,40,133z M7.2,134.6c-0.2,0.6,0,0.9,0.7,0.7C8.1,134.6,7.9,134.4,7.2,134.6
			z M9.2,134.7c-0.2,0.6,0,0.8,0.6,0.6C9.9,134.7,9.7,134.5,9.2,134.7z M46.5,134.7c-0.2,0.7,0,0.9,0.7,0.7
			C47.3,134.7,47.1,134.4,46.5,134.7z M48.6,134.5c-0.5,0.3-0.5,0.5,0,0.8C49.1,135.1,49.1,134.8,48.6,134.5z M2.2,137.1
			c0,0.4,0.1,0.8,0.1,1.2c0.6,0,1.3,0,1.9,0c0-0.4,0-0.8,0-1.1C3.5,137.1,2.8,137.1,2.2,137.1z M4.8,137.2c0,0.4,0.1,0.8,0.1,1.2
			c0.5,0,1,0,1.6,0c0-0.4,0-0.8-0.1-1.2C5.9,137.2,5.3,137.2,4.8,137.2z M7.2,137.1c0.1,0.4,0.2,0.9,0.4,1.3
			c0.4,0.1,1.1,0.2,1.4,0.3c0-0.5,0.4-1.1,0-1.5C8.4,137.2,7.8,137.2,7.2,137.1z M21.6,137.5c-0.6,1.2-1.9,2.1-2,3.5
			c1.7,0.9,3.3,2.1,5.1,3c1.1-0.2,2-0.7,3.1-0.7c1.3-0.2,2.4,0.5,3.6,0.7c0.7-0.2,1.3-0.7,2-1.1c1.1-0.8,2.4-1.3,3.5-2.2
			c-0.8-1-1.6-2.1-2.3-3.2c-2.2,0.1-4.3,0.2-6.4-0.3C26,137.7,23.8,137.6,21.6,137.5z M47,137.2c0,0.5,0.1,0.9,0.1,1.4
			c0.5-0.1,1.1-0.1,1.6-0.2c0-0.3,0.1-0.9,0.1-1.2C48.2,137.2,47.6,137.2,47,137.2z M49.8,137.2c0,0.4,0,0.8,0,1.2c0.5,0,1,0,1.5,0
			c0.1-0.4,0.1-0.8,0.2-1.2C50.9,137.2,50.3,137.2,49.8,137.2z M52.1,137.2c0,0.4,0,0.8,0,1.1c0.6,0,1.2,0,1.7,0
			c0-0.4,0-0.8,0.1-1.2C53.3,137.1,52.7,137.1,52.1,137.2z M10,137.4c0,0.4,0.1,0.9,0.1,1.3c0.7-0.1,1.8,0.4,1.8-0.7
			c0.4-0.8,0.7,0.6,0.9,0.7c0.7,0,1.4,0,2.2,0c0-0.4,0-0.9,0-1.3C13.3,137.4,11.7,137.3,10,137.4z M15.8,137.3
			c0,0.4,0.1,1.2,0.1,1.5c0.6-0.4,1.1-0.9,1.6-1.5C17.1,137.3,16.3,137.3,15.8,137.3z M38.8,137.5c0.5,0.4,0.9,0.9,1.4,1.3
			c0-0.5,0.1-0.9,0.1-1.4C39.8,137.5,39.3,137.5,38.8,137.5z M41.1,137.5c0,0.4,0,0.9,0,1.3c0.8,0,1.6,0,2.4,0c0-0.5,0-0.9,0-1.4
			C42.8,137.5,41.9,137.5,41.1,137.5z M44.3,137.4c0,0.4,0.1,0.9,0.1,1.3c0.6,0,1.2-0.1,1.8-0.1c0-0.4,0-0.8,0.1-1.2
			C45.6,137.4,44.9,137.4,44.3,137.4z M2.5,139.5c0,0.7,0,1.4,0.1,2.1c0.5,0,1,0,1.5,0.1c0-0.7,0-1.4,0-2
			C3.6,139.5,3,139.5,2.5,139.5z M5,139.6c0,0.8,0,1.5,0,2.3c0.4,0,0.8,0.1,1.2,0.1c0-0.8,0.1-1.6,0.1-2.4
			C5.8,139.6,5.4,139.6,5,139.6z M7.4,139.6c-0.1,0.9-0.1,1.7-0.1,2.6c0.4,0,0.9,0.1,1.3,0.1c0-0.9,0-1.8,0-2.7
			C8.2,139.6,7.8,139.6,7.4,139.6z M12.5,139.6c0,0.6,0,1.2,0,1.8c0.9-0.6,1.7-1.2,2.5-1.9C14.2,139.5,13.4,139.6,12.5,139.6z
			 M41.1,139.5c0.8,0.6,1.6,1.3,2.4,2c0-0.6,0-1.3,0-1.9C42.8,139.6,41.9,139.5,41.1,139.5z M47.5,139.6c0,0.9,0,1.8,0,2.7
			c0.5,0,1-0.1,1.5-0.1c0-0.9-0.1-1.8-0.3-2.6C48.3,139.6,47.9,139.6,47.5,139.6z M49.9,139.6c0,0.8,0,1.6,0.1,2.3
			c0.4,0,0.8,0,1.2,0c0-0.8,0-1.6,0-2.4C50.7,139.6,50.3,139.6,49.9,139.6z M52.2,139.5c0,0.7,0,1.4,0,2.1c0.5,0,1,0,1.6-0.1
			c0-0.7,0-1.4,0-2.1C53.3,139.5,52.7,139.5,52.2,139.5z M9.9,142.1c0.4,0.1,1.1,0.2,1.4,0.2c0.2-0.9,0.3-1.8,0.4-2.7
			c-0.4,0-1.3-0.1-1.7-0.1C9.9,140.4,9.7,141.2,9.9,142.1z M44.6,139.5c0.1,0.9,0.1,1.8,0.2,2.6c0.4,0,1.2,0.1,1.6,0.1
			c0-0.9,0-1.8,0-2.8C45.9,139.5,45,139.5,44.6,139.5z M2.5,142.5c0,0.4,0,0.9,0,1.3c0.5,0,1.1,0.1,1.6,0.1c0-0.4,0-0.9,0-1.3
			C3.5,142.6,3,142.6,2.5,142.5z M5,142.7c0,0.5,0.1,1,0.1,1.5c0.4,0,0.7,0,1.1,0c0-0.5,0-1,0-1.4C5.8,142.7,5.4,142.7,5,142.7z
			 M16.6,143.2c-2,1.6-3.8,3.4-6,4.7c0.4,1.1,1.5,1.7,2.5,2.2c2,1,4.2,1.6,6.4,1.5c1.5-0.1,3-0.9,3.5-2.3c0.3-1.2,0.3-2.4,0.6-3.6
			c-1-1.7-2.8-2.7-4.6-3.3C18.1,142,17.3,142.7,16.6,143.2z M36.2,142.9c-0.2,0.1-0.6,0.3-0.8,0.4c-1.3,0.7-3.3,1.8-2.3,3.6
			c0.2,1-0.1,2.1,0.6,2.9c0.5,0.8,1.4,1.1,2.1,1.5c1.7,0.3,3.4-0.1,5.1-0.5c0.4-0.1,0.8-0.3,1.2-0.4c0.2-0.1,0.6-0.3,0.8-0.4
			c0.7-0.4,1.4-0.8,2.2-1.2c0-0.4,0.1-0.7,0.1-1.1c-2.6-1.4-4.4-4.1-7.2-5.2l-0.1-0.3C37.3,142.4,36.7,142.7,36.2,142.9z M50,142.8
			c0,0.3,0,1,0,1.4c0.4,0,0.7,0,1.1,0c0.1-0.5,0.1-1,0.2-1.5C50.8,142.7,50.4,142.8,50,142.8z M52.2,142.6c0,0.4,0,0.9-0.1,1.3
			c0.5,0,1.1-0.1,1.6-0.1c0-0.4,0-0.8,0-1.3C53.3,142.6,52.8,142.6,52.2,142.6z M7.3,142.9c0.1,0.4,0.1,0.8,0.2,1.3
			c0.3,0,0.9,0,1.2,0c0-0.3,0-1,0-1.3C8.2,142.9,7.8,142.9,7.3,142.9z M10,142.9c-0.2,0.5,0,0.7,0.5,0.6
			C10.7,142.9,10.6,142.7,10,142.9z M45.5,142.9c-0.3,0.5,0.6,0.9,0.9,0.5C46.7,142.9,45.8,142.5,45.5,142.9z M48.6,144.4
			c0.1-0.5,0.2-1,0.3-1.4c-0.4,0-1.1-0.1-1.5-0.1C47.4,143.6,47.6,144.3,48.6,144.4z M26.3,144.4c-0.6,0.1-0.4,1.1,0.2,0.8
			C27.2,145.1,26.9,144.1,26.3,144.4z M29.2,144.5c-0.3,0.7,1.2,1.2,1.3,0.4C30.3,144.4,29.6,144.1,29.2,144.5z M5.1,145.1
			c0,0.6,0,1.1-0.1,1.7c0.4-0.2,0.9-0.5,1.3-0.7c0-0.2-0.1-0.7-0.1-1C5.9,145.1,5.5,145.1,5.1,145.1z M49.7,145.2
			c0.1,0.8,0.7,1.3,1.3,1.7c0-0.6,0-1.2,0.1-1.8C50.6,145.1,50.2,145.1,49.7,145.2z M2.2,147.5c0.4,0,1.2-0.1,1.6-0.1
			c0.1-0.8,0.2-1.5,0.3-2.3c-0.4,0-1.2-0.1-1.6-0.2C2.4,145.8,2.3,146.6,2.2,147.5z M52.3,145c0,0.7,0,1.4,0,2.1
			c0.5,0.1,1.1,0.3,1.6,0.4c0-0.9,0-1.8,0-2.6C53.4,145,52.6,145,52.3,145z M24.4,147.6c0.1,0.2,0.4,0.5,0.5,0.7
			c0.6-0.4,1.4-0.6,1.9-1.2c0.1-0.5,0.1-1,0.2-1.5C25.9,146,24.7,146.4,24.4,147.6z M29.2,145.7c-0.3,1.6,1.2,2.2,2.3,2.7
			c0-0.5,0.1-1.1,0.1-1.6C30.8,146.3,30,146,29.2,145.7z M24.9,151.3c0.9,0.3,1.6-0.5,2.3-1c-0.1-0.6-0.1-1.2-0.2-1.8
			C25.9,148.9,24.4,149.9,24.9,151.3z M29.2,148.4c0,0.9-0.3,2,0.6,2.7c0.6,0.4,1.4,0.5,2,0c-0.2-0.4-0.4-0.9-0.6-1.4
			C30.5,149.2,29.9,148.8,29.2,148.4z M7.7,149.8c-2.2,1.2-4.9,1.7-6.7,3.7c-0.1,1.3-0.1,2.7-0.1,4c1.6,1.1,3.1,3,5.3,2.7
			c1.9-0.2,4.4,0.4,5.6-1.5c1-1.3-0.6-2.8-0.1-4.2c0.2-1.1,1.3-2.9-0.1-3.7C10.5,150,9,149.2,7.7,149.8z M43.8,151.4
			c0.1,1,0.4,2,0.7,3c0.5,1.4-1,3-0.1,4.3c0.7,1.3,2.3,1.3,3.5,1.3c1.5,0,3.1,0.4,4.4-0.5c1-0.7,2.1-1.4,2.9-2.3
			c0-1.3,0.2-2.8-0.4-4c-1.5-1.9-4-2.3-6-3.4C47.2,148.9,45.2,150.3,43.8,151.4z M21.2,153.1c0.3,0.2,0.8,0.7,1.1,1l-0.1-0.4
			c0.5,0.5,1,1,1.6,1.4h0.1c0.4,0.4,0.7,0.8,1.1,1.2c0.2-0.2,0.7-0.5,0.9-0.7c-0.3-0.5-0.5-0.9-0.8-1.4l-0.1,0.5
			c-0.3-0.8-0.8-1.5-1.2-2.2l-0.4,0.1l0.6-0.5C22.9,151.6,22,152.3,21.2,153.1z M26,153.1c0.3,0.5,0.8,1,1.1,1.4
			c0.1-1.1,0.1-2.1,0-3.2C26.8,151.9,25.9,152.4,26,153.1z M28.9,151.6c-0.1,1-0.1,1.9,0,2.9c0.5-0.5,1.3-0.9,1.2-1.7
			C30.1,152.1,29.4,151.8,28.9,151.6z M30.8,154.9c-1.1,0.4,0.7,2,0.9,0.8c1.1-0.9,2.2-1.7,3.3-2.6c-0.6-0.5-1.3-1-2-1.4
			C32.2,152.8,31.5,153.9,30.8,154.9z M13,154.2c0.2,0,0.7,0.1,0.9,0.1c0.5-0.7,1-1.3,1.5-2C14.4,152.7,13.6,153.3,13,154.2z
			 M15.2,154.9c0.3,0,0.7,0.1,1,0.1c0.6-0.8,1.3-1.4,2-2c-0.2,0-0.7,0-0.9,0c0-0.1-0.1-0.3-0.2-0.4C16.2,153,14.9,153.6,15.2,154.9z
			 M38,153c0.8,0.6,1.4,1.3,2.1,2.1c0.3-0.2,0.9-0.6,1.2-0.8C40.6,153.2,39.3,152.4,38,153z M40.8,152.3c0.6,0.9,1.2,1.8,2.1,2.3
			C43,153.3,41.8,152.7,40.8,152.3z M17.6,155.2c0.2,0.1,0.5,0.3,0.7,0.4c0.6-0.7,1.2-1.3,1.9-1.9C19.3,153.8,17.8,154.1,17.6,155.2
			z M36,153.6c0.5,0.7,1.1,1.3,1.7,2c0.3-0.2,0.8-0.3,0.8-0.8C37.9,154.1,36.9,153.8,36,153.6z M19.6,155.3c0,0.4,0.5,0.5,0.8,0.7
			c0.5-0.5,1-0.9,1.5-1.4C21.1,154.6,20.1,154.6,19.6,155.3z M34.4,154.6c0.6,0.9,1.4,1.7,2.6,1.1C36.3,154.9,35.4,154.5,34.4,154.6
			z M22.4,155.4c-0.5,0-1.1,0.8-0.4,1.1C22.7,156.8,23.5,155.2,22.4,155.4z M13,155.7c0.2,0.8,0.8,1.4,1.4,1.9
			c0.1-0.6,0.1-1.2,0.1-1.7C14,155.8,13.5,155.7,13,155.7z M33.4,155.6c-0.3,0.5,0.6,1.1,1,0.7C34.7,155.7,33.8,155.2,33.4,155.6z
			 M41.6,157.2c1,0.1,1.6-0.8,1.7-1.7C42.3,155.6,41.4,156.1,41.6,157.2z M15.3,156.2c0.2,0.6,0.4,1.2,0.6,1.9
			c0.4,0.1,0.8,0.2,1.1,0.3c-0.1-0.6-0.1-1.2-0.2-1.7C16.3,156.5,15.8,156.3,15.3,156.2z M23.5,156.4 M26.6,156.7
			c-0.6,0.5-1.2,1.1-1.7,1.7c-0.4,1.4,0.2,2.8,1.3,3.6c1.7,0.9,4,0.3,4.9-1.4c0.2-1.1,0.3-2.5-0.8-3.2
			C29.4,156.3,27.9,156.5,26.6,156.7z M32.2,156.4 M39.5,156.6c-0.1,0.6-0.3,1.1-0.4,1.7c0.4-0.1,0.8-0.1,1.2-0.2
			c0.2-0.6,0.4-1.3,0.6-2C40.5,156.3,39.8,156.5,39.5,156.6z M17.7,156.7c0.2,1,0.7,1.7,1.8,1.7C19.3,157.5,18.7,156.7,17.7,156.7z
			 M36.8,158.5c0.9-0.1,1.5-0.9,1.8-1.7C37.5,156.7,36.9,157.4,36.8,158.5z M20.1,157.1c0.5,0.5,1.1,1,1.7,1.4
			C22,157.4,20.9,157.2,20.1,157.1z M22.7,157.4c-0.2,0.6,0,0.7,0.6,0.6C23.5,157.4,23.3,157.2,22.7,157.4z M33,157.2
			c-0.1,0.1-0.3,0.4-0.4,0.5C33,159.1,34.6,157,33,157.2z M34,158.2c0.8,0,1.4-0.5,1.9-1C35.2,157.4,34.6,157.8,34,158.2z
			 M39.7,159.5c-0.9,0.2-2.5-0.3-2.6,1c-0.3,1.8,1.1,3.2,2.4,4.3c1.7-0.4,3.6-0.7,4.7-2.3c0.8-1,0.1-2.4-0.8-3.1
			C42.3,158.6,41,159.6,39.7,159.5z M11.9,160.9l-0.3,0.1c0.2,2,2.2,3,3.9,3.3c0.3,0.1,0.8,0.2,1.1,0.3c0.5-0.5,1.1-1,1.7-1.5
			c0.6-1,0.7-2.2,0.5-3.3c-1.1,0-2.2,0-3.4-0.1C14.2,159,12.2,159.2,11.9,160.9z M19.8,159.7c0.1,0.8,0.3,1.5,0.5,2.3
			c0.5-0.2,1-0.5,1.6-0.8c0.4-0.1,0.9-0.3,1.3-0.4l0.2,0.2c0-0.5-0.1-1-0.1-1.5C22.1,159.6,21,159.6,19.8,159.7z M32.6,160.7
			c0.5,0.2,1,0.3,1.5,0.4c0.5,0.3,1.1,0.5,1.6,0.7c0.2-0.7,0.4-1.4,0.6-2.1l0,0c-1.1-0.2-2.2-0.4-3.4-0.2
			C32.9,159.9,32.7,160.3,32.6,160.7z M8.1,161.2c-0.2,0.6,0,0.7,0.6,0.6C8.9,161.3,8.7,161.1,8.1,161.2z M47.4,161.3
			c-0.5,0.5,0.5,1.1,0.8,0.5C48.7,161.2,47.7,160.7,47.4,161.3z M5.7,162.2c-0.1,0.1-0.4,0.2-0.5,0.2c0.4,1.1,2.5,1.3,2.7,0
			C7.2,162,6.4,161.9,5.7,162.2z M23.6,162c-0.5,0.6,0.5,1.2,0.9,0.7C24.9,162.1,24,161.4,23.6,162z M31.9,162
			c-0.2,0.6,0,0.9,0.7,0.7C32.7,162,32.5,161.8,31.9,162z M46.2,162.2c-0.4,0.2-0.8,0.7-0.5,1.2C46.5,163.8,47.3,161.9,46.2,162.2z
			 M48.3,162.2c0.1,0.3,0.4,0.8,0.5,1.1c0.8-0.1,1.6-0.3,2.3-0.6C50.6,161.6,49.2,162.2,48.3,162.2z M9.7,162.4
			c-0.2,0.6,0,0.8,0.6,0.6C10.4,162.5,10.2,162.3,9.7,162.4z M22.7,162.5c-0.5,0-0.7,1-0.1,1C23.1,163.5,23.3,162.5,22.7,162.5z
			 M33.4,162.5c-0.5,0.4,0.1,1.3,0.6,0.9C34.5,163.1,33.9,162.2,33.4,162.5z M25,162.9c-0.9,0.2,0.1,1.5,0.7,0.9
			C26.1,163.4,25.5,162.8,25,162.9z M31.1,162.9c-0.5-0.1-1.1,0.5-0.7,1C31,164.4,32,163.1,31.1,162.9z M8.6,163.4
			c-0.5,1.1-0.2,2.3,0.2,3.4c1.3-0.7,1.4-2.2,0.6-3.4C9.1,163.4,8.7,163.4,8.6,163.4z M20.6,163.5c-0.1,0.4-0.2,0.8-0.3,1.2
			c0.2-0.1,0.6-0.2,0.8-0.2c0-0.4,0-0.9,0.1-1.3C21,163.3,20.7,163.4,20.6,163.5z M34.9,162.8c-0.1,1,0.2,1.8,1,2.4
			C36.1,164.3,35.7,163.4,34.9,162.8z M46.8,163.4c-0.4,0.8-0.6,1.8-0.2,2.6c0.2,0.2,0.6,0.5,0.8,0.7c0.5-1,0.6-2.2,0.4-3.3
			C47.5,163.4,47.1,163.4,46.8,163.4z M3.9,163.7c0,0.2-0.1,0.7-0.1,0.9c0.8,0,1.6-0.1,2.4-0.2C5.4,164.1,4.6,163.9,3.9,163.7z
			 M50.3,164.5c0.7,0.1,1.4,0.1,2.1,0.1c0-0.2,0-0.7,0-0.9C51.5,163.8,50.8,164,50.3,164.5z M18.1,166.5c1.4-0.2,1.3-1.6,1.2-2.7
			C18.7,164.6,18.3,165.5,18.1,166.5z M24.7,168.9c0,1.1,0.8,2,1.9,2.1c1.8,0.5,4.6,0.2,5-2c-1.5-1.4-2.6-3.2-3.5-5.1
			C27.2,165.8,26.1,167.5,24.7,168.9z M37.1,166.2c0.3,0,0.8,0.1,1,0.1c-0.2-0.9-0.6-1.8-1.3-2.4C36.9,164.6,37,165.4,37.1,166.2z
			 M22.5,165.5c1,0.3,2.1,0.1,3-0.4C24.6,164.4,23.1,164.1,22.5,165.5z M30.7,165.2c0.9,0.4,1.9,0.6,2.8,0.5
			C33.3,164.1,31.6,164.3,30.7,165.2z M5.9,166.4c0.4,0.5,0.8,1,1.2,1.4c0.2-0.3,0.5-0.8,0.6-1.1c-0.2-0.5-0.4-1-0.6-1.5
			C6.7,165.7,6.3,166,5.9,166.4z M11.3,166.1c-0.9,1.5-0.4,3.5-0.7,5.2c1.1,0.3,2.3,0.7,3.3-0.2c1.6-1.1,1.3-3.2,1.7-4.9
			C14.3,165.7,12.5,165.1,11.3,166.1z M40.7,166.2c0.2,1.1,0.3,2.1,0.5,3.2c0.3,1.2,1.4,1.8,2.4,2.3c0.6-0.2,1.2-0.3,1.8-0.5
			c-0.1-1.6,0.1-3.3-0.5-4.9C43.9,165.1,42,165.8,40.7,166.2z M49.1,165.4c-0.2,0.7-0.4,1.4-0.5,2.1c0.4-0.2,1.1,0,1.2-0.6
			C50.2,166.3,49.5,165.8,49.1,165.4z M2.6,166c-0.5,0.9,1.3,1,1.3,0.1C3.9,165.5,2.9,165.7,2.6,166z M20.9,166.1c0,0.4,0,0.7,0,1.1
			c0.9,0.4,2,0.6,3,0.6c0.1-0.4,0.2-0.7,0.3-1.1C23.1,166.5,22,166.2,20.9,166.1z M31.8,166.7c0.4,0.4,0.6,1.1,1.3,1
			c0.8,0,1.5-0.3,2.2-0.5c0-0.4-0.1-0.8-0.1-1.2C34,166.3,32.9,166.5,31.8,166.7z M52.5,165.9c-0.4,0.6,0.6,1.2,1,0.7
			C54,166,52.9,165.4,52.5,165.9z M16.3,168.2c0.9-0.4,1.4-1.2,1.1-2.2C16.9,166.6,16.5,167.3,16.3,168.2z M39,166.4
			c-0.7,0.3,0,1.8,0.7,1.4C39.9,167.3,39.5,166.4,39,166.4z M2,167.3c-0.2,0.7,0,0.9,0.7,0.6C2.9,167.3,2.7,167.1,2,167.3z
			 M4.9,167.4c-0.4,0.4,0.1,1.5,0.7,1.2C6,168.2,5.5,167.2,4.9,167.4z M50.3,168.9c1-0.2,1.2-1.1,1.2-1.9
			C50.9,167.5,50.5,168.2,50.3,168.9z M53.4,167.3c-0.4,0.5,0.5,1.1,0.9,0.6C54.7,167.4,53.8,166.8,53.4,167.3z M18.8,167.9
			c0.3,0.5,0.6,1.2,1.2,1.4c0.6,0.1,1.3,0,2,0c-0.7-0.6-1.4-1.1-2.2-1.7C19.5,167.7,19,167.8,18.8,167.9z M36.4,167.7
			c-0.5,0.4-1.1,0.7-1.6,1.1c-0.1,0.2-0.2,0.5-0.2,0.7c1.2,0.1,2.7-0.2,2.7-1.7C37.1,167.7,36.6,167.7,36.4,167.7z M7.8,169.1
			l0.5,0.1c-0.5,0.1-1,0.4-1.5,0.6c-0.4,0.2-0.8,0.3-1.1,0.5c-0.5,0.1-0.9,0.4-1.1,0.9c0.7,1.4,2.4,0.4,3.5,0.3l-0.2-0.4
			c0.5-0.1,0.9-0.4,1.4-0.7c0.4-0.5,0.7-1.2,0.5-1.9C9.1,167.9,8.4,168.9,7.8,169.1z M46.7,168.3c0,0.4,0,1.3,0,1.8l0.2,0.1
			c0.7,0.5,1.3,1.1,2.2,1.2c0.9,0.7,2,0.6,2.8-0.2c-0.2-0.3-0.7-0.8-1-1.1l0.1,0.5C49.6,169.8,48.1,169.1,46.7,168.3z M17,169.2
			c0.6,0.5,1.3,0.9,2.1,1.1C18.5,169.7,17.9,169.1,17,169.2z M37.1,170.4c0.8-0.2,1.6-0.4,2.3-0.7c-0.2-0.2-0.7-0.5-1-0.7
			C37.9,169.4,37.5,169.9,37.1,170.4z M15.6,170.7c-0.3,0.5-0.6,1-0.9,1.5c1.9,1.1,2.6,3.6,1.8,5.6c-0.7,1.5,0.8,2.8,2,3.3
			c1.2,0.4,2.2-0.4,3.3-0.8c1.7-0.8,3.5-1.1,5.3-1.4c-0.4-1.7-0.3-3.5-0.5-5.2c-0.2-1.1-1.1-1.8-2-2.2c-1.5-0.9-3.2-0.5-4.8-0.1
			C18.4,171.8,17,171.1,15.6,170.7z M39.7,170.9c-0.5,0.2-1,0.5-1.5,0.7c-0.6,0-1.1,0-1.7-0.1c-1.2-0.4-2.4-0.7-3.6-0.6
			c-0.5,0.2-1,0.4-1.5,0.6c-0.7,0.6-1.7,1-1.8,2c-0.1,1.8-0.3,3.5-0.5,5.3c1,0.1,2.1,0.4,3.1,0.5c0.5,0.2,1,0.4,1.5,0.6
			c1.5,0.8,3.7,1.7,5.1,0.2c1.7-1.3-0.1-3.5,0.5-5.2c0.2-1.2,1.1-2,2-2.8c-0.2-0.5-0.4-1-0.6-1.4C40.3,170.9,40,170.9,39.7,170.9z
			 M10.1,172.5c0,0.2,0,0.5,0,0.6c0.2,0.4,0.4,0.9,0.6,1.3c0.4,0.1,0.8,0.1,1.2,0.2c-0.2-0.5-0.4-1.1-0.6-1.6
			C10.9,172.8,10.5,172.6,10.1,172.5z M44.1,174.5c0.4,0,0.9,0,1.3,0c0.2-0.7,0.5-1.4,0.6-2.2C45.1,172.8,44.5,173.6,44.1,174.5z
			 M8.4,172.8c-0.3,0.6,0.5,1.5,1.1,1.2C9.8,173.5,9,172.6,8.4,172.8z M12.2,172.8c0.1,0.2,0.4,0.5,0.5,0.6c0.2,0.6,0.4,1.3,0.7,1.9
			c0.4,0,0.7,0,1.1,0c-0.1-0.6,0.2-1.5-0.5-2C13.5,173,12.9,172.9,12.2,172.8z M41.9,173.4c-0.1,0.6-0.5,1.4-0.1,1.9
			c1.4,0.3,1.3-1.8,2-2.6C43.2,173,42.6,173.2,41.9,173.4z M46.5,174.3c0.6-0.5,1.1-1,1.6-1.6C47.3,172.9,46.8,173.6,46.5,174.3z
			 M3,174.9c-0.6,1.7,1.1,3,2.5,3.5c0.3-0.2,0.5-0.4,0.8-0.6c-0.8-1-1.6-2.1-2.6-2.9C3.5,175,3.2,175,3,174.9z M50,177.9l-0.4-0.1
			c0.6,0.7,1.3,0.7,2.1,0.4c0.9-0.7,1.5-1.7,1.9-2.7c-0.2-0.2-0.6-0.5-0.8-0.7C51.7,175.7,50.8,176.8,50,177.9z M6.9,175.2
			c-0.8,0.4,0,1.3,0.6,0.8C8.3,175.5,7.4,174.6,6.9,175.2z M14.5,176.8c1-0.1,1.8-0.7,1.4-1.8C15,174.5,14.9,176.3,14.5,176.8z
			 M40.5,175.4c-0.4,0.4,0.1,1.4,0.7,1.1C41.5,176.1,41.1,175.2,40.5,175.4z M48.6,175.2c-0.4,0.5,0.5,1.1,0.9,0.6
			C49.9,175.3,49,174.8,48.6,175.2z M1.3,175.9c-0.1,0.1-0.3,0.4-0.3,0.5C1.2,177.6,2.6,175.6,1.3,175.9z M8.9,176.1
			c-0.8,0.1-1.1,0.9-1.2,1.6c1.2,0.1,2.1-0.7,3.1-1C10.7,175.6,9.6,176,8.9,176.1z M45.6,176.2c0.7,0.8,1.6,1.7,2.8,1.6
			c-0.1-0.4,0-1.1-0.4-1.3C47.3,175.8,46.4,176.1,45.6,176.2z M54.5,176c-0.2,0.6,0,0.8,0.6,0.6C55.3,176,55.1,175.8,54.5,176z
			 M2.1,176.7c-0.5,0.7-0.8,1.6-0.8,2.5c0.5-0.4,1.2-0.7,1.3-1.4C2.5,177.4,2.3,177.1,2.1,176.7z M10.2,178.4c1,0,2-0.1,3-0.6
			c0.3-0.2,0.3-1-0.3-0.9C11.8,176.8,10.9,177.7,10.2,178.4z M42.3,177.4c1.1,0.8,2.4,1.2,3.8,1c-0.6-0.6-1.2-1.2-2-1.5
			C43.5,176.7,42.9,177.2,42.3,177.4z M53.3,177.9c0.5,0.6,1.1,1,1.8,1.3c-0.1-0.9-0.4-1.8-1-2.5C53.8,177.1,53.6,177.5,53.3,177.9z
			 M14.5,177.5c-0.3,0.2-0.9,1.1-0.2,1.2C15,178.8,15.6,177,14.5,177.5z M41.1,177.5c-0.3,0.6,0.6,1.5,1.2,1.2
			C42.4,178.1,41.7,177.1,41.1,177.5z M5.5,180.9c-0.1,1.7-0.1,3.4-0.2,5c1.6,0.8,3.1,1.9,4.6,2.9c0.7-0.2,1.2-0.8,1.8-1.2
			c1.8-1.7,3.8-3.1,5.6-4.7c-0.2-1.3-1.2-2.2-2.3-2.8c-1.3-0.2-2.6,0.5-3.9,0.3c-1.4-0.2-2.8-0.8-4-1.6
			C6.4,179.3,5.6,179.9,5.5,180.9z M41.6,179.7c-1.2,0.7-2.9,1.6-2.6,3.2c1.1,1.2,2.5,2.1,3.7,3.1c1.1,0.9,2.1,2,3.4,2.8
			c1.7-0.8,3.2-2.1,5-2.9c-0.2-1.8-0.2-3.5-0.3-5.3c-0.1-1-1-1.5-1.7-2C46.9,180.2,44.1,180.7,41.6,179.7z M1.6,180.3
			c-0.1,0.5-0.1,1-0.2,1.4c0.5-0.1,1.2-0.1,1.6-0.5c0.7-0.5,0.4-1.5,0.4-2.2C2.8,179.4,2.1,179.8,1.6,180.3z M4.9,179.2 M51,179.1
			 M52.6,179.1c-0.3,1.4,0.6,2.6,2,2.7c0-0.5,0-1.1,0.1-1.6C54,179.8,53.3,179.4,52.6,179.1z M1.7,184c1.6,0.7,2.7-1.2,2.5-2.5
			C3.4,182.3,1.7,182.6,1.7,184z M51.9,181.5c0.2,1.3,0.8,2.9,2.4,2.7c0-0.4,0-0.8,0-1.2C53.5,182.5,52.7,182,51.9,181.5z
			 M26.8,183.7c0,0.5,0,1,0,1.6c0.9,0.1,1.8,0.1,2.7,0c0-0.4,0.1-0.9,0.1-1.3C28.7,183.7,27.7,183.7,26.8,183.7z M23.8,184.6
			c0.6,0.2,1.2,0.4,1.9,0.7c0-0.5,0.1-1,0.1-1.5C25.1,184.1,24.5,184.4,23.8,184.6z M30.4,183.9c0,0.5,0,1,0.1,1.4
			c0.5-0.1,1.1-0.2,1.6-0.4C32.3,184,30.9,184.2,30.4,183.9z M21.6,186.1c0,0.9,0,1.9,0.1,2.8c0.7,0,1.5,0.1,2.2,0.1
			c0-1-0.1-2-0.1-3C23,186,22.3,186,21.6,186.1z M24.4,186.1c0.1,0.9,0.2,1.9,0.3,2.8c0.4,0,0.9-0.1,1.3-0.1
			c-0.1-0.9-0.2-1.8-0.4-2.7C25.2,186.1,24.8,186.1,24.4,186.1z M30.4,186.2c-0.1,0.9-0.1,1.8-0.2,2.7c0.4,0,0.9,0,1.3,0
			c0-0.9,0.1-1.9,0.1-2.8C31.3,186.1,30.9,186.1,30.4,186.2z M32.4,186c-0.1,1-0.1,2-0.2,3c0.8,0,1.5-0.1,2.3-0.1
			c0-0.9,0.1-1.9,0.1-2.8C33.9,186.1,33.2,186,32.4,186z M18.9,187.1c0,0.4,0,0.8,0,1.3c0.7,0.1,1.4,0.1,2.1,0.2
			c0-0.8,0-1.7-0.1-2.5C20.2,186.4,19.5,186.8,18.9,187.1z M26.8,189c0.8,0,1.7,0,2.5,0c0-1,0-2.1,0-3.1l-0.1,0.5
			c-0.4-0.1-1.1-0.3-1.4-0.4c-0.2,0.1-0.7,0.2-0.9,0.2C26.8,187.2,26.8,188.1,26.8,189z M35.1,188.9c0.8-0.1,1.6-0.2,2.4-0.3
			c0-0.5,0-1.1-0.3-1.6c-0.2-0.1-0.7-0.3-0.9-0.4l0.2-0.3c-0.3-0.1-1-0.4-1.4-0.5C35,186.9,35,187.9,35.1,188.9z M38.3,187.9
			 M16.4,189.2c0,0.5,0,1.1-0.1,1.6c0.4,0,0.9,0,1.3,0.1c0-0.6,0.1-1.1,0.1-1.7C17.3,189.2,16.9,189.2,16.4,189.2z M38.4,189.2
			c0,0.5,0.1,1.1,0.1,1.6c0.4,0,0.8,0,1.2,0c0.1-0.2,0.4-0.7,0.5-1c0.5-0.2,0.7,0.1,0.6,0.9c0.5,0,0.9,0,1.4,0
			C41,189.9,39.9,188.7,38.4,189.2z M14.2,190.7c0.5,0,1,0.1,1.5,0.1c0-0.5,0-1,0-1.6C15.2,189.7,14.7,190.2,14.2,190.7z
			 M18.8,189.5c0,0.6,0,1.2,0,1.8c0.5,0,1,0.1,1.6,0.1c0.2-0.5,0.3-1.1,0.5-1.6C20.2,189.6,19.5,189.5,18.8,189.5z M35.4,189.7
			c0.1,0.5,0.3,1.1,0.4,1.6c0.6,0,1.1,0,1.7-0.1c0-0.6,0-1.1-0.1-1.7C36.7,189.6,36.1,189.6,35.4,189.7z M24.8,190
			c-0.1,0.5-0.2,1.1-0.3,1.6c0.4,0,1.1,0,1.5,0c0-0.5,0.1-1.1,0.1-1.6C25.6,190,25.2,190,24.8,190z M26.7,191.7
			c0.9,0,1.8,0.1,2.6,0.1c0-0.7-0.1-1.4-0.1-2.1l0,0.3c-0.4-0.1-1.1-0.2-1.5-0.3C26.6,189.7,26.8,190.8,26.7,191.7z M30.3,190
			c0,0.5,0,1.1,0.1,1.6c0.4,0,0.9,0,1.3,0c0-0.5,0-1.1-0.1-1.6C31.1,190,30.7,190,30.3,190z M32.3,190c0,0.5,0.1,1.1,0.1,1.6
			c0.8,0,1.6-0.1,2.4-0.1c-0.1-0.5-0.1-1.1-0.2-1.6C33.9,189.9,33.1,189.9,32.3,190z M21.7,189.9c-0.1,0.5-0.3,1.1-0.4,1.6
			c0.8,0.1,1.6,0.1,2.5,0.1c0.1-0.4,0.2-1.2,0.3-1.6C23.2,190,22.4,189.9,21.7,189.9z M12.9,192.1c-0.2,0.9-0.3,1.8-0.5,2.7
			c0.9,0,1.9,0,2.8,0c0.1-0.9,0.2-1.8,0.2-2.7C14.6,192,13.8,192,12.9,192.1z M40.8,192c0.1,0.9,0.2,1.8,0.3,2.7c0.9,0,1.9,0,2.8,0
			c-0.2-0.9-0.3-1.7-0.6-2.5C42.5,191.9,41.6,192.1,40.8,192z M18.7,192.2c0,1-0.6,2.4,0.8,2.7c0.2-0.9,0.3-1.8,0.5-2.7
			C19.7,192.2,19.1,192.2,18.7,192.2z M20.9,192.3c-0.2,0.8-0.3,1.6-0.4,2.4c0.9,0,1.8,0,2.7,0c0.2-0.8,0.3-1.5,0.5-2.3
			C22.7,192.4,21.8,192.3,20.9,192.3z M24.5,192.5c-0.2,0.8-0.3,1.5-0.5,2.3c0.5,0,1.1,0,1.6,0c0.1-0.8,0.1-1.5,0.2-2.3
			C25.3,192.5,24.9,192.5,24.5,192.5z M26.9,192.3c-0.1,0.8-0.2,1.7-0.3,2.5c1,0,2,0,3.1,0c-0.1-0.9-0.3-1.7-0.4-2.6
			C28.5,192.2,27.7,192.2,26.9,192.3z M30.4,192.5c0.1,0.8,0.3,1.5,0.4,2.3c0.4,0,0.9,0,1.4,0c-0.1-0.7-0.2-1.5-0.3-2.2
			C31.3,192.5,30.9,192.5,30.4,192.5z M36.3,192.3c0.2,0.8,0.4,1.6,0.5,2.4c0.2,0,0.5,0,0.7,0c0-0.8,0-1.6,0-2.4
			C37.1,192.3,36.7,192.3,36.3,192.3z M38.7,192.3c0,0.8,0,1.7,0,2.5c0.5-0.1,1-0.2,1.6-0.3c-0.1-0.7-0.2-1.5-0.3-2.2
			C39.5,192.3,39.1,192.3,38.7,192.3z M9.9,194.7c0.5,0,1.1,0,1.6,0c0.2-0.8,0.4-1.5,0.6-2.3C11.3,193.2,10.6,193.9,9.9,194.7z
			 M16.2,192.3c0,0.8-0.1,1.7-0.1,2.5c0.3,0,0.9-0.1,1.2-0.2c0.7-0.5,0.2-1.6,0.4-2.3C17.2,192.3,16.5,192.3,16.2,192.3z
			 M32.7,192.4c0.2,0.8,0.3,1.5,0.5,2.3c0.8,0,1.6,0,2.4,0c0-0.6,0-1.3-0.1-1.9l-0.5,0.1l0.2-0.4C34.4,192.4,33.5,192.4,32.7,192.4z
			 M44.1,192.5c0.2,0.7,0.4,1.5,0.6,2.2c0.5,0,0.9-0.1,1.4-0.1C45.6,193.8,44.9,193.1,44.1,192.5z M17.9,196.7
			c-0.2,0.6,0,0.9,0.7,0.7C18.8,196.7,18.6,196.5,17.9,196.7z M37.8,196.8 M20,197.1 M35.8,197 M40.9,197.6c-0.2,0.6,0,0.7,0.6,0.6
			C41.6,197.6,41.4,197.4,40.9,197.6z M14.8,197.8 M8.9,198.6c-0.4,0.8,1.3,1.1,1.4,0.3C10.2,198.3,9.3,198.2,8.9,198.6z
			 M11.6,198.6c-0.5,0.6,0.6,1.2,1,0.6C13,198.7,11.9,198.1,11.6,198.6z M43.7,198.6c-0.5,0.6,0.6,1.2,1,0.6
			C45.2,198.6,44.1,198.1,43.7,198.6z M45.9,198.6c-0.4,0.8,1.2,1,1.3,0.3C47.1,198.3,46.2,198.3,45.9,198.6z M1.1,200.1
			c0,1.2-0.1,2.3,0,3.5c0.8,2.1,2.8,3.8,5,4.3c2.4,0.5,4.8-0.3,6.6-1.9c0.3-0.3,0.7-0.6,0.7-1.1c0.1-1.5-0.1-3-0.2-4.5
			C9.1,200.3,5.1,200.3,1.1,200.1z M43.1,200.3c-0.2,1.6-0.5,3.2-0.4,4.8c1.7,2.3,4.8,3.4,7.6,2.8c2-0.6,3.7-2,4.6-3.9
			c0.2-1.3-0.1-2.6,0-3.9C51,200.3,47.1,200.3,43.1,200.3z M15.2,200.9c-0.2,0.8-0.3,1.6-0.2,2.4c0.9,1.7,2,3.4,3.8,4.2
			c2.2,0.9,5.2,0.8,6.7-1.3c1.3-1.5,0.8-3.6,0.8-5.5c-3.7,0.1-7.5-0.3-11.2-0.3C15.2,200.5,15.2,200.8,15.2,200.9z M29.9,200.6
			c-0.3,2-0.5,4.4,1,5.9c0.9,1.1,2.3,1.4,3.6,1.6c2.4-0.1,4.8-1.3,6-3.6c0.9-1.3,0.7-2.8,0.6-4.3C37.4,200.3,33.6,200.7,29.9,200.6z
			"/>
	</g>
</g>
</svg>
