<?xml version="1.0" encoding="UTF-8" ?>
<!DOCTYPE svg PUBLIC "-//W3C//DTD SVG 1.1//EN" "http://www.w3.org/Graphics/SVG/1.1/DTD/svg11.dtd">
<svg width="107pt" height="400pt" viewBox="0 0 107 400" version="1.1" xmlns="http://www.w3.org/2000/svg">
<g id="#f6f3d4ff">
<path fill="#f6f3d4" opacity="1.00" d=" M 0.00 0.00 L 107.00 0.00 L 107.00 235.56 C 103.73 231.89 98.94 229.47 93.93 230.17 C 89.71 230.14 86.45 233.07 82.78 234.66 C 79.18 234.23 76.96 230.61 73.50 229.69 C 70.04 228.89 66.33 228.94 62.90 229.90 C 59.48 230.90 57.37 234.26 54.04 235.33 C 50.59 234.56 48.27 231.37 44.87 230.40 C 40.43 229.04 35.15 228.35 31.10 231.12 C 28.83 232.27 26.86 234.46 24.25 234.68 C 20.56 233.10 17.37 229.90 13.08 230.12 C 8.08 229.48 3.48 232.07 0.00 235.43 L 0.00 0.00 Z" />
<path fill="#f6f3d4" opacity="1.00" d=" M 5.04 235.02 C 10.52 230.22 19.66 232.96 23.19 238.86 C 24.80 241.42 24.37 244.55 24.39 247.42 C 17.14 247.39 9.90 247.29 2.65 247.20 C 2.76 243.16 1.30 237.90 5.04 235.02 Z" />
<path fill="#f6f3d4" opacity="1.00" d=" M 27.82 237.98 C 31.98 233.15 39.78 230.80 45.48 234.41 C 50.47 237.01 53.17 242.65 52.15 248.18 C 44.07 248.25 35.98 248.14 27.89 248.10 C 27.77 244.73 27.36 241.34 27.82 237.98 Z" />
<path fill="#f6f3d4" opacity="1.00" d=" M 57.22 238.25 C 60.30 234.66 65.05 231.83 69.94 232.79 C 73.45 233.17 76.43 235.22 79.26 237.17 C 79.48 240.82 79.43 244.47 79.16 248.11 C 71.36 248.15 63.55 248.21 55.74 248.19 C 55.75 244.87 54.87 241.03 57.22 238.25 Z" />
<path fill="#f6f3d4" opacity="1.00" d=" M 89.84 233.75 C 94.60 231.40 101.04 232.53 103.95 237.20 C 104.95 240.18 104.49 243.41 104.53 246.51 C 97.23 246.51 89.99 247.88 82.67 247.37 C 81.90 241.94 84.55 235.85 89.84 233.75 Z" />
</g>
<g id="#a2caaefe">
<path fill="#a2caae" opacity="1.00" d=" M 31.10 231.12 C 35.15 228.35 40.43 229.04 44.87 230.40 C 48.27 231.37 50.59 234.56 54.04 235.33 C 57.37 234.26 59.48 230.90 62.90 229.90 C 66.33 228.94 70.04 228.89 73.50 229.69 C 76.96 230.61 79.18 234.23 82.78 234.66 C 86.45 233.07 89.71 230.14 93.93 230.17 C 98.94 229.47 103.73 231.89 107.00 235.56 L 107.00 257.91 C 104.46 258.17 101.91 258.24 99.36 258.26 C 99.37 258.81 99.38 259.92 99.39 260.47 C 100.50 260.47 101.61 260.48 102.72 260.49 L 102.58 258.40 C 104.04 259.35 105.53 260.25 107.00 261.18 L 107.00 262.46 C 106.45 262.55 105.35 262.72 104.80 262.81 C 104.82 263.83 104.84 264.87 104.86 265.90 C 105.40 266.20 106.47 266.80 107.00 267.10 L 107.00 268.77 C 103.99 266.97 104.01 271.96 107.00 271.58 L 107.00 272.08 C 104.53 274.16 105.34 277.58 107.00 279.88 L 107.00 301.25 C 104.56 302.16 102.28 303.43 100.10 304.85 C 103.81 308.17 105.33 312.95 107.00 317.47 L 107.00 319.22 C 103.94 320.08 99.74 322.02 100.47 325.90 C 100.74 329.30 104.27 330.31 107.00 331.11 L 107.00 354.84 C 103.29 354.63 99.33 354.01 95.93 355.98 C 93.81 357.10 90.70 358.78 91.36 361.68 C 93.06 364.24 94.94 366.82 97.25 368.87 C 100.39 369.72 103.77 369.04 107.00 369.08 L 107.00 392.80 C 102.78 396.38 97.72 399.53 91.97 399.39 C 87.13 399.47 82.95 396.69 79.48 393.59 C 79.00 393.60 78.05 393.61 77.57 393.62 C 74.31 396.34 70.34 398.45 66.00 398.46 C 61.18 398.89 56.60 396.19 53.77 392.43 C 50.88 395.37 47.39 398.14 43.10 398.41 C 38.05 399.03 33.28 396.62 29.46 393.55 C 28.98 393.58 28.02 393.65 27.54 393.69 C 25.57 395.39 23.48 396.95 21.24 398.27 C 16.10 399.24 10.68 399.12 5.82 397.04 C 3.81 395.64 1.91 394.07 0.00 392.53 L 0.00 369.13 C 3.32 369.16 6.63 369.24 9.95 369.31 C 12.11 366.43 14.39 363.64 16.76 360.92 C 14.44 357.66 11.03 355.08 6.97 354.60 C 4.64 354.48 2.32 354.74 0.00 354.84 L 0.00 354.14 C 2.35 349.04 0.94 343.37 1.28 337.99 C 1.08 335.66 1.90 332.76 0.00 330.96 L 0.00 330.44 C 4.48 331.44 7.35 327.15 6.86 323.13 C 4.91 321.30 2.69 319.73 0.00 319.23 L 0.00 317.70 C 1.64 314.16 2.53 310.22 5.10 307.18 C 5.64 306.25 7.30 304.93 5.95 303.94 C 4.09 302.78 2.03 301.98 0.00 301.19 L 0.00 280.18 C 2.04 277.75 2.05 274.58 0.83 271.79 C 1.41 270.66 1.96 269.52 2.49 268.38 C 1.65 268.58 0.83 268.80 -0.00 269.03 L 0.00 266.15 C 2.78 267.34 2.74 261.61 0.00 263.13 L 0.00 260.82 C 0.59 260.64 1.78 260.29 2.37 260.11 C 2.43 259.73 2.54 258.95 2.60 258.56 C 1.95 258.42 0.65 258.15 0.00 258.01 L 0.00 235.43 C 3.48 232.07 8.08 229.48 13.08 230.12 C 17.37 229.90 20.56 233.10 24.25 234.68 C 26.86 234.46 28.83 232.27 31.10 231.12 M 5.04 235.02 C 1.30 237.90 2.76 243.16 2.65 247.20 C 9.90 247.29 17.14 247.39 24.39 247.42 C 24.37 244.55 24.80 241.42 23.19 238.86 C 19.66 232.96 10.52 230.22 5.04 235.02 M 27.82 237.98 C 27.36 241.34 27.77 244.73 27.89 248.10 C 35.98 248.14 44.07 248.25 52.15 248.18 C 53.17 242.65 50.47 237.01 45.48 234.41 C 39.78 230.80 31.98 233.15 27.82 237.98 M 57.22 238.25 C 54.87 241.03 55.75 244.87 55.74 248.19 C 63.55 248.21 71.36 248.15 79.16 248.11 C 79.43 244.47 79.48 240.82 79.26 237.17 C 76.43 235.22 73.45 233.17 69.94 232.79 C 65.05 231.83 60.30 234.66 57.22 238.25 M 89.84 233.75 C 84.55 235.85 81.90 241.94 82.67 247.37 C 89.99 247.88 97.23 246.51 104.53 246.51 C 104.49 243.41 104.95 240.18 103.95 237.20 C 101.04 232.53 94.60 231.40 89.84 233.75 M 3.47 258.97 C 4.85 260.68 7.34 261.08 8.67 259.06 C 8.01 258.76 6.68 258.14 6.02 257.83 C 5.38 258.12 4.11 258.68 3.47 258.97 M 9.41 258.45 C 9.47 258.95 9.57 259.97 9.62 260.48 C 10.54 260.49 11.46 260.51 12.37 260.53 C 12.35 259.98 12.31 258.88 12.29 258.32 C 11.33 258.36 10.37 258.40 9.41 258.45 M 14.33 258.40 C 14.34 258.97 14.37 260.11 14.39 260.69 C 15.40 260.67 16.42 260.67 17.43 260.66 C 17.45 260.12 17.47 259.05 17.48 258.51 C 16.43 258.47 15.38 258.44 14.33 258.40 M 19.46 258.54 C 19.43 259.15 19.36 260.36 19.33 260.97 C 20.05 261.05 21.50 261.22 22.22 261.31 C 22.58 260.38 22.79 259.42 22.85 258.42 C 21.72 258.46 20.59 258.50 19.46 258.54 M 24.41 258.57 C 24.46 259.55 24.51 260.54 24.57 261.53 C 27.16 261.60 29.48 260.29 32.05 260.15 C 32.63 259.66 33.22 259.18 33.81 258.71 C 30.68 258.93 27.54 258.78 24.41 258.57 M 74.42 258.41 C 73.53 259.49 74.53 261.52 75.96 261.40 C 77.00 260.67 77.16 259.74 76.42 258.60 C 75.92 258.55 74.92 258.46 74.42 258.41 M 78.26 258.75 C 78.29 259.65 78.32 260.55 78.37 261.46 C 79.71 261.44 81.04 261.41 82.38 261.39 C 82.66 260.75 83.21 259.47 83.49 258.83 C 81.75 258.72 80.00 258.58 78.26 258.75 M 84.21 258.40 C 84.22 259.47 84.51 260.43 85.09 261.27 C 89.23 259.76 93.72 260.59 98.04 260.34 C 98.09 259.87 98.18 258.93 98.22 258.47 C 93.55 258.56 88.85 259.16 84.21 258.40 M 38.33 264.39 C 38.07 264.57 37.56 264.93 37.30 265.11 C 41.07 266.78 44.31 269.47 47.94 271.28 C 51.74 269.60 55.81 270.12 59.62 271.27 C 62.96 269.16 66.23 266.93 69.75 265.12 C 68.05 263.08 66.45 260.95 64.96 258.76 C 57.62 258.95 50.27 258.54 42.93 258.93 C 40.60 259.77 39.77 262.55 38.33 264.39 M 4.57 262.71 C 4.60 264.65 3.97 267.23 6.95 267.14 L 6.83 268.76 C 6.18 268.73 4.89 268.69 4.25 268.67 C 4.45 269.50 4.65 270.34 4.84 271.18 C 5.76 271.31 6.67 271.45 7.59 271.58 C 7.25 268.61 7.45 265.63 7.61 262.66 C 6.60 262.67 5.59 262.69 4.57 262.71 M 9.61 262.37 C 9.72 264.40 8.77 267.16 11.33 268.17 C 11.73 266.61 12.27 265.05 12.22 263.41 C 11.35 263.05 10.48 262.71 9.61 262.37 M 95.30 262.78 C 95.29 264.35 95.30 265.92 95.33 267.50 C 95.90 267.48 97.06 267.44 97.63 267.42 C 97.61 265.85 97.57 264.28 97.51 262.72 C 96.96 262.74 95.85 262.76 95.30 262.78 M 99.65 262.51 C 99.55 263.94 99.47 265.38 99.41 266.82 C 100.50 266.73 101.58 266.65 102.66 266.56 C 102.61 265.27 102.56 263.98 102.51 262.69 C 101.55 262.63 100.60 262.57 99.65 262.51 M 16.75 267.70 C 16.73 266.18 16.73 264.66 16.74 263.14 C 13.11 261.41 12.47 269.77 16.75 267.70 M 19.62 268.72 C 20.29 268.32 21.65 267.53 22.33 267.14 C 22.36 265.61 22.37 264.08 22.34 262.56 C 18.26 261.75 18.34 266.20 19.62 268.72 M 24.50 266.62 C 25.93 265.49 27.26 264.23 28.28 262.72 C 27.45 262.76 25.80 262.86 24.97 262.90 C 23.75 263.81 24.53 265.40 24.50 266.62 M 79.18 262.95 C 79.79 264.52 81.32 265.37 82.50 266.44 C 82.65 265.82 82.95 264.58 83.10 263.95 C 82.40 262.24 80.60 262.79 79.18 262.95 M 87.85 268.58 C 87.87 269.21 87.91 270.46 87.93 271.09 C 87.74 268.32 89.53 264.70 87.17 262.59 C 83.06 262.36 84.41 268.61 87.85 268.58 M 90.42 267.90 C 91.52 267.76 92.61 267.61 93.71 267.45 C 93.34 265.79 93.35 263.93 92.11 262.62 C 89.34 262.73 90.86 266.12 90.42 267.90 M 33.28 269.30 C 28.90 272.44 25.30 276.73 20.35 279.05 C 20.53 279.23 20.90 279.57 21.08 279.75 C 26.20 284.43 33.92 286.90 40.69 284.98 C 45.07 283.26 44.88 278.28 45.23 274.38 C 43.89 271.89 41.18 270.60 38.78 269.33 C 37.14 268.37 34.86 267.97 33.28 269.30 M 63.76 272.15 C 61.45 273.69 62.48 276.67 62.49 278.97 C 62.28 282.51 65.65 285.46 69.03 285.57 C 75.44 286.03 82.20 283.81 86.74 279.18 C 81.73 276.33 77.80 272.02 73.13 268.70 C 69.64 267.70 66.51 270.37 63.76 272.15 M 99.62 268.72 C 99.57 269.63 99.52 270.54 99.47 271.45 C 100.47 271.41 101.46 271.37 102.46 271.34 C 102.51 270.42 102.57 269.50 102.63 268.59 C 101.63 268.63 100.62 268.68 99.62 268.72 M 9.81 268.50 C 9.79 269.28 9.74 270.84 9.72 271.62 C 10.31 271.56 11.49 271.43 12.08 271.37 C 11.69 270.13 11.00 269.08 9.81 268.50 M 14.23 271.63 C 15.21 271.50 16.19 271.37 17.17 271.24 C 16.42 270.25 15.64 269.30 14.83 268.37 C 14.63 269.45 14.43 270.54 14.23 271.63 M 90.53 269.34 C 90.53 269.94 90.54 271.15 90.54 271.75 C 91.59 271.48 92.65 271.21 93.70 270.94 C 92.86 269.98 91.88 269.21 90.53 269.34 M 95.42 269.45 C 95.41 269.95 95.40 270.94 95.39 271.44 C 95.88 271.49 96.86 271.59 97.35 271.64 C 97.38 271.04 97.45 269.83 97.49 269.23 C 96.97 269.28 95.94 269.39 95.42 269.45 M 50.69 272.18 C 50.74 272.91 50.83 274.39 50.88 275.12 C 49.79 275.79 48.69 276.47 47.58 277.12 C 47.57 277.78 47.55 279.08 47.53 279.73 C 48.85 278.96 50.61 278.71 51.57 277.49 C 51.49 276.63 51.34 274.92 51.27 274.07 C 51.75 273.51 52.21 272.95 52.67 272.38 C 52.17 272.33 51.18 272.23 50.69 272.18 M 55.46 272.18 C 55.37 274.17 55.39 276.16 55.54 278.15 C 56.21 278.29 57.55 278.58 58.22 278.72 C 58.56 279.05 59.23 279.72 59.57 280.06 C 59.49 279.05 59.41 278.04 59.32 277.04 C 56.57 276.11 58.46 272.61 55.46 272.18 M 4.49 273.22 C 4.44 274.93 4.39 276.64 4.34 278.36 C 5.36 278.28 6.37 278.21 7.38 278.15 C 7.51 276.58 7.61 275.02 7.69 273.46 C 6.63 273.37 5.56 273.30 4.49 273.22 M 9.83 273.48 C 9.83 274.62 9.83 275.76 9.83 276.90 C 10.81 276.07 11.85 275.25 12.42 274.07 C 11.56 273.85 10.70 273.65 9.83 273.48 M 95.00 273.63 C 95.28 275.01 96.22 276.03 97.24 276.95 C 97.28 275.85 97.31 274.74 97.34 273.65 C 96.75 273.64 95.59 273.63 95.00 273.63 M 99.48 273.46 C 99.53 275.01 99.62 276.56 99.72 278.12 C 100.76 278.18 101.81 278.26 102.86 278.33 C 102.79 276.61 102.69 274.89 102.62 273.17 C 101.57 273.26 100.53 273.36 99.48 273.46 M 48.37 285.49 C 51.64 286.32 52.97 282.58 52.36 279.99 C 50.39 280.91 46.58 282.96 48.37 285.49 M 58.25 285.79 C 61.36 283.72 57.08 281.49 55.65 279.84 C 53.95 282.23 55.15 285.58 58.25 285.79 M 88.29 282.79 C 86.35 283.79 82.78 285.13 83.93 287.86 C 84.99 290.88 84.98 294.06 84.42 297.19 C 83.72 299.93 86.52 302.31 89.07 302.33 C 92.27 302.33 95.54 302.83 98.69 302.19 C 101.44 300.78 103.80 298.73 106.11 296.70 C 107.69 291.76 103.45 287.02 98.96 285.62 C 95.39 284.66 92.19 281.34 88.29 282.79 M 13.58 283.29 C 9.71 285.47 4.62 286.10 2.11 290.17 C 1.45 292.41 1.71 294.80 1.57 297.11 C 3.98 298.97 6.19 301.23 9.06 302.38 C 12.42 302.66 15.79 302.25 19.15 302.42 C 21.01 301.44 22.48 299.95 23.44 298.07 C 20.96 294.16 23.20 289.95 23.47 285.88 C 21.09 283.28 16.89 281.19 13.58 283.29 M 62.05 286.56 C 60.57 289.23 58.75 291.69 57.32 294.39 C 57.87 294.39 58.95 294.39 59.49 294.39 C 61.22 292.57 63.36 291.23 65.26 289.60 C 66.21 287.81 63.07 287.53 62.05 286.56 M 41.55 289.07 C 43.53 290.94 45.80 292.48 47.77 294.39 C 48.26 294.42 49.24 294.48 49.73 294.51 C 48.90 291.45 46.48 289.23 44.97 286.51 C 43.83 287.33 42.39 287.91 41.55 289.07 M 50.26 287.42 C 48.64 288.39 50.44 290.82 51.87 289.63 C 53.46 288.64 51.70 286.16 50.26 287.42 M 55.18 287.37 C 53.59 288.39 55.57 290.66 56.95 289.66 C 58.53 288.64 56.57 286.35 55.18 287.37 M 25.13 291.45 C 25.62 291.38 26.61 291.25 27.10 291.18 C 27.65 290.03 28.21 288.89 28.74 287.74 C 27.39 288.83 26.17 290.06 25.13 291.45 M 29.09 291.02 C 29.67 291.76 30.26 292.51 30.85 293.26 C 32.30 291.70 33.76 290.13 35.16 288.53 C 32.77 288.24 30.32 288.74 29.09 291.02 M 71.98 288.67 C 73.50 290.10 74.68 292.17 76.77 292.82 C 77.20 292.39 78.07 291.53 78.50 291.09 C 76.79 289.16 74.58 288.01 71.98 288.67 M 78.04 287.48 C 78.97 289.23 80.03 291.05 82.02 291.73 C 81.08 289.98 79.65 288.60 78.04 287.48 M 33.62 293.30 C 36.10 294.07 37.44 291.45 38.90 289.98 C 36.80 290.47 35.06 291.73 33.62 293.30 M 68.52 289.56 C 70.67 291.67 66.93 292.83 65.35 292.66 C 66.31 293.33 67.26 294.01 68.21 294.70 C 69.00 294.02 69.79 293.33 70.58 292.64 C 71.53 293.17 72.55 293.42 73.65 293.41 C 72.17 291.83 70.35 290.67 68.52 289.56 M 37.52 294.36 C 39.27 294.49 40.70 293.49 42.04 292.51 C 40.12 291.20 38.77 293.09 37.52 294.36 M 43.02 293.18 C 41.75 293.35 41.61 295.73 42.98 295.83 C 44.27 295.66 44.42 293.27 43.02 293.18 M 63.40 293.40 C 62.46 294.17 63.32 296.51 64.61 295.63 C 65.55 294.85 64.69 292.51 63.40 293.40 M 24.79 294.51 C 25.59 295.46 26.39 296.41 27.20 297.35 C 27.51 296.69 28.13 295.36 28.44 294.69 C 27.22 294.64 26.00 294.59 24.79 294.51 M 79.95 297.26 C 81.57 297.33 82.70 294.46 81.04 293.75 C 79.35 293.59 78.28 296.55 79.95 297.26 M 29.32 295.62 C 30.24 297.02 31.24 298.36 32.41 299.57 C 32.47 298.57 32.46 297.56 32.35 296.57 C 32.27 295.03 30.20 295.83 29.32 295.62 M 48.31 298.82 C 48.35 300.49 48.22 302.19 48.59 303.84 C 49.81 305.72 51.99 306.47 53.91 307.39 C 55.96 306.22 58.34 305.07 59.21 302.69 C 59.87 299.44 57.23 296.04 53.96 295.74 C 51.61 295.45 49.89 297.39 48.31 298.82 M 74.80 295.80 C 74.71 297.05 74.64 298.31 74.57 299.57 C 76.14 298.61 77.07 297.04 77.77 295.38 C 76.78 295.51 75.79 295.65 74.80 295.80 M 34.51 296.36 C 33.63 297.74 35.71 299.93 37.12 298.96 C 38.28 297.51 35.92 295.38 34.51 296.36 M 69.73 298.22 C 70.41 300.64 73.89 297.99 72.57 296.34 C 71.37 295.54 69.64 296.88 69.73 298.22 M 41.09 298.94 C 42.79 298.53 41.49 296.02 40.09 296.47 C 38.37 296.92 39.67 299.37 41.09 298.94 M 65.95 298.96 C 67.38 299.39 68.68 296.93 66.96 296.48 C 65.56 296.05 64.25 298.54 65.95 298.96 M 38.55 301.73 C 38.75 303.02 38.47 304.54 39.38 305.62 C 41.58 305.79 43.43 304.24 45.38 303.45 C 45.34 302.99 45.26 302.07 45.22 301.61 C 42.99 301.66 40.77 301.70 38.55 301.73 M 22.99 306.77 C 25.17 309.68 28.86 310.44 32.12 311.50 C 34.96 309.33 37.21 306.35 36.76 302.56 C 32.84 301.60 28.79 301.45 24.78 301.21 C 23.93 302.94 21.85 304.68 22.99 306.77 M 61.27 302.94 C 63.14 303.98 64.98 305.22 67.09 305.72 C 69.22 305.53 68.18 303.07 68.54 301.69 C 66.10 301.84 63.19 300.96 61.27 302.94 M 70.63 305.88 C 71.35 308.20 73.39 309.71 75.03 311.38 C 78.96 310.35 84.65 309.13 84.68 304.03 C 83.54 302.99 82.70 300.94 80.82 301.30 C 77.90 301.47 74.98 301.70 72.06 301.97 C 70.13 302.42 70.43 304.36 70.63 305.88 M 9.80 306.76 C 10.91 308.31 12.62 308.69 14.44 308.63 C 14.46 308.09 14.51 307.00 14.54 306.46 C 12.96 306.51 11.38 306.61 9.80 306.76 M 45.79 306.26 C 44.12 309.11 49.08 306.56 45.79 306.26 M 60.34 305.91 C 60.34 306.32 60.33 307.15 60.32 307.56 C 60.73 307.56 61.56 307.57 61.97 307.58 L 62.35 306.79 C 62.05 306.48 61.45 305.88 61.15 305.57 L 60.34 305.91 M 86.61 308.56 C 87.13 308.70 88.17 308.97 88.69 309.10 C 87.93 311.48 88.20 313.88 90.13 315.58 C 90.58 314.07 91.59 312.61 91.40 310.98 C 90.59 309.35 89.42 307.95 88.56 306.36 C 87.89 307.08 87.25 307.81 86.61 308.56 M 92.62 306.43 C 92.62 306.98 92.61 308.08 92.61 308.63 C 94.48 308.69 96.22 308.17 97.61 306.88 C 95.95 306.67 94.29 306.52 92.62 306.43 M 16.00 310.07 C 15.12 311.93 16.55 313.87 16.98 315.67 C 18.71 313.79 20.27 311.41 18.13 309.02 C 18.77 308.91 20.06 308.71 20.70 308.60 C 20.24 308.17 19.77 307.74 19.30 307.33 C 18.82 308.86 17.20 309.25 16.00 310.07 M 47.60 309.01 C 48.57 310.30 49.51 310.30 50.42 309.01 C 49.44 307.70 48.50 307.70 47.60 309.01 M 56.69 308.98 C 57.55 310.31 58.46 310.31 59.42 309.00 C 58.58 307.65 57.67 307.64 56.69 308.98 M 38.79 310.93 C 40.07 313.77 43.25 309.00 40.20 308.84 C 39.84 309.36 39.14 310.41 38.79 310.93 M 66.42 309.29 C 65.26 310.21 66.58 312.51 67.95 311.63 C 69.22 310.72 67.76 308.42 66.42 309.29 M 7.36 310.03 C 6.38 312.03 10.53 312.72 10.83 310.85 C 10.61 309.33 8.28 308.90 7.36 310.03 M 35.15 314.73 C 35.65 314.57 36.65 314.26 37.15 314.10 C 37.22 312.75 37.27 311.40 37.30 310.05 C 36.26 311.45 35.45 312.99 35.15 314.73 M 96.00 311.45 C 97.47 311.35 98.94 311.24 100.40 311.04 C 98.92 309.60 97.27 310.12 96.00 311.45 M 44.20 311.37 C 44.18 313.78 46.35 313.28 48.06 313.21 C 48.22 312.80 48.53 311.99 48.69 311.58 C 47.19 311.47 45.70 311.40 44.20 311.37 M 58.42 311.74 C 59.88 312.83 61.35 313.92 62.76 315.09 C 62.03 315.25 60.57 315.57 59.84 315.72 C 60.27 316.20 61.14 317.16 61.57 317.63 C 63.28 317.41 64.96 317.03 66.60 316.50 C 66.60 315.94 66.61 314.83 66.61 314.28 C 65.66 314.43 63.76 314.73 62.80 314.88 C 62.75 313.66 62.67 312.45 62.57 311.23 C 61.19 311.38 59.80 311.54 58.42 311.74 M 70.05 311.34 C 68.81 312.41 70.14 315.24 71.79 314.56 C 73.10 313.50 71.71 310.64 70.05 311.34 M 47.54 320.26 C 48.78 322.80 51.21 323.98 53.96 323.99 C 56.29 323.60 59.23 322.90 59.41 320.03 C 57.43 317.42 54.93 315.15 53.86 311.96 C 52.01 314.91 49.91 317.70 47.54 320.26 M 5.51 313.65 C 4.06 315.86 8.66 315.87 7.46 313.63 C 6.98 313.64 6.00 313.64 5.51 313.65 M 11.53 315.06 C 12.40 315.95 13.28 316.83 14.17 317.69 C 14.35 315.98 14.63 314.17 13.21 312.89 C 12.79 313.43 11.95 314.52 11.53 315.06 M 92.59 317.45 C 93.72 316.78 96.45 315.71 95.00 314.10 C 93.09 311.54 92.36 316.06 92.59 317.45 M 100.96 315.42 C 102.18 314.71 102.19 313.98 100.98 313.21 C 99.76 313.89 99.76 314.63 100.96 315.42 M 22.16 313.86 C 20.86 317.16 21.04 320.83 20.73 324.31 C 22.19 324.45 23.64 324.53 25.10 324.54 C 27.12 323.79 28.20 321.82 29.37 320.17 C 29.35 318.03 29.41 315.90 29.41 313.78 C 27.00 313.69 24.55 313.37 22.16 313.86 M 40.10 314.38 C 40.73 317.79 45.47 318.57 47.45 315.83 C 45.08 315.00 42.62 314.38 40.10 314.38 M 77.63 313.82 C 77.72 317.18 77.45 321.32 80.47 323.58 C 81.96 325.17 84.30 324.54 86.16 324.16 C 86.38 320.72 86.73 316.71 84.72 313.77 C 82.37 313.37 79.98 313.70 77.63 313.82 M 32.00 317.61 C 33.36 318.45 34.73 316.22 33.54 315.29 C 32.20 314.42 30.70 316.70 32.00 317.61 M 73.48 315.30 C 72.36 316.31 73.89 318.43 75.19 317.55 C 76.38 316.54 74.77 314.38 73.48 315.30 M 101.58 317.07 C 102.36 318.26 103.11 318.26 103.82 317.07 C 103.07 315.87 102.32 315.87 101.58 317.07 M 10.01 319.42 C 11.33 318.54 11.32 317.63 9.98 316.67 C 8.66 317.55 8.67 318.46 10.01 319.42 M 35.95 317.77 C 37.32 320.14 39.75 321.24 42.40 320.33 C 40.58 318.84 38.53 316.54 35.95 317.77 M 64.79 320.30 C 67.43 321.21 70.79 320.30 70.78 317.02 C 68.47 317.45 66.52 318.76 64.79 320.30 M 97.28 317.11 C 95.87 317.72 95.84 318.33 97.18 318.96 C 98.62 318.34 98.65 317.73 97.28 317.11 M 9.54 322.94 C 9.58 323.61 9.63 324.28 9.68 324.96 C 13.56 324.88 19.65 323.55 18.53 318.33 C 15.66 320.10 12.75 321.86 9.54 322.94 M 88.80 318.39 C 88.72 319.45 88.65 320.52 88.59 321.60 C 89.92 322.64 91.33 323.56 92.75 324.48 C 94.56 324.56 96.38 324.60 98.19 324.65 C 97.95 324.20 97.48 323.30 97.24 322.85 C 94.27 321.66 91.51 320.06 88.80 318.39 M 33.34 320.42 C 32.56 321.72 34.89 322.53 35.68 321.64 C 36.47 320.33 34.13 319.50 33.34 320.42 M 72.22 320.13 C 71.96 320.45 71.44 321.09 71.17 321.41 C 71.94 324.81 75.99 319.31 72.22 320.13 M 28.22 325.57 C 32.71 328.03 33.95 333.77 31.73 338.22 C 31.95 338.83 32.39 340.04 32.61 340.65 C 34.30 341.98 36.31 344.04 38.66 343.11 C 43.02 341.19 47.42 339.02 52.32 339.14 C 51.87 335.77 51.69 332.38 51.42 329.00 C 51.36 326.64 48.92 325.33 47.04 324.50 C 42.39 323.41 37.66 325.36 32.99 324.41 C 31.21 322.46 29.59 324.17 28.22 325.57 M 74.06 324.23 C 70.41 325.72 66.71 323.68 63.03 323.67 C 60.22 324.20 57.06 325.49 55.85 328.31 C 55.22 331.90 55.53 335.58 55.31 339.21 C 58.58 339.27 61.81 339.96 64.72 341.46 C 66.66 342.25 68.56 343.65 70.77 343.26 C 72.75 342.43 74.63 340.98 75.43 338.93 C 74.99 336.56 74.03 334.20 74.50 331.76 C 74.66 329.17 76.88 327.54 78.37 325.68 C 78.75 323.02 75.62 323.40 74.06 324.23 M 19.24 326.20 C 19.68 328.28 20.82 330.07 22.39 331.49 C 23.25 328.91 21.54 327.03 19.24 326.20 M 85.84 326.84 C 85.06 328.27 84.36 329.78 84.54 331.46 C 86.21 330.25 87.33 328.55 88.01 326.63 C 87.47 326.68 86.39 326.79 85.84 326.84 M 16.62 329.50 C 16.99 329.53 17.72 329.60 18.08 329.64 L 18.47 328.98 C 18.12 328.51 17.41 327.57 17.06 327.10 C 15.83 327.55 15.69 328.35 16.62 329.50 M 23.98 327.25 C 24.78 330.52 26.84 333.13 29.88 334.61 C 30.03 333.99 30.18 333.39 30.33 332.78 C 28.21 330.79 27.50 327.18 23.98 327.25 M 79.69 328.80 C 78.71 330.09 79.70 331.72 79.89 333.11 C 81.72 331.47 82.67 329.21 82.65 326.77 C 81.63 327.39 80.64 328.06 79.69 328.80 M 89.09 328.97 C 89.40 330.59 91.60 329.19 91.34 328.02 C 90.98 326.39 88.80 327.75 89.09 328.97 M 5.26 331.22 C 4.94 334.88 8.34 338.85 12.18 337.43 C 10.20 335.08 8.73 331.51 5.26 331.22 M 92.43 331.44 C 92.45 331.93 92.47 332.91 92.49 333.40 C 92.99 333.44 94.01 333.51 94.52 333.54 C 94.50 333.04 94.47 332.05 94.46 331.56 C 93.95 331.53 92.94 331.47 92.43 331.44 M 94.98 337.38 C 98.51 338.91 102.88 334.84 101.49 331.26 C 98.37 331.86 96.99 335.25 94.98 337.38 M 13.33 331.98 C 12.98 335.35 16.41 330.88 13.33 331.98 M 76.85 332.40 C 75.56 333.38 77.25 335.48 78.53 334.62 C 79.73 333.63 78.15 331.54 76.85 332.40 M 15.89 333.63 C 15.60 334.32 15.03 335.72 14.74 336.42 C 17.23 337.12 18.96 335.40 20.44 333.64 C 18.92 333.58 17.41 333.58 15.89 333.63 M 86.76 333.71 C 88.28 335.62 90.27 337.29 92.86 336.23 C 91.73 333.70 89.28 332.95 86.76 333.71 M 2.47 339.58 C 3.42 338.73 4.36 337.87 5.30 337.01 C 4.94 336.46 4.22 335.35 3.86 334.80 C 2.96 336.24 2.31 337.84 2.47 339.58 M 20.65 336.63 C 20.54 337.09 20.33 338.02 20.23 338.49 C 22.49 338.09 24.78 337.49 26.45 335.80 C 24.43 335.11 22.42 335.53 20.65 336.63 M 80.73 335.76 C 82.37 337.64 84.85 338.03 87.19 338.35 C 86.18 335.61 83.29 334.88 80.73 335.76 M 102.83 335.38 C 102.86 338.07 99.81 339.93 100.65 342.60 C 101.55 343.82 103.13 344.16 104.38 344.88 C 104.65 343.16 104.35 341.47 103.16 340.11 C 103.76 339.95 104.97 339.62 105.57 339.46 C 104.69 338.19 104.79 335.54 102.83 335.38 M 28.11 336.15 C 26.93 336.33 26.59 338.69 27.97 338.79 C 29.25 338.61 29.64 336.19 28.11 336.15 M 77.59 336.95 C 77.58 338.28 79.37 339.19 80.51 338.59 C 81.66 337.01 78.31 335.09 77.59 336.95 M 89.12 341.20 C 85.56 342.34 81.83 341.30 78.20 341.45 C 76.79 342.13 75.68 343.29 74.46 344.26 C 74.43 345.20 74.39 346.15 74.36 347.11 C 78.60 350.31 82.63 353.78 86.58 357.33 C 87.97 358.52 89.42 357.13 90.57 356.37 C 92.81 354.64 95.65 353.67 97.41 351.37 C 95.21 347.91 98.10 343.07 95.14 340.06 C 93.19 338.27 91.00 340.49 89.12 341.20 M 3.85 344.95 C 5.85 343.76 7.11 341.89 6.61 339.49 C 4.38 340.26 0.65 342.73 3.85 344.95 M 11.63 340.58 C 9.66 344.16 11.09 348.53 10.29 352.43 C 13.66 353.84 16.29 357.08 19.87 357.73 C 24.53 353.93 29.26 350.14 33.67 346.04 C 32.26 344.36 31.06 342.08 28.82 341.44 C 24.73 341.33 20.26 342.68 16.52 340.42 C 15.09 339.48 12.67 338.61 11.63 340.58 M 2.86 347.95 C 3.42 348.39 4.55 349.26 5.12 349.69 C 6.70 348.28 7.88 346.52 8.69 344.56 C 6.26 344.59 4.56 346.48 2.86 347.95 M 104.55 348.08 C 102.88 346.63 101.11 345.31 99.30 344.05 C 98.66 347.02 101.76 350.96 104.55 348.08 M 51.53 348.57 C 51.62 349.51 51.70 350.46 51.78 351.41 C 52.99 351.45 54.20 351.46 55.41 351.47 C 55.48 350.48 55.54 349.49 55.60 348.50 C 54.24 348.51 52.89 348.53 51.53 348.57 M 47.43 349.19 C 46.21 350.63 48.68 352.38 49.67 350.80 C 50.87 349.35 48.42 347.58 47.43 349.19 M 56.50 350.23 C 58.05 350.49 59.63 350.55 61.20 350.52 C 59.74 349.56 57.93 348.55 56.50 350.23 M 36.31 357.45 C 37.64 357.57 38.98 357.69 40.32 357.78 C 40.57 356.23 40.75 354.67 41.07 353.14 C 38.65 353.29 35.99 354.66 36.31 357.45 M 41.78 356.04 C 41.50 358.76 44.46 358.44 46.28 358.41 C 46.12 356.60 45.94 354.79 45.73 352.99 C 43.45 352.09 41.14 353.35 41.78 356.04 M 47.62 358.38 C 48.28 358.42 49.60 358.48 50.25 358.52 C 50.28 356.06 50.54 353.26 47.70 352.27 C 47.46 354.30 47.52 356.34 47.62 358.38 M 51.88 354.10 C 51.89 355.56 52.08 357.02 52.23 358.48 C 52.96 358.46 54.42 358.43 55.16 358.41 C 55.20 356.92 55.27 355.43 55.19 353.96 C 54.48 352.46 52.60 352.82 51.88 354.10 M 57.11 358.50 C 57.90 358.43 59.47 358.29 60.25 358.22 C 60.22 356.18 59.89 354.16 59.18 352.25 C 56.64 353.39 57.31 356.28 57.11 358.50 M 61.62 352.47 C 61.41 354.51 61.25 356.57 61.21 358.63 C 62.16 358.47 64.06 358.15 65.01 358.00 C 65.22 356.51 65.40 355.03 65.54 353.54 C 64.23 353.18 62.92 352.83 61.62 352.47 M 66.42 357.55 C 67.86 357.59 69.30 357.60 70.75 357.62 C 71.24 355.42 69.62 353.85 67.71 353.13 C 66.24 354.09 66.83 356.09 66.42 357.55 M 31.67 362.37 C 32.35 362.35 33.71 362.33 34.39 362.31 C 34.11 361.00 35.05 358.66 32.98 358.68 C 31.31 359.30 31.66 360.95 31.67 362.37 M 36.42 359.32 C 36.35 360.41 36.29 361.50 36.22 362.60 C 36.93 362.79 38.33 363.16 39.04 363.35 C 39.53 362.24 40.02 361.12 40.49 360.01 C 39.14 359.74 37.78 359.52 36.42 359.32 M 67.40 359.66 C 67.39 360.59 67.37 361.53 67.35 362.47 C 68.09 362.71 69.57 363.19 70.30 363.44 C 70.84 362.14 70.92 360.75 70.90 359.37 C 69.73 359.46 68.57 359.56 67.40 359.66 M 73.33 359.39 C 71.98 360.40 73.56 362.98 75.02 361.87 C 76.38 360.84 74.80 358.26 73.33 359.39 M 28.56 360.20 C 27.95 361.88 28.45 362.43 30.05 361.85 C 30.67 360.17 30.17 359.62 28.56 360.20 M 41.60 360.33 C 41.53 361.34 41.46 362.35 41.40 363.37 C 42.93 363.45 44.46 363.52 45.99 363.58 C 45.89 362.52 46.77 359.97 44.77 360.39 C 43.71 360.34 42.66 360.33 41.60 360.33 M 47.63 360.49 C 47.60 361.51 47.56 362.54 47.52 363.57 C 48.44 363.51 49.35 363.45 50.27 363.40 C 50.30 362.43 50.33 361.47 50.37 360.51 C 49.45 360.49 48.54 360.49 47.63 360.49 M 52.32 360.07 C 52.25 361.50 52.21 362.93 52.19 364.37 C 53.64 364.31 54.87 363.51 55.27 362.07 C 55.82 360.16 53.40 360.39 52.32 360.07 M 57.17 363.59 C 57.80 363.58 59.06 363.55 59.69 363.54 C 59.63 362.43 59.56 361.31 59.48 360.21 C 57.17 359.87 56.66 361.70 57.17 363.59 M 60.56 360.69 C 60.82 361.41 61.32 362.85 61.57 363.57 C 62.94 363.52 64.31 363.47 65.68 363.42 C 65.65 362.35 65.61 361.27 65.56 360.21 C 63.89 360.34 62.23 360.50 60.56 360.69 M 77.87 362.27 C 79.26 361.46 79.21 360.63 77.72 359.80 C 76.29 360.60 76.34 361.42 77.87 362.27 M 30.88 364.76 C 30.93 366.34 31.00 367.93 31.08 369.52 C 31.72 369.55 33.01 369.61 33.65 369.64 C 33.82 368.00 34.01 366.37 34.19 364.74 C 33.37 364.75 31.71 364.76 30.88 364.76 M 77.61 364.53 C 77.76 366.23 77.91 367.92 78.09 369.62 C 79.67 369.62 81.25 369.62 82.83 369.61 C 82.68 367.95 82.50 366.28 82.32 364.63 C 80.75 364.58 79.18 364.54 77.61 364.53 M 24.81 364.74 C 24.63 366.36 24.45 367.98 24.26 369.61 C 25.94 369.59 27.63 369.55 29.31 369.49 C 29.40 367.83 29.47 366.16 29.54 364.50 C 27.96 364.56 26.38 364.64 24.81 364.74 M 36.91 370.52 C 37.55 368.40 39.44 365.69 36.85 364.11 C 36.12 366.21 36.06 368.44 36.91 370.52 M 39.47 369.59 C 41.19 369.60 42.93 369.62 44.66 369.63 L 44.78 367.51 C 46.01 368.85 47.57 369.69 49.43 369.71 C 49.54 368.27 49.64 366.84 49.72 365.41 C 49.24 365.40 48.27 365.38 47.79 365.36 C 47.35 366.39 46.62 367.16 45.60 367.68 C 46.42 364.21 42.56 365.30 40.74 364.55 C 40.07 366.16 39.63 367.85 39.47 369.59 M 52.31 365.29 C 51.86 366.68 51.65 368.14 51.40 369.59 C 52.80 369.62 54.19 369.65 55.58 369.69 C 55.47 368.21 55.35 366.73 55.24 365.27 C 54.26 365.25 53.29 365.26 52.31 365.29 M 57.41 365.30 C 57.52 366.65 57.63 368.01 57.74 369.38 C 58.54 369.49 59.34 369.61 60.13 369.73 C 60.67 368.53 61.25 367.37 61.87 366.22 C 60.99 370.66 64.96 369.48 67.55 369.60 C 67.49 368.23 67.43 366.86 67.37 365.49 C 65.37 364.76 63.28 364.66 61.49 365.96 C 60.12 365.78 58.76 365.54 57.41 365.30 M 68.60 364.71 C 68.87 366.36 69.16 368.02 69.47 369.68 C 69.93 369.66 70.85 369.63 71.32 369.61 C 71.34 368.11 71.36 366.62 71.38 365.13 C 70.69 365.02 69.29 364.82 68.60 364.71 M 73.28 369.57 C 74.36 369.50 75.44 369.43 76.52 369.35 C 75.72 367.77 76.83 363.78 73.85 364.58 C 73.26 366.18 73.38 367.90 73.28 369.57 M 19.47 369.39 C 21.99 370.34 22.68 367.95 22.86 365.97 C 21.69 367.07 20.56 368.21 19.47 369.39 M 84.27 365.81 C 84.41 367.07 84.56 368.33 84.72 369.60 C 85.76 369.60 86.79 369.58 87.83 369.55 C 87.25 367.81 85.67 366.83 84.27 365.81 M 2.52 380.10 C 2.31 382.36 2.13 384.64 2.06 386.93 C 4.34 391.81 9.46 395.57 14.97 395.40 C 19.04 395.06 22.71 392.91 25.70 390.23 C 25.64 387.01 25.51 383.79 25.30 380.58 C 17.71 380.44 10.09 380.80 2.52 380.10 M 81.81 380.62 C 81.63 383.77 81.48 386.92 81.47 390.08 C 84.59 393.08 88.55 395.45 93.07 394.90 C 97.85 395.43 101.85 392.15 104.38 388.43 C 106.03 385.98 104.99 382.93 105.19 380.20 C 97.40 380.68 89.60 380.46 81.81 380.62 M 28.91 380.71 C 28.85 382.11 28.79 383.51 28.74 384.91 C 29.86 387.97 31.39 391.05 34.11 393.01 C 38.28 395.96 44.84 396.72 48.55 392.64 C 51.82 389.65 51.29 384.87 51.13 380.88 C 43.72 380.94 36.32 380.61 28.91 380.71 M 56.58 380.85 C 56.33 383.86 55.99 386.96 56.71 389.94 C 58.80 394.69 64.73 396.68 69.46 394.80 C 75.01 393.04 80.25 386.42 77.51 380.52 C 70.54 380.84 63.56 380.87 56.58 380.85 Z" />
</g>
<g id="#2630293d">
<path fill="#263029" opacity="0.24" d=" M 0.00 258.01 C 0.65 258.15 1.95 258.42 2.60 258.56 C 2.54 258.95 2.43 259.73 2.37 260.11 C 1.78 260.29 0.59 260.64 0.00 260.82 L 0.00 258.01 Z" />
<path fill="#263029" opacity="0.24" d=" M 3.47 258.97 C 4.11 258.68 5.38 258.12 6.02 257.83 C 6.68 258.14 8.01 258.76 8.67 259.06 C 7.34 261.08 4.85 260.68 3.47 258.97 Z" />
<path fill="#263029" opacity="0.24" d=" M 9.41 258.45 C 10.37 258.40 11.33 258.36 12.29 258.32 C 12.31 258.88 12.35 259.98 12.37 260.53 C 11.46 260.51 10.54 260.49 9.62 260.48 C 9.57 259.97 9.47 258.95 9.41 258.45 Z" />
<path fill="#263029" opacity="0.24" d=" M 14.33 258.40 C 15.38 258.44 16.43 258.47 17.48 258.51 C 17.47 259.05 17.45 260.12 17.43 260.66 C 16.42 260.67 15.40 260.67 14.39 260.69 C 14.37 260.11 14.34 258.97 14.33 258.40 Z" />
<path fill="#263029" opacity="0.24" d=" M 19.46 258.54 C 20.59 258.50 21.72 258.46 22.85 258.42 C 22.79 259.42 22.58 260.38 22.22 261.31 C 21.50 261.22 20.05 261.05 19.33 260.97 C 19.36 260.36 19.43 259.15 19.46 258.54 Z" />
<path fill="#263029" opacity="0.24" d=" M 24.41 258.57 C 27.54 258.78 30.68 258.93 33.81 258.71 C 33.22 259.18 32.63 259.66 32.05 260.15 C 29.48 260.29 27.16 261.60 24.57 261.53 C 24.51 260.54 24.46 259.55 24.41 258.57 Z" />
<path fill="#263029" opacity="0.24" d=" M 74.42 258.41 C 74.92 258.46 75.92 258.55 76.42 258.60 C 77.16 259.74 77.00 260.67 75.96 261.40 C 74.53 261.52 73.53 259.49 74.42 258.41 Z" />
<path fill="#263029" opacity="0.24" d=" M 78.26 258.75 C 80.00 258.58 81.75 258.72 83.49 258.83 C 83.21 259.47 82.66 260.75 82.38 261.39 C 81.04 261.41 79.71 261.44 78.37 261.46 C 78.32 260.55 78.29 259.65 78.26 258.75 Z" />
<path fill="#263029" opacity="0.24" d=" M 84.21 258.40 C 88.85 259.16 93.55 258.56 98.22 258.47 C 98.18 258.93 98.09 259.87 98.04 260.34 C 93.72 260.59 89.23 259.76 85.09 261.27 C 84.51 260.43 84.22 259.47 84.21 258.40 Z" />
<path fill="#263029" opacity="0.24" d=" M 99.36 258.26 C 101.91 258.24 104.46 258.17 107.00 257.91 L 107.00 261.18 C 105.53 260.25 104.04 259.35 102.58 258.40 L 102.72 260.49 C 101.61 260.48 100.50 260.47 99.39 260.47 C 99.38 259.92 99.37 258.81 99.36 258.26 Z" />
<path fill="#263029" opacity="0.24" d=" M 4.57 262.71 C 5.59 262.69 6.60 262.67 7.61 262.66 C 7.45 265.63 7.25 268.61 7.59 271.58 C 6.67 271.45 5.76 271.31 4.84 271.18 C 4.65 270.34 4.45 269.50 4.25 268.67 C 4.89 268.69 6.18 268.73 6.83 268.76 L 6.95 267.14 C 3.97 267.23 4.60 264.65 4.57 262.71 Z" />
<path fill="#263029" opacity="0.24" d=" M 9.61 262.37 C 10.48 262.71 11.35 263.05 12.22 263.41 C 12.27 265.05 11.73 266.61 11.33 268.17 C 8.77 267.16 9.72 264.40 9.61 262.37 Z" />
<path fill="#263029" opacity="0.24" d=" M 95.30 262.78 C 95.85 262.76 96.96 262.74 97.51 262.72 C 97.57 264.28 97.61 265.85 97.63 267.42 C 97.06 267.44 95.90 267.48 95.33 267.50 C 95.30 265.92 95.29 264.35 95.30 262.78 Z" />
<path fill="#263029" opacity="0.24" d=" M 99.65 262.51 C 100.60 262.57 101.55 262.63 102.51 262.69 C 102.56 263.98 102.61 265.27 102.66 266.56 C 101.58 266.65 100.50 266.73 99.41 266.82 C 99.47 265.38 99.55 263.94 99.65 262.51 Z" />
<path fill="#263029" opacity="0.24" d=" M 104.80 262.81 C 105.35 262.72 106.45 262.55 107.00 262.46 L 107.00 267.10 C 106.47 266.80 105.40 266.20 104.86 265.90 C 104.84 264.87 104.82 263.83 104.80 262.81 Z" />
<path fill="#263029" opacity="0.24" d=" M 0.00 263.13 C 2.74 261.61 2.78 267.34 0.00 266.15 L 0.00 263.13 Z" />
<path fill="#263029" opacity="0.24" d=" M 16.75 267.70 C 12.47 269.77 13.11 261.41 16.74 263.14 C 16.73 264.66 16.73 266.18 16.75 267.70 Z" />
<path fill="#263029" opacity="0.24" d=" M 19.62 268.72 C 18.34 266.20 18.26 261.75 22.34 262.56 C 22.37 264.08 22.36 265.61 22.33 267.14 C 21.65 267.53 20.29 268.32 19.62 268.72 Z" />
<path fill="#263029" opacity="0.24" d=" M 24.50 266.62 C 24.53 265.40 23.75 263.81 24.97 262.90 C 25.80 262.86 27.45 262.76 28.28 262.72 C 27.26 264.23 25.93 265.49 24.50 266.62 Z" />
<path fill="#263029" opacity="0.24" d=" M 79.18 262.95 C 80.60 262.79 82.40 262.24 83.10 263.95 C 82.95 264.58 82.65 265.82 82.50 266.44 C 81.32 265.37 79.79 264.52 79.18 262.95 Z" />
<path fill="#263029" opacity="0.24" d=" M 87.85 268.58 C 84.41 268.61 83.06 262.36 87.17 262.59 C 89.53 264.70 87.74 268.32 87.93 271.09 C 87.91 270.46 87.87 269.21 87.85 268.58 Z" />
<path fill="#263029" opacity="0.24" d=" M 90.42 267.90 C 90.86 266.12 89.34 262.73 92.11 262.62 C 93.35 263.93 93.34 265.79 93.71 267.45 C 92.61 267.61 91.52 267.76 90.42 267.90 Z" />
<path fill="#263029" opacity="0.24" d=" M -0.00 269.03 C 0.83 268.80 1.65 268.58 2.49 268.38 C 1.96 269.52 1.41 270.66 0.83 271.79 C 2.05 274.58 2.04 277.75 0.00 280.18 L 0.00 269.03 Z" />
<path fill="#263029" opacity="0.24" d=" M 99.62 268.72 C 100.62 268.68 101.63 268.63 102.63 268.59 C 102.57 269.50 102.51 270.42 102.46 271.34 C 101.46 271.37 100.47 271.41 99.47 271.45 C 99.52 270.54 99.57 269.63 99.62 268.72 Z" />
<path fill="#263029" opacity="0.24" d=" M 107.00 271.58 C 104.01 271.96 103.99 266.97 107.00 268.77 L 107.00 271.58 Z" />
<path fill="#263029" opacity="0.24" d=" M 9.81 268.50 C 11.00 269.08 11.69 270.13 12.08 271.37 C 11.49 271.43 10.31 271.56 9.72 271.62 C 9.74 270.84 9.79 269.28 9.81 268.50 Z" />
<path fill="#263029" opacity="0.24" d=" M 14.23 271.63 C 14.43 270.54 14.63 269.45 14.83 268.37 C 15.64 269.30 16.42 270.25 17.17 271.24 C 16.19 271.37 15.21 271.50 14.23 271.63 Z" />
<path fill="#263029" opacity="0.24" d=" M 90.53 269.34 C 91.88 269.21 92.86 269.98 93.70 270.94 C 92.65 271.21 91.59 271.48 90.54 271.75 C 90.54 271.15 90.53 269.94 90.53 269.34 Z" />
<path fill="#263029" opacity="0.24" d=" M 95.42 269.45 C 95.94 269.39 96.97 269.28 97.49 269.23 C 97.45 269.83 97.38 271.04 97.35 271.64 C 96.86 271.59 95.88 271.49 95.39 271.44 C 95.40 270.94 95.41 269.95 95.42 269.45 Z" />
<path fill="#263029" opacity="0.24" d=" M 4.49 273.22 C 5.56 273.30 6.63 273.37 7.69 273.46 C 7.61 275.02 7.51 276.58 7.38 278.15 C 6.37 278.21 5.36 278.28 4.34 278.36 C 4.39 276.64 4.44 274.93 4.49 273.22 Z" />
<path fill="#263029" opacity="0.24" d=" M 9.83 273.48 C 10.70 273.65 11.56 273.85 12.42 274.07 C 11.85 275.25 10.81 276.07 9.83 276.90 C 9.83 275.76 9.83 274.62 9.83 273.48 Z" />
<path fill="#263029" opacity="0.24" d=" M 95.00 273.63 C 95.59 273.63 96.75 273.64 97.34 273.65 C 97.31 274.74 97.28 275.85 97.24 276.95 C 96.22 276.03 95.28 275.01 95.00 273.63 Z" />
<path fill="#263029" opacity="0.24" d=" M 99.48 273.46 C 100.53 273.36 101.57 273.26 102.62 273.17 C 102.69 274.89 102.79 276.61 102.86 278.33 C 101.81 278.26 100.76 278.18 99.72 278.12 C 99.62 276.56 99.53 275.01 99.48 273.46 Z" />
<path fill="#263029" opacity="0.24" d=" M 107.00 279.88 C 105.34 277.58 104.53 274.16 107.00 272.08 L 107.00 279.88 Z" />
<path fill="#263029" opacity="0.24" d=" M 48.37 285.49 C 46.58 282.96 50.39 280.91 52.36 279.99 C 52.97 282.58 51.64 286.32 48.37 285.49 Z" />
<path fill="#263029" opacity="0.24" d=" M 58.25 285.79 C 55.15 285.58 53.95 282.23 55.65 279.84 C 57.08 281.49 61.36 283.72 58.25 285.79 Z" />
<path fill="#263029" opacity="0.24" d=" M 50.26 287.42 C 51.70 286.16 53.46 288.64 51.87 289.63 C 50.44 290.82 48.64 288.39 50.26 287.42 Z" />
<path fill="#263029" opacity="0.24" d=" M 55.18 287.37 C 56.57 286.35 58.53 288.64 56.95 289.66 C 55.57 290.66 53.59 288.39 55.18 287.37 Z" />
<path fill="#263029" opacity="0.24" d=" M 25.13 291.45 C 26.17 290.06 27.39 288.83 28.74 287.74 C 28.21 288.89 27.65 290.03 27.10 291.18 C 26.61 291.25 25.62 291.38 25.13 291.45 Z" />
<path fill="#263029" opacity="0.24" d=" M 29.09 291.02 C 30.32 288.74 32.77 288.24 35.16 288.53 C 33.76 290.13 32.30 291.70 30.85 293.26 C 30.26 292.51 29.67 291.76 29.09 291.02 Z" />
<path fill="#263029" opacity="0.24" d=" M 71.98 288.67 C 74.58 288.01 76.79 289.16 78.50 291.09 C 78.07 291.53 77.20 292.39 76.77 292.82 C 74.68 292.17 73.50 290.10 71.98 288.67 Z" />
<path fill="#263029" opacity="0.24" d=" M 78.04 287.48 C 79.65 288.60 81.08 289.98 82.02 291.73 C 80.03 291.05 78.97 289.23 78.04 287.48 Z" />
<path fill="#263029" opacity="0.24" d=" M 33.62 293.30 C 35.06 291.73 36.80 290.47 38.90 289.98 C 37.44 291.45 36.10 294.07 33.62 293.30 Z" />
<path fill="#263029" opacity="0.24" d=" M 68.52 289.56 C 70.35 290.67 72.17 291.83 73.65 293.41 C 72.55 293.42 71.53 293.17 70.58 292.64 C 69.79 293.33 69.00 294.02 68.21 294.70 C 67.26 294.01 66.31 293.33 65.35 292.66 C 66.93 292.83 70.67 291.67 68.52 289.56 Z" />
<path fill="#263029" opacity="0.24" d=" M 37.52 294.36 C 38.77 293.09 40.12 291.20 42.04 292.51 C 40.70 293.49 39.27 294.49 37.52 294.36 Z" />
<path fill="#263029" opacity="0.24" d=" M 43.02 293.18 C 44.42 293.27 44.27 295.66 42.98 295.83 C 41.61 295.73 41.75 293.35 43.02 293.18 Z" />
<path fill="#263029" opacity="0.24" d=" M 63.40 293.40 C 64.69 292.51 65.55 294.85 64.61 295.63 C 63.32 296.51 62.46 294.17 63.40 293.40 Z" />
<path fill="#263029" opacity="0.24" d=" M 24.79 294.51 C 26.00 294.59 27.22 294.64 28.44 294.69 C 28.13 295.36 27.51 296.69 27.20 297.35 C 26.39 296.41 25.59 295.46 24.79 294.51 Z" />
<path fill="#263029" opacity="0.24" d=" M 79.95 297.26 C 78.28 296.55 79.35 293.59 81.04 293.75 C 82.70 294.46 81.57 297.33 79.95 297.26 Z" />
<path fill="#263029" opacity="0.24" d=" M 29.32 295.62 C 30.20 295.83 32.27 295.03 32.35 296.57 C 32.46 297.56 32.47 298.57 32.41 299.57 C 31.24 298.36 30.24 297.02 29.32 295.62 Z" />
<path fill="#263029" opacity="0.24" d=" M 74.80 295.80 C 75.79 295.65 76.78 295.51 77.77 295.38 C 77.07 297.04 76.14 298.61 74.57 299.57 C 74.64 298.31 74.71 297.05 74.80 295.80 Z" />
<path fill="#263029" opacity="0.24" d=" M 34.51 296.36 C 35.92 295.38 38.28 297.51 37.12 298.96 C 35.71 299.93 33.63 297.74 34.51 296.36 Z" />
<path fill="#263029" opacity="0.24" d=" M 69.73 298.22 C 69.64 296.88 71.37 295.54 72.57 296.34 C 73.89 297.99 70.41 300.64 69.73 298.22 Z" />
<path fill="#263029" opacity="0.24" d=" M 41.09 298.94 C 39.67 299.37 38.37 296.92 40.09 296.47 C 41.49 296.02 42.79 298.53 41.09 298.94 Z" />
<path fill="#263029" opacity="0.24" d=" M 65.95 298.96 C 64.25 298.54 65.56 296.05 66.96 296.48 C 68.68 296.93 67.38 299.39 65.95 298.96 Z" />
<path fill="#263029" opacity="0.24" d=" M 38.55 301.73 C 40.77 301.70 42.99 301.66 45.22 301.61 C 45.26 302.07 45.34 302.99 45.38 303.45 C 43.43 304.24 41.58 305.79 39.38 305.62 C 38.47 304.54 38.75 303.02 38.55 301.73 Z" />
<path fill="#263029" opacity="0.24" d=" M 61.27 302.94 C 63.19 300.96 66.10 301.84 68.54 301.69 C 68.18 303.07 69.22 305.53 67.09 305.72 C 64.98 305.22 63.14 303.98 61.27 302.94 Z" />
<path fill="#263029" opacity="0.24" d=" M 9.80 306.76 C 11.38 306.61 12.96 306.51 14.54 306.46 C 14.51 307.00 14.46 308.09 14.44 308.63 C 12.62 308.69 10.91 308.31 9.80 306.76 Z" />
<path fill="#263029" opacity="0.24" d=" M 45.79 306.26 C 49.08 306.56 44.12 309.11 45.79 306.26 Z" />
<path fill="#263029" opacity="0.24" d=" M 60.34 305.91 L 61.15 305.57 C 61.45 305.88 62.05 306.48 62.35 306.79 L 61.97 307.58 C 61.56 307.57 60.73 307.56 60.32 307.56 C 60.33 307.15 60.34 306.32 60.34 305.91 Z" />
<path fill="#263029" opacity="0.24" d=" M 86.61 308.56 C 87.25 307.81 87.89 307.08 88.56 306.36 C 89.42 307.95 90.59 309.35 91.40 310.98 C 91.59 312.61 90.58 314.07 90.13 315.58 C 88.20 313.88 87.93 311.48 88.69 309.10 C 88.17 308.97 87.13 308.70 86.61 308.56 Z" />
<path fill="#263029" opacity="0.24" d=" M 92.62 306.43 C 94.29 306.52 95.95 306.67 97.61 306.88 C 96.22 308.17 94.48 308.69 92.61 308.63 C 92.61 308.08 92.62 306.98 92.62 306.43 Z" />
<path fill="#263029" opacity="0.24" d=" M 16.00 310.07 C 17.20 309.25 18.82 308.86 19.30 307.33 C 19.77 307.74 20.24 308.17 20.70 308.60 C 20.06 308.71 18.77 308.91 18.13 309.02 C 20.27 311.41 18.71 313.79 16.98 315.67 C 16.55 313.87 15.12 311.93 16.00 310.07 Z" />
<path fill="#263029" opacity="0.24" d=" M 47.60 309.01 C 48.50 307.70 49.44 307.70 50.42 309.01 C 49.51 310.30 48.57 310.30 47.60 309.01 Z" />
<path fill="#263029" opacity="0.24" d=" M 56.69 308.98 C 57.67 307.64 58.58 307.65 59.42 309.00 C 58.46 310.31 57.55 310.31 56.69 308.98 Z" />
<path fill="#263029" opacity="0.24" d=" M 38.79 310.93 C 39.14 310.41 39.84 309.36 40.20 308.84 C 43.25 309.00 40.07 313.77 38.79 310.93 Z" />
<path fill="#263029" opacity="0.24" d=" M 66.42 309.29 C 67.76 308.42 69.22 310.72 67.95 311.63 C 66.58 312.51 65.26 310.21 66.42 309.29 Z" />
<path fill="#263029" opacity="0.24" d=" M 7.36 310.03 C 8.28 308.90 10.61 309.33 10.83 310.85 C 10.53 312.72 6.38 312.03 7.36 310.03 Z" />
<path fill="#263029" opacity="0.24" d=" M 35.15 314.73 C 35.45 312.99 36.26 311.45 37.30 310.05 C 37.27 311.40 37.22 312.75 37.15 314.10 C 36.65 314.26 35.65 314.57 35.15 314.73 Z" />
<path fill="#263029" opacity="0.24" d=" M 96.00 311.45 C 97.27 310.12 98.92 309.60 100.40 311.04 C 98.94 311.24 97.47 311.35 96.00 311.45 Z" />
<path fill="#263029" opacity="0.24" d=" M 44.20 311.37 C 45.70 311.40 47.19 311.47 48.69 311.58 C 48.53 311.99 48.22 312.80 48.06 313.21 C 46.35 313.28 44.18 313.78 44.20 311.37 Z" />
<path fill="#263029" opacity="0.24" d=" M 58.42 311.74 C 59.80 311.54 61.19 311.38 62.57 311.23 C 62.67 312.45 62.75 313.66 62.80 314.88 C 63.76 314.73 65.66 314.43 66.61 314.28 C 66.61 314.83 66.60 315.94 66.60 316.50 C 64.96 317.03 63.28 317.41 61.57 317.63 C 61.14 317.16 60.27 316.20 59.84 315.72 C 60.57 315.57 62.03 315.25 62.76 315.09 C 61.35 313.92 59.88 312.83 58.42 311.74 Z" />
<path fill="#263029" opacity="0.24" d=" M 70.05 311.34 C 71.71 310.64 73.10 313.50 71.79 314.56 C 70.14 315.24 68.81 312.41 70.05 311.34 Z" />
<path fill="#263029" opacity="0.24" d=" M 5.51 313.65 C 6.00 313.64 6.98 313.64 7.46 313.63 C 8.66 315.87 4.06 315.86 5.51 313.65 Z" />
<path fill="#263029" opacity="0.24" d=" M 11.53 315.06 C 11.95 314.52 12.79 313.43 13.21 312.89 C 14.63 314.17 14.35 315.98 14.17 317.69 C 13.28 316.83 12.40 315.95 11.53 315.06 Z" />
<path fill="#263029" opacity="0.24" d=" M 92.59 317.45 C 92.36 316.06 93.09 311.54 95.00 314.10 C 96.45 315.71 93.72 316.78 92.59 317.45 Z" />
<path fill="#263029" opacity="0.24" d=" M 100.96 315.42 C 99.76 314.63 99.76 313.89 100.98 313.21 C 102.19 313.98 102.18 314.71 100.96 315.42 Z" />
<path fill="#263029" opacity="0.24" d=" M 40.10 314.38 C 42.62 314.38 45.08 315.00 47.45 315.83 C 45.47 318.57 40.73 317.79 40.10 314.38 Z" />
<path fill="#263029" opacity="0.24" d=" M 32.00 317.61 C 30.70 316.70 32.20 314.42 33.54 315.29 C 34.73 316.22 33.36 318.45 32.00 317.61 Z" />
<path fill="#263029" opacity="0.24" d=" M 73.48 315.30 C 74.77 314.38 76.38 316.54 75.19 317.55 C 73.89 318.43 72.36 316.31 73.48 315.30 Z" />
<path fill="#263029" opacity="0.24" d=" M 101.58 317.07 C 102.32 315.87 103.07 315.87 103.82 317.07 C 103.11 318.26 102.36 318.26 101.58 317.07 Z" />
<path fill="#263029" opacity="0.24" d=" M 10.01 319.42 C 8.67 318.46 8.66 317.55 9.98 316.67 C 11.32 317.63 11.33 318.54 10.01 319.42 Z" />
<path fill="#263029" opacity="0.24" d=" M 35.95 317.77 C 38.53 316.54 40.58 318.84 42.40 320.33 C 39.75 321.24 37.32 320.14 35.95 317.77 Z" />
<path fill="#263029" opacity="0.24" d=" M 64.79 320.30 C 66.52 318.76 68.47 317.45 70.78 317.02 C 70.79 320.30 67.43 321.21 64.79 320.30 Z" />
<path fill="#263029" opacity="0.24" d=" M 97.28 317.11 C 98.65 317.73 98.62 318.34 97.18 318.96 C 95.84 318.33 95.87 317.72 97.28 317.11 Z" />
<path fill="#263029" opacity="0.24" d=" M 33.34 320.42 C 34.13 319.50 36.47 320.33 35.68 321.64 C 34.89 322.53 32.56 321.72 33.34 320.42 Z" />
<path fill="#263029" opacity="0.24" d=" M 72.22 320.13 C 75.99 319.31 71.94 324.81 71.17 321.41 C 71.44 321.09 71.96 320.45 72.22 320.13 Z" />
<path fill="#263029" opacity="0.24" d=" M 19.24 326.20 C 21.54 327.03 23.25 328.91 22.39 331.49 C 20.82 330.07 19.68 328.28 19.24 326.20 Z" />
<path fill="#263029" opacity="0.24" d=" M 85.84 326.84 C 86.39 326.79 87.47 326.68 88.01 326.63 C 87.33 328.55 86.21 330.25 84.54 331.46 C 84.36 329.78 85.06 328.27 85.84 326.84 Z" />
<path fill="#263029" opacity="0.24" d=" M 16.62 329.50 C 15.69 328.35 15.83 327.55 17.06 327.10 C 17.41 327.57 18.12 328.51 18.47 328.98 L 18.08 329.64 C 17.72 329.60 16.99 329.53 16.62 329.50 Z" />
<path fill="#263029" opacity="0.24" d=" M 23.98 327.25 C 27.50 327.18 28.21 330.79 30.33 332.78 C 30.18 333.39 30.03 333.99 29.88 334.61 C 26.84 333.13 24.78 330.52 23.98 327.25 Z" />
<path fill="#263029" opacity="0.24" d=" M 79.69 328.80 C 80.64 328.06 81.63 327.39 82.65 326.77 C 82.67 329.21 81.72 331.47 79.89 333.11 C 79.70 331.72 78.71 330.09 79.69 328.80 Z" />
<path fill="#263029" opacity="0.24" d=" M 89.09 328.97 C 88.80 327.75 90.98 326.39 91.34 328.02 C 91.60 329.19 89.40 330.59 89.09 328.97 Z" />
<path fill="#263029" opacity="0.24" d=" M 5.26 331.22 C 8.73 331.51 10.20 335.08 12.18 337.43 C 8.34 338.85 4.94 334.88 5.26 331.22 Z" />
<path fill="#263029" opacity="0.24" d=" M 92.43 331.44 C 92.94 331.47 93.95 331.53 94.46 331.56 C 94.47 332.05 94.50 333.04 94.52 333.54 C 94.01 333.51 92.99 333.44 92.49 333.40 C 92.47 332.91 92.45 331.93 92.43 331.44 Z" />
<path fill="#263029" opacity="0.24" d=" M 94.98 337.38 C 96.99 335.25 98.37 331.86 101.49 331.26 C 102.88 334.84 98.51 338.91 94.98 337.38 Z" />
<path fill="#263029" opacity="0.24" d=" M 13.33 331.98 C 16.41 330.88 12.98 335.35 13.33 331.98 Z" />
<path fill="#263029" opacity="0.24" d=" M 76.85 332.40 C 78.15 331.54 79.73 333.63 78.53 334.62 C 77.25 335.48 75.56 333.38 76.85 332.40 Z" />
<path fill="#263029" opacity="0.24" d=" M 15.89 333.63 C 17.41 333.58 18.92 333.58 20.44 333.64 C 18.96 335.40 17.23 337.12 14.74 336.42 C 15.03 335.72 15.60 334.32 15.89 333.63 Z" />
<path fill="#263029" opacity="0.24" d=" M 86.76 333.71 C 89.28 332.95 91.73 333.70 92.86 336.23 C 90.27 337.29 88.28 335.62 86.76 333.71 Z" />
<path fill="#263029" opacity="0.24" d=" M 2.47 339.58 C 2.31 337.84 2.96 336.24 3.86 334.80 C 4.22 335.35 4.94 336.46 5.30 337.01 C 4.36 337.87 3.42 338.73 2.47 339.58 Z" />
<path fill="#263029" opacity="0.24" d=" M 20.65 336.63 C 22.42 335.53 24.43 335.11 26.45 335.80 C 24.78 337.49 22.49 338.09 20.23 338.49 C 20.33 338.02 20.54 337.09 20.65 336.63 Z" />
<path fill="#263029" opacity="0.24" d=" M 80.73 335.76 C 83.29 334.88 86.18 335.61 87.19 338.35 C 84.85 338.03 82.37 337.64 80.73 335.76 Z" />
<path fill="#263029" opacity="0.24" d=" M 102.83 335.38 C 104.79 335.54 104.69 338.19 105.57 339.46 C 104.97 339.62 103.76 339.95 103.16 340.11 C 104.35 341.47 104.65 343.16 104.38 344.88 C 103.13 344.16 101.55 343.82 100.65 342.60 C 99.81 339.93 102.86 338.07 102.83 335.38 Z" />
<path fill="#263029" opacity="0.24" d=" M 28.11 336.15 C 29.64 336.19 29.25 338.61 27.97 338.79 C 26.59 338.69 26.93 336.33 28.11 336.15 Z" />
<path fill="#263029" opacity="0.24" d=" M 77.59 336.95 C 78.31 335.09 81.66 337.01 80.51 338.59 C 79.37 339.19 77.58 338.28 77.59 336.95 Z" />
<path fill="#263029" opacity="0.24" d=" M 3.85 344.95 C 0.65 342.73 4.38 340.26 6.61 339.49 C 7.11 341.89 5.85 343.76 3.85 344.95 Z" />
<path fill="#263029" opacity="0.24" d=" M 2.86 347.95 C 4.56 346.48 6.26 344.59 8.69 344.56 C 7.88 346.52 6.70 348.28 5.12 349.69 C 4.55 349.26 3.42 348.39 2.86 347.95 Z" />
<path fill="#263029" opacity="0.24" d=" M 104.55 348.08 C 101.76 350.96 98.66 347.02 99.30 344.05 C 101.11 345.31 102.88 346.63 104.55 348.08 Z" />
<path fill="#263029" opacity="0.24" d=" M 51.53 348.57 C 52.89 348.53 54.24 348.51 55.60 348.50 C 55.54 349.49 55.48 350.48 55.41 351.47 C 54.20 351.46 52.99 351.45 51.78 351.41 C 51.70 350.46 51.62 349.51 51.53 348.57 Z" />
<path fill="#263029" opacity="0.24" d=" M 47.43 349.19 C 48.42 347.58 50.87 349.35 49.67 350.80 C 48.68 352.38 46.21 350.63 47.43 349.19 Z" />
<path fill="#263029" opacity="0.24" d=" M 56.50 350.23 C 57.93 348.55 59.74 349.56 61.20 350.52 C 59.63 350.55 58.05 350.49 56.50 350.23 Z" />
<path fill="#263029" opacity="0.24" d=" M 36.31 357.45 C 35.99 354.66 38.65 353.29 41.07 353.14 C 40.75 354.67 40.57 356.23 40.32 357.78 C 38.98 357.69 37.64 357.57 36.31 357.45 Z" />
<path fill="#263029" opacity="0.24" d=" M 41.78 356.04 C 41.14 353.35 43.45 352.09 45.73 352.99 C 45.94 354.79 46.12 356.60 46.28 358.41 C 44.46 358.44 41.50 358.76 41.78 356.04 Z" />
<path fill="#263029" opacity="0.24" d=" M 47.62 358.38 C 47.52 356.34 47.46 354.30 47.70 352.27 C 50.54 353.26 50.28 356.06 50.25 358.52 C 49.60 358.48 48.28 358.42 47.62 358.38 Z" />
<path fill="#263029" opacity="0.24" d=" M 51.88 354.10 C 52.60 352.82 54.48 352.46 55.19 353.96 C 55.27 355.43 55.20 356.92 55.16 358.41 C 54.42 358.43 52.96 358.46 52.23 358.48 C 52.08 357.02 51.89 355.56 51.88 354.10 Z" />
<path fill="#263029" opacity="0.24" d=" M 57.11 358.50 C 57.31 356.28 56.64 353.39 59.18 352.25 C 59.89 354.16 60.22 356.18 60.25 358.22 C 59.47 358.29 57.90 358.43 57.11 358.50 Z" />
<path fill="#263029" opacity="0.24" d=" M 61.62 352.47 C 62.92 352.83 64.23 353.18 65.54 353.54 C 65.40 355.03 65.22 356.51 65.01 358.00 C 64.06 358.15 62.16 358.47 61.21 358.63 C 61.25 356.57 61.41 354.51 61.62 352.47 Z" />
<path fill="#263029" opacity="0.24" d=" M 66.42 357.55 C 66.83 356.09 66.24 354.09 67.71 353.13 C 69.62 353.85 71.24 355.42 70.75 357.62 C 69.30 357.60 67.86 357.59 66.42 357.55 Z" />
<path fill="#263029" opacity="0.24" d=" M 31.67 362.37 C 31.66 360.95 31.31 359.30 32.98 358.68 C 35.05 358.66 34.11 361.00 34.39 362.31 C 33.71 362.33 32.35 362.35 31.67 362.37 Z" />
<path fill="#263029" opacity="0.24" d=" M 36.42 359.32 C 37.78 359.52 39.14 359.74 40.49 360.01 C 40.02 361.12 39.53 362.24 39.04 363.35 C 38.33 363.16 36.93 362.79 36.22 362.60 C 36.29 361.50 36.35 360.41 36.42 359.32 Z" />
<path fill="#263029" opacity="0.24" d=" M 67.40 359.66 C 68.57 359.56 69.73 359.46 70.90 359.37 C 70.92 360.75 70.84 362.14 70.30 363.44 C 69.57 363.19 68.09 362.71 67.35 362.47 C 67.37 361.53 67.39 360.59 67.40 359.66 Z" />
<path fill="#263029" opacity="0.24" d=" M 73.33 359.39 C 74.80 358.26 76.38 360.84 75.02 361.87 C 73.56 362.98 71.98 360.40 73.33 359.39 Z" />
<path fill="#263029" opacity="0.24" d=" M 28.56 360.20 C 30.17 359.62 30.67 360.17 30.05 361.85 C 28.45 362.43 27.95 361.88 28.56 360.20 Z" />
<path fill="#263029" opacity="0.24" d=" M 41.60 360.33 C 42.66 360.33 43.71 360.34 44.77 360.39 C 46.77 359.97 45.89 362.52 45.99 363.58 C 44.46 363.52 42.93 363.45 41.40 363.37 C 41.46 362.35 41.53 361.34 41.60 360.33 Z" />
<path fill="#263029" opacity="0.24" d=" M 47.63 360.49 C 48.54 360.49 49.45 360.49 50.37 360.51 C 50.33 361.47 50.30 362.43 50.27 363.40 C 49.35 363.45 48.44 363.51 47.52 363.57 C 47.56 362.54 47.60 361.51 47.63 360.49 Z" />
<path fill="#263029" opacity="0.24" d=" M 52.32 360.07 C 53.40 360.39 55.82 360.16 55.27 362.07 C 54.87 363.51 53.64 364.31 52.19 364.37 C 52.21 362.93 52.25 361.50 52.32 360.07 Z" />
<path fill="#263029" opacity="0.24" d=" M 57.17 363.59 C 56.66 361.70 57.17 359.87 59.48 360.21 C 59.56 361.31 59.63 362.43 59.69 363.54 C 59.06 363.55 57.80 363.58 57.17 363.59 Z" />
<path fill="#263029" opacity="0.24" d=" M 60.56 360.69 C 62.23 360.50 63.89 360.34 65.56 360.21 C 65.61 361.27 65.65 362.35 65.68 363.42 C 64.31 363.47 62.94 363.52 61.57 363.57 C 61.32 362.85 60.82 361.41 60.56 360.69 Z" />
<path fill="#263029" opacity="0.24" d=" M 77.87 362.27 C 76.34 361.42 76.29 360.60 77.72 359.80 C 79.21 360.63 79.26 361.46 77.87 362.27 Z" />
<path fill="#263029" opacity="0.24" d=" M 30.88 364.76 C 31.71 364.76 33.37 364.75 34.19 364.74 C 34.01 366.37 33.82 368.00 33.65 369.64 C 33.01 369.61 31.72 369.55 31.08 369.52 C 31.00 367.93 30.93 366.34 30.88 364.76 Z" />
<path fill="#263029" opacity="0.24" d=" M 77.61 364.53 C 79.18 364.54 80.75 364.58 82.32 364.63 C 82.50 366.28 82.68 367.95 82.83 369.61 C 81.25 369.62 79.67 369.62 78.09 369.62 C 77.91 367.92 77.76 366.23 77.61 364.53 Z" />
<path fill="#263029" opacity="0.24" d=" M 24.81 364.74 C 26.38 364.64 27.96 364.56 29.54 364.50 C 29.47 366.16 29.40 367.83 29.31 369.49 C 27.63 369.55 25.94 369.59 24.26 369.61 C 24.45 367.98 24.63 366.36 24.81 364.74 Z" />
<path fill="#263029" opacity="0.24" d=" M 36.91 370.52 C 36.06 368.44 36.12 366.21 36.85 364.11 C 39.44 365.69 37.55 368.40 36.91 370.52 Z" />
<path fill="#263029" opacity="0.24" d=" M 39.47 369.59 C 39.63 367.85 40.07 366.16 40.74 364.55 C 42.56 365.30 46.42 364.21 45.60 367.68 C 46.62 367.16 47.35 366.39 47.79 365.36 C 48.27 365.38 49.24 365.40 49.72 365.41 C 49.64 366.84 49.54 368.27 49.43 369.71 C 47.57 369.69 46.01 368.85 44.78 367.51 L 44.66 369.63 C 42.93 369.62 41.19 369.60 39.47 369.59 Z" />
<path fill="#263029" opacity="0.24" d=" M 52.31 365.29 C 53.29 365.26 54.26 365.25 55.24 365.27 C 55.35 366.73 55.47 368.21 55.58 369.69 C 54.19 369.65 52.80 369.62 51.40 369.59 C 51.65 368.14 51.86 366.68 52.31 365.29 Z" />
<path fill="#263029" opacity="0.24" d=" M 57.41 365.30 C 58.76 365.54 60.12 365.78 61.49 365.96 C 63.28 364.66 65.37 364.76 67.37 365.49 C 67.43 366.86 67.49 368.23 67.55 369.60 C 64.96 369.48 60.99 370.66 61.87 366.22 C 61.25 367.37 60.67 368.53 60.13 369.73 C 59.34 369.61 58.54 369.49 57.74 369.38 C 57.63 368.01 57.52 366.65 57.41 365.30 Z" />
<path fill="#263029" opacity="0.24" d=" M 73.28 369.57 C 73.38 367.90 73.26 366.18 73.85 364.58 C 76.83 363.78 75.72 367.77 76.52 369.35 C 75.44 369.43 74.36 369.50 73.28 369.57 Z" />
<path fill="#263029" opacity="0.24" d=" M 19.47 369.39 C 20.56 368.21 21.69 367.07 22.86 365.97 C 22.68 367.95 21.99 370.34 19.47 369.39 Z" />
<path fill="#263029" opacity="0.24" d=" M 5.82 397.04 C 10.68 399.12 16.10 399.24 21.24 398.27 C 20.33 398.84 19.43 399.41 18.53 400.00 L 11.51 400.00 C 9.47 399.32 7.56 398.31 5.82 397.04 Z" />
</g>
<g id="#91b69ce5">
<path fill="#91b69c" opacity="0.90" d=" M 0.00 330.96 C 1.90 332.76 1.08 335.66 1.28 337.99 C 0.94 343.37 2.35 349.04 0.00 354.14 L 0.00 330.96 Z" />
</g>
<g id="#50655780">
<path fill="#506557" opacity="0.50" d=" M 68.60 364.71 C 69.29 364.82 70.69 365.02 71.38 365.13 C 71.36 366.62 71.34 368.11 71.32 369.61 C 70.85 369.63 69.93 369.66 69.47 369.68 C 69.16 368.02 68.87 366.36 68.60 364.71 Z" />
<path fill="#506557" opacity="0.50" d=" M 84.27 365.81 C 85.67 366.83 87.25 367.81 87.83 369.55 C 86.79 369.58 85.76 369.60 84.72 369.60 C 84.56 368.33 84.41 367.07 84.27 365.81 Z" />
</g>
</svg>
