<?xml version="1.0" encoding="UTF-8" ?>
<!DOCTYPE svg PUBLIC "-//W3C//DTD SVG 1.1//EN" "http://www.w3.org/Graphics/SVG/1.1/DTD/svg11.dtd">
<svg width="45pt" height="91pt" viewBox="0 0 45 91" version="1.1" xmlns="http://www.w3.org/2000/svg">
<g id="#1414145f">
</g>
<g id="#000000ff">
<path fill="#000000" opacity="1.00" d=" M 21.38 3.69 C 26.37 3.84 32.20 4.09 36.19 7.39 C 34.58 6.95 33.07 6.19 31.43 5.88 C 28.66 5.32 25.79 4.28 22.96 4.69 C 18.16 15.35 13.89 26.25 9.05 36.90 C 10.60 38.13 12.36 39.05 14.00 40.14 L 12.42 40.22 C 10.72 39.68 9.30 36.77 7.40 38.33 C 7.92 35.14 10.18 32.75 10.61 29.76 C 14.40 22.56 16.87 14.79 20.41 7.55 C 20.47 6.14 22.27 5.18 21.38 3.69 Z" />
<path fill="#000000" opacity="1.00" d=" M 39.50 9.17 C 40.09 9.42 41.26 9.94 41.85 10.19 C 40.31 16.65 38.21 23.01 36.17 29.33 C 36.62 22.96 40.26 16.84 41.01 10.43 C 40.63 10.11 39.88 9.48 39.50 9.17 Z" />
<path fill="#000000" opacity="1.00" d=" M 34.35 33.42 C 35.48 32.19 34.24 29.99 36.16 29.36 C 34.56 34.94 33.14 40.65 31.03 46.04 C 28.63 45.72 26.26 45.25 23.91 44.70 C 22.00 49.61 20.30 54.60 18.51 59.55 C 17.04 63.04 16.50 67.07 13.86 69.93 C 12.06 75.38 11.48 81.20 9.72 86.67 C 7.40 88.50 4.57 87.36 3.10 85.09 C 5.55 79.24 7.86 73.33 10.12 67.40 C 10.82 67.71 12.22 68.33 12.92 68.64 L 14.18 68.34 C 17.07 60.49 19.51 52.46 22.83 44.79 C 22.39 44.55 21.51 44.08 21.07 43.84 L 19.73 43.14 C 18.41 43.87 18.25 45.48 17.71 46.73 C 15.82 51.43 14.15 56.21 12.19 60.88 L 12.15 59.41 C 14.23 53.94 16.28 48.45 18.47 43.02 C 17.09 42.15 14.92 42.14 14.36 40.29 C 15.02 40.60 16.35 41.22 17.01 41.53 C 18.94 42.29 21.04 42.64 22.78 43.87 C 25.43 44.35 27.95 45.49 30.72 45.01 C 32.21 41.22 33.28 37.33 34.35 33.42 Z" />
</g>
<g id="#e1c3d2ff">
<path fill="#e1c3d2" opacity="1.00" d=" M 22.96 4.69 C 25.79 4.28 28.66 5.32 31.43 5.88 C 30.38 7.53 28.52 7.60 26.79 7.80 C 26.09 10.04 27.99 13.92 25.30 14.86 C 25.07 14.43 24.62 13.59 24.40 13.17 C 25.25 17.29 23.91 21.62 22.45 25.40 C 21.85 25.51 21.25 25.64 20.65 25.78 C 21.18 29.48 19.90 32.82 18.25 36.04 C 17.07 37.71 18.13 39.92 17.01 41.53 C 16.35 41.22 15.02 40.60 14.36 40.29 C 14.27 40.25 14.09 40.18 14.00 40.14 C 12.36 39.05 10.60 38.13 9.05 36.90 C 13.89 26.25 18.16 15.35 22.96 4.69 Z" />
<path fill="#e1c3d2" opacity="1.00" d=" M 17.71 46.73 C 18.25 45.48 18.41 43.87 19.73 43.14 L 21.07 43.84 C 17.78 50.04 16.05 56.91 13.29 63.35 C 12.39 65.01 12.42 66.86 12.92 68.64 C 12.22 68.33 10.82 67.71 10.12 67.40 C 10.02 67.03 9.82 66.28 9.72 65.90 C 11.21 65.41 10.56 63.21 11.67 62.16 C 11.80 61.84 12.06 61.20 12.19 60.88 C 14.15 56.21 15.82 51.43 17.71 46.73 Z" />
</g>
<g id="#cc7591ff">
<path fill="#cc7591" opacity="1.00" d=" M 31.43 5.88 C 33.07 6.19 34.58 6.95 36.19 7.39 C 36.84 7.77 37.49 8.15 38.14 8.52 C 37.25 9.54 36.38 10.57 35.60 11.66 C 34.71 11.42 33.83 11.21 32.93 11.01 C 33.00 12.46 33.11 13.91 33.24 15.35 C 31.06 18.06 29.66 21.21 28.37 24.41 C 27.63 26.45 24.85 26.68 24.17 28.65 C 25.10 29.99 26.51 30.87 27.77 31.88 C 26.26 32.42 24.71 32.84 23.22 33.41 C 21.27 35.42 21.05 39.33 23.29 41.19 C 23.65 42.21 23.48 43.10 22.78 43.87 C 21.04 42.64 18.94 42.29 17.01 41.53 C 18.13 39.92 17.07 37.71 18.25 36.04 C 19.90 32.82 21.18 29.48 20.65 25.78 C 21.25 25.64 21.85 25.51 22.45 25.40 C 23.91 21.62 25.25 17.29 24.40 13.17 C 24.62 13.59 25.07 14.43 25.30 14.86 C 27.99 13.92 26.09 10.04 26.79 7.80 C 28.52 7.60 30.38 7.53 31.43 5.88 Z" />
<path fill="#cc7591" opacity="1.00" d=" M 30.15 25.18 C 33.18 23.47 30.61 28.27 30.15 25.18 Z" />
<path fill="#cc7591" opacity="1.00" d=" M 24.12 35.25 C 27.34 35.66 22.55 38.31 24.12 35.25 Z" />
</g>
<g id="#d95e62ff">
<path fill="#d95e62" opacity="1.00" d=" M 38.14 8.52 C 38.48 8.68 39.16 9.01 39.50 9.17 C 39.88 9.48 40.63 10.11 41.01 10.43 C 40.26 16.84 36.62 22.96 36.17 29.33 L 36.16 29.36 C 34.24 29.99 35.48 32.19 34.35 33.42 C 33.28 37.33 32.21 41.22 30.72 45.01 C 27.95 45.49 25.43 44.35 22.78 43.87 C 23.48 43.10 23.65 42.21 23.29 41.19 C 23.27 40.43 23.21 38.92 23.19 38.17 C 25.02 39.93 26.86 42.39 29.73 42.12 C 28.60 40.97 27.41 39.89 26.31 38.71 C 26.70 37.73 27.08 36.75 27.56 35.80 C 27.87 37.37 28.20 38.94 28.53 40.51 C 30.52 38.00 30.32 34.64 31.46 31.78 C 32.19 29.18 33.48 26.78 34.12 24.16 C 32.90 23.68 31.10 23.97 30.63 22.43 C 32.04 22.72 33.45 23.23 34.91 22.96 C 33.98 19.08 37.16 16.07 37.69 12.40 C 37.17 12.22 36.12 11.85 35.60 11.66 C 36.38 10.57 37.25 9.54 38.14 8.52 Z" />
</g>
<g id="#b3a49bff">
<path fill="#b3a49b" opacity="1.00" d=" M 32.93 11.01 C 33.83 11.21 34.71 11.42 35.60 11.66 C 36.12 11.85 37.17 12.22 37.69 12.40 C 37.16 16.07 33.98 19.08 34.91 22.96 C 33.45 23.23 32.04 22.72 30.63 22.43 C 31.10 23.97 32.90 23.68 34.12 24.16 C 33.48 26.78 32.19 29.18 31.46 31.78 C 30.32 34.64 30.52 38.00 28.53 40.51 C 28.20 38.94 27.87 37.37 27.56 35.80 C 27.08 36.75 26.70 37.73 26.31 38.71 C 27.41 39.89 28.60 40.97 29.73 42.12 C 26.86 42.39 25.02 39.93 23.19 38.17 C 23.21 38.92 23.27 40.43 23.29 41.19 C 21.05 39.33 21.27 35.42 23.22 33.41 C 24.71 32.84 26.26 32.42 27.77 31.88 C 26.51 30.87 25.10 29.99 24.17 28.65 C 24.85 26.68 27.63 26.45 28.37 24.41 C 29.66 21.21 31.06 18.06 33.24 15.35 C 33.11 13.91 33.00 12.46 32.93 11.01 M 30.15 25.18 C 30.61 28.27 33.18 23.47 30.15 25.18 M 24.12 35.25 C 22.55 38.31 27.34 35.66 24.12 35.25 Z" />
</g>
<g id="#b7e3c2ff">
<path fill="#b7e3c2" opacity="1.00" d=" M 21.07 43.84 C 21.51 44.08 22.39 44.55 22.83 44.79 C 19.51 52.46 17.07 60.49 14.18 68.34 L 12.92 68.64 C 12.42 66.86 12.39 65.01 13.29 63.35 C 16.05 56.91 17.78 50.04 21.07 43.84 Z" />
</g>
</svg>
