<?xml version="1.0" encoding="iso-8859-1"?>
<!-- Generator: Adobe Illustrator 19.0.0, SVG Export Plug-In . SVG Version: 6.00 Build 0)  -->
<svg version="1.1" id="Layer_1" xmlns="http://www.w3.org/2000/svg" xmlns:xlink="http://www.w3.org/1999/xlink" x="0px" y="0px"
	 viewBox="0 0 512 512" style="enable-background:new 0 0 512 512;" xml:space="preserve">
<path style="fill:#54CCFF;" d="M511.988,466.978c0,46.197-96.094,59.396-135.994,27.598c-29.098,23.1-90.897,23.1-119.994,0
	c-29.098,23.1-90.897,23.1-119.994,0C96.106,526.374,0.012,512.875,0.012,466.978c0-19.8,29.999-19.8,29.999,0
	c0,3.6,15.9,14.999,44.998,14.999s45.998-11.399,45.998-14.999c0-19.8,29.999-19.8,29.999,0c0,3.6,15.9,14.999,44.998,14.999
	s44.998-11.399,44.998-14.999c0-9.901,7.5-14.999,14.999-14.999c7.5,0,14.999,5.099,14.999,14.999c0,3.6,15.9,14.999,44.998,14.999
	s44.998-11.399,44.998-14.999c0-19.8,29.999-19.8,29.999,0c0,3.6,15.9,14.999,44.998,14.999c29.098,0,45.998-11.399,45.998-14.999
	C481.989,447.178,511.988,447.178,511.988,466.978z"/>
<path style="fill:#A1A7B3;" d="M511.988,255.988c0,24.898-21.098,45.998-45.998,45.998H320.498
	c-12.901,26.998-36.299,47.098-64.498,55.797c-9.6,2.701-19.798,4.2-29.999,4.2c-8.401,0-14.999-6.601-14.999-14.999v-43.498
	c-34.198,6.899-59.997,37.198-59.997,73.497v14.999c0,6-1.8,11.399-5.099,16.499c-6.301-4.799-9.901-10.499-9.901-16.499
	c0,26.998-57.097,35.097-89.797,26.099l-6.299-49.499c-13.499-108.295,43.597-212.49,141.092-260.787V14.999
	C181.002,6.599,187.601,0,196.002,0c22.199,0,42.898,7.2,59.997,19.199c23.4,16.198,39.598,42.396,43.799,71.797h16.198
	c69.297,0,126.593,52.498,134.093,119.994h15.9C490.89,210.99,511.988,231.088,511.988,255.988z"/>
<path style="fill:#54CCFF;" d="M511.988,391.982c0,46.197-96.094,59.396-135.994,27.598c-29.098,23.1-90.897,23.1-119.994,0
	c-29.098,23.1-90.897,23.1-119.994,0C96.106,451.378,0.012,437.878,0.012,391.982c0-19.8,29.999-19.8,29.999,0
	c0,3.6,15.9,14.999,44.998,14.999s45.998-11.399,45.998-14.999c0-19.8,29.999-19.8,29.999,0c0,3.6,15.9,14.999,44.998,14.999
	s44.998-11.399,44.998-14.999c0-9.901,7.5-14.999,14.999-14.999c7.5,0,14.999,5.099,14.999,14.999c0,3.6,15.9,14.999,44.998,14.999
	s44.998-11.399,44.998-14.999c0-19.8,29.999-19.8,29.999,0c0,3.6,15.9,14.999,44.998,14.999c29.098,0,45.998-11.399,45.998-14.999
	C481.989,372.182,511.988,372.182,511.988,391.982z"/>
<path style="fill:#979CA7;" d="M511.988,255.988c0,24.898-21.098,45.998-45.998,45.998H320.498
	c-12.901,26.998-36.299,47.098-64.498,55.797V19.199c23.4,16.198,39.598,42.396,43.799,71.797h16.198
	c69.297,0,126.593,52.498,134.093,119.994h15.9C490.89,210.99,511.988,231.088,511.988,255.988z"/>
<g>
	<path style="fill:#4BB8E6;" d="M511.988,466.978c0,46.197-96.094,59.396-135.994,27.598c-29.098,23.1-90.897,23.1-119.994,0
		v-42.597c7.5,0,14.999,5.099,14.999,14.999c0,3.6,15.9,14.999,44.998,14.999s44.998-11.399,44.998-14.999
		c0-19.8,29.999-19.8,29.999,0c0,3.6,15.9,14.999,44.998,14.999c29.098,0,45.998-11.399,45.998-14.999
		C481.989,447.178,511.988,447.178,511.988,466.978z"/>
	<path style="fill:#4BB8E6;" d="M256,419.579v-42.597c7.5,0,14.999,5.099,14.999,14.999c0,3.6,15.9,14.999,44.998,14.999
		s44.998-11.399,44.998-14.999c0-19.8,29.999-19.8,29.999,0c0,3.6,15.9,14.999,44.998,14.999c29.098,0,45.998-11.399,45.998-14.999
		c0-19.8,29.999-19.8,29.999,0c0,46.197-96.094,59.396-135.994,27.598C346.897,442.679,285.097,442.679,256,419.579z"/>
</g>
<circle style="fill:#53565C;" cx="375.992" cy="195.991" r="14.999"/>
<g>
</g>
<g>
</g>
<g>
</g>
<g>
</g>
<g>
</g>
<g>
</g>
<g>
</g>
<g>
</g>
<g>
</g>
<g>
</g>
<g>
</g>
<g>
</g>
<g>
</g>
<g>
</g>
<g>
</g>
</svg>
