<?xml version="1.0" encoding="iso-8859-1"?>
<!-- Generator: Adobe Illustrator 19.0.0, SVG Export Plug-In . SVG Version: 6.00 Build 0)  -->
<svg version="1.1" id="Layer_1" xmlns="http://www.w3.org/2000/svg" xmlns:xlink="http://www.w3.org/1999/xlink" x="0px" y="0px"
	 viewBox="0 0 512 512" style="enable-background:new 0 0 512 512;" xml:space="preserve">
<g>
	<path style="fill:#FFDFB3;" d="M0.013,256c0,70.305,29.597,134.055,75.771,180.229l26.01,3.99l64.104-79.104l15.906-30.906
		c-19.014-19.014-30.791-45.264-30.791-74.209c0-5.136,0.8-10.058,1.516-15l-15.097-15H15.023l-14.25,15
		C0.48,245.991,0.013,250.937,0.013,256z"/>
	<path style="fill:#FFDFB3;" d="M91.674,61.659l-3.555,11.445l85.46,85.46l25.04,10.04C215.109,157.63,234.708,151,256.013,151
		l15-8.44V16.9l-15-16.9C193.308,0,136.057,23.961,91.674,61.659z"/>
</g>
<g>
	<path style="fill:#E55639;" d="M181.804,330.209l-106.02,106.02C121.958,482.403,185.708,512,256.013,512V361
		C227.068,361,200.818,349.223,181.804,330.209z"/>
	<path style="fill:#E55639;" d="M0.773,241h151.756c4.385-30.255,21.746-56.195,46.089-72.396L91.674,61.659
		C40.115,105.451,4.98,169.195,0.773,241z"/>
</g>
<g>
	<path style="fill:#CF4529;" d="M511.987,256c0,70.305-29.597,134.055-75.771,180.229l-26.01,3.99l-64.104-79.104l-15.906-30.906
		c19.014-19.014,30.791-45.264,30.791-74.209c0-5.136-0.8-10.058-1.516-15l15.097-15h122.408l14.251,15
		C511.52,245.991,511.987,250.937,511.987,256z"/>
	<path style="fill:#CF4529;" d="M420.326,61.659l3.555,11.445l-85.46,85.46l-25.04,10.04C296.891,157.63,277.292,151,255.987,151V0
		C318.692,0,375.943,23.961,420.326,61.659z"/>
</g>
<g>
	<path style="fill:#FFCF99;" d="M330.196,330.209l106.02,106.02C390.042,482.403,326.292,512,255.987,512V361
		C284.932,361,311.182,349.223,330.196,330.209z"/>
	<path style="fill:#FFCF99;" d="M511.227,241H359.471c-4.385-30.255-21.746-56.195-46.089-72.396L420.326,61.659
		C471.885,105.451,507.02,169.195,511.227,241z"/>
</g>
<g>
</g>
<g>
</g>
<g>
</g>
<g>
</g>
<g>
</g>
<g>
</g>
<g>
</g>
<g>
</g>
<g>
</g>
<g>
</g>
<g>
</g>
<g>
</g>
<g>
</g>
<g>
</g>
<g>
</g>
</svg>
