<?xml version="1.0" encoding="iso-8859-1"?>
<!-- Generator: Adobe Illustrator 19.0.0, SVG Export Plug-In . SVG Version: 6.00 Build 0)  -->
<svg version="1.1" id="Layer_1" xmlns="http://www.w3.org/2000/svg" xmlns:xlink="http://www.w3.org/1999/xlink" x="0px" y="0px"
	 viewBox="0 0 512 512" style="enable-background:new 0 0 512 512;" xml:space="preserve">
<path style="fill:#EC7838;" d="M327.697,120.994l-7.922-31.686c-2.125-8.5-7.649-15.753-15.277-20.062l0,0l8.2-8.25l-12.299-49.598
	C298.898,4.8,292.898,0,285.999,0h-59.997c-6.9,0-12.899,4.8-14.399,11.399l-11.999,49.598l12.149,11.499l-9.966,5.54
	c-4.774,2.654-8.236,7.167-9.56,12.465l-7.624,30.493c-2.4,9-6.3,17.099-0.3,24.299c2.7,3.6,7.2,5.7,11.699,5.7h119.994
	c4.5,0,9-2.1,11.699-5.7C333.396,138.394,329.796,130.294,327.697,120.994z"/>
<path style="fill:#DB632C;" d="M319.775,89.309c-2.125-8.5-7.649-15.753-15.277-20.062l8.2-8.25l-12.299-49.598
	C298.898,4.8,292.898,0,285.999,0h-29.986v150.993h59.984c4.5,0,9-2.1,11.699-5.7c5.7-6.9,2.1-14.999,0-24.299L319.775,89.309z"/>
<polygon style="fill:#E6EEFF;" points="320.197,90.996 192.103,90.996 199.602,60.997 312.697,60.997 "/>
<polygon style="fill:#C3CBD9;" points="320.197,90.996 256,90.996 256,60.997 312.697,60.997 "/>
<path style="fill:#E6EEFF;" d="M394.893,158.793c-3.6-21.9-22.199-37.798-44.397-37.798H161.503
	c-22.199,0-40.798,15.898-44.397,37.798c-1.8,10.499-20.399,122.092-22.199,132.293c-2.401,12,11.699,22.499,23.1,14.999
	L256,213.989l137.993,92.096c12.901,7.2,25.5-3.3,23.1-14.999C415.292,280.886,396.693,169.292,394.893,158.793z"/>
<path style="fill:#C3CBD9;" d="M417.092,291.085c2.401,11.699-10.199,22.199-23.1,14.999L256,213.989v-92.995h94.497
	c22.199,0,40.798,15.898,44.397,37.798C396.693,169.292,415.292,280.886,417.092,291.085z"/>
<path style="fill:#4DA6FF;" d="M434.633,386.822l3.759-15.64l12.298-51.597c1.201-6.301-1.199-12.598-6.299-16.2
	c-36.899-24.597-5.402-3.6-179.992-119.994c-2.401-1.8-5.402-2.399-8.401-2.399c-2.999,0-6,0.599-8.401,2.399
	C73.008,299.785,104.506,278.788,67.607,303.385c-5.099,3.602-7.5,9.901-6.299,16.2l12.298,51.597l3.728,15.658l178.664-120.877
	L434.633,386.822z"/>
<path style="fill:#757982;" d="M256,265.964L77.336,386.84l3.772,15.841l2.401,11.198c6.599,27,20.699,51.599,41.098,70.496
	c7.2-4.799,11.399-10.799,11.399-17.398c0,39.598,119.994,39.298,119.994,0c0,39.598,119.994,39.298,119.994,0
	c0,6.299,3.9,12.298,10.499,17.099c0.3-0.3,0.901-0.601,1.201-0.901c14.098-13.8,32.697-35.998,39.598-64.197l3.6-16.598
	l3.741-15.559L256,265.964z"/>
<path style="fill:#54CCFF;" d="M511.988,466.978c0,46.197-96.094,59.396-135.994,27.598c-29.098,23.1-90.897,23.1-119.994,0
	c-29.098,23.1-90.897,23.1-119.994,0C96.106,526.374,0.012,512.875,0.012,466.978c0-19.8,29.999-19.8,29.999,0
	c0,3.6,16.9,14.999,45.998,14.999s44.998-11.399,44.998-14.999c0-19.8,29.999-19.8,29.999,0c0,3.6,15.9,14.999,44.998,14.999
	s44.998-11.399,44.998-14.999c0-9.901,7.5-14.999,14.999-14.999c7.5,0,14.999,5.099,14.999,14.999c0,3.6,15.9,14.999,44.998,14.999
	s44.998-11.399,44.998-14.999c0-19.8,29.999-19.8,29.999,0c0,3.6,15.9,14.999,44.998,14.999c29.098,0,45.998-11.399,45.998-14.999
	C481.989,447.178,511.988,447.178,511.988,466.978z"/>
<path style="fill:#53565C;" d="M256,265.964v201.015c0,39.598,119.994,39.298,119.994,0c0,6.299,3.9,12.298,10.499,17.099
	c0.3-0.3,0.901-0.601,1.201-0.901c14.098-13.8,32.697-35.998,39.598-64.197l3.6-16.598l3.741-15.559L256,265.964z"/>
<path style="fill:#4596E6;" d="M438.392,371.182l12.298-51.597c1.201-6.301-1.199-12.598-6.299-16.2
	c-36.899-24.597-5.402-3.6-179.992-119.994c-2.401-1.8-5.402-2.399-8.401-2.399v84.972l178.633,120.858L438.392,371.182z"/>
<path style="fill:#4BB8E6;" d="M511.988,466.978c0,46.197-96.094,59.396-135.994,27.598c-29.098,23.1-90.897,23.1-119.994,0v-42.597
	c7.5,0,14.999,5.099,14.999,14.999c0,3.6,15.9,14.999,44.998,14.999s44.998-11.399,44.998-14.999c0-19.8,29.999-19.8,29.999,0
	c0,3.6,15.9,14.999,44.998,14.999c29.098,0,45.998-11.399,45.998-14.999C481.989,447.178,511.988,447.178,511.988,466.978z"/>
<g>
</g>
<g>
</g>
<g>
</g>
<g>
</g>
<g>
</g>
<g>
</g>
<g>
</g>
<g>
</g>
<g>
</g>
<g>
</g>
<g>
</g>
<g>
</g>
<g>
</g>
<g>
</g>
<g>
</g>
</svg>
