<?xml version="1.0" encoding="iso-8859-1"?>
<!-- Generator: Adobe Illustrator 19.0.0, SVG Export Plug-In . SVG Version: 6.00 Build 0)  -->
<svg version="1.1" id="Layer_1" xmlns="http://www.w3.org/2000/svg" xmlns:xlink="http://www.w3.org/1999/xlink" x="0px" y="0px"
	 viewBox="0 0 512 512" style="enable-background:new 0 0 512 512;" xml:space="preserve">
<g>
	<path style="fill:#F9BC35;" d="M271.316,53.402v60.07c0,10.211-8.21,15.318-15.718,15.318c-7.809,0-15.318-5.107-15.318-15.318
		v-60.07c0-10.213,7.809-15.318,15.318-15.318C263.407,38.084,271.316,43.189,271.316,53.402z"/>
	<path style="fill:#F9BC35;" d="M117.262,177.179l-42.53-42.529c-14.37-14.37,7.365-36.104,21.734-21.734l42.53,42.529
		C153.484,169.933,131.386,191.303,117.262,177.179z"/>
	<path style="fill:#F9BC35;" d="M75.289,308.598H15.22c-20.21,0-20.376-30.939,0-30.939h60.07
		C95.499,277.659,95.665,308.598,75.289,308.598z"/>
</g>
<g>
	<path style="fill:#F39E31;" d="M496.78,308.598h-61.071c-20.21,0-20.376-30.939,0-30.939h61.071
		C516.99,277.659,517.156,308.598,496.78,308.598z"/>
	<path style="fill:#F39E31;" d="M372.061,155.386l42.471-42.471c14.37-14.37,36.104,7.365,21.734,21.734l-42.471,42.471
		C379.504,191.412,357.533,169.913,372.061,155.386z"/>
</g>
<path style="fill:#FFDE33;" d="M390.957,293.682c0,23.976-8.813,76.131-47.536,86.899c-27.092,7.535-87.922,1.346-87.922-26.829
	c0,31.235-84.398,41.749-113.233,13.516c-3.045-4.571-7.208-12.616-7.208-12.616c-9.611-18.622-15.017-39.346-15.017-60.97
	c0-74.787,60.672-135.458,135.458-135.458S390.957,218.895,390.957,293.682z"/>
<path style="fill:#FFBC33;" d="M343.421,380.581c38.722-10.769,47.535-62.923,47.535-86.899
	c0-74.787-60.672-135.458-135.458-135.458v195.528C255.499,381.927,316.329,388.115,343.421,380.581z"/>
<path style="fill:#F39E31;" d="M271.316,53.402v60.07c0,10.211-8.21,15.318-15.718,15.318V38.084
	C263.407,38.084,271.316,43.189,271.316,53.402z"/>
<g>
	<path style="fill:#54CCFF;" d="M511.798,428.839c0,46.253-96.211,59.468-136.158,27.631c-29.133,23.128-91.007,23.128-120.14,0
		c-29.133,23.128-91.007,23.128-120.14,0C95.412,488.307,0.202,474.792,0.202,428.839c0-19.824,30.035-19.824,30.035,0
		c0,3.604,15.92,15.017,45.052,15.017s45.052-11.413,45.052-15.017c0-19.824,30.035-19.824,30.035,0
		c0,3.604,15.92,15.017,45.052,15.017s45.052-11.413,45.052-15.017c0-9.913,7.509-15.017,15.017-15.017s15.017,5.105,15.017,15.017
		c0,3.604,15.92,15.017,45.052,15.017c29.133,0,45.052-11.413,45.052-15.017c0-19.824,30.035-19.824,30.035,0
		c0,3.604,15.92,15.017,45.052,15.017s46.054-11.413,46.054-15.017C481.763,409.015,511.798,409.015,511.798,428.839z"/>
	<path style="fill:#54CCFF;" d="M511.798,353.752c0,46.253-96.211,59.468-136.158,27.631c-29.133,23.128-91.007,23.128-120.14,0
		c-29.133,23.128-91.007,23.128-120.14,0C95.412,413.22,0.202,399.704,0.202,353.752c0-19.824,30.035-19.824,30.035,0
		c0,3.604,15.92,15.017,45.052,15.017s45.052-11.413,45.052-15.017c0-19.824,30.035-19.824,30.035,0
		c0,3.604,15.92,15.017,45.052,15.017s45.052-11.413,45.052-15.017c0-9.913,7.509-15.017,15.017-15.017s15.017,5.105,15.017,15.017
		c0,3.604,15.92,15.017,45.052,15.017c29.133,0,45.052-11.413,45.052-15.017c0-19.824,30.035-19.824,30.035,0
		c0,3.604,15.92,15.017,45.052,15.017s46.054-11.413,46.054-15.017C481.763,333.928,511.798,333.928,511.798,353.752z"/>
</g>
<path style="fill:#9E1919;" d="M375.313,355.367c0.15-0.289,0.331-0.561,0.481-0.852
	C375.732,353.293,375.412,354.443,375.313,355.367z"/>
<g>
	<path style="fill:#4BB8E6;" d="M511.798,353.752c0,46.253-96.211,59.468-136.158,27.631c-29.133,23.128-91.007,23.128-120.14,0
		v-42.649c7.509,0,15.017,5.105,15.017,15.017c0,3.604,15.92,15.017,45.052,15.017c29.133,0,45.052-11.413,45.052-15.017
		c0-19.824,30.035-19.824,30.035,0c0,3.604,15.92,15.017,45.052,15.017s46.054-11.413,46.054-15.017
		C481.763,333.928,511.798,333.928,511.798,353.752z"/>
	<path style="fill:#4BB8E6;" d="M511.798,428.839c0,46.253-96.211,59.468-136.158,27.631c-29.133,23.128-91.007,23.128-120.14,0
		v-42.649c7.509,0,15.017,5.105,15.017,15.017c0,3.604,15.92,15.017,45.052,15.017c29.133,0,45.052-11.413,45.052-15.017
		c0-19.824,30.035-19.824,30.035,0c0,3.604,15.92,15.017,45.052,15.017s46.054-11.413,46.054-15.017
		C481.763,409.015,511.798,409.015,511.798,428.839z"/>
</g>
<g>
</g>
<g>
</g>
<g>
</g>
<g>
</g>
<g>
</g>
<g>
</g>
<g>
</g>
<g>
</g>
<g>
</g>
<g>
</g>
<g>
</g>
<g>
</g>
<g>
</g>
<g>
</g>
<g>
</g>
</svg>
