<?xml version="1.0" encoding="UTF-8" ?>
<!DOCTYPE svg PUBLIC "-//W3C//DTD SVG 1.1//EN" "http://www.w3.org/Graphics/SVG/1.1/DTD/svg11.dtd">
<svg width="1466pt" height="404pt" viewBox="0 0 1466 404" version="1.1" xmlns="http://www.w3.org/2000/svg">
<g id="#dc5e5eff">
<path fill="#dc5e5e" stroke="#dc5e5e" stroke-width="0.09375" opacity="1.00" d=" M 582.50 6.75 C 593.91 3.80 605.83 8.44 615.32 14.68 C 621.86 18.99 628.50 25.47 628.22 33.92 C 627.60 46.57 622.01 58.27 616.48 69.44 C 602.73 95.69 585.30 119.80 567.56 143.47 C 547.32 170.11 526.09 196.00 504.39 221.46 C 502.96 223.21 501.06 224.81 500.64 227.14 C 495.53 250.12 491.57 273.46 490.93 297.04 C 490.74 306.35 490.71 315.88 493.45 324.88 C 494.80 329.14 497.28 333.67 501.77 335.20 C 506.68 337.05 511.17 332.62 516.01 332.94 C 518.41 333.56 518.00 336.74 517.33 338.53 C 515.64 342.51 511.04 343.90 507.14 344.64 C 499.82 345.65 491.86 346.30 485.04 342.89 C 476.96 338.92 472.63 330.25 470.57 321.87 C 466.42 304.57 467.87 286.51 470.54 269.10 C 474.46 244.47 480.62 220.27 487.19 196.24 C 500.12 149.59 517.04 103.97 538.63 60.62 C 545.78 46.64 553.52 32.78 563.78 20.82 C 568.96 14.95 574.94 9.30 582.50 6.75 M 595.13 32.19 C 585.87 41.20 578.73 52.09 571.91 62.99 C 562.79 77.82 554.69 93.25 546.83 108.77 C 530.55 141.25 516.23 174.78 505.37 209.47 C 534.32 171.34 562.93 132.82 587.91 91.93 C 596.09 78.27 604.03 64.34 609.71 49.42 C 611.95 43.16 614.07 36.61 613.68 29.87 C 613.57 27.63 612.61 24.59 609.92 24.46 C 604.07 24.47 599.24 28.44 595.13 32.19 Z" />
<path fill="#dc5e5e" stroke="#dc5e5e" stroke-width="0.09375" opacity="1.00" d=" M 9.21 80.20 C 77.73 52.76 150.96 35.38 225.03 35.19 C 250.17 35.22 275.64 36.56 299.95 43.46 C 313.92 47.60 328.03 53.96 337.43 65.50 C 347.51 77.78 349.40 95.41 344.25 110.17 C 338.44 126.71 325.87 139.77 312.58 150.71 C 280.12 177.00 240.67 193.30 200.36 203.17 C 220.80 204.90 241.39 208.90 259.91 218.03 C 272.74 224.39 284.86 233.24 292.46 245.61 C 302.15 261.41 303.96 281.64 298.13 299.14 C 292.05 316.87 277.84 330.42 262.39 340.32 C 241.00 354.16 215.35 360.44 190.03 360.42 C 170.56 360.52 151.11 356.99 132.87 350.25 C 126.09 347.56 119.10 344.33 114.38 338.56 C 112.22 335.70 110.39 331.85 111.71 328.25 C 116.35 329.51 120.17 332.57 124.65 334.21 C 131.73 337.04 139.35 338.35 146.95 338.66 C 178.79 339.50 211.34 332.47 238.56 315.53 C 249.59 308.61 260.33 300.87 268.85 290.93 C 274.74 283.99 279.52 275.34 279.14 265.98 C 278.93 257.12 274.52 248.84 268.32 242.69 C 260.01 234.35 249.35 228.91 238.69 224.23 C 223.35 217.57 206.77 213.41 189.99 213.45 C 175.04 213.51 159.82 214.66 145.68 219.84 C 141.71 220.07 138.98 215.74 139.37 212.05 C 139.32 205.89 145.25 202.21 150.48 200.65 C 158.90 198.56 167.72 198.40 176.05 195.83 C 209.58 186.26 242.92 173.77 271.44 153.28 C 288.72 140.80 304.62 124.21 310.09 103.03 C 312.28 93.58 313.84 82.91 309.01 74.00 C 304.20 65.23 295.34 59.58 286.35 55.80 C 270.37 49.45 252.94 48.18 235.92 47.88 C 210.00 47.71 183.75 49.37 158.76 56.72 C 111.18 70.30 64.72 87.47 17.58 102.44 C 14.06 103.76 9.71 102.61 7.56 99.48 C 5.25 96.13 4.96 91.88 5.00 87.94 C 4.99 84.91 6.12 81.36 9.21 80.20 Z" />
<path fill="#dc5e5e" stroke="#dc5e5e" stroke-width="0.09375" opacity="1.00" d=" M 147.17 78.14 C 149.76 75.29 152.62 71.40 156.94 71.79 C 164.60 72.16 172.13 74.52 178.85 78.17 C 181.35 79.47 184.82 82.48 182.36 85.42 C 155.79 124.05 130.32 163.52 107.73 204.64 C 90.70 235.86 75.04 268.03 64.09 301.94 C 58.04 321.06 53.44 340.87 53.06 361.00 C 52.65 373.52 56.94 385.96 63.94 396.22 C 61.58 399.71 56.62 398.05 53.59 396.38 C 46.66 391.97 43.19 384.05 40.28 376.70 C 34.78 361.82 34.23 345.62 35.65 329.98 C 38.53 300.16 47.84 271.41 58.79 243.68 C 75.90 201.08 97.66 160.53 120.90 121.01 C 129.10 106.41 136.66 91.27 147.17 78.14 Z" />
<path fill="#dc5e5e" stroke="#dc5e5e" stroke-width="0.09375" opacity="1.00" d=" M 1028.03 75.00 C 1028.77 74.24 1029.35 72.90 1030.65 73.15 C 1031.50 76.84 1030.07 80.53 1029.62 84.17 C 1027.94 95.66 1024.91 107.13 1019.23 117.32 C 1015.73 123.49 1010.29 129.46 1002.89 130.43 C 994.36 131.21 985.26 129.20 978.68 123.47 C 997.63 110.12 1013.41 92.85 1028.03 75.00 Z" />
<path fill="#dc5e5e" stroke="#dc5e5e" stroke-width="0.09375" opacity="1.00" d=" M 727.29 91.14 C 729.76 89.57 733.44 90.58 734.35 93.48 C 736.53 100.68 734.99 110.10 727.98 114.15 C 713.26 123.99 697.86 132.75 682.66 141.81 C 669.82 149.28 657.06 156.89 644.03 164.02 C 641.44 165.78 636.66 164.52 636.70 160.92 C 637.76 158.42 639.95 156.66 641.85 154.81 C 651.31 146.23 661.45 138.44 671.53 130.60 C 686.30 119.30 701.07 107.98 716.49 97.57 C 720.00 95.29 723.48 92.91 727.29 91.14 Z" />
<path fill="#dc5e5e" stroke="#dc5e5e" stroke-width="0.09375" opacity="1.00" d=" M 1038.28 151.73 C 1037.39 147.77 1041.76 145.60 1045.09 145.67 C 1056.58 145.37 1069.30 146.74 1078.31 154.62 C 1086.47 161.82 1088.24 173.60 1087.13 183.91 C 1085.12 201.02 1079.36 217.37 1073.97 233.64 C 1082.17 220.02 1089.80 206.01 1099.11 193.09 C 1106.59 182.81 1114.64 172.51 1125.31 165.34 C 1135.10 158.69 1147.89 156.20 1159.29 159.73 C 1166.75 162.05 1172.00 168.76 1174.21 176.06 C 1178.10 188.64 1177.01 202.10 1175.10 214.93 C 1170.91 240.96 1162.90 266.17 1154.72 291.18 C 1181.25 262.54 1207.78 233.92 1234.25 205.24 C 1238.18 200.23 1244.90 199.03 1250.85 198.19 C 1256.60 197.66 1262.56 197.33 1268.18 198.92 C 1270.32 199.48 1272.95 201.40 1271.96 203.93 C 1264.56 224.85 1257.33 245.89 1252.40 267.55 C 1249.79 279.18 1247.71 291.07 1248.36 303.04 C 1248.69 309.47 1249.07 316.21 1252.14 322.01 C 1253.31 324.43 1255.72 325.82 1258.28 326.40 C 1259.93 321.92 1261.20 317.32 1262.71 312.79 C 1264.61 319.24 1264.92 326.14 1263.76 332.75 C 1263.08 336.35 1260.91 340.25 1257.02 340.99 C 1248.01 342.23 1238.48 338.20 1233.29 330.69 C 1226.61 321.20 1224.81 309.31 1223.93 298.00 C 1222.35 271.81 1226.99 245.77 1231.91 220.15 C 1221.37 230.75 1212.29 242.67 1203.89 255.00 C 1191.83 271.92 1179.81 288.86 1167.71 305.74 C 1161.53 314.12 1155.38 322.58 1148.13 330.07 C 1145.85 332.16 1143.40 334.98 1140.00 334.62 C 1134.42 334.36 1128.43 334.41 1123.45 331.56 C 1120.97 330.27 1120.58 327.28 1121.40 324.85 C 1127.07 299.43 1134.49 274.43 1140.05 248.98 C 1143.73 231.81 1147.46 214.55 1148.46 196.98 C 1148.56 192.25 1148.96 186.94 1146.11 182.87 C 1143.11 179.10 1137.62 180.46 1133.77 181.93 C 1123.87 186.25 1116.52 194.56 1109.68 202.64 C 1085.92 232.16 1069.33 266.54 1053.83 300.90 C 1047.56 314.38 1041.96 328.21 1034.85 341.28 C 1028.73 340.96 1022.36 339.36 1017.53 335.43 C 1013.82 332.28 1015.94 327.07 1016.54 323.06 C 1022.99 294.92 1032.72 267.69 1040.84 240.02 C 1047.35 217.15 1053.53 193.91 1054.86 170.06 C 1054.96 165.59 1055.52 160.30 1052.18 156.77 C 1048.45 152.97 1042.12 155.26 1038.28 151.73 Z" />
<path fill="#dc5e5e" stroke="#dc5e5e" stroke-width="0.09375" opacity="1.00" d=" M 731.47 165.51 C 744.42 156.83 759.21 149.89 775.02 149.21 C 779.86 148.56 783.53 152.38 786.98 155.14 C 793.54 161.16 800.11 167.34 805.31 174.60 C 807.05 176.44 807.34 180.80 804.06 181.00 C 797.37 180.02 790.83 177.70 783.99 178.08 C 766.72 178.75 750.25 185.54 735.86 194.81 C 726.33 201.01 717.11 208.08 710.32 217.30 C 705.93 223.32 702.72 230.56 702.89 238.13 C 703.90 241.66 706.51 244.45 708.57 247.42 C 722.29 265.58 738.91 281.44 751.60 300.39 C 754.98 305.80 758.75 311.46 759.22 318.00 C 759.22 326.08 753.52 332.68 747.73 337.69 C 736.93 346.84 723.43 353.74 709.00 353.81 C 696.51 353.86 683.50 351.96 672.71 345.28 C 670.05 343.72 668.00 341.34 667.01 338.41 C 685.65 333.92 704.79 329.95 721.85 320.80 C 727.80 317.40 734.31 313.01 736.08 305.95 C 737.26 302.60 734.80 299.69 732.82 297.28 C 725.09 288.30 715.22 281.43 707.79 272.15 C 695.57 257.79 687.94 239.02 689.12 219.98 C 689.97 208.96 695.69 198.96 702.67 190.63 C 710.92 180.86 720.93 172.70 731.47 165.51 Z" />
<path fill="#dc5e5e" stroke="#dc5e5e" stroke-width="0.09375" opacity="1.00" d=" M 856.17 163.11 C 868.47 155.42 882.42 149.49 897.11 149.19 C 900.23 148.96 902.78 151.07 905.14 152.80 C 910.86 157.36 915.98 162.62 920.96 167.96 C 923.21 170.52 925.61 173.05 927.16 176.13 C 928.27 177.88 927.42 181.09 925.01 180.99 C 918.33 180.00 911.78 177.69 904.95 178.09 C 887.16 178.78 870.25 185.96 855.55 195.66 C 846.13 201.92 837.01 209.09 830.50 218.46 C 826.54 224.22 823.72 231.05 823.89 238.14 C 824.91 241.68 827.53 244.48 829.60 247.45 C 843.31 265.61 859.92 281.46 872.61 300.40 C 875.98 305.82 879.76 311.48 880.22 318.02 C 880.24 325.60 875.13 331.93 869.78 336.77 C 859.05 346.17 845.58 353.38 831.07 353.79 C 818.47 353.98 805.36 352.20 794.36 345.68 C 791.47 344.07 789.05 341.62 788.00 338.42 C 806.64 333.91 825.78 329.95 842.83 320.81 C 848.79 317.41 855.30 313.02 857.08 305.96 C 858.27 302.59 855.78 299.66 853.78 297.24 C 846.05 288.28 836.19 281.40 828.78 272.13 C 816.55 257.77 808.93 238.99 810.12 219.96 C 811.09 207.74 817.93 196.90 825.96 188.00 C 834.79 178.34 845.15 170.14 856.17 163.11 Z" />
<path fill="#dc5e5e" stroke="#dc5e5e" stroke-width="0.09375" opacity="1.00" d=" M 384.99 172.01 C 395.32 164.09 407.80 158.04 421.07 158.18 C 433.62 158.11 446.08 164.55 453.09 174.98 C 457.81 182.04 458.33 191.13 456.28 199.19 C 453.03 211.86 444.14 222.15 434.53 230.62 C 418.88 244.09 400.06 255.53 379.02 257.07 C 375.61 257.09 371.39 258.09 368.84 255.19 C 369.86 253.91 370.32 251.90 372.07 251.43 C 391.04 245.24 410.10 236.74 423.97 221.94 C 434.82 210.52 440.81 194.59 439.81 178.84 C 439.70 176.31 437.88 173.54 435.06 173.83 C 429.86 174.33 425.40 177.36 421.14 180.13 C 389.66 202.55 365.43 234.20 348.89 268.91 C 342.66 282.68 337.63 297.65 338.83 312.96 C 339.35 319.30 341.32 326.34 346.94 330.03 C 352.72 333.76 360.04 332.99 366.47 331.73 C 380.85 328.44 393.36 319.91 404.51 310.56 C 425.52 291.21 444.57 269.89 464.39 249.36 C 465.65 248.24 466.85 246.22 468.81 247.20 C 470.52 247.54 470.89 249.51 470.56 250.97 C 470.38 253.99 468.37 256.36 466.72 258.73 C 454.61 276.05 441.83 292.99 427.39 308.46 C 417.35 319.15 406.53 329.30 394.02 337.05 C 384.73 342.76 374.10 347.07 363.02 346.61 C 350.95 346.35 338.17 344.11 328.53 336.33 C 320.42 329.92 316.06 319.87 314.69 309.82 C 312.24 292.54 316.39 275.08 322.88 259.12 C 330.40 240.71 340.87 223.66 352.34 207.46 C 361.74 194.41 372.18 181.86 384.99 172.01 Z" />
<path fill="#dc5e5e" stroke="#dc5e5e" stroke-width="0.09375" opacity="1.00" d=" M 1360.00 176.90 C 1372.30 167.14 1386.71 157.65 1403.06 158.17 C 1414.16 158.00 1425.46 158.99 1435.93 162.91 C 1442.55 165.40 1449.08 168.76 1453.95 174.00 C 1458.61 178.97 1461.16 186.15 1459.89 192.92 C 1459.36 195.66 1456.34 197.13 1453.77 196.48 C 1450.16 188.61 1445.37 180.71 1437.64 176.29 C 1429.79 171.62 1420.04 171.96 1411.50 174.36 C 1399.11 177.90 1388.28 185.36 1378.59 193.65 C 1363.90 206.32 1351.45 221.32 1339.77 236.74 C 1326.69 254.31 1314.00 272.60 1306.18 293.20 C 1303.22 301.45 1300.96 310.32 1302.22 319.13 C 1302.63 321.83 1303.93 325.15 1307.06 325.51 C 1313.01 325.69 1318.34 322.40 1323.15 319.23 C 1334.98 310.89 1344.95 300.26 1354.65 289.60 C 1378.47 262.70 1399.76 233.69 1420.66 204.50 C 1423.03 201.13 1427.63 202.91 1430.57 204.50 C 1436.16 207.60 1442.49 210.34 1446.28 215.73 C 1448.05 218.12 1445.63 220.48 1444.67 222.64 C 1436.53 236.82 1430.23 252.01 1425.40 267.62 C 1420.97 282.30 1418.19 297.64 1418.96 313.01 C 1419.33 319.47 1420.06 326.13 1423.03 331.98 C 1424.80 335.48 1427.96 338.49 1431.95 339.14 C 1435.13 339.85 1438.23 338.06 1441.44 338.37 C 1442.19 341.32 1438.75 342.78 1436.46 343.32 C 1428.53 344.92 1419.68 344.79 1412.61 340.40 C 1403.93 335.04 1398.57 325.59 1396.02 315.93 C 1392.01 300.19 1393.50 283.66 1396.26 267.84 C 1397.67 260.16 1399.49 252.56 1401.69 245.07 C 1396.62 253.73 1390.51 261.71 1384.91 270.02 C 1374.62 285.78 1363.82 301.27 1351.47 315.50 C 1342.71 325.40 1333.28 335.20 1321.41 341.35 C 1314.60 345.00 1306.25 346.04 1299.02 343.01 C 1290.81 339.54 1284.28 332.60 1280.50 324.61 C 1276.07 314.57 1275.38 302.93 1278.53 292.42 C 1282.86 277.46 1290.47 263.74 1298.20 250.32 C 1314.55 222.67 1335.25 197.44 1360.00 176.90 Z" />
<path fill="#dc5e5e" stroke="#dc5e5e" stroke-width="0.09375" opacity="1.00" d=" M 964.78 166.81 C 969.95 161.91 977.62 162.86 984.11 163.40 C 989.65 164.02 996.46 165.31 998.79 171.15 C 981.73 200.66 969.54 232.68 958.95 265.00 C 953.82 281.39 948.54 297.91 946.66 315.05 C 946.37 321.87 945.98 329.33 949.43 335.48 C 951.78 339.41 957.02 338.26 960.39 336.47 C 968.84 332.01 975.54 325.03 982.97 319.17 C 984.20 320.04 985.25 321.38 984.75 323.00 C 984.06 326.60 981.29 329.33 978.64 331.65 C 972.48 336.75 965.40 340.61 958.28 344.18 C 952.25 347.01 945.69 349.95 938.87 348.74 C 933.29 348.07 928.03 344.86 925.16 339.98 C 920.98 333.12 920.12 324.85 919.99 316.98 C 919.91 298.73 923.26 280.64 927.79 263.02 C 933.30 241.85 940.73 221.22 949.02 200.99 C 951.70 194.05 955.19 187.41 957.19 180.21 C 959.24 175.52 961.30 170.63 964.78 166.81 Z" />
<path fill="#dc5e5e" stroke="#dc5e5e" stroke-width="0.09375" opacity="1.00" d=" M 609.90 207.83 C 614.48 204.11 620.50 200.64 626.59 202.53 C 631.06 204.14 635.85 206.31 638.57 210.40 C 640.53 213.00 636.94 214.82 635.70 216.74 C 624.97 230.38 614.59 244.31 603.88 257.97 C 593.30 271.94 582.75 286.12 574.97 301.89 C 570.98 309.81 568.28 319.40 572.06 327.92 C 574.09 332.84 580.14 335.03 585.06 333.48 C 591.61 331.44 597.51 327.82 603.37 324.34 C 622.20 312.54 640.38 299.67 657.52 285.52 C 664.25 279.72 671.34 274.22 676.99 267.30 C 677.01 269.80 676.99 272.42 675.72 274.66 C 672.58 280.85 667.57 285.82 662.66 290.63 C 650.32 302.22 636.70 312.34 622.94 322.17 C 612.53 329.34 601.92 336.49 590.15 341.24 C 580.85 345.19 569.08 344.30 561.22 337.68 C 554.17 331.29 552.65 321.09 552.80 312.04 C 553.44 299.49 558.57 287.74 563.74 276.46 C 570.81 261.76 579.02 247.61 587.97 233.98 C 594.36 224.57 601.09 215.14 609.90 207.83 Z" />
</g>
</svg>
