<?xml version="1.0" encoding="utf-8"?>
<!-- Generator: Adobe Illustrator 19.0.0, SVG Export Plug-In . SVG Version: 6.00 Build 0)  -->
<svg version="1.1" id="Layer_1" xmlns="http://www.w3.org/2000/svg" xmlns:xlink="http://www.w3.org/1999/xlink" x="0px" y="0px"
	 viewBox="0 0 252.8 44.5" enable-background="new 0 0 252.8 44.5" xml:space="preserve">
<g id="XMLID_3_">
	<path id="XMLID_4_" fill="#FFFFFF" d="M0,8.9c0-2.2,0.6-3.3,1.9-3.3c1.5,0,2.9,0.4,4,1.1c2.3,1.4,3.4,3.8,3.4,7.1
		c0,2.5-1,5.2-3.1,8.1c1.4,2,2.3,3.2,2.6,3.5c0.3,0.4,0.6,0.7,0.8,1.1C9.8,27,10,27.2,10,27.3c0,0.1,0.1,0.3,0.2,0.8
		c0.1,0.4,0.1,0.8,0.1,1.1c0,0.8,0.1,1.7,0.2,2.8c0.1,1.1,0.2,1.7,0.3,1.8c0,0.1,0,0.5-0.2,1.3s-0.3,1.2-0.4,1.4
		c-0.1,0.2-0.2,0.6-0.3,1c-0.1,0.4-0.2,0.7-0.3,0.9c-0.1,0.2-0.2,0.5-0.3,0.8c-0.1,0.3-0.3,0.6-0.4,0.8s-0.3,0.4-0.5,0.7
		c-0.2,0.3-0.4,0.5-0.7,0.7s-0.5,0.4-0.8,0.6c-1,0.7-1.9,1.2-2.7,1.4s-1.3,0.3-1.4,0.3H2.5c-0.9,0-1.5-0.1-1.7-0.2
		c-0.5-0.3-0.7-0.6-0.7-1L0.3,30L0,9.7V8.9z M3.4,8.5c-0.5,0-0.7,0.6-0.7,1.8s0,3.1,0.1,5.6c0.1,2.6,0.1,4.4,0.1,5.6
		c1.2-0.3,2.2-1.7,3.1-4.4c0.5-1.4,0.7-2.3,0.9-2.6v-1.8c0-1-0.3-1.9-1-2.9C5.1,8.9,4.3,8.5,3.4,8.5z M4.6,24L4.6,24l-1.7,0
		c0.1,4.1,0.2,9.8,0.2,17c1.6-0.3,2.9-1,3.8-2.3c0.9-1.3,1.4-2.8,1.4-4.5C8.3,28.5,7.1,25.1,4.6,24z"/>
	<path id="XMLID_8_" fill="#FFFFFF" d="M26.7,35.1l-0.3,1c0,0.4,0.1,1.4,0.4,3c0.3,1.6,0.4,2.6,0.4,3.1v0c0,0.7-0.3,1.2-0.8,1.4
		c-0.7,0-1.2-0.1-1.6-0.3s-0.6-0.8-0.6-1.7c0-0.9-0.2-2.8-0.7-5.7L22,35.7h-1.7c-0.4-0.2-1-0.2-2-0.2c0,0,0,0.2-0.1,0.6
		c0,0.4-0.1,0.7-0.1,1s-0.1,0.6-0.1,1.1c-0.1,0.5-0.1,0.9-0.2,1.2c-0.1,0.3-0.1,0.7-0.2,1.2c-0.1,0.4-0.2,0.8-0.3,1.1
		c-0.1,0.3-0.3,0.6-0.4,0.9c-0.3,0.6-0.7,0.9-1.1,0.9c-0.4,0-0.8-0.1-1.1-0.4c-0.3-0.3-0.5-0.6-0.5-1c0.9-3.4,1.6-6.9,2.3-10.6
		c0.6-3.7,1-5.9,1.1-6.6c0.1-0.7,0.4-2,0.9-4c0.4-2,0.7-3.3,0.8-4c0.1-0.7,0.2-1.5,0.3-2.6c0.1-2.3,0.4-3.8,0.9-4.5h1.7
		c1.1,0,1.7,0.3,1.7,1c0,6.4,0.6,12.8,1.9,19.2c0.1,0.4,0.2,0.9,0.4,1.6C26.5,33.1,26.7,34.2,26.7,35.1z M23.3,34
		c-0.1-0.5-0.1-1.3-0.1-2.4c0-1.1-0.1-2.4-0.2-4c-0.1-1.6-0.3-3.4-0.6-5.4c-0.3-2.1-0.4-3.5-0.5-4.4c-0.2,0.9-0.6,2.5-1.1,4.7
		c-1.2,4.6-1.8,8.2-1.8,10.6C19.4,33.6,20.9,33.8,23.3,34z"/>
	<path id="XMLID_11_" fill="#FFFFFF" d="M36.8,26.5l0.4,10.6v1.5c0,0.2,0,0.4,0,0.6c0,0.3,0,0.6,0.1,0.8V40l1.8,0
		c1.4,0,2.1,0.4,2.1,1.2c0,0.4-0.2,0.8-0.5,1.1c-0.3,0.3-0.7,0.5-1.2,0.5l-1.7-0.2c-0.1,0-0.3,0.1-0.8,0.3c-0.4,0.2-0.9,0.3-1.4,0.3
		s-0.9-0.2-1.3-0.5c-0.3,0-0.5,0-0.6,0c-0.9,0-1.5-0.3-1.9-0.9c0-0.7,0.3-1.1,0.8-1.3v-0.2h1.6l0.1-0.7L34.1,29l0.3-11.1
		c0-1.9-0.1-3.6-0.2-5.3c-0.7,0-1.3,0-1.9,0c-0.6,0-1-0.1-1.3-0.3c-0.3-0.2-0.4-0.5-0.4-1.1c0-0.8,0.9-1.2,2.7-1.1h0.2
		c4.3,0,6.4,0.7,6.4,2c0,0.2-0.1,0.5-0.3,0.9h-2.6c0.1,1.2,0.2,2.5,0.2,4L36.8,26.5z M36.7,7C35.6,7,35,6.6,35,5.7v0
		c0-0.7,1.5-2,4.4-4.1c1.2-0.8,1.9-1.4,2.1-1.6c1.3,0,1.9,0.5,1.9,1.4c0,0-0.1,0.4-0.2,1.2C42.2,3,41,3.6,39.8,4.5S37.5,6.2,36.7,7z
		"/>
	<path id="XMLID_14_" fill="#FFFFFF" d="M56.6,35.1l-0.3,1c0,0.4,0.1,1.4,0.4,3c0.3,1.6,0.4,2.6,0.4,3.1v0c0,0.7-0.3,1.2-0.8,1.4
		c-0.7,0-1.2-0.1-1.6-0.3s-0.6-0.8-0.6-1.7c0-0.9-0.2-2.8-0.7-5.7L52,35.7h-1.7c-0.4-0.2-1-0.2-2-0.2c0,0,0,0.2-0.1,0.6
		c0,0.4-0.1,0.7-0.1,1s-0.1,0.6-0.1,1.1c-0.1,0.5-0.1,0.9-0.2,1.2c-0.1,0.3-0.1,0.7-0.2,1.2c-0.1,0.4-0.2,0.8-0.3,1.1
		c-0.1,0.3-0.3,0.6-0.4,0.9c-0.3,0.6-0.7,0.9-1.1,0.9c-0.4,0-0.8-0.1-1.1-0.4c-0.3-0.3-0.5-0.6-0.5-1c0.9-3.4,1.6-6.9,2.3-10.6
		c0.6-3.7,1-5.9,1.1-6.6c0.1-0.7,0.4-2,0.9-4c0.4-2,0.7-3.3,0.8-4c0.1-0.7,0.2-1.5,0.3-2.6c0.1-2.3,0.4-3.8,0.9-4.5h1.7
		c1.1,0,1.7,0.3,1.7,1c0,6.4,0.6,12.8,1.9,19.2c0.1,0.4,0.2,0.9,0.4,1.6C56.4,33.1,56.6,34.2,56.6,35.1z M53.2,34
		c-0.1-0.5-0.1-1.3-0.1-2.4c0-1.1-0.1-2.4-0.2-4c-0.1-1.6-0.3-3.4-0.6-5.4c-0.3-2.1-0.4-3.5-0.5-4.4c-0.2,0.9-0.6,2.5-1.1,4.7
		c-1.2,4.6-1.8,8.2-1.8,10.6C49.3,33.6,50.8,33.8,53.2,34z"/>
	<path id="XMLID_17_" fill="#FFFFFF" d="M79.6,23.4L79.5,26v2.7c0,3.3-0.1,5.5-0.4,6.7c-0.3,1.2-0.6,2.1-0.9,2.9
		c-0.3,0.7-0.7,1.4-1.1,2c-1,1.3-2.2,2.4-3.7,3.2H70c-0.8,0-1.3-2.2-1.3-6.5l0.1-15.7c0-2.9-0.1-5.6-0.2-8.2
		c-0.3-0.3-0.4-0.7-0.4-1.2c0-0.4,0.2-0.8,0.6-1.2c0.4-0.3,0.8-0.5,1.4-0.5c0.5,0,1,0.3,1.4,0.9c0.2,0.1,0.6,0.2,1.1,0.3
		c0.5,0.1,0.8,0.2,1.1,0.3c1.9,0.9,3.3,2.4,4.4,4.6C79.1,18.3,79.6,20.8,79.6,23.4z M71.5,17.7L72,39.7v1.2h0.9
		c1.7-2.1,2.9-4.1,3.4-5.8c0.5-1.6,0.7-3.9,0.7-6.9c0-10.1-1.7-15.3-5.2-15.8C71.6,13.8,71.5,15.5,71.5,17.7z"/>
	<path id="XMLID_20_" fill="#FFFFFF" d="M95.8,29.7c0,9.6-2,14.4-5.9,14.4c-3.6,0-5.6-4.5-6.1-13.6c0-0.9,0-1.7,0-2.6l0-3.1v-1
		c0-7,1-11.4,3.1-13.1c0.5-0.4,1.1-0.6,1.7-0.7c0.5,0.2,1,0.3,1.7,0.5c0.7,0.1,1.2,0.3,1.5,0.4c0.6,0.3,1.3,1,2,2.2
		c0.7,1.2,1.2,2.7,1.6,4.7c0.3,1.9,0.5,3.9,0.5,5.8V29.7z M86.6,17.9l0.1,2.9l0,4.8c0,0.4,0,0.9,0,1.4c0,0.6,0,1.3,0.1,2.2
		s0.1,1.8,0.1,2.7c0.1,0.9,0.2,1.8,0.3,2.8c0.1,1,0.2,1.9,0.4,2.7c0.2,0.8,0.3,1.6,0.5,2.3c0.4,1.5,1,2.2,1.7,2.2
		c1,0,1.7-0.9,2.2-2.7c0.7-2.7,1.1-6,1.1-9.9l0.1-5.2c0-3.6-0.2-6-0.5-7.3c-0.3-1.3-0.6-2.2-0.9-2.8c-0.6-1.3-1.4-1.9-2.5-1.9
		c0,0-0.1,0-0.1,0C87.4,12.2,86.6,14.1,86.6,17.9z"/>
	<path id="XMLID_23_" fill="#FFFFFF" d="M100.1,41.1l2.6,0.4c0.6,0,1.2-0.3,1.7-0.8c0.5-0.6,0.8-1.2,1-2.1c0.4-1.6,0.7-3,0.7-4.2
		c0-1.2-0.2-2.4-0.6-3.6c-0.4-1.2-0.9-2.3-1.5-3.4c-0.6-1-1.2-2.1-1.8-3.2c-1.4-2.5-2.1-5-2.1-7.5c0-1.5,0.3-2.8,0.8-4
		c0.9-2.1,2.2-3.2,3.8-3.2c0.6,0,1.1,0.2,1.7,0.6c0.5,0.4,0.8,0.8,0.8,1.2c0,0.8-0.4,1.1-1.2,1.1c-0.4,0-0.7-0.1-1-0.3
		c-1.1,0-1.8,1.2-2.1,3.5c-0.1,0.5-0.1,1.1-0.1,1.8c0,0.7,0.1,1.5,0.4,2.5c0.3,1,0.7,1.9,1.1,2.6c0.4,0.8,0.9,1.6,1.4,2.6
		c0.5,0.9,1,1.8,1.5,2.7c1,2,1.5,4.4,1.5,7c0,2.1-0.4,4-1.2,5.8c-0.4,0.9-1.1,1.7-1.9,2.2s-1.7,0.9-2.8,0.9v0.1
		c-0.6-0.1-1.2-0.3-1.7-0.6c-0.5-0.3-0.8-0.8-0.9-1.3V41.1z"/>
	<path id="XMLID_25_" fill="#FFFFFF" d="M130.7,34.1l-1.9,0.2c-1.1,0-1.7-0.5-1.7-1.4c0-0.8,1-1.3,3.1-1.6c0.4,0,0.9-0.1,1.4-0.1
		c0.5,0,0.9,0.3,1.3,0.8c0.4,0.5,0.5,1.2,0.5,2.1c0,0.9,0.2,2.3,0.5,4.3c0.3,2,0.5,3.3,0.5,4c0,1.2-0.4,1.8-1.2,1.8s-1.4-0.4-1.7-1
		v0c-0.2,0.1-0.5,0.3-1,0.6c-1,0.6-1.9,0.8-2.6,0.8c-0.8,0-1.5-0.2-2.3-0.5c-0.8-0.3-1.4-0.7-2-1.2c-0.5-0.5-1-1.1-1.5-1.9
		c-0.4-0.8-0.8-1.5-1.1-2.3c-0.3-0.7-0.5-1.6-0.7-2.6c-0.2-1-0.4-1.9-0.5-2.7c-0.1-0.8-0.2-1.7-0.2-2.8c-0.1-1.3-0.1-2.9-0.1-4.8
		l0-3.7c0-7.8,1.1-13,3.3-15.6c1.3-1.5,3-2.2,5-2.2c1.3,0,2,0.5,2,1.4c0,0.4-0.1,0.6-0.4,0.9c-0.3,0.2-0.5,0.3-0.9,0.3l-1.4-0.2
		c-1.2,0-2.2,0.8-2.9,2.3c-0.7,1.6-1.2,3.1-1.4,4.6c-0.2,1.5-0.4,2.7-0.5,3.6c-0.1,0.9-0.2,1.9-0.2,3.1c-0.1,1.6-0.1,3.2-0.1,4.7
		l0,3.1c0,3.3,0.1,5.6,0.4,6.9c0.3,1.3,0.6,2.4,0.8,3.2c0.3,0.8,0.6,1.5,1,2c0.9,1.2,2.1,1.8,3.5,1.8c1.4,0,2.6-0.7,3.6-2.1
		C131.4,36.8,131.2,34.9,130.7,34.1z"/>
	<path id="XMLID_27_" fill="#FFFFFF" d="M150.3,29.7c0,9.6-2,14.4-5.9,14.4c-3.6,0-5.6-4.5-6.1-13.6c0-0.9,0-1.7,0-2.6l0-3.1v-1
		c0-7,1-11.4,3.1-13.1c0.5-0.4,1.1-0.6,1.7-0.7c0.5,0.2,1,0.3,1.7,0.5c0.7,0.1,1.2,0.3,1.5,0.4c0.6,0.3,1.3,1,2,2.2
		c0.7,1.2,1.2,2.7,1.6,4.7c0.3,1.9,0.5,3.9,0.5,5.8V29.7z M141,17.9l0.1,2.9l0,4.8c0,0.4,0,0.9,0,1.4c0,0.6,0,1.3,0.1,2.2
		s0.1,1.8,0.1,2.7c0.1,0.9,0.2,1.8,0.3,2.8c0.1,1,0.2,1.9,0.4,2.7c0.2,0.8,0.3,1.6,0.5,2.3c0.4,1.5,1,2.2,1.7,2.2
		c1,0,1.7-0.9,2.2-2.7c0.7-2.7,1.1-6,1.1-9.9l0.1-5.2c0-3.6-0.2-6-0.5-7.3c-0.3-1.3-0.6-2.2-0.9-2.8c-0.6-1.3-1.4-1.9-2.5-1.9
		c0,0-0.1,0-0.1,0C141.9,12.2,141,14.1,141,17.9z"/>
	<path id="XMLID_30_" fill="#FFFFFF" d="M158.1,15.1l0.1,12c-0.2,0.5-0.3,1.4-0.3,2.7l-0.2,8c0,2.3,0.6,3.4,1.7,3.4l2.1-0.1
		c1.8,0,2.7,0.5,2.7,1.5c0,0.4-0.2,0.7-0.5,0.9c-0.3,0.2-0.7,0.4-1,0.4c-1.2-0.4-2.7-0.6-4.5-0.6c-0.5,0.3-1.1,0.5-1.6,0.5
		c-0.5,0-0.9-0.2-1.2-0.5c-0.3-0.3-0.4-0.7-0.4-1.1l0.5-22.3v-0.4c-0.1-1-0.1-2.6-0.1-4.7c0-3.2,0.6-4.7,1.7-4.7
		c0.3,0,0.6,0.1,0.9,0.4c0.3,0.2,0.4,0.5,0.4,0.9L158.1,15.1z"/>
	<path id="XMLID_32_" fill="#FFFFFF" d="M171,24.8l0.9,0c1.6,0,2.4,0.4,2.4,1.3c0,0.4-0.2,0.8-0.5,1.1c-0.4,0.3-0.8,0.4-1.4,0.4
		c-0.6,0-1.2-0.1-1.8-0.3v14.2c0,1.7-0.6,2.5-1.7,2.5l-1.4-1c0.3-2.9,0.4-7,0.5-12.3c0.1-5.3,0.2-9.5,0.4-12.5
		c0.2-3,0.3-5.2,0.3-6.7c0-0.5,0.2-0.8,0.6-1.1c0.4-0.3,0.8-0.4,1.3-0.4c0.5,0,1,0,1.6,0c3.3,0.2,4.9,0.9,4.9,2
		c0,0.9-0.8,1.4-2.5,1.4c-0.7-0.3-1.7-0.5-3.2-0.5v0.6l-0.5,10V24.8z"/>
	<path id="XMLID_34_" fill="#FFFFFF" d="M187.4,42.6l-1.9,0l-2.2,0.1c-0.9,0-1.5-0.3-1.9-0.9c0-0.5,0.1-0.9,0.2-1.1s0.4-0.4,0.8-0.4
		h1.4l0.1-0.7L183.6,29l0.3-11.1c0-1.9-0.1-3.6-0.2-5.3c-0.7,0-1.3,0-1.9,0c-0.6,0-1-0.1-1.3-0.3c-0.3-0.2-0.4-0.5-0.4-1.1
		c0-0.8,0.9-1.2,2.7-1.1h0.2c4.3,0,6.4,0.6,6.4,1.7c0,0.2-0.1,0.5-0.3,0.9h-2.6c0.1,1.2,0.2,2.7,0.2,4.3l-0.3,9.5l0.4,10.6v1.5
		c0,0.3-0.1,0.7-0.2,1.3h2.1c1.4,0,2.1,0.4,2.1,1.2c0,0.4-0.1,0.7-0.4,1c-0.2,0.3-0.5,0.4-0.8,0.4L187.4,42.6z"/>
	<path id="XMLID_36_" fill="#FFFFFF" d="M197.3,23.4l0.3,12.9V42c0,0.4-0.1,0.8-0.3,1.1c-0.2,0.3-0.5,0.5-1,0.5
		c-1.1,0-1.6-1-1.6-3.1l-0.1-17.6l0.3-9.3c0-2.2,0.6-3.4,1.8-3.4c0.7,0,1.3,0.6,1.6,1.7c0.5,2.1,1.2,5.2,2.4,9.3
		c1.1,4,1.9,7.1,2.3,9.2c0.3,1,0.7,2.5,1.2,4.6c0.5,2,0.9,3.5,1.1,4.5c0.1-7.2,0.2-16,0.2-26.3l-0.1-1.3c0-0.5,0.1-0.8,0.3-1.1
		s0.5-0.4,0.9-0.4c0.4,0,0.7,0.1,1,0.3c0.5,0.4,0.8,0.9,0.8,1.7c0,4.6-0.1,10.4-0.4,17.6c-0.3,7.2-0.7,11.7-1.2,13.5
		c-0.1,0-0.2,0.1-0.4,0.1c-0.2,0.1-0.4,0.1-0.5,0.1c-0.9,0.2-1.5,0.2-1.8-0.1s-0.4-0.7-0.5-1.2c-0.1-0.5-0.2-1-0.4-1.4
		c-0.1-0.5-0.7-2.7-1.6-6.7c-2.4-10.5-3.9-16.6-4.4-18.3V23.4z"/>
	<path id="XMLID_38_" fill="#FFFFFF" d="M216.2,13.1L216,25.5c0.6,0.2,1.5,0.2,2.6,0.2h1.9v-1c0-1.5-0.1-3.8-0.3-6.9
		c-0.2-3.1-0.3-5.4-0.3-6.9c0-0.4,0.1-0.7,0.4-0.9c0.3-0.3,0.5-0.4,0.8-0.4s0.4,0,0.6,0c0.2,0,0.3,0,0.4,0c0.1,0,0.2,0,0.4,0.1
		c0.2,0.1,0.4,0.5,0.4,1.1c0,3.5,0.2,8.7,0.5,15.7c0.3,7,0.5,12.2,0.5,15.7c0,0.3-0.1,0.5-0.4,0.7c-0.3,0.2-0.6,0.2-1,0.2
		s-0.8-0.1-1.1-0.3c-0.3-0.2-0.5-0.5-0.5-0.8c-0.2-3.3-0.3-7.4-0.3-12.3v-0.2l0-1.4l0-0.5v0c-0.3,0.1-0.6,0.1-1.1,0.1l-3.1-0.5
		l-0.1,5.5V33l0.4,8.2c0,0.5-0.1,0.9-0.4,1.3c-0.2,0.4-0.6,0.5-1,0.5c-0.7,0-1.1-0.6-1.4-1.8c-0.3-1.2-0.4-2.9-0.4-5l0.1-7.6l0-2.9
		l0.1-2.9l-0.3-11.3c0-0.4,0.1-0.7,0.4-1c0.3-0.3,0.6-0.5,1-0.5C215.7,10.1,216.2,11.1,216.2,13.1z"/>
	<path id="XMLID_40_" fill="#FFFFFF" d="M240.1,29.7c0,9.6-2,14.4-5.9,14.4c-3.6,0-5.6-4.5-6.1-13.6c0-0.9,0-1.7,0-2.6l0-3.1v-1
		c0-7,1-11.4,3.1-13.1c0.5-0.4,1.1-0.6,1.7-0.7c0.5,0.2,1,0.3,1.7,0.5c0.7,0.1,1.2,0.3,1.5,0.4c0.6,0.3,1.3,1,2,2.2
		c0.7,1.2,1.2,2.7,1.6,4.7c0.3,1.9,0.5,3.9,0.5,5.8V29.7z M230.8,17.9l0.1,2.9l0,4.8c0,0.4,0,0.9,0,1.4c0,0.6,0,1.3,0.1,2.2
		s0.1,1.8,0.1,2.7c0.1,0.9,0.2,1.8,0.3,2.8c0.1,1,0.2,1.9,0.4,2.7c0.2,0.8,0.3,1.6,0.5,2.3c0.4,1.5,1,2.2,1.7,2.2
		c1,0,1.7-0.9,2.2-2.7c0.7-2.7,1.1-6,1.1-9.9l0.1-5.2c0-3.6-0.2-6-0.5-7.3c-0.3-1.3-0.6-2.2-0.9-2.8c-0.6-1.3-1.4-1.9-2.5-1.9
		c0,0-0.1,0-0.1,0C231.7,12.2,230.8,14.1,230.8,17.9z"/>
	<path id="XMLID_43_" fill="#FFFFFF" d="M244.4,41.1l2.6,0.4c0.6,0,1.2-0.3,1.7-0.8c0.5-0.6,0.8-1.2,1-2.1c0.4-1.6,0.7-3,0.7-4.2
		c0-1.2-0.2-2.4-0.6-3.6c-0.4-1.2-0.9-2.3-1.5-3.4c-0.6-1-1.2-2.1-1.8-3.2c-1.4-2.5-2.1-5-2.1-7.5c0-1.5,0.3-2.8,0.8-4
		c0.9-2.1,2.2-3.2,3.8-3.2c0.6,0,1.1,0.2,1.7,0.6c0.5,0.4,0.8,0.8,0.8,1.2c0,0.8-0.4,1.1-1.2,1.1c-0.4,0-0.7-0.1-1-0.3
		c-1.1,0-1.8,1.2-2.1,3.5c-0.1,0.5-0.1,1.1-0.1,1.8c0,0.7,0.1,1.5,0.4,2.5c0.3,1,0.7,1.9,1.1,2.6c0.4,0.8,0.9,1.6,1.4,2.6
		c0.5,0.9,1,1.8,1.5,2.7c1,2,1.5,4.4,1.5,7c0,2.1-0.4,4-1.2,5.8c-0.4,0.9-1.1,1.7-1.9,2.2c-0.8,0.6-1.7,0.9-2.8,0.9v0.1
		c-0.6-0.1-1.2-0.3-1.7-0.6c-0.5-0.3-0.8-0.8-0.9-1.3V41.1z"/>
</g>
</svg>
