<?xml version="1.0" encoding="utf-8"?>
<!-- Generator: Adobe Illustrator 19.0.0, SVG Export Plug-In . SVG Version: 6.00 Build 0)  -->
<svg version="1.1" id="Layer_1" xmlns="http://www.w3.org/2000/svg" xmlns:xlink="http://www.w3.org/1999/xlink" x="0px" y="0px"
	 viewBox="0 0 389.8 117.7" style="enable-background:new 0 0 389.8 117.7;" xml:space="preserve">
<g>
	<g>
		<rect x="0.2" y="39.4" style="fill:none;" width="389.6" height="67.9"/>
		<path style="fill:#099788;" d="M5.2,92.2c0-1.7,0.1-5.1,0.2-10.1c0.1-5,0.2-8.4,0.2-10.1c0-4.2-0.1-9.7-0.3-16.7
			C5.1,48.4,5,42.9,5,38.7v-0.5c0-0.8,0-1.5,0.1-2c0.1-0.6,0.2-1.2,0.4-1.9c0.2-0.7,0.5-1.3,0.9-1.7c0.5-0.4,1-0.6,1.7-0.6
			c2.6,0,4.8,0.6,6.6,1.7c1.9,1.1,3.3,2.7,4.3,4.7c1,2,1.5,4.4,1.5,7c0,1.6-0.3,3.3-0.9,5.1s-1.4,3.5-2.4,5c-1,1.5-2.1,2.7-3.3,3.6
			c3.2,2.1,5.5,4.9,7,8.3c1.5,3.4,2.3,7.1,2.3,11.1c0,2-0.6,4.3-1.9,7.1c-0.8,1.7-1.7,3.1-2.7,4.3c-1,1.2-2.3,2.2-3.8,3
			c-1.7,0.9-3.4,1.3-5.4,1.3H9C6.5,94.2,5.2,93.5,5.2,92.2z M11.8,56.8c0.6-0.6,1.2-1.4,1.7-2.4c0.8-1.6,1.6-3.4,2.3-5.6
			c0.3-1.1,0.6-1.8,0.8-2.2v-2.9c0-1.1-0.3-2.1-0.8-3.2c-0.6-1.1-1.3-2-2.2-2.7c-0.9-0.7-1.9-1.1-2.8-1.1c-0.8,0-1.2,0.9-1.2,2.6
			c0,2.7,0.1,5.9,0.2,9.6c0.1,3.7,0.2,6.8,0.2,9.2C10.5,57.8,11.2,57.4,11.8,56.8z M14.8,88c1.3-1,2.3-2.4,3-3.9
			c0.7-1.6,1.1-3.3,1.1-5.3c0-2.5-0.2-4.8-0.6-6.9c-0.4-2.1-0.9-3.7-1.6-4.8c-0.6-1-1.2-1.9-1.8-2.6c-0.6-0.7-1.1-1.2-1.6-1.4
			l-0.6-0.3H9.8C10,70,10.2,79,10.2,89.9C11.9,89.7,13.5,89,14.8,88z"/>
		<path style="fill:#099788;" d="M41.1,93c-0.4-0.3-0.6-0.9-0.6-1.6V80.7c-0.7-0.5-2-1-4-1.3c-1.9-0.4-3.8-0.6-5.6-0.7
			c-0.5,0.9-1,2.3-1.4,4.2L29.3,84c-0.4,2.2-0.8,4-1.2,5.3s-0.8,2.5-1.3,3.3c-2.1,0-3.3-0.5-3.6-1.6c0.5-0.7,1.2-3.3,2-7.7
			c0.7-3.8,1.6-8.8,2.7-15c1.2-7.3,2.3-13.4,3.4-18.3c1-5,2.1-9.1,3.2-12.5c1.2-3.8,2.4-5.7,3.6-5.7s2.1,0.2,2.6,0.7
			c0,2,0.5,7.3,1.6,15.8c1.1,8.5,1.6,14.1,1.6,16.8c0,2.6,0.3,6.7,0.9,12.4c0.6,5.9,0.8,10.3,0.8,13.2c0,1.8-0.9,2.8-2.7,2.8
			C42.1,93.5,41.5,93.3,41.1,93z M40.4,75.6c-0.1-1.2-0.4-4.2-0.8-8.9c-1.3-12.7-1.9-20.2-1.9-22.7c0-0.4,0-0.6,0-0.7
			c-0.5,0.5-1.3,3-2.2,7.4s-1.9,9.1-2.7,14.2c-0.8,5.1-1.3,8.4-1.4,10c2.3,0.6,4.8,0.9,7.3,0.9C39.2,75.9,39.8,75.8,40.4,75.6z"/>
		<path style="fill:#099788;" d="M49.4,91c0-1.3,0.8-2,2.5-2c0.4,0,0.7,0,1,0l0.8,0.1c0.4,0,0.7-0.1,0.9-0.4
			c0.2-0.3,0.3-0.8,0.3-1.5c0-4.4-0.3-10.8-0.8-19c-0.5-8.2-0.8-14.5-0.8-18.9l0.1-4.2l0.1-4.2c0-1.6-0.1-3.1-0.2-4.6
			c-0.7,0.2-1.4,0.4-1.9,0.4c-1.3,0-1.9-0.7-1.9-2c0-0.6,0.4-1.2,1.2-1.7c0.8-0.5,1.8-0.9,3.1-1.1c2.2-0.4,4.2-0.6,5.8-0.6
			c0.6,0,1.2,0.2,1.7,0.7c0.5,0.4,0.7,1,0.7,1.6c0,0.6-0.2,1.1-0.5,1.5s-0.8,0.7-1.4,0.7c-0.3,0-0.6,0-0.8,0h-0.6
			c-0.6,0-1,0.1-1.2,0.4S57,36.8,57,37.4c0,5.6,0.3,13.5,1,24c0.7,10.4,1,18.4,1,24v3.2c0.6-0.1,1.1-0.1,1.7-0.1
			c2.3,0,3.4,1,3.4,2.9v0.5l-2,1.4l-2.2,0.1c-1.3,0.1-2.4,0.1-3.4,0.1C51.8,93.4,49.4,92.6,49.4,91z M52.2,28.9
			c-0.3-0.2-0.4-0.5-0.4-0.8c0-0.3,0.1-0.5,0.4-0.8c1.2-1.2,3.2-2.9,5.9-5.2c2.5-2.1,4.2-3.5,4.8-4.2c0.3-0.1,0.5-0.2,0.7-0.2
			c0.6,0,1.2,0.3,1.8,1c0.6,0.7,0.9,1.4,0.9,2.1c0,0.6-0.2,1-0.6,1.3c-2.2,1.6-6.2,3.9-11.9,6.9c-0.2,0.1-0.4,0.2-0.7,0.2
			C52.8,29.2,52.5,29.1,52.2,28.9z"/>
		<path style="fill:#099788;" d="M82.7,93c-0.4-0.3-0.6-0.9-0.6-1.6V80.7c-0.7-0.5-2-1-4-1.3c-1.9-0.4-3.8-0.6-5.6-0.7
			c-0.5,0.9-1,2.3-1.4,4.2L70.9,84c-0.4,2.2-0.8,4-1.2,5.3c-0.3,1.4-0.8,2.5-1.3,3.3c-2.1,0-3.3-0.5-3.6-1.6c0.5-0.7,1.2-3.3,2-7.7
			c0.7-3.8,1.6-8.8,2.7-15c1.2-7.3,2.3-13.4,3.4-18.3c1-5,2.1-9.1,3.2-12.5c1.2-3.8,2.4-5.7,3.6-5.7c1.2,0,2.1,0.2,2.6,0.7
			c0,2,0.5,7.3,1.6,15.8c1.1,8.5,1.6,14.1,1.6,16.8c0,2.6,0.3,6.7,0.9,12.4c0.6,5.9,0.8,10.3,0.8,13.2c0,1.8-0.9,2.8-2.7,2.8
			C83.7,93.5,83.1,93.3,82.7,93z M82,75.6c-0.1-1.2-0.4-4.2-0.8-8.9c-1.3-12.7-1.9-20.2-1.9-22.7c0-0.4,0-0.6,0-0.7
			c-0.5,0.5-1.3,3-2.2,7.4s-1.9,9.1-2.7,14.2c-0.8,5.1-1.3,8.4-1.4,10c2.3,0.6,4.8,0.9,7.3,0.9C80.8,75.9,81.3,75.8,82,75.6z"/>
		<path style="fill:#099788;" d="M105.2,93c-0.8-0.5-1.2-1.2-1.2-2.1c1.2-1.3,1.8-4.5,1.8-9.6c0-3.2-0.3-7.7-0.8-13.6
			c-0.5-5.8-0.8-10.3-0.8-13.5c0-1,0-2.4,0.1-4.4s0.1-3.5,0.1-4.5c0-1.5-0.3-3.5-0.9-5.8c-0.6-2.5-0.9-4.2-0.9-5.2
			c0-1.9,2.1-2.8,6.3-2.8h1.2c1.5,0,2.9,0.2,4.3,0.7c1.3,0.5,2.5,1.2,3.5,2c0.9,0.7,1.7,1.7,2.5,2.9c0.8,1.2,1.4,2.4,1.9,3.7
			c0.5,1.1,0.9,2.4,1.2,3.9c0.4,1.5,0.6,2.9,0.9,4.2c0.1,1.1,0.3,2.3,0.4,3.7c0.1,1.4,0.2,2.6,0.2,3.5v2.6v3.8
			c-0.1,0.2-0.2,0.5-0.2,0.7c0,0.3,0,0.6,0.1,1l0.1,0.8c0,1.8-0.3,3.8-0.8,6.2c-0.5,2.4-1.3,4.9-2.3,7.4c-1.1,2.9-2.4,5.4-3.7,7.5
			c-1.3,2.1-2.9,3.9-4.6,5.3c-1.8,1.5-3.7,2.2-5.6,2.2C106.9,93.7,106,93.5,105.2,93z M115,83.5c1.5-2.4,2.7-5,3.5-7.9
			c1.5-5.4,2.2-10.8,2.2-16.2c0-3-0.3-6.2-0.8-9.6c-0.6-3.4-1.9-6.4-3.8-9.2c-0.9-1.3-2.1-2.3-3.5-3c-1.5-0.7-3.1-1.1-4.9-1.1v0.1
			c0,5.1,0.3,12.6,1,22.3c0.6,9.9,1,17.4,1,22.4V89C111.7,87.7,113.5,85.8,115,83.5z"/>
		<path style="fill:#099788;" d="M137.6,94.3c-1.2-1-2.3-2.3-3.1-4c-0.8-1.5-1.5-3.4-2.1-5.6c-0.6-2.2-1.1-4.4-1.4-6.6
			c-0.3-1.9-0.6-4-0.8-6.3c-0.2-2.3-0.3-4.3-0.4-6.1c-0.1-2-0.1-3.5-0.1-4.3c0-1.5,0-3,0-4.4l-0.1-5.2c0-3.3,0.1-6.2,0.4-8.7
			c0.3-2.9,0.8-5.5,1.7-7.7c0.5-1.2,1-2.1,1.6-2.9c0.6-0.8,1.3-1.4,2.2-1.9c0.9-0.5,1.9-0.7,2.9-0.7c1.4,0,2.7,0.3,3.9,0.9
			c1.2,0.6,2.2,1.4,3,2.6c0.9,1.2,1.6,2.5,2.2,3.9c0.6,1.4,1.1,2.9,1.5,4.7c0.4,2.1,0.8,4,1,5.6c0.2,1.6,0.4,3.4,0.5,5.4
			c0.2,4,0.3,7.7,0.3,10.9v4.7c0,1.2-0.1,2.9-0.4,5.2c-0.2,2.3-0.4,4-0.4,5.1v0.4c-0.3,1.5-0.5,3.3-0.5,5.4c0,1.5-0.3,3.1-1,4.7
			c-0.6,1.6-1.6,3-2.8,4.2c-1.2,1.3-2.6,1.9-4.1,1.9C140.1,95.8,138.8,95.3,137.6,94.3z M144.6,88.3c0.7-1.8,1.2-4.1,1.5-6.7
			s0.6-5.6,0.8-8.7c0.1-1.9,0.2-3.7,0.2-5.4c0-2.5,0-5-0.1-7.6c-0.1-2.9-0.5-6.6-1-11.1c-0.5-3.7-1.3-7-2.4-10
			c-0.6-1.4-1.2-2.5-2.1-3.2c-0.8-0.7-1.7-1.1-2.7-1.1c-1.3,0-2.3,1.1-3,3.2c-0.8,2.4-1.4,4.9-1.6,7.4c-0.3,3.3-0.5,6-0.6,8.3l0,1.5
			c-0.1,2.6-0.1,4-0.1,4.3v0.4c0,3.6,0.4,8.1,1.1,13.5c0.5,3.5,1,6.5,1.6,9.1c0.6,2.6,1.4,4.7,2.3,6.5c1,1.9,2.1,2.8,3.4,2.8
			C142.8,91.3,143.8,90.3,144.6,88.3z"/>
		<path style="fill:#099788;" d="M155.5,94.3c-0.9-0.4-1.3-1-1.3-1.7c0-0.6,0.2-1.2,0.5-1.6c0.3-0.4,0.8-0.6,1.4-0.6
			c0.6,0,1.5,0.2,2.4,0.6c1,0.4,1.7,0.6,2.1,0.6c1,0,2-0.5,2.8-1.4c0.9-0.9,1.6-2.1,2.1-3.5c0.5-1.3,0.8-2.7,1.1-4
			c0.3-1.3,0.4-2.5,0.4-3.4c0-2.3-0.4-4.8-1.1-7.4c-0.7-2.6-1.7-5.1-3-7.6l-1.2-2.3c-1.3-2.5-2.4-4.7-3.2-6.4
			c-0.8-1.7-1.5-3.6-2.1-5.5c-0.8-2.6-1.2-5.2-1.2-7.6c0-2,0.3-3.8,1-5.6c0.7-1.7,1.7-3.2,3.1-4.5c1.4-1.3,3.1-1.9,5-1.9
			c1,0,1.9,0.3,2.9,0.8c0.9,0.6,1.6,1.3,2,2.1l-1.4,1.8c-1.4,0-2.4-0.3-3.2-0.8c-1,0.1-1.8,0.6-2.6,1.4c-0.8,0.8-1.3,1.8-1.6,2.9
			c-0.3,1.1-0.5,2.1-0.5,3.1c0,2.1,0.3,4.3,0.8,6.4c0.6,2.2,1.3,4.2,2.2,6l0.6,1.2c2.6,5,4.3,8.5,5.1,10.3c0.9,1.9,1.7,4.2,2.2,6.6
			c0.6,2.5,0.8,4.9,0.8,7.4c0,1.7-0.2,3.4-0.7,5.2s-1.1,3.4-2,5c-0.9,1.6-2.1,2.9-3.6,3.9c-1.5,1-3.1,1.4-4.9,1.4
			C158.6,95.3,156.9,95,155.5,94.3z"/>
		<path style="fill:#099788;" d="M196.9,95c-1.3-0.5-2.4-1.1-3.3-2c-0.9-0.7-1.7-1.7-2.4-2.9c-0.7-1.2-1.4-2.5-1.9-3.9
			c-0.5-1.1-0.8-2.5-1.2-4.1c-0.3-1.6-0.6-3.2-0.8-4.7c-0.2-1.3-0.3-2.7-0.4-4.5c-0.1-1.7-0.2-3.1-0.2-4.2c0-0.7,0-1.9,0-3.7v-2.8
			c0-0.9,0-2,0-3.2c0-2.6,0.1-5.4,0.3-8.4c0.2-2.9,0.6-5.7,1.3-8.6c0.4-1.5,0.8-2.8,1.3-3.9c0.5-1.1,1.1-2.2,1.8-3.3
			c0.7-1.1,1.5-2,2.4-2.7c0.9-0.7,1.9-1.3,3.1-1.7c1.1-0.4,2.4-0.6,3.9-0.6c2.3,0,3.4,0.8,3.4,2.3c0,0.6-0.2,1-0.6,1.4
			c-0.4,0.4-0.9,0.5-1.5,0.5c-0.2,0-0.6-0.1-1.2-0.2c-0.6-0.1-1-0.2-1.2-0.2c-1,0-1.9,0.3-2.8,0.9c-0.8,0.6-1.5,1.5-2.1,2.7
			c-0.6,1.3-1.1,2.7-1.6,4s-0.7,2.9-1,4.6c-0.3,2.2-0.6,4-0.7,5.4c-0.1,1.4-0.2,2.9-0.3,4.6c-0.1,2.5-0.2,5.1-0.2,7.8V66
			c0,0.7,0,1.7,0,2.8c0,1.7,0,3.1,0.1,4.2c0,1.2,0.1,2.5,0.3,4c0.2,1.7,0.4,3.1,0.7,4.4c0.3,1.3,0.7,2.5,1.1,3.8
			c0.5,1.3,1.1,2.4,1.8,3.3c0.7,0.9,1.5,1.5,2.6,2.1c1,0.6,2.1,0.8,3.4,0.8c2.4,0,4.4-1.1,6-3.4c0-1.8-0.2-3.7-0.4-5.5
			c-0.2-1.9-0.5-3.1-0.9-3.8l-1.3,0.2c-0.7,0.1-1.4,0.2-1.9,0.2c-1.9,0-2.8-0.8-2.8-2.3c0-0.5,0.3-1,0.8-1.3
			c0.6-0.4,1.3-0.7,2.2-0.9c1.6-0.3,3-0.5,4.1-0.5s1.9,0.4,2.6,1.2c0.6,0.8,0.9,1.9,0.9,3.1c0,1.6,0.3,4.1,0.8,7.3
			c0.5,3.3,0.8,5.8,0.8,7.3c0,0.6-0.2,1.2-0.6,1.6c-0.4,0.4-0.9,0.6-1.4,0.6c-1.4,0-2.3-0.6-2.7-1.7v-0.1c-0.2,0.1-0.8,0.4-1.8,0.9
			c-0.9,0.5-1.7,0.9-2.3,1.1c-0.6,0.2-1.3,0.3-1.9,0.3C199.5,95.7,198.2,95.5,196.9,95z"/>
		<path style="fill:#099788;" d="M220.9,94.3c-1.2-1-2.3-2.3-3.1-4c-0.8-1.5-1.5-3.4-2.1-5.6c-0.6-2.2-1.1-4.4-1.4-6.6
			c-0.3-1.9-0.6-4-0.8-6.3s-0.3-4.3-0.4-6.1c-0.1-2-0.1-3.5-0.1-4.3c0-1.5,0-3,0-4.4l-0.1-5.2c0-3.3,0.1-6.2,0.4-8.7
			c0.3-2.9,0.8-5.5,1.7-7.7c0.5-1.2,1-2.1,1.6-2.9c0.6-0.8,1.3-1.4,2.2-1.9c0.9-0.5,1.9-0.7,2.9-0.7c1.4,0,2.7,0.3,3.9,0.9
			c1.2,0.6,2.2,1.4,3,2.6c0.9,1.2,1.6,2.5,2.2,3.9c0.6,1.4,1.1,2.9,1.5,4.7c0.4,2.1,0.8,4,1,5.6c0.2,1.6,0.4,3.4,0.5,5.4
			c0.2,4,0.3,7.7,0.3,10.9v4.7c0,1.2-0.1,2.9-0.4,5.2c-0.2,2.3-0.4,4-0.4,5.1v0.4c-0.3,1.5-0.5,3.3-0.5,5.4c0,1.5-0.3,3.1-1,4.7
			c-0.6,1.6-1.6,3-2.8,4.2c-1.2,1.3-2.6,1.9-4.1,1.9C223.5,95.8,222.1,95.3,220.9,94.3z M227.9,88.3c0.7-1.8,1.2-4.1,1.5-6.7
			s0.6-5.6,0.8-8.7c0.1-1.9,0.2-3.7,0.2-5.4c0-2.5,0-5-0.1-7.6c-0.1-2.9-0.5-6.6-1-11.1c-0.5-3.7-1.3-7-2.4-10
			c-0.6-1.4-1.2-2.5-2.1-3.2c-0.8-0.7-1.7-1.1-2.7-1.1c-1.3,0-2.3,1.1-3,3.2c-0.8,2.4-1.4,4.9-1.6,7.4c-0.3,3.3-0.5,6-0.6,8.3l0,1.5
			c-0.1,2.6-0.1,4-0.1,4.3v0.4c0,3.6,0.4,8.1,1.1,13.5c0.5,3.5,1,6.5,1.6,9.1s1.4,4.7,2.3,6.5c1,1.9,2.1,2.8,3.4,2.8
			C226.2,91.3,227.1,90.3,227.9,88.3z"/>
		<path style="fill:#099788;" d="M241.1,93.7c-0.6-0.5-0.8-1.1-0.8-1.8c0-0.5,0.1-1.1,0.3-1.8c0.2-0.8,0.2-1.4,0.2-1.8
			c0-5.9-0.3-15.2-0.8-28c-0.6-12.4-0.8-21.7-0.8-27.9c0-0.5,0.2-0.9,0.6-1.2c0.4-0.3,0.9-0.5,1.4-0.5c0.7,0,1.2,0.2,1.7,0.7
			c0.5,0.5,0.7,1,0.7,1.7c0,3,0.1,7.9,0.4,14.8c0.3,6.2,0.4,11.2,0.4,14.7l0.1,1c0,0.3,0,0.6,0,1c0,0.3,0,0.5,0,0.6v0.4
			c0.2,5.1,0.3,12.2,0.3,21.4v2.1h6.2c1.2,0.8,1.8,1.6,1.8,2.4c0,0.6-0.2,1.2-0.6,1.6c-0.4,0.5-0.9,0.7-1.5,0.7
			c-0.3,0-0.5-0.1-0.8-0.2l-0.4-0.1c-0.4,0.1-0.9,0.2-1.6,0.2l-1.3-0.1c-0.4,0-0.8,0-1.3,0c-0.6,0.7-1.3,1-2.3,1
			C242.3,94.5,241.6,94.2,241.1,93.7z"/>
		<path style="fill:#099788;" d="M257.6,88.4c0-3.7-0.1-9.8-0.4-18.3c-0.3-8.5-0.6-16.2-1-23.1c-0.4-6.9-0.8-10.6-1.1-11.2
			c0-0.8,0.2-1.5,0.5-2.1c0.3-0.6,0.8-1.1,1.3-1.4c0.5-0.3,1.1-0.5,1.9-0.7c0.8-0.2,1.5-0.3,2.1-0.3c0.4,0,1.1,0,2.1,0
			c1.2,0,2.1,0.2,2.7,0.6c0.5,0.4,0.8,1.1,0.8,2.2c0,0.6-0.2,1-0.7,1.3c-0.4,0.3-1,0.5-1.6,0.5l-0.8,0c-0.3,0-0.7,0-1.2,0
			c-1.5,0-2.3,0.3-2.3,0.9c0,2.5,0.2,6.2,0.6,11.1c0.4,4.7,0.6,8.4,0.6,10.9c0.1,0,0.7-0.2,1.8-0.5c1.1-0.3,2.1-0.4,2.8-0.4
			c0.6,0,1.1,0.3,1.6,0.8c0.4,0.5,0.7,1.1,0.7,1.7c0,0.8-0.3,1.3-1,1.6c-0.5,0.2-0.8,0.4-1.2,0.5s-0.7,0.2-1.2,0.3
			c-0.9,0.1-1.7,0.2-2.5,0.2l-0.9,0c0,2.8,0.3,7.2,0.8,13.3c0.5,5.8,0.8,10.2,0.8,13.4l-0.1,0.3l-0.1,0.2c0.1,0.3,0.2,0.6,0.2,1
			c0,0.7-0.3,1.3-0.8,1.7c-0.5,0.4-1.2,0.6-2,0.6C258.4,93.6,257.6,91.9,257.6,88.4z"/>
		<path style="fill:#099788;" d="M271.4,91c0-1.3,0.8-2,2.5-2c0.4,0,0.7,0,1,0l0.8,0.1c0.4,0,0.7-0.1,0.9-0.4
			c0.2-0.3,0.3-0.8,0.3-1.5c0-4.4-0.3-10.8-0.8-19c-0.5-8.2-0.8-14.5-0.8-18.9l0.1-4.2l0.1-4.2c0-1.6-0.1-3.1-0.2-4.6
			c-0.7,0.2-1.4,0.4-1.9,0.4c-1.3,0-1.9-0.7-1.9-2c0-0.6,0.4-1.2,1.2-1.7c0.8-0.5,1.8-0.9,3.1-1.1c2.2-0.4,4.2-0.6,5.8-0.6
			c0.6,0,1.2,0.2,1.7,0.7c0.5,0.4,0.7,1,0.7,1.6c0,0.6-0.2,1.1-0.5,1.5c-0.4,0.4-0.8,0.7-1.4,0.7c-0.3,0-0.6,0-0.8,0h-0.6
			c-0.6,0-1,0.1-1.2,0.4s-0.4,0.7-0.4,1.3c0,5.6,0.3,13.5,1,24c0.7,10.4,1,18.4,1,24v3.2c0.6-0.1,1.1-0.1,1.7-0.1
			c2.3,0,3.4,1,3.4,2.9v0.5l-2,1.4l-2.2,0.1c-1.3,0.1-2.4,0.1-3.4,0.1C273.7,93.4,271.4,92.6,271.4,91z"/>
		<path style="fill:#099788;" d="M303.8,77.8c-3.5-11.9-6.8-23.9-9.9-36.3v26.9c0,2.6,0.2,6.5,0.6,11.7c0.4,5.4,0.6,9.3,0.6,11.7
			c0,0.5-0.3,0.9-0.9,1.2c-0.6,0.3-1.3,0.5-2,0.5c-1.2,0-1.8-0.4-1.8-1.3c0-0.2,0.1-1,0.2-2.4c0.1-1.4,0.2-2.6,0.2-3.4
			c0-3-0.2-7.6-0.5-13.8c-0.3-6.1-0.5-10-0.5-11.7V50.6c0-1.9,0.1-4.4,0.3-7.5c0.2-3.1,0.3-5.6,0.3-7.5V35c0-2.7,0.6-4.1,1.8-4.1
			c0.7,0,1.7,1.2,2.8,3.6c1.8,4,4.1,11,6.8,21.1c1.5,5.8,3.4,13.4,5.6,22.8l1.3,5.7l0.1,0.4c0-3.9,0.1-8.6,0.2-14.3
			c0.1-5.7,0.2-10.4,0.2-14.3V31.7c0.3-1.4,1.2-2,2.7-2c1.5,0,2.2,1.1,2.2,3.2v0.5c-0.3,0.7-0.5,1.5-0.5,2.4c0,3.3-0.1,8.4-0.2,15.1
			c-0.2,6.3-0.3,11.4-0.3,15.2v25.1c0,0.9-0.2,1.7-0.7,2.5s-1,1.2-1.7,1.2C309.4,94.7,307.2,89.1,303.8,77.8z"/>
		<path style="fill:#099788;" d="M332.7,94c-0.3-0.5-0.5-1.2-0.5-2c0-10.4-0.2-20-0.7-28.9c-1.4-0.3-2.3-0.4-2.7-0.4
			c-2.3,0-3.9,0.2-4.8,0.6c0,2.9,0.2,7.5,0.7,13.8c0.5,6.4,0.7,11,0.7,14c0,0.6-0.2,1.1-0.5,1.5c-0.3,0.4-0.8,0.7-1.3,0.7
			c-0.7,0-1.4-1.3-1.9-3.8c-0.5-2.2-1-5.3-1.3-9.3s-0.6-8.6-0.8-14c-0.3-6.9-0.5-15.5-0.6-25.9c0-1.7,0-4.1,0-7.2
			c0-1,0.5-1.5,1.4-1.5c0.5,0,1,0.1,1.6,0.4c0.6,0.3,1,0.6,1.3,0.9c-0.2,1.8-0.3,3.9-0.3,6.2c0,2.1,0.1,4.9,0.3,8.4
			c0.2,3.5,0.3,6.3,0.3,8.4c0,0.6,0,1.1,0,1.5c0,0.5,0,1,0,1.6c0,0.9,0.1,1.6,0.2,2.1c1.3-0.1,2.6-0.2,4-0.3c1.5-0.1,2.8-0.2,4-0.3
			c0-3.4-0.1-7.8-0.2-13.1c-0.1-5.3-0.2-9.9-0.2-13.8v-2.2c0.7,0,1.3,0.1,1.9,0.4c0.5,0.3,1,0.6,1.3,0.9c0.2,0.3,0.4,0.8,0.6,1.4
			c0.1,0.6,0.2,1.2,0.3,1.7c0,0.3,0,0.9,0,1.8c0,5.7,0.3,14.7,0.8,27c0.5,11.7,0.8,20.8,0.8,27c0,0.7-0.2,1.4-0.7,2
			c-0.5,0.6-1,0.9-1.7,0.9C333.6,94.8,333.1,94.5,332.7,94z"/>
		<path style="fill:#099788;" d="M349.6,94.3c-1.2-1-2.3-2.3-3.1-4c-0.8-1.5-1.5-3.4-2.1-5.6c-0.6-2.2-1.1-4.4-1.4-6.6
			c-0.3-1.9-0.6-4-0.8-6.3c-0.2-2.3-0.3-4.3-0.4-6.1c-0.1-2-0.1-3.5-0.1-4.3c0-1.5,0-3,0-4.4l-0.1-5.2c0-3.3,0.1-6.2,0.4-8.7
			c0.3-2.9,0.8-5.5,1.7-7.7c0.5-1.2,1-2.1,1.6-2.9c0.6-0.8,1.3-1.4,2.2-1.9c0.9-0.5,1.9-0.7,2.9-0.7c1.4,0,2.7,0.3,3.9,0.9
			c1.2,0.6,2.2,1.4,3,2.6c0.9,1.2,1.6,2.5,2.2,3.9c0.6,1.4,1.1,2.9,1.5,4.7c0.4,2.1,0.8,4,1,5.6c0.2,1.6,0.4,3.4,0.5,5.4
			c0.2,4,0.3,7.7,0.3,10.9v4.7c0,1.2-0.1,2.9-0.4,5.2c-0.2,2.3-0.4,4-0.4,5.1v0.4c-0.3,1.5-0.5,3.3-0.5,5.4c0,1.5-0.3,3.1-1,4.7
			c-0.6,1.6-1.6,3-2.8,4.2c-1.2,1.3-2.6,1.9-4.1,1.9C352.2,95.8,350.9,95.3,349.6,94.3z M356.6,88.3c0.7-1.8,1.2-4.1,1.5-6.7
			s0.6-5.6,0.8-8.7c0.1-1.9,0.2-3.7,0.2-5.4c0-2.5,0-5-0.1-7.6c-0.1-2.9-0.5-6.6-1-11.1c-0.5-3.7-1.3-7-2.4-10
			c-0.6-1.4-1.2-2.5-2.1-3.2c-0.8-0.7-1.7-1.1-2.7-1.1c-1.3,0-2.3,1.1-3,3.2c-0.8,2.4-1.4,4.9-1.6,7.4c-0.3,3.3-0.5,6-0.6,8.3l0,1.5
			c-0.1,2.6-0.1,4-0.1,4.3v0.4c0,3.6,0.4,8.1,1.1,13.5c0.5,3.5,1,6.5,1.6,9.1c0.6,2.6,1.4,4.7,2.3,6.5c1,1.9,2.1,2.8,3.4,2.8
			C354.9,91.3,355.8,90.3,356.6,88.3z"/>
		<path style="fill:#099788;" d="M367.6,94.3c-0.9-0.4-1.3-1-1.3-1.7c0-0.6,0.2-1.2,0.5-1.6c0.3-0.4,0.8-0.6,1.4-0.6
			c0.6,0,1.5,0.2,2.4,0.6c1,0.4,1.7,0.6,2.1,0.6c1,0,2-0.5,2.8-1.4c0.9-0.9,1.6-2.1,2.1-3.5c0.5-1.3,0.8-2.7,1.1-4
			c0.3-1.3,0.4-2.5,0.4-3.4c0-2.3-0.4-4.8-1.1-7.4c-0.7-2.6-1.7-5.1-3-7.6l-1.2-2.3c-1.3-2.5-2.4-4.7-3.2-6.4
			c-0.8-1.7-1.5-3.6-2.1-5.5c-0.8-2.6-1.2-5.2-1.2-7.6c0-2,0.3-3.8,1-5.6c0.7-1.7,1.7-3.2,3.1-4.5c1.4-1.3,3.1-1.9,5-1.9
			c1,0,1.9,0.3,2.9,0.8c0.9,0.6,1.6,1.3,2,2.1l-1.4,1.8c-1.4,0-2.4-0.3-3.2-0.8c-1,0.1-1.8,0.6-2.6,1.4c-0.8,0.8-1.3,1.8-1.6,2.9
			c-0.3,1.1-0.5,2.1-0.5,3.1c0,2.1,0.3,4.3,0.8,6.4c0.6,2.2,1.3,4.2,2.2,6l0.6,1.2c2.6,5,4.3,8.5,5.1,10.3c0.9,1.9,1.7,4.2,2.2,6.6
			c0.6,2.5,0.8,4.9,0.8,7.4c0,1.7-0.2,3.4-0.7,5.2c-0.5,1.8-1.1,3.4-2,5c-0.9,1.6-2.1,2.9-3.6,3.9c-1.5,1-3.1,1.4-4.9,1.4
			C370.6,95.3,368.9,95,367.6,94.3z"/>
	</g>
	<g style="display:none;">
		<rect x="56.7" y="139.1" style="display:inline;fill:none;" width="277.7" height="34.5"/>
		<path style="display:inline;fill:#099788;" d="M71,141.3v1.6h-6V160h-1.8v-17.1h-6v-1.6H71z"/>
		<path style="display:inline;fill:#099788;" d="M83.9,159.5c-0.5,0.1-1.2,0.3-2.1,0.5s-2,0.3-3.2,0.3c-1,0-1.9-0.2-2.6-0.5
			c-0.7-0.3-1.3-0.7-1.7-1.3c-0.4-0.6-0.7-1.2-0.9-2c-0.2-0.8-0.3-1.7-0.3-2.6v-7.8h1.8v7.3c0,1,0.1,1.8,0.2,2.5
			c0.1,0.7,0.4,1.2,0.7,1.7s0.7,0.7,1.3,0.9c0.5,0.2,1.1,0.3,1.9,0.3c0.8,0,1.5,0,2.2-0.1c0.6-0.1,1-0.2,1.2-0.2v-12.3h1.8V159.5z"
			/>
		<path style="display:inline;fill:#099788;" d="M93.3,145.8c0.6,0,1.1,0,1.6,0.1c0.5,0.1,0.9,0.2,1.1,0.3l-0.4,1.5
			c-0.1-0.1-0.4-0.1-0.9-0.2c-0.4-0.1-1-0.1-1.7-0.1c-0.8,0-1.4,0.1-1.8,0.2s-0.8,0.2-0.9,0.3V160h-1.8v-13.3
			c0.5-0.2,1.1-0.4,1.9-0.6C91.2,145.9,92.2,145.8,93.3,145.8z"/>
		<path style="display:inline;fill:#099788;" d="M100.8,141.9c0,0.4-0.1,0.7-0.4,1c-0.3,0.2-0.6,0.4-0.9,0.4c-0.4,0-0.7-0.1-0.9-0.4
			c-0.3-0.2-0.4-0.6-0.4-1s0.1-0.7,0.4-1c0.3-0.2,0.6-0.4,0.9-0.4c0.4,0,0.7,0.1,0.9,0.4C100.7,141.1,100.8,141.4,100.8,141.9z
			 M100.4,160h-1.8v-14h1.8V160z"/>
		<path style="display:inline;fill:#099788;" d="M107.9,158.8c1,0,1.8-0.2,2.5-0.5c0.7-0.3,1-0.9,1-1.7c0-0.4-0.1-0.7-0.2-1
			c-0.1-0.3-0.3-0.5-0.6-0.7c-0.3-0.2-0.6-0.4-1.1-0.6c-0.4-0.2-1-0.4-1.6-0.7c-0.5-0.2-1-0.4-1.5-0.7s-0.9-0.5-1.2-0.8
			s-0.6-0.7-0.9-1.1c-0.2-0.4-0.3-0.9-0.3-1.5c0-1.1,0.4-2.1,1.3-2.8c0.9-0.7,2-1.1,3.5-1.1c1,0,1.7,0.1,2.4,0.2s1.1,0.3,1.3,0.4
			l-0.4,1.6c-0.2-0.1-0.6-0.3-1.1-0.4c-0.5-0.2-1.3-0.3-2.3-0.3c-0.4,0-0.8,0-1.1,0.1c-0.4,0.1-0.7,0.2-0.9,0.4s-0.5,0.4-0.6,0.6
			c-0.2,0.3-0.2,0.6-0.2,1s0.1,0.7,0.2,1c0.1,0.3,0.4,0.5,0.6,0.7s0.6,0.4,1,0.6c0.4,0.2,0.9,0.4,1.4,0.6c0.5,0.2,1.1,0.4,1.6,0.7
			c0.5,0.2,0.9,0.5,1.3,0.8c0.4,0.3,0.7,0.7,0.9,1.1c0.2,0.4,0.4,1,0.4,1.7c0,1.3-0.5,2.2-1.4,2.9c-0.9,0.6-2.2,1-3.9,1
			c-1.2,0-2.2-0.1-2.8-0.3c-0.6-0.2-1.1-0.4-1.3-0.5l0.5-1.6c0.1,0,0.2,0.1,0.4,0.2c0.2,0.1,0.4,0.2,0.7,0.3
			c0.3,0.1,0.7,0.2,1.1,0.3C106.9,158.7,107.4,158.8,107.9,158.8z"/>
		<path style="display:inline;fill:#099788;" d="M116.6,146.5c0.5-0.1,1.2-0.3,2-0.5c0.8-0.2,1.9-0.3,3.3-0.3c1.8,0,3,0.5,3.8,1.5
			c0.1-0.1,0.3-0.2,0.5-0.4c0.3-0.2,0.6-0.3,1-0.5c0.4-0.2,0.9-0.3,1.4-0.5c0.5-0.1,1.1-0.2,1.8-0.2c1.1,0,1.9,0.2,2.6,0.5
			c0.7,0.3,1.2,0.8,1.5,1.3s0.6,1.2,0.7,2c0.1,0.8,0.2,1.7,0.2,2.6v7.8h-1.8v-7.2c0-0.9,0-1.7-0.1-2.4c-0.1-0.7-0.2-1.2-0.5-1.7
			c-0.2-0.4-0.6-0.8-1-1s-1-0.3-1.8-0.3c-0.5,0-1,0-1.5,0.1c-0.4,0.1-0.8,0.2-1.1,0.4c-0.3,0.1-0.6,0.3-0.8,0.4s-0.4,0.3-0.4,0.3
			c0.2,0.5,0.3,1,0.4,1.6c0.1,0.6,0.1,1.2,0.1,1.8v7.9h-1.8v-7.2c0-0.9,0-1.7-0.1-2.4c-0.1-0.7-0.2-1.2-0.5-1.7s-0.6-0.8-1.1-1
			s-1.1-0.3-1.8-0.3c-0.8,0-1.6,0-2.1,0.1c-0.6,0.1-1,0.2-1.1,0.2V160h-1.8V146.5z"/>
		<path style="display:inline;fill:#099788;" d="M151.8,153.1c0,1.1-0.2,2.1-0.5,3c-0.3,0.9-0.8,1.7-1.3,2.3c-0.6,0.6-1.2,1.1-2,1.5
			c-0.8,0.4-1.6,0.5-2.6,0.5s-1.8-0.2-2.6-0.5c-0.8-0.4-1.4-0.8-2-1.5c-0.6-0.6-1-1.4-1.3-2.3c-0.3-0.9-0.5-1.9-0.5-3
			c0-1.1,0.2-2.1,0.5-3c0.3-0.9,0.8-1.7,1.3-2.3c0.6-0.6,1.2-1.1,2-1.5c0.8-0.4,1.6-0.5,2.6-0.5s1.8,0.2,2.6,0.5
			c0.8,0.4,1.4,0.8,2,1.5c0.6,0.6,1,1.4,1.3,2.3C151.7,151,151.8,152,151.8,153.1z M150,153.1c0-1.7-0.4-3.1-1.2-4.2
			c-0.8-1-1.9-1.6-3.3-1.6c-1.4,0-2.5,0.5-3.3,1.6c-0.8,1-1.2,2.4-1.2,4.2s0.4,3.1,1.2,4.2s1.9,1.5,3.3,1.5c1.4,0,2.5-0.5,3.3-1.5
			S150,154.8,150,153.1z"/>
		<path style="display:inline;fill:#099788;" d="M172.5,155.2c0.4-0.6,0.8-1.3,1-2c0.2-0.7,0.4-1.5,0.5-2.3l1.5,0.2
			c-0.1,0.9-0.3,1.8-0.6,2.7c-0.3,0.9-0.8,1.7-1.4,2.5c0.7,0.7,1.4,1.4,1.9,2s0.9,1.2,1.3,1.8h-2c-0.3-0.4-0.6-0.8-0.9-1.2
			s-0.8-0.8-1.2-1.3c-0.7,0.9-1.5,1.5-2.5,2c-1,0.5-2.1,0.7-3.4,0.7c-1.1,0-2-0.2-2.8-0.5s-1.4-0.7-1.8-1.2c-0.5-0.5-0.8-1-1-1.6
			c-0.2-0.6-0.3-1.2-0.3-1.8c0-0.7,0.1-1.4,0.3-1.9c0.2-0.6,0.5-1.1,0.9-1.5c0.4-0.4,0.8-0.8,1.3-1.2c0.5-0.3,1-0.6,1.5-0.8
			c-0.8-0.8-1.3-1.5-1.6-2.2c-0.3-0.7-0.5-1.4-0.5-2.1c0-0.7,0.1-1.3,0.3-1.9c0.2-0.6,0.5-1,0.9-1.4c0.4-0.4,0.9-0.7,1.4-0.9
			c0.6-0.2,1.2-0.3,1.8-0.3c0.7,0,1.3,0.1,1.8,0.3c0.5,0.2,1,0.5,1.3,0.8c0.4,0.4,0.6,0.8,0.8,1.3c0.2,0.5,0.3,1,0.3,1.6
			c0,0.7-0.1,1.3-0.4,1.8c-0.2,0.5-0.5,1-0.9,1.4c-0.4,0.4-0.8,0.8-1.3,1.1c-0.5,0.3-1,0.6-1.6,0.9L172.5,155.2z M166.7,158.7
			c1,0,2-0.2,2.8-0.6c0.8-0.4,1.5-1,2.1-1.7l-5.5-5.6c-0.4,0.2-0.8,0.3-1.1,0.5c-0.4,0.2-0.8,0.5-1.1,0.8s-0.6,0.8-0.8,1.3
			c-0.2,0.5-0.3,1.1-0.3,1.7c0,0.4,0.1,0.8,0.2,1.3c0.1,0.4,0.4,0.8,0.7,1.1c0.3,0.3,0.7,0.6,1.2,0.8
			C165.3,158.6,166,158.7,166.7,158.7z M170,144.9c0-0.7-0.2-1.3-0.7-1.8c-0.5-0.5-1.1-0.7-1.8-0.7c-0.9,0-1.6,0.2-2.1,0.7
			s-0.7,1.2-0.7,2c0,0.6,0.1,1.3,0.4,1.9c0.3,0.6,0.8,1.3,1.5,2c1.1-0.5,1.9-1,2.6-1.6C169.7,146.8,170,146,170,144.9z"/>
		<path style="display:inline;fill:#099788;" d="M185.6,141.3h1.8V160h-1.8V141.3z"/>
		<path style="display:inline;fill:#099788;" d="M192.2,146.5c0.5-0.1,1.2-0.3,2.1-0.5c0.9-0.2,2-0.3,3.2-0.3c1.1,0,1.9,0.2,2.7,0.5
			c0.7,0.3,1.3,0.7,1.7,1.3c0.4,0.6,0.7,1.2,0.9,2s0.3,1.7,0.3,2.6v7.8h-1.8v-7.2c0-1-0.1-1.8-0.2-2.5c-0.1-0.7-0.4-1.2-0.7-1.7
			c-0.3-0.4-0.7-0.7-1.2-0.9s-1.2-0.3-1.9-0.3c-0.8,0-1.5,0-2.1,0.1c-0.6,0.1-1,0.2-1.2,0.2V160h-1.8V146.5z"/>
		<path style="display:inline;fill:#099788;" d="M211.7,158.1c0.4-0.8,0.8-1.7,1.2-2.7s0.8-2,1.2-3.1c0.4-1.1,0.7-2.2,1-3.2
			c0.3-1.1,0.6-2.1,0.8-3.1h1.8c-0.3,1.3-0.7,2.5-1.1,3.8c-0.4,1.2-0.8,2.5-1.3,3.6s-0.9,2.3-1.4,3.4c-0.5,1.1-0.9,2.1-1.4,3.1h-1.6
			c-0.5-1-0.9-2-1.4-3.1c-0.5-1.1-0.9-2.2-1.4-3.4s-0.9-2.4-1.3-3.6c-0.4-1.2-0.8-2.5-1.1-3.8h1.9c0.2,1,0.5,2,0.8,3.1
			c0.3,1.1,0.7,2.2,1,3.2s0.8,2.1,1.2,3.1S211.4,157.4,211.7,158.1z"/>
		<path style="display:inline;fill:#099788;" d="M219.6,153c0-1.2,0.2-2.3,0.5-3.2c0.4-0.9,0.8-1.7,1.4-2.3c0.6-0.6,1.2-1.1,1.9-1.4
			c0.7-0.3,1.5-0.4,2.3-0.4c1.7,0,3.1,0.6,4.1,1.7c1,1.1,1.5,2.8,1.5,5.2c0,0.1,0,0.3,0,0.4c0,0.1,0,0.3,0,0.4h-9.8
			c0.1,1.7,0.5,3,1.3,3.9s2.1,1.4,3.8,1.4c1,0,1.7-0.1,2.3-0.3c0.6-0.2,1-0.3,1.2-0.5l0.3,1.5c-0.3,0.1-0.7,0.3-1.4,0.5
			s-1.5,0.3-2.4,0.3c-1.2,0-2.3-0.2-3.1-0.5s-1.6-0.9-2.1-1.5s-1-1.4-1.2-2.3S219.6,154.1,219.6,153z M229.5,151.9
			c0-1.5-0.4-2.6-1-3.4s-1.6-1.2-2.8-1.2c-0.6,0-1.2,0.1-1.7,0.4c-0.5,0.3-0.9,0.6-1.3,1c-0.4,0.4-0.7,0.9-0.9,1.5
			c-0.2,0.6-0.3,1.1-0.4,1.8H229.5z"/>
		<path style="display:inline;fill:#099788;" d="M238.1,158.8c1,0,1.8-0.2,2.5-0.5c0.7-0.3,1-0.9,1-1.7c0-0.4-0.1-0.7-0.2-1
			c-0.1-0.3-0.3-0.5-0.6-0.7c-0.3-0.2-0.6-0.4-1.1-0.6c-0.4-0.2-1-0.4-1.6-0.7c-0.5-0.2-1-0.4-1.5-0.7c-0.5-0.2-0.9-0.5-1.2-0.8
			c-0.4-0.3-0.6-0.7-0.9-1.1s-0.3-0.9-0.3-1.5c0-1.1,0.4-2.1,1.3-2.8s2-1.1,3.5-1.1c1,0,1.7,0.1,2.4,0.2s1.1,0.3,1.3,0.4l-0.4,1.6
			c-0.2-0.1-0.6-0.3-1.1-0.4c-0.5-0.2-1.3-0.3-2.3-0.3c-0.4,0-0.8,0-1.1,0.1s-0.7,0.2-0.9,0.4s-0.5,0.4-0.6,0.6
			c-0.2,0.3-0.2,0.6-0.2,1s0.1,0.7,0.2,1c0.1,0.3,0.4,0.5,0.6,0.7c0.3,0.2,0.6,0.4,1,0.6c0.4,0.2,0.9,0.4,1.4,0.6
			c0.5,0.2,1.1,0.4,1.6,0.7s0.9,0.5,1.3,0.8c0.4,0.3,0.7,0.7,0.9,1.1c0.2,0.4,0.4,1,0.4,1.7c0,1.3-0.5,2.2-1.4,2.9s-2.2,1-3.9,1
			c-1.2,0-2.2-0.1-2.8-0.3c-0.6-0.2-1.1-0.4-1.3-0.5l0.5-1.6c0.1,0,0.2,0.1,0.4,0.2c0.2,0.1,0.4,0.2,0.7,0.3
			c0.3,0.1,0.7,0.2,1.1,0.3C237.1,158.7,237.6,158.8,238.1,158.8z"/>
		<path style="display:inline;fill:#099788;" d="M248.5,146.1h5.6v1.5h-5.6v7.4c0,0.8,0.1,1.4,0.2,1.9c0.1,0.5,0.3,0.9,0.6,1.1
			c0.3,0.3,0.6,0.5,0.9,0.5c0.4,0.1,0.8,0.1,1.2,0.1c0.7,0,1.3-0.1,1.8-0.3c0.5-0.2,0.8-0.3,1.1-0.5l0.4,1.5
			c-0.3,0.2-0.7,0.3-1.3,0.6c-0.6,0.2-1.3,0.3-2.1,0.3c-0.9,0-1.6-0.1-2.2-0.3c-0.6-0.2-1.1-0.6-1.4-1c-0.4-0.5-0.6-1-0.7-1.7
			c-0.1-0.7-0.2-1.5-0.2-2.4V142l1.8-0.3V146.1z"/>
		<path style="display:inline;fill:#099788;" d="M259.4,141.9c0,0.4-0.1,0.7-0.4,1c-0.3,0.2-0.6,0.4-0.9,0.4s-0.7-0.1-0.9-0.4
			c-0.3-0.2-0.4-0.6-0.4-1s0.1-0.7,0.4-1c0.3-0.2,0.6-0.4,0.9-0.4s0.7,0.1,0.9,0.4C259.3,141.1,259.4,141.4,259.4,141.9z M259,160
			h-1.8v-14h1.8V160z"/>
		<path style="display:inline;fill:#099788;" d="M272.8,158.4c-0.1,0.1-0.3,0.2-0.5,0.3c-0.2,0.1-0.5,0.2-0.8,0.4
			c-0.3,0.1-0.7,0.2-1.1,0.3c-0.4,0.1-0.9,0.1-1.4,0.1c-0.8,0-1.6-0.1-2.3-0.4c-0.8-0.3-1.4-0.6-2-1.2s-1-1.2-1.4-2.1
			c-0.3-0.9-0.5-1.9-0.5-3.1c0-1,0.2-1.9,0.5-2.8c0.3-0.8,0.7-1.6,1.3-2.2c0.6-0.6,1.3-1.1,2.1-1.5c0.8-0.4,1.7-0.5,2.8-0.5
			c1.3,0,2.3,0.1,3.1,0.3c0.8,0.2,1.4,0.3,1.9,0.5v12.7c0,2.1-0.5,3.6-1.6,4.5c-1.1,0.9-2.7,1.3-4.9,1.3c-0.9,0-1.7-0.1-2.4-0.2
			c-0.7-0.1-1.4-0.3-1.9-0.5l0.4-1.6c0.4,0.2,1,0.4,1.8,0.5s1.5,0.2,2.3,0.2c1.7,0,2.9-0.3,3.6-1c0.7-0.6,1.1-1.7,1.1-3.3V158.4z
			 M272.7,147.8c-0.3-0.1-0.7-0.2-1.2-0.3s-1.2-0.1-2.1-0.1c-0.8,0-1.4,0.1-2,0.4c-0.6,0.3-1.1,0.6-1.5,1.1c-0.4,0.5-0.7,1-0.9,1.7
			c-0.2,0.7-0.3,1.4-0.3,2.2c0,0.9,0.1,1.7,0.4,2.4c0.3,0.7,0.6,1.2,1,1.6c0.4,0.4,0.9,0.7,1.4,0.9c0.5,0.2,1.1,0.3,1.6,0.3
			c0.8,0,1.5-0.1,2.2-0.4c0.7-0.2,1.2-0.5,1.5-0.8V147.8z"/>
		<path style="display:inline;fill:#099788;" d="M283.4,145.7c0.9,0,1.7,0.1,2.3,0.4c0.6,0.3,1.2,0.6,1.6,1.1c0.4,0.5,0.7,1,0.9,1.6
			c0.2,0.6,0.3,1.3,0.3,2.1v8.8c-0.2,0.1-0.4,0.1-0.8,0.2s-0.7,0.1-1.2,0.2c-0.5,0.1-0.9,0.1-1.5,0.2c-0.5,0-1.1,0.1-1.7,0.1
			c-0.7,0-1.4-0.1-2-0.2c-0.6-0.2-1.2-0.4-1.6-0.8s-0.8-0.8-1.1-1.4c-0.3-0.5-0.4-1.2-0.4-2c0-0.8,0.1-1.4,0.4-1.9
			c0.3-0.5,0.7-1,1.2-1.3c0.5-0.4,1.1-0.6,1.9-0.8c0.7-0.2,1.5-0.2,2.3-0.2c0.3,0,0.5,0,0.8,0c0.3,0,0.5,0.1,0.8,0.1
			c0.3,0,0.5,0.1,0.7,0.1s0.3,0.1,0.4,0.1v-0.9c0-0.5,0-1-0.1-1.4s-0.2-0.9-0.5-1.2c-0.2-0.4-0.6-0.7-1-0.9s-1-0.3-1.7-0.3
			c-1,0-1.8,0.1-2.3,0.2s-0.9,0.3-1.1,0.4l-0.2-1.5c0.3-0.1,0.8-0.3,1.4-0.4C281.7,145.8,282.5,145.7,283.4,145.7z M283.5,158.8
			c0.7,0,1.3,0,1.8-0.1s0.9-0.1,1.3-0.2v-4.9c-0.2-0.1-0.5-0.2-0.9-0.3c-0.4-0.1-1-0.1-1.8-0.1c-0.4,0-0.9,0-1.3,0.1
			c-0.5,0.1-0.9,0.2-1.3,0.4s-0.7,0.5-1,0.9s-0.4,0.8-0.4,1.4c0,0.5,0.1,1,0.3,1.3c0.2,0.4,0.4,0.6,0.7,0.9c0.3,0.2,0.7,0.4,1.1,0.5
			C282.5,158.7,283,158.8,283.5,158.8z"/>
		<path style="display:inline;fill:#099788;" d="M298.5,161c0.5,0.2,0.9,0.5,1.2,0.8c0.3,0.3,0.4,0.7,0.4,1.3c0,0.2,0,0.4-0.1,0.7
			c-0.1,0.2-0.2,0.5-0.4,0.7c-0.2,0.2-0.5,0.4-0.8,0.5s-0.8,0.2-1.3,0.2c-0.4,0-0.7,0-1.1-0.1c-0.4-0.1-0.6-0.1-0.8-0.2l0.2-1.2
			c0.2,0.1,0.4,0.2,0.7,0.2s0.6,0.1,0.9,0.1c0.7,0,1.1-0.3,1.1-0.8c0-0.3-0.1-0.5-0.4-0.7c-0.3-0.2-0.6-0.4-1.2-0.6
			c0.1-0.2,0.2-0.5,0.3-0.7c0.1-0.3,0.2-0.5,0.4-0.8c-1.8-0.2-3.2-1-4.1-2.2c-0.9-1.3-1.4-2.9-1.4-4.9c0-1.1,0.1-2.1,0.4-3
			c0.3-0.9,0.7-1.7,1.3-2.3c0.6-0.6,1.2-1.1,2-1.5s1.7-0.5,2.7-0.5c0.8,0,1.5,0.1,2.1,0.2c0.7,0.1,1.2,0.3,1.5,0.5l-0.5,1.5
			c-0.4-0.2-0.8-0.3-1.2-0.4c-0.4-0.1-1.1-0.2-1.8-0.2c-1.5,0-2.7,0.5-3.5,1.5s-1.2,2.4-1.2,4.3c0,0.8,0.1,1.6,0.3,2.3
			c0.2,0.7,0.5,1.3,0.9,1.8c0.4,0.5,0.9,0.9,1.6,1.2c0.6,0.3,1.4,0.4,2.3,0.4c0.8,0,1.4-0.1,1.9-0.3c0.5-0.2,0.9-0.3,1.1-0.4
			l0.4,1.5c-0.3,0.2-0.8,0.4-1.5,0.5c-0.7,0.2-1.4,0.3-2.1,0.3c-0.1,0.1-0.1,0.2-0.2,0.4C298.6,160.8,298.5,160.9,298.5,161z"/>
		<path style="display:inline;fill:#099788;" d="M309.5,145.7c0.9,0,1.7,0.1,2.3,0.4c0.6,0.3,1.2,0.6,1.6,1.1c0.4,0.5,0.7,1,0.9,1.6
			c0.2,0.6,0.3,1.3,0.3,2.1v8.8c-0.2,0.1-0.4,0.1-0.8,0.2s-0.7,0.1-1.2,0.2c-0.5,0.1-0.9,0.1-1.5,0.2s-1.1,0.1-1.7,0.1
			c-0.7,0-1.4-0.1-2-0.2c-0.6-0.2-1.2-0.4-1.6-0.8s-0.8-0.8-1.1-1.4c-0.3-0.5-0.4-1.2-0.4-2c0-0.8,0.1-1.4,0.4-1.9s0.7-1,1.2-1.3
			s1.1-0.6,1.9-0.8s1.5-0.2,2.3-0.2c0.3,0,0.5,0,0.8,0s0.5,0.1,0.8,0.1c0.3,0,0.5,0.1,0.7,0.1c0.2,0,0.3,0.1,0.4,0.1v-0.9
			c0-0.5,0-1-0.1-1.4c-0.1-0.5-0.2-0.9-0.5-1.2s-0.6-0.7-1-0.9s-1-0.3-1.7-0.3c-1,0-1.8,0.1-2.3,0.2c-0.5,0.1-0.9,0.3-1.1,0.4
			l-0.2-1.5c0.3-0.1,0.8-0.3,1.4-0.4C307.9,145.8,308.6,145.7,309.5,145.7z M311.7,143c-0.4,0-0.8-0.1-1.1-0.2s-0.6-0.3-0.9-0.4
			c-0.3-0.2-0.6-0.3-0.8-0.4s-0.4-0.1-0.6-0.1c-0.4,0-0.7,0.1-0.9,0.4c-0.2,0.3-0.4,0.5-0.6,0.8l-1-0.5c0.1-0.2,0.2-0.4,0.4-0.7
			c0.2-0.3,0.3-0.5,0.5-0.7s0.4-0.4,0.7-0.5s0.6-0.2,1-0.2c0.4,0,0.8,0.1,1.1,0.2s0.6,0.3,0.9,0.4c0.3,0.2,0.6,0.3,0.8,0.4
			c0.2,0.1,0.4,0.1,0.6,0.1c0.4,0,0.7-0.1,0.9-0.4c0.2-0.3,0.4-0.5,0.6-0.8l1,0.5c-0.1,0.2-0.2,0.5-0.4,0.7
			c-0.2,0.3-0.3,0.5-0.5,0.7c-0.2,0.2-0.5,0.4-0.7,0.5C312.4,143,312.1,143,311.7,143z M309.7,158.8c0.7,0,1.3,0,1.8-0.1
			c0.5,0,0.9-0.1,1.3-0.2v-4.9c-0.2-0.1-0.5-0.2-0.9-0.3c-0.4-0.1-1-0.1-1.8-0.1c-0.4,0-0.9,0-1.4,0.1c-0.5,0.1-0.9,0.2-1.3,0.4
			c-0.4,0.2-0.7,0.5-1,0.9s-0.4,0.8-0.4,1.4c0,0.5,0.1,1,0.3,1.3c0.2,0.4,0.4,0.6,0.7,0.9c0.3,0.2,0.7,0.4,1.1,0.5
			C308.7,158.7,309.2,158.8,309.7,158.8z"/>
		<path style="display:inline;fill:#099788;" d="M331,153.1c0,1.1-0.2,2.1-0.5,3c-0.3,0.9-0.8,1.7-1.3,2.3s-1.2,1.1-2,1.5
			s-1.6,0.5-2.6,0.5c-0.9,0-1.8-0.2-2.6-0.5s-1.4-0.8-2-1.5s-1-1.4-1.3-2.3c-0.3-0.9-0.5-1.9-0.5-3c0-1.1,0.2-2.1,0.5-3
			c0.3-0.9,0.8-1.7,1.3-2.3c0.6-0.6,1.2-1.1,2-1.5s1.6-0.5,2.6-0.5c0.9,0,1.8,0.2,2.6,0.5s1.4,0.8,2,1.5c0.6,0.6,1,1.4,1.3,2.3
			C330.8,151,331,152,331,153.1z M329.1,153.1c0-1.7-0.4-3.1-1.2-4.2c-0.8-1-1.9-1.6-3.3-1.6c-1.4,0-2.5,0.5-3.3,1.6
			c-0.8,1-1.2,2.4-1.2,4.2s0.4,3.1,1.2,4.2c0.8,1,1.9,1.5,3.3,1.5c1.4,0,2.5-0.5,3.3-1.5C328.7,156.2,329.1,154.8,329.1,153.1z"/>
	</g>
	<g>
		<g>
			<g>
				<g>
					<path style="fill:#FFFFFF;" d="M174.1,0.9c1.8-0.1,5.9-0.2,5.8,0c0.1-0.2,0.1-0.2,2.8-0.4c-0.1,0.2,2.4,0.1,4,0.1
						c-1.3-0.1-3.1-0.1-6.6-0.2c-3.2,0.3-10-0.2-13,0.2C169.3,0.7,171.4,1,174.1,0.9z"/>
					<path style="fill:#FFFFFF;" d="M188.8,2l0.5-0.1L183.6,2C184.7,1.9,188.6,1.8,188.8,2z"/>
					<path style="fill:#099788;" d="M207,1.7c-0.5,0.2,2.4,0.3,2.3,0.4c-0.1-0.4,4.5-0.1,7-0.1l1-0.3c-2.4-0.2-8.5-0.1-13.6-0.1
						L207,1.7z"/>
					<path style="fill:#FFFFFF;" d="M211.6,1.9l1.6-0.2C211.8,1.8,208.7,1.8,211.6,1.9z"/>
					<path style="fill:#FFFFFF;" d="M208.1,0.9c-4,0,2.4,0.1-1.6,0.2C207.8,1.1,209.4,1.1,208.1,0.9z"/>
					<polygon style="fill:#099788;" points="224.9,1.5 216.4,1.6 219.9,1.7 					"/>
					<path style="fill:#099788;" d="M225.4,2.1c-1.1,0-2.9-0.1-1.3-0.2c3.1,0.2,5-0.1,7.8,0.1l-2.7,0.1c0.4,0.2,5.7-0.2,5.5,0.2
						c3.7-0.3-2.8-0.3,2-0.5c-4.5,0.1-7.8,0-11.6-0.1c1.1,0.1,1.5,0.1,3.1,0.1c-2.7,0-6.3,0.1-9.4,0.2
						C220.4,2.2,222.7,1.9,225.4,2.1z"/>
					<path style="fill:#099788;" d="M239,2.1c2.9,0,7.4,0,8.1-0.3c-3.1-0.2-3.6,0-5,0.2c-0.9,0-3.8-0.1-2.6-0.2
						C240,1.9,237.7,2,239,2.1z"/>
					<path style="fill:#099788;" d="M250.4,2.2l2.1-0.3l-1.4,0L251,1.8c-0.2,0-1.3,0.4-4.2,0.4C248.3,2.3,248.8,2.1,250.4,2.2z"/>
					<path style="fill:#099788;" d="M251.1,0.8c2,0.1,3.1,0.1,5.4,0c-3.1,0-7.6,0-8.5,0.1l0.2,0c0,0-3,0.1-5,0.3
						C246.3,1,252,1.3,251.1,0.8z"/>
					<path style="fill:#099788;" d="M247,0.8l2.3-0.2L247,0.8z"/>
					<polygon style="fill:#099788;" points="259.3,2.1 254.9,2 256,2.1 					"/>
					<path style="fill:#099788;" d="M254,1.3c3.6,0-1.9-0.2,1.4-0.2c0.9,0-4.9,0-5.2,0.1C251.1,1.3,253.7,1.1,254,1.3z"/>
					<path style="fill:#099788;" d="M262.2,2.1l3.6-0.2L262.2,2.1z"/>
					<path style="fill:#099788;" d="M271.4,2.3l0.7-0.1c3.5,0.1,8.3-0.1,10.9,0.2c-0.6-0.2,1.5-0.4-1.6-0.4
						c-0.5,0.1-1.6,0.1-1.4,0.2c-1.3,0-1.1-0.2-1.9-0.2c-2.3,0.2-5.8,0-7.7,0.2c0.9,0,1.1,0,1.8,0c-3.9,0.3-4.6-0.4-6.3,0.1
						C267.2,2.1,269.5,2.3,271.4,2.3z"/>
					<path style="fill:#099788;" d="M271,1.3l-3.1-0.1c1-0.2,3.8,0,4.3-0.2c-0.2-0.1-3.3-0.2-2.2-0.2c-0.4,0.5-4.3,0-2.6,0.5
						c-4,0.1-1.2-0.3-5.5-0.3l-1.2,0.2C265.5,1.2,266.3,1.4,271,1.3z"/>
					<path style="fill:#099788;" d="M283.1,1.4l1.5,0.1l-0.8-0.2c6.9,0,11,0.8,15.2,0.7c5.2-0.3,10.1,0.1,15.5,0.1
						c2.6-0.2-2.5-0.1-2.8-0.2c0.7-0.4,2.5,0.2,3.8-0.1c0.3-0.3-5.5-0.3-7.8-0.4c-2,0-2,0.1-2.6,0.3c-0.5-0.1-2.5-0.2-3-0.3
						c-4.2,0.2-6.3-0.2-10.4,0c-1.3-0.2,3.1,0,1.7-0.1l-2.2,0l0.2,0c-3,0.2-8.7,0-10.6-0.1c1.5,0.1,2.6,0.2,0.8,0.3L280,1.2
						l-3.9,0.3C279.1,1.3,282.5,1.8,283.1,1.4z"/>
					<path style="fill:#099788;" d="M278.7,0.9c-4.7-0.1,0.6,0.3-4.5,0.2l5.4,0L278.7,0.9z"/>
					<path style="fill:#FFFFFF;" d="M301,1.5l2.3,0.2C302.1,1.3,298.4,1.8,301,1.5z"/>
					<polygon style="fill:#FFFFFF;" points="309.5,1.5 308.3,1.8 310.5,1.6 					"/>
					<path style="fill:#099788;" d="M317.3,1.9c1.7-0.1-0.3-0.3-2.3-0.2C316.7,1.6,317.7,1.8,317.3,1.9z"/>
					<path style="fill:#FFFFFF;" d="M330,2.4c-3.9,0,3.5,0.1,0.7,0.3C331.2,2.6,333.2,2.5,330,2.4z"/>
					<path style="fill:#099788;" d="M342.7,3.1c-1.4,0.1-2,0-2.2-0.1C341.5,3.1,342.3,3.1,342.7,3.1z"/>
					<path style="fill:#099788;" d="M294,2.2c-0.4,0-0.9,0-1.4,0C293.1,2.2,293.5,2.2,294,2.2z"/>
					<path style="fill:#099788;" d="M294.9,2.2c-0.3,0-0.6,0-0.9,0C294.3,2.2,294.6,2.2,294.9,2.2z"/>
					<path style="fill:#099788;" d="M323.8,2.8C323.8,2.8,323.8,2.8,323.8,2.8c-0.1,0-0.2,0-0.3,0L323.8,2.8z"/>
					<path style="fill:#099788;" d="M200.1,2.1c-0.8,0-1.3,0-1.8,0C198.9,2.1,199.5,2.1,200.1,2.1C200.1,2.1,200.1,2.1,200.1,2.1z"
						/>
					<path style="fill:#099788;" d="M198,1.7c3.2-0.2,3.4,0.4,8.6,0.3c-2.1,0-4.3,0.1-6.5,0.1C197.1,1.8,202.4,1.9,198,1.7z"/>
					<path style="fill:#099788;" d="M241.3,1.3c0.1,0,0.1,0,0.2,0C241.8,1.3,241.7,1.3,241.3,1.3z"/>
					<polygon style="fill:#FFFFFF;" points="57.1,2 57,2.1 54.2,2 					"/>
					<path style="fill:#FFFFFF;" d="M57.5,2.1l4.9,0.2l-28.8,0l0.9-0.1C34,2.1,58.3,2.3,57.5,2.1z"/>
					<path style="fill:#FFFFFF;" d="M58.9,2c2.8-0.3,4.7,0.1,8.1-0.1c-2.3,0.2-3.9,0.3-6.1,0.2L58.9,2z"/>
					<path style="fill:none;stroke:#099788;stroke-width:0;stroke-linecap:round;stroke-linejoin:round;" d="M68.5,1.4
						c1.5,0.1,3.4-0.1,4.3,0C72.2,1.6,69.8,1.4,68.5,1.4z"/>
					<path style="fill:#099788;" d="M72.6,0.4c0.2,0,0.5,0,0.7,0C73,0.4,72.8,0.4,72.6,0.4L72.6,0.4z"/>
					<path style="fill:#099788;" d="M72.6,0.4l0,0.1C72.1,0.5,72.2,0.5,72.6,0.4z"/>
					<path style="fill:#099788;" d="M73.3,0.4c0.6,0,1.4-0.1,1.8-0.1l-0.7,0c0.9,0,2.5-0.1,2.9-0.1c-1.8,0-1.8,0.1-1.9,0.2l2.9,0
						C77.9,0.8,75.9,0.4,73.3,0.4z"/>
					<path style="fill:none;stroke:#099788;stroke-width:0;stroke-linecap:round;stroke-linejoin:round;" d="M82.5,0.3l-3,0.2
						C78.7,0.3,81.4,0.3,82.5,0.3z"/>
					<path style="fill:#099788;" d="M86.9,0.5c-0.7,0.1-3.6,0-1.8,0.1c-0.5,0-1,0-1.6,0C85.4,0.7,83.5,0.4,86.9,0.5z"/>
					<path style="fill:#099788;" d="M83.4,0.7c-0.2,0-0.5,0-0.8,0C82.8,0.7,83.1,0.7,83.4,0.7z"/>
					<path style="fill:none;stroke:#099788;stroke-width:0;stroke-linecap:round;stroke-linejoin:round;" d="M52.3,1.7
						c0.4,0,0.3,0.1,0.2,0.1L52.3,1.7z"/>
					<path style="fill:#099788;" d="M92.8,0.8l1.1,0c-0.3,0-0.6,0-0.9,0L92.8,0.8z"/>
					<path style="fill:#099788;" d="M0.2,2.8c3.9,0.1,7.6,0.1,13.2,0c-0.1-0.3,2.3-0.1,2.6-0.4c-5.8,0,21.9-0.2,17.3-0.3l-1.4,0.1
						L33.4,2c2.8,0.1,6.6,0.3,8.5,0.1c0.5,0.1-23.8,0-22.9,0.1c-2.2-0.3,32.6-0.3,33.5-0.5l0.4,0.2c4.3-0.2,7.1-0.4,10.7-0.6
						l0.8,0.2c-2.7-0.1-3.4,0.1-6.1,0.2c4.7,0,5.6,0.1,9.1,0c-0.1-0.3-3.1-0.1,1.4-0.3c1.3,0.1-1.7,0.4,2.3,0.4
						c4.9,0.1,3.9-0.3,8.2-0.4l-2.9-0.1c1.6,0,4.5-0.1,6,0.1c-1.8,0-6.3,0.1-6.2,0.4c1.8-0.1,5.8,0,7.4,0l-1,0.2
						c1.7,0.2,2.7-0.1,4.9,0.1c2.1-0.1-1.2-0.3-0.1-0.4c0.4,0.1,4.4,0.2,5.8,0c-1-0.4-4.7,0.1-7.3-0.3l3.8,0.1c2.4-0.4-6,0-4.8-0.3
						c2.8-0.4,5.9,0.4,8.5-0.1c-1.7-0.1-7.3-0.1-6.6-0.3c2,0.1,3.4-0.1,6.1-0.2L96.3,1c1.4-0.1,0.3-0.1-0.8-0.2
						c4.8,0.2,13,0,19.8,0.2c4-0.1,0.5-0.2,2.3-0.3c2.2,0.2,5.8,0,8,0c0.7,0,1.9-0.2,1.2-0.3l-5.6,0.2c0.3-0.1-0.6-0.3-2.6-0.3
						c1.4,0.5-7.9-0.3-8.4,0.2l0.1-0.2l-7.2,0.2l0.2,0c0-0.1-6.1,0.2-10.1,0.1c1.1-0.1,7.8,0,3.9-0.3c3-0.1,8.2,0.1,13.6,0l-1.1-0.2
						c5.7-0.2,13.2,0.1,19.4,0l-1.9,0.2c2.2,0.1,5,0.3,7.1,0.1c-2.7,0-1.3-0.1-0.8-0.2c3.6-0.1,8.9,0,13.9-0.1c0,0-0.2,0,0,0.1
						l5.2-0.1c2.5,0,3.3,0.2,4.8,0.3c0.9,0,3.1,0,2.3-0.2c-0.5,0-1,0-1.3,0c2.6-0.2,1.8,0.1,5.1-0.1c-2.5,0.2,0.8,0.3,0.5,0.5
						c3.8-0.1,0.4-0.4,0.8-0.5c4.7,0.1,5.3,0.3,9.9,0.3c0.3-0.1-3.3-0.1-3.7-0.2c1.3,0,2.9,0,3.1,0l-2.9-0.1
						c4.9,0.2,9.5,0.2,14.9,0.1L186,0.2l3.4,0l-1.2,0.2c1.8-0.1,3.7,0.2,4.7,0l-0.7,0l2.3-0.1l-2.3,0.2c2.9,0.1,6.8-0.4,11.5-0.3
						c1,0.3-8.1,0.1-8.7,0.5c1.5,0.1,4.2,0.1,5.1,0c-0.2-0.1-1.3-0.1-2.4-0.1c4.1-0.2,10.2,0.1,12.8-0.2l-3.1-0.1
						c3.6,0,5.9,0.4,7.1,0.2l-2.8,0.4c3.6-0.2,8.3-0.2,11.7-0.3c0.1-0.2-4.9,0-4.7,0l1.6-0.2c5.3,0.1,1.5,0.1,7.9,0.3l0.1-0.2
						c2.1,0.2,7.9-0.2,5.7,0.2l-1.7-0.1l0.1,0.2l7.4-0.1c-0.7,0.1,2.9,0.1,1.9,0.3l2.7-0.2c1.2,0.3-5,0.3-5.3,0.5
						c0.1,0.1,1.4,0.1,2,0.1c-3.3,0.2-4.9-0.3-8.2-0.3l-1.6,0.2l0.1-0.2c-1.4,0-2.5,0.2-3,0.3c-3.2-0.3-6.7,0.1-11.6,0
						c4.1-0.1-2.6-0.2-1.9-0.3c-2.2,0-7.8,0.4-9.7,0.1c-1.3-0.1,2.7-0.2-0.4-0.2c-2,0-3.4,0.2-2.1,0.3c-4.5,0.1-9.8,0-14.8,0
						l1.2-0.2c-3.1-0.1-6.1,0.1-7.7,0.3c-0.4-0.1-0.7,0-0.2-0.1c-3.9-0.3-5,0.3-11.5,0.3c0.4,0.2,3.3,0.2,5.3,0.1l-0.5,0.3
						c5.6,0,11.9,0,16.4-0.2L189,1.8c3.9,0.3,2.8-0.3,6.5,0.1c2.7-0.1-2-0.1,0.1-0.2c1.9,0.1-0.5,0.4,2.7,0.5
						c-12.1,0.1-25.8,0.1-38.5,0.2c-0.2,0,0.4,0.1,1.1,0.1c-4.4,0.3-39.6-0.6-40.7,0.1c-0.6-0.1,1.4-0.2-1.3-0.2
						c-0.2,0-0.9,0.1-0.3,0.2c-6.8-0.4-15.9,0-24.1-0.2c0.2,0.1-1.6,0.2-1.7,0.3c-2.8-0.3-7.6,0-10.2-0.1l0.9,0.1l-8.3,0
						c-0.2,0,0.9,0,1.5,0.1c-1.8,0.1-2.2-0.1-2.4-0.2l-3.7,0.3c-10.8-0.5-24.2,0.3-36.6,0c-1.9,0.2-3.5,0.3-6.6,0.3L29,3
						c-3.2,0.2-0.2-0.1-2.9,0c-1.8,0.1-0.6,0.3,1.9,0.2c1.6,0.1,0.6,0.2-0.5,0.2C17.6,3.4,8.3,3.2,0.2,2.8z"/>
					<path style="fill:#099788;" d="M377.4,3.7c-1.1-0.1,4.3-0.1,1.7-0.3c-8.3-0.4-21.9-0.1-31.8-0.4c-2.6-0.2-3.3-0.2-5.7-0.3
						c0,0-0.1,0.1,0.1,0.1c-2.7,0-7,0-9.7-0.1c-0.8,0-1.3,0.2,0.1,0.2c-4.1,0.2-7-0.3-9.4-0.2c2,0.1-2,0.2,0.4,0.3
						c-4.3,0-3.9-0.6-7.3-0.7c-0.2,0-0.4,0.1,0.3,0.1c-3.7-0.3-11.3,0.2-11.7-0.3l-1.5,0.2c-1.6-0.1-1.2-0.2-3.9-0.3
						c-1.8,0.1,0.1,0.2-0.6,0.2c-0.7-0.2-5.5-0.1-7.6-0.3c-0.1-0.3,3.8,0.4,6,0.1c0.1-0.1-0.2-0.1-0.7-0.1c11.2,0.1,19.8,0.8,29,0.6
						c2,0.2,3.6,0,4.5-0.2c-1.7-0.1-6.4-0.3-6.5,0.1l-2.9-0.2c-1.1,0-1.1-0.4-1.5-0.4c2,0,4.3-0.3,1.6-0.5c5.3,0-1.7,0.8,3,0.7
						l0.7-0.3c-0.9,0.1,3.2,0.3,4.7,0.2l-0.6-0.1c12.6,0.1,29.4,0,43.4-0.1c3.4,0.7,10.2-0.2,13.4,0.3c1.5-0.1-2.2-0.2,0.8-0.3
						c1.5,0,1.6,0.1,1.5,0.2c0.4,0,0.9,0,1.3-0.1C389.5,2.6,386.9,3.2,377.4,3.7z"/>
				</g>
			</g>
		</g>
	</g>
	<g>
		<g>
			<g>
				<g>
					<path style="fill:#FFFFFF;" d="M214.5,116.8c-1.8,0.1-5.9,0.2-5.8,0c-0.1,0.2-0.1,0.2-2.8,0.4c0.1-0.2-2.4-0.1-4-0.1
						c1.3,0.1,3.1,0.1,6.6,0.2c3.2-0.3,10,0.2,13-0.2C219.3,116.9,217.2,116.7,214.5,116.8z"/>
					<path style="fill:#FFFFFF;" d="M199.9,115.7l-0.5,0.1l5.6-0.2C203.9,115.7,200.1,115.8,199.9,115.7z"/>
					<path style="fill:#099788;" d="M181.7,116c0.5-0.2-2.4-0.3-2.3-0.4c0.1,0.4-4.5,0.1-7,0.1l-1,0.3c2.4,0.2,8.5,0.1,13.6,0.1
						L181.7,116z"/>
					<path style="fill:#FFFFFF;" d="M177.1,115.8l-1.6,0.2C176.8,115.9,179.9,115.9,177.1,115.8z"/>
					<path style="fill:#FFFFFF;" d="M180.5,116.7c4,0-2.4-0.1,1.6-0.2C180.8,116.6,179.2,116.6,180.5,116.7z"/>
					<polygon style="fill:#099788;" points="163.7,116.2 172.3,116.1 168.7,115.9 					"/>
					<path style="fill:#099788;" d="M163.3,115.6c1.1,0,2.9,0.1,1.3,0.2c-3.1-0.2-5,0.1-7.8-0.1l2.7-0.1c-0.4-0.2-5.7,0.2-5.5-0.2
						c-3.7,0.3,2.8,0.3-2,0.5c4.5-0.1,7.8,0,11.6,0.1c-1.1-0.1-1.5-0.1-3.1-0.1c2.7,0,6.3-0.1,9.4-0.2
						C168.2,115.5,165.9,115.8,163.3,115.6z"/>
					<path style="fill:#099788;" d="M149.6,115.6c-2.9,0-7.4,0-8.1,0.3c3.1,0.2,3.6,0,5-0.2c0.9,0,3.8,0.1,2.6,0.2
						C148.6,115.8,150.9,115.7,149.6,115.6z"/>
					<path style="fill:#099788;" d="M138.3,115.5l-2.1,0.3l1.4,0l0.2,0.2c0.2,0,1.3-0.4,4.2-0.4
						C140.3,115.4,139.8,115.6,138.3,115.5z"/>
					<path style="fill:#099788;" d="M137.6,116.8c-2-0.1-3.1-0.1-5.4,0c3.1,0,7.6,0,8.5-0.1l-0.2,0c0,0,3-0.1,5-0.3
						C142.3,116.6,136.6,116.4,137.6,116.8z"/>
					<path style="fill:#099788;" d="M141.6,116.9l-2.3,0.2L141.6,116.9z"/>
					<polygon style="fill:#099788;" points="129.3,115.6 133.7,115.7 132.6,115.6 					"/>
					<path style="fill:#099788;" d="M134.6,116.4c-3.6,0,1.9,0.2-1.4,0.2c-0.9,0,4.9,0,5.2-0.1C137.5,116.4,135,116.6,134.6,116.4z"
						/>
					<path style="fill:#099788;" d="M126.4,115.5l-3.6,0.2L126.4,115.5z"/>
					<path style="fill:#099788;" d="M117.3,115.4l-0.7,0.1c-3.5-0.1-8.3,0.1-10.9-0.2c0.6,0.2-1.5,0.4,1.6,0.4
						c0.5-0.1,1.6-0.1,1.4-0.2c1.3,0,1.1,0.2,1.9,0.2c2.3-0.2,5.8,0,7.7-0.2c-0.9,0-1.1,0-1.8,0c3.9-0.3,4.6,0.4,6.3-0.1
						C121.4,115.6,119.1,115.4,117.3,115.4z"/>
					<path style="fill:#099788;" d="M117.6,116.4l3.1,0.1c-1,0.2-3.8,0-4.3,0.2c0.2,0.1,3.3,0.2,2.2,0.2c0.4-0.5,4.3,0,2.6-0.5
						c4-0.1,1.2,0.3,5.5,0.3l1.2-0.2C123.2,116.5,122.3,116.3,117.6,116.4z"/>
					<path style="fill:#099788;" d="M105.6,116.3l-1.5-0.1l0.8,0.2c-6.9,0-11-0.8-15.2-0.7c-5.2,0.3-10.1-0.1-15.5-0.1
						c-2.6,0.2,2.5,0.1,2.8,0.2c-0.7,0.4-2.5-0.2-3.8,0.1c-0.3,0.3,5.5,0.3,7.8,0.4c2,0,2-0.1,2.6-0.3c0.5,0.1,2.5,0.2,3,0.3
						c4.2-0.2,6.3,0.2,10.4,0c1.3,0.2-3.1,0-1.7,0.1l2.2,0l-0.2,0c3-0.2,8.7,0,10.6,0.1c-1.5-0.1-2.6-0.2-0.8-0.3l1.5,0.2l3.9-0.3
						C109.6,116.3,106.1,115.9,105.6,116.3z"/>
					<path style="fill:#099788;" d="M109.9,116.7c4.7,0.1-0.6-0.3,4.5-0.2l-5.4,0L109.9,116.7z"/>
					<path style="fill:#FFFFFF;" d="M87.6,116.2l-2.3-0.2C86.6,116.3,90.2,115.9,87.6,116.2z"/>
					<polygon style="fill:#FFFFFF;" points="79.1,116.2 80.3,115.9 78.2,116 					"/>
					<path style="fill:#099788;" d="M71.4,115.8c-1.7,0.1,0.3,0.3,2.3,0.2C71.9,116,71,115.9,71.4,115.8z"/>
					<path style="fill:#FFFFFF;" d="M58.6,115.3c3.9,0-3.5-0.1-0.7-0.3C57.4,115,55.5,115.2,58.6,115.3z"/>
					<path style="fill:#099788;" d="M46,114.6c1.4-0.1,2,0,2.2,0.1C47.1,114.6,46.3,114.6,46,114.6z"/>
					<path style="fill:#099788;" d="M94.7,115.5c0.4,0,0.9,0,1.4,0C95.6,115.5,95.1,115.5,94.7,115.5z"/>
					<path style="fill:#099788;" d="M93.8,115.5c0.3,0,0.6,0,0.9,0C94.3,115.5,94,115.5,93.8,115.5z"/>
					<path style="fill:#099788;" d="M64.8,114.8C64.8,114.8,64.8,114.8,64.8,114.8c0.1,0,0.2,0,0.3,0L64.8,114.8z"/>
					<path style="fill:#099788;" d="M188.5,115.6c0.8,0,1.3,0,1.8,0C189.7,115.6,189.1,115.6,188.5,115.6
						C188.5,115.6,188.5,115.6,188.5,115.6z"/>
					<path style="fill:#099788;" d="M190.6,116c-3.2,0.2-3.4-0.4-8.6-0.3c2.1,0,4.3-0.1,6.5-0.1C191.5,115.9,186.2,115.7,190.6,116z
						"/>
					<path style="fill:#099788;" d="M147.3,116.3c-0.1,0-0.1,0-0.2,0C146.8,116.4,147,116.4,147.3,116.3z"/>
					<polygon style="fill:#FFFFFF;" points="331.6,115.7 331.6,115.6 334.5,115.7 					"/>
					<path style="fill:#FFFFFF;" d="M331.2,115.5l-4.9-0.2l28.8,0l-0.9,0.1C354.6,115.6,330.3,115.4,331.2,115.5z"/>
					<path style="fill:#FFFFFF;" d="M329.8,115.7c-2.8,0.3-4.7-0.1-8.1,0.1c2.3-0.2,3.9-0.3,6.1-0.2L329.8,115.7z"/>
					<path style="fill:none;stroke:#099788;stroke-width:0;stroke-linecap:round;stroke-linejoin:round;" d="M320.2,116.3
						c-1.5-0.1-3.4,0.1-4.3,0C316.4,116.1,318.8,116.3,320.2,116.3z"/>
					<path style="fill:#099788;" d="M316,117.3c-0.2,0-0.5,0-0.7,0C315.6,117.3,315.8,117.3,316,117.3L316,117.3z"/>
					<path style="fill:#099788;" d="M316,117.2l0-0.1C316.6,117.2,316.4,117.2,316,117.2z"/>
					<path style="fill:#099788;" d="M315.3,117.3c-0.6,0-1.4,0.1-1.8,0.1l0.7,0c-0.9,0-2.5,0.1-2.9,0.1c1.8,0,1.8-0.1,1.9-0.2
						l-2.9,0C310.8,116.9,312.7,117.3,315.3,117.3z"/>
					<path style="fill:none;stroke:#099788;stroke-width:0;stroke-linecap:round;stroke-linejoin:round;" d="M306.2,117.4l3-0.2
						C310,117.4,307.3,117.4,306.2,117.4z"/>
					<path style="fill:#099788;" d="M301.8,117.1c0.7-0.1,3.6,0,1.8-0.1c0.5,0,1,0,1.6,0C303.3,117,305.1,117.3,301.8,117.1z"/>
					<path style="fill:#099788;" d="M305.2,117c0.2,0,0.5,0,0.8,0C305.8,117,305.5,117,305.2,117z"/>
					<path style="fill:none;stroke:#099788;stroke-width:0;stroke-linecap:round;stroke-linejoin:round;" d="M336.4,116
						c-0.4,0-0.3-0.1-0.2-0.1L336.4,116z"/>
					<path style="fill:#099788;" d="M295.8,116.9l-1.1,0c0.3,0,0.6,0,0.9,0L295.8,116.9z"/>
					<path style="fill:#099788;" d="M388.4,114.9c-3.9-0.1-7.6-0.1-13.2,0c0.1,0.3-2.3,0.1-2.6,0.4c5.8,0-21.9,0.2-17.3,0.3l1.4-0.1
						l-1.4,0.3c-2.8-0.1-6.6-0.3-8.5-0.1c-0.5-0.1,23.8,0,22.9-0.1c2.2,0.3-32.6,0.3-33.5,0.5l-0.4-0.2c-4.3,0.2-7.1,0.4-10.7,0.6
						l-0.8-0.2c2.7,0.1,3.4-0.1,6.1-0.2c-4.7,0-5.6-0.1-9.1,0c0.1,0.3,3.1,0.1-1.4,0.3c-1.3-0.1,1.7-0.4-2.3-0.4
						c-4.9-0.1-3.9,0.3-8.2,0.4l2.9,0.1c-1.6,0-4.5,0.1-6-0.1c1.8,0,6.3-0.1,6.2-0.4c-1.8,0.1-5.8,0-7.4,0l1-0.2
						c-1.7-0.2-2.7,0.1-4.9-0.1c-2.1,0.1,1.2,0.3,0.1,0.4c-0.4-0.1-4.4-0.2-5.8,0c1,0.4,4.7-0.1,7.3,0.3l-3.8-0.1
						c-2.4,0.4,6,0,4.8,0.3c-2.8,0.4-5.9-0.4-8.5,0.1c1.7,0.1,7.3,0.1,6.6,0.3c-2-0.1-3.4,0.1-6.1,0.2l-3.3-0.2
						c-1.4,0.1-0.3,0.1,0.8,0.2c-4.8-0.2-13,0-19.8-0.2c-4,0.1-0.5,0.2-2.3,0.3c-2.2-0.2-5.8,0-8,0c-0.7,0-1.9,0.2-1.2,0.3l5.6-0.2
						c-0.3,0.1,0.6,0.3,2.6,0.3c-1.4-0.5,7.9,0.3,8.4-0.2l-0.1,0.2l7.2-0.2l-0.2,0c0,0.1,6.1-0.2,10.1-0.1c-1.1,0.1-7.8,0-3.9,0.3
						c-3,0.1-8.2-0.1-13.6,0l1.1,0.2c-5.7,0.2-13.2-0.1-19.4,0l1.9-0.2c-2.2-0.1-5-0.3-7.1-0.1c2.7,0,1.3,0.1,0.8,0.2
						c-3.6,0.1-8.9,0-13.9,0.1c0,0,0.2,0,0-0.1l-5.2,0.1c-2.5,0-3.3-0.2-4.8-0.3c-0.9,0-3.1,0-2.3,0.2c0.5,0,1,0,1.3,0
						c-2.6,0.2-1.8-0.1-5.1,0.1c2.5-0.2-0.8-0.3-0.5-0.5c-3.8,0.1-0.4,0.4-0.8,0.5c-4.7-0.1-5.3-0.3-9.9-0.3
						c-0.3,0.1,3.3,0.1,3.7,0.2c-1.3,0-2.9,0-3.1,0l2.9,0.1c-4.9-0.2-9.5-0.2-14.9-0.1l0.4,0.1l-3.4,0l1.2-0.2
						c-1.8,0.1-3.7-0.2-4.7,0l0.7,0l-2.3,0.1l2.3-0.2c-2.9-0.1-6.8,0.4-11.5,0.3c-1-0.3,8.1-0.1,8.7-0.5c-1.5-0.1-4.2-0.1-5.1,0
						c0.2,0.1,1.3,0.1,2.4,0.1c-4.1,0.2-10.2-0.1-12.8,0.2l3.1,0.1c-3.6,0-5.9-0.4-7.1-0.2l2.8-0.4c-3.6,0.2-8.3,0.2-11.7,0.3
						c-0.1,0.2,4.9,0,4.7,0l-1.6,0.2c-5.3-0.1-1.5-0.1-7.9-0.3l-0.1,0.2c-2.1-0.2-7.9,0.2-5.7-0.2l1.7,0.1l-0.1-0.2l-7.4,0.1
						c0.7-0.1-2.9-0.1-1.9-0.3L144,117c-1.2-0.3,5-0.3,5.3-0.5c-0.1-0.1-1.4-0.1-2-0.1c3.3-0.2,4.9,0.3,8.2,0.3l1.6-0.2l-0.1,0.2
						c1.4,0,2.5-0.2,3-0.3c3.2,0.3,6.7-0.1,11.6,0c-4.1,0.1,2.6,0.2,1.9,0.3c2.2,0,7.8-0.4,9.7-0.1c1.3,0.1-2.7,0.2,0.4,0.2
						c2,0,3.4-0.2,2.1-0.3c4.5-0.1,9.8,0,14.8,0l-1.2,0.2c3.1,0.1,6.1-0.1,7.7-0.3c0.4,0.1,0.7,0,0.2,0.1c3.9,0.3,5-0.3,11.5-0.3
						c-0.4-0.2-3.3-0.2-5.3-0.1l0.5-0.3c-5.6,0-11.9,0-16.4,0.2l2.1-0.2c-3.9-0.3-2.8,0.3-6.5-0.1c-2.7,0.1,2,0.1-0.1,0.2
						c-1.9-0.1,0.5-0.4-2.7-0.5c12.1-0.1,25.8-0.1,38.5-0.2c0.2,0-0.4-0.1-1.1-0.1c4.4-0.3,39.6,0.6,40.7-0.1
						c0.6,0.1-1.4,0.2,1.3,0.2c0.2,0,0.9-0.1,0.3-0.2c6.8,0.4,15.9,0,24.1,0.2c-0.2-0.1,1.6-0.2,1.7-0.3c2.8,0.3,7.6,0,10.2,0.1
						l-0.9-0.1l8.3,0c0.2,0-0.9,0-1.5-0.1c1.8-0.1,2.2,0.1,2.4,0.2l3.7-0.3c10.8,0.5,24.2-0.3,36.6,0c1.9-0.2,3.5-0.3,6.6-0.3
						l-1.5-0.1c3.2-0.2,0.2,0.1,2.9,0c1.8-0.1,0.6-0.3-1.9-0.2c-1.6-0.1-0.6-0.2,0.5-0.2C371.1,114.3,380.3,114.5,388.4,114.9z"/>
					<path style="fill:#099788;" d="M11.2,114c1.1,0.1-4.3,0.1-1.7,0.3c8.3,0.4,21.9,0.1,31.8,0.4c2.6,0.2,3.3,0.2,5.7,0.3
						c0,0,0.1-0.1-0.1-0.1c2.7,0,7,0,9.7,0.1c0.8,0,1.3-0.2-0.1-0.2c4.1-0.2,7,0.3,9.4,0.2c-2-0.1,2-0.2-0.4-0.3
						c4.3,0,3.9,0.6,7.3,0.7c0.2,0,0.4-0.1-0.3-0.1c3.7,0.3,11.3-0.2,11.7,0.3l1.5-0.2c1.6,0.1,1.2,0.2,3.9,0.3
						c1.8-0.1-0.1-0.2,0.6-0.2c0.7,0.2,5.5,0.1,7.6,0.3c0.1,0.3-3.8-0.4-6-0.1c-0.1,0.1,0.2,0.1,0.7,0.1c-11.2-0.1-19.8-0.8-29-0.6
						c-2-0.2-3.6,0-4.5,0.2c1.7,0.1,6.4,0.3,6.5-0.1l2.9,0.2c1.1,0,1.1,0.4,1.5,0.4c-2,0-4.3,0.3-1.6,0.5c-5.3,0,1.7-0.8-3-0.7
						l-0.7,0.3c0.9-0.1-3.2-0.3-4.7-0.2l0.6,0.1c-12.6-0.1-29.4,0-43.4,0.1c-3.4-0.7-10.2,0.2-13.4-0.3c-1.5,0.1,2.2,0.2-0.8,0.3
						c-1.5,0-1.6-0.1-1.5-0.2c-0.4,0-0.9,0-1.3,0.1C-0.8,115,1.7,114.5,11.2,114z"/>
				</g>
			</g>
		</g>
	</g>
</g>
<g>
</g>
<g>
</g>
<g>
</g>
<g>
</g>
<g>
</g>
<g>
</g>
</svg>
