<?xml version="1.0" encoding="utf-8"?>
<!-- Generator: Adobe Illustrator 19.0.0, SVG Export Plug-In . SVG Version: 6.00 Build 0)  -->
<svg version="1.1" id="Layer_1" xmlns="http://www.w3.org/2000/svg" xmlns:xlink="http://www.w3.org/1999/xlink" x="0px" y="0px"
	 viewBox="0 0 389.8 582" style="enable-background:new 0 0 389.8 582;" xml:space="preserve">
<g>
	<circle style="fill:#099788;" cx="195.3" cy="200" r="194.4"/>
	<g>
		<rect x="0.9" y="453.5" style="fill:none;" width="388.7" height="67.9"/>
		<path style="fill:#099788;" d="M6.2,506.3c0-1.7,0.1-5.1,0.2-10.1c0.1-5,0.2-8.4,0.2-10.1c0-4.2-0.1-9.7-0.3-16.7
			c-0.2-6.9-0.3-12.5-0.3-16.7v-0.5c0-0.8,0-1.5,0.1-2c0.1-0.6,0.2-1.2,0.4-1.9c0.2-0.7,0.5-1.3,0.9-1.7c0.5-0.4,1-0.6,1.7-0.6
			c2.6,0,4.8,0.6,6.6,1.7c1.9,1.1,3.3,2.7,4.3,4.7c1,2,1.5,4.4,1.5,7c0,1.6-0.3,3.3-0.9,5.1c-0.6,1.8-1.4,3.5-2.4,5
			c-1,1.5-2.1,2.7-3.3,3.6c3.2,2.1,5.5,4.9,7,8.3c1.5,3.4,2.3,7.1,2.3,11.1c0,2-0.6,4.3-1.9,7.1c-0.8,1.7-1.7,3.1-2.7,4.3
			s-2.3,2.2-3.8,3c-1.7,0.9-3.4,1.3-5.4,1.3h-0.3C7.5,508.3,6.2,507.7,6.2,506.3z M12.8,470.9c0.6-0.6,1.2-1.4,1.7-2.4
			c0.8-1.6,1.6-3.4,2.3-5.6c0.3-1.1,0.6-1.8,0.8-2.2v-2.9c0-1.1-0.3-2.1-0.8-3.2c-0.6-1.1-1.3-2-2.2-2.7c-0.9-0.7-1.9-1.1-2.8-1.1
			c-0.8,0-1.2,0.9-1.2,2.6c0,2.7,0.1,5.9,0.2,9.6c0.1,3.7,0.2,6.8,0.2,9.2C11.5,471.9,12.2,471.6,12.8,470.9z M15.9,502.1
			c1.3-1,2.3-2.4,3-3.9c0.7-1.6,1.1-3.3,1.1-5.3c0-2.5-0.2-4.8-0.6-6.9c-0.4-2.1-0.9-3.7-1.6-4.8c-0.6-1-1.2-1.9-1.8-2.6
			c-0.6-0.7-1.1-1.2-1.6-1.4l-0.6-0.3h-2.9c0.3,7.2,0.4,16.3,0.4,27.2C13,503.8,14.5,503.1,15.9,502.1z"/>
		<path style="fill:#099788;" d="M42.1,507.1c-0.4-0.3-0.6-0.9-0.6-1.6v-10.7c-0.7-0.5-2-1-4-1.3c-1.9-0.4-3.8-0.6-5.6-0.7
			c-0.5,0.9-1,2.3-1.4,4.2l-0.2,1.2c-0.4,2.2-0.8,4-1.2,5.3c-0.3,1.4-0.8,2.5-1.3,3.3c-2.1,0-3.3-0.5-3.6-1.6c0.5-0.7,1.2-3.3,2-7.7
			c0.7-3.8,1.6-8.8,2.7-15c1.2-7.3,2.3-13.4,3.4-18.3c1-5,2.1-9.1,3.2-12.5c1.2-3.8,2.4-5.7,3.6-5.7c1.2,0,2.1,0.2,2.6,0.7
			c0,2,0.5,7.3,1.6,15.8c1.1,8.5,1.6,14.1,1.6,16.8c0,2.6,0.3,6.7,0.9,12.4c0.6,5.9,0.8,10.3,0.8,13.2c0,1.8-0.9,2.8-2.7,2.8
			C43.2,507.6,42.5,507.5,42.1,507.1z M41.4,489.8c-0.1-1.2-0.4-4.2-0.8-8.9c-1.3-12.7-1.9-20.2-1.9-22.7c0-0.4,0-0.6,0-0.7
			c-0.5,0.5-1.3,3-2.2,7.4s-1.9,9.1-2.7,14.2c-0.8,5.1-1.3,8.4-1.4,10c2.3,0.6,4.8,0.9,7.3,0.9C40.2,490,40.8,489.9,41.4,489.8z"/>
		<path style="fill:#099788;" d="M50.5,505.1c0-1.3,0.8-2,2.5-2c0.4,0,0.7,0,1,0l0.8,0.1c0.4,0,0.7-0.1,0.9-0.4s0.3-0.8,0.3-1.5
			c0-4.4-0.3-10.8-0.8-19c-0.5-8.2-0.8-14.5-0.8-18.9l0.1-4.2l0.1-4.2c0-1.6-0.1-3.1-0.2-4.6c-0.7,0.2-1.4,0.4-1.9,0.4
			c-1.3,0-1.9-0.7-1.9-2c0-0.6,0.4-1.2,1.2-1.7c0.8-0.5,1.8-0.9,3.1-1.1c2.2-0.4,4.2-0.6,5.8-0.6c0.6,0,1.2,0.2,1.7,0.7
			s0.7,1,0.7,1.6c0,0.6-0.2,1.1-0.5,1.5c-0.4,0.4-0.8,0.7-1.4,0.7c-0.3,0-0.6,0-0.8,0h-0.6c-0.6,0-1,0.1-1.2,0.4s-0.4,0.7-0.4,1.3
			c0,5.6,0.3,13.5,1,24c0.7,10.4,1,18.4,1,24v3.2c0.6-0.1,1.1-0.1,1.7-0.1c2.3,0,3.4,1,3.4,2.9v0.5l-2,1.4l-2.2,0.1
			c-1.3,0.1-2.4,0.1-3.4,0.1C52.8,507.5,50.5,506.7,50.5,505.1z M53.3,443c-0.3-0.2-0.4-0.5-0.4-0.8c0-0.3,0.1-0.5,0.4-0.8
			c1.2-1.2,3.2-2.9,5.9-5.2c2.5-2.1,4.2-3.5,4.8-4.2c0.3-0.1,0.5-0.2,0.7-0.2c0.6,0,1.2,0.3,1.8,1c0.6,0.7,0.9,1.4,0.9,2.1
			c0,0.6-0.2,1-0.6,1.3c-2.2,1.6-6.2,3.9-11.9,6.9c-0.2,0.1-0.4,0.2-0.7,0.2C53.9,443.3,53.5,443.2,53.3,443z"/>
		<path style="fill:#099788;" d="M83.7,507.1c-0.4-0.3-0.6-0.9-0.6-1.6v-10.7c-0.7-0.5-2-1-4-1.3c-1.9-0.4-3.8-0.6-5.6-0.7
			c-0.5,0.9-1,2.3-1.4,4.2l-0.2,1.2c-0.4,2.2-0.8,4-1.2,5.3c-0.3,1.4-0.8,2.5-1.3,3.3c-2.1,0-3.3-0.5-3.6-1.6c0.5-0.7,1.2-3.3,2-7.7
			c0.7-3.8,1.6-8.8,2.7-15c1.2-7.3,2.3-13.4,3.4-18.3c1-5,2.1-9.1,3.2-12.5c1.2-3.8,2.4-5.7,3.6-5.7c1.2,0,2.1,0.2,2.6,0.7
			c0,2,0.5,7.3,1.6,15.8c1.1,8.5,1.6,14.1,1.6,16.8c0,2.6,0.3,6.7,0.9,12.4c0.6,5.9,0.8,10.3,0.8,13.2c0,1.8-0.9,2.8-2.7,2.8
			C84.7,507.6,84.1,507.5,83.7,507.1z M83,489.8c-0.1-1.2-0.4-4.2-0.8-8.9c-1.3-12.7-1.9-20.2-1.9-22.7c0-0.4,0-0.6,0-0.7
			c-0.5,0.5-1.3,3-2.2,7.4s-1.9,9.1-2.7,14.2c-0.8,5.1-1.3,8.4-1.4,10c2.3,0.6,4.8,0.9,7.3,0.9C81.8,490,82.4,489.9,83,489.8z"/>
		<path style="fill:#099788;" d="M106.2,507.1c-0.8-0.5-1.2-1.2-1.2-2.1c1.2-1.3,1.8-4.5,1.8-9.6c0-3.2-0.3-7.7-0.8-13.6
			c-0.5-5.8-0.8-10.3-0.8-13.5c0-1,0-2.4,0.1-4.4s0.1-3.5,0.1-4.5c0-1.5-0.3-3.5-0.9-5.8c-0.6-2.5-0.9-4.2-0.9-5.2
			c0-1.9,2.1-2.8,6.3-2.8h1.2c1.5,0,2.9,0.2,4.3,0.7c1.3,0.5,2.5,1.2,3.5,2c0.9,0.7,1.7,1.7,2.5,2.9c0.8,1.2,1.4,2.4,1.9,3.7
			c0.5,1.1,0.9,2.4,1.2,3.9c0.4,1.5,0.6,2.9,0.9,4.2c0.1,1.1,0.3,2.3,0.4,3.7c0.1,1.4,0.2,2.6,0.2,3.5v2.6v3.8
			c-0.1,0.2-0.2,0.5-0.2,0.7c0,0.3,0,0.6,0.1,1l0.1,0.8c0,1.8-0.3,3.8-0.8,6.2s-1.3,4.9-2.3,7.4c-1.1,2.9-2.4,5.4-3.7,7.5
			c-1.3,2.1-2.9,3.9-4.6,5.3c-1.8,1.5-3.7,2.2-5.6,2.2C107.9,507.9,107,507.6,106.2,507.1z M116.1,497.6c1.5-2.4,2.7-5,3.5-7.9
			c1.5-5.4,2.2-10.8,2.2-16.2c0-3-0.3-6.2-0.8-9.6c-0.6-3.4-1.9-6.4-3.8-9.2c-0.9-1.3-2.1-2.3-3.5-3c-1.5-0.7-3.1-1.1-4.9-1.1v0.1
			c0,5.1,0.3,12.6,1,22.3c0.6,9.9,1,17.4,1,22.4v7.8C112.8,501.8,114.5,499.9,116.1,497.6z"/>
		<path style="fill:#099788;" d="M138.6,508.5c-1.2-1-2.3-2.3-3.1-4c-0.8-1.5-1.5-3.4-2.1-5.6c-0.6-2.2-1.1-4.4-1.4-6.6
			c-0.3-1.9-0.6-4-0.8-6.3s-0.3-4.3-0.4-6.1c-0.1-2-0.1-3.5-0.1-4.3c0-1.5,0-3,0-4.4l-0.1-5.2c0-3.3,0.1-6.2,0.4-8.7
			c0.3-2.9,0.8-5.5,1.7-7.7c0.5-1.2,1-2.1,1.6-2.9c0.6-0.8,1.3-1.4,2.2-1.9c0.9-0.5,1.9-0.7,2.9-0.7c1.4,0,2.7,0.3,3.9,0.9
			c1.2,0.6,2.2,1.4,3,2.6c0.9,1.2,1.6,2.5,2.2,3.9c0.6,1.4,1.1,2.9,1.5,4.7c0.4,2.1,0.8,4,1,5.6c0.2,1.6,0.4,3.4,0.5,5.4
			c0.2,4,0.3,7.7,0.3,10.9v4.7c0,1.2-0.1,2.9-0.4,5.2c-0.2,2.3-0.4,4-0.4,5.1v0.4c-0.3,1.5-0.5,3.3-0.5,5.4c0,1.5-0.3,3.1-1,4.7
			c-0.6,1.6-1.6,3-2.8,4.2c-1.2,1.3-2.6,1.9-4.1,1.9C141.2,509.9,139.8,509.4,138.6,508.5z M145.6,502.4c0.7-1.8,1.2-4.1,1.5-6.7
			s0.6-5.6,0.8-8.7c0.1-1.9,0.2-3.7,0.2-5.4c0-2.5,0-5-0.1-7.6c-0.1-2.9-0.5-6.6-1-11.1c-0.5-3.7-1.3-7-2.4-10
			c-0.6-1.4-1.2-2.5-2.1-3.2c-0.8-0.7-1.7-1.1-2.7-1.1c-1.3,0-2.3,1.1-3,3.2c-0.8,2.4-1.4,4.9-1.6,7.4c-0.3,3.3-0.5,6-0.6,8.3l0,1.5
			c-0.1,2.6-0.1,4-0.1,4.3v0.4c0,3.6,0.4,8.1,1.1,13.5c0.5,3.5,1,6.5,1.6,9.1s1.4,4.7,2.3,6.5c1,1.9,2.1,2.8,3.4,2.8
			C143.9,505.5,144.8,504.4,145.6,502.4z"/>
		<path style="fill:#099788;" d="M156.5,508.4c-0.9-0.4-1.3-1-1.3-1.7c0-0.6,0.2-1.2,0.5-1.6c0.3-0.4,0.8-0.6,1.4-0.6
			c0.6,0,1.5,0.2,2.4,0.6c1,0.4,1.7,0.6,2.1,0.6c1,0,2-0.5,2.8-1.4c0.9-0.9,1.6-2.1,2.1-3.5c0.5-1.3,0.8-2.7,1.1-4
			c0.3-1.3,0.4-2.5,0.4-3.4c0-2.3-0.4-4.8-1.1-7.4c-0.7-2.6-1.7-5.1-3-7.6l-1.2-2.3c-1.3-2.5-2.4-4.7-3.2-6.4
			c-0.8-1.7-1.5-3.6-2.1-5.5c-0.8-2.6-1.2-5.2-1.2-7.6c0-2,0.3-3.8,1-5.6c0.7-1.7,1.7-3.2,3.1-4.5c1.4-1.3,3.1-1.9,5-1.9
			c1,0,1.9,0.3,2.9,0.8c0.9,0.6,1.6,1.3,2,2.1l-1.4,1.8c-1.4,0-2.4-0.3-3.2-0.8c-1,0.1-1.8,0.6-2.6,1.4c-0.8,0.8-1.3,1.8-1.6,2.9
			c-0.3,1.1-0.5,2.1-0.5,3.1c0,2.1,0.3,4.3,0.8,6.4c0.6,2.2,1.3,4.2,2.2,6l0.6,1.2c2.6,5,4.3,8.5,5.1,10.3c0.9,1.9,1.7,4.2,2.2,6.6
			c0.6,2.5,0.8,4.9,0.8,7.4c0,1.7-0.2,3.4-0.7,5.2s-1.1,3.4-2,5c-0.9,1.6-2.1,2.9-3.6,3.9s-3.1,1.4-4.9,1.4
			C159.6,509.5,157.9,509.1,156.5,508.4z"/>
		<path style="fill:#099788;" d="M197.9,509.1c-1.3-0.5-2.4-1.1-3.3-2c-0.9-0.7-1.7-1.7-2.4-2.9c-0.7-1.2-1.4-2.5-1.9-3.9
			c-0.5-1.1-0.8-2.5-1.2-4.1c-0.3-1.6-0.6-3.2-0.8-4.7c-0.2-1.3-0.3-2.7-0.4-4.5s-0.2-3.1-0.2-4.2c0-0.7,0-1.9,0-3.7v-2.8
			c0-0.9,0-2,0-3.2c0-2.6,0.1-5.4,0.3-8.4c0.2-2.9,0.6-5.7,1.3-8.6c0.4-1.5,0.8-2.8,1.3-3.9c0.5-1.1,1.1-2.2,1.8-3.3
			c0.7-1.1,1.5-2,2.4-2.7c0.9-0.7,1.9-1.3,3.1-1.7c1.1-0.4,2.4-0.6,3.9-0.6c2.3,0,3.4,0.8,3.4,2.3c0,0.6-0.2,1-0.6,1.4
			c-0.4,0.4-0.9,0.5-1.5,0.5c-0.2,0-0.6-0.1-1.2-0.2c-0.6-0.1-1-0.2-1.2-0.2c-1,0-1.9,0.3-2.8,0.9c-0.8,0.6-1.5,1.5-2.1,2.7
			c-0.6,1.3-1.1,2.7-1.6,4c-0.4,1.4-0.7,2.9-1,4.6c-0.3,2.2-0.6,4-0.7,5.4c-0.1,1.4-0.2,2.9-0.3,4.6c-0.1,2.5-0.2,5.1-0.2,7.8v2.2
			c0,0.7,0,1.7,0,2.8c0,1.7,0,3.1,0.1,4.2c0,1.2,0.1,2.5,0.3,4c0.2,1.7,0.4,3.1,0.7,4.4c0.3,1.3,0.7,2.5,1.1,3.8
			c0.5,1.3,1.1,2.4,1.8,3.3c0.7,0.9,1.5,1.5,2.6,2.1c1,0.6,2.1,0.8,3.4,0.8c2.4,0,4.4-1.1,6-3.4c0-1.8-0.2-3.7-0.4-5.5
			c-0.2-1.9-0.5-3.1-0.9-3.8l-1.3,0.2c-0.7,0.1-1.4,0.2-1.9,0.2c-1.9,0-2.8-0.8-2.8-2.3c0-0.5,0.3-1,0.8-1.3
			c0.6-0.4,1.3-0.7,2.2-0.9c1.6-0.3,3-0.5,4.1-0.5c1.1,0,1.9,0.4,2.6,1.2c0.6,0.8,0.9,1.9,0.9,3.1c0,1.6,0.3,4.1,0.8,7.3
			c0.5,3.3,0.8,5.8,0.8,7.3c0,0.6-0.2,1.2-0.6,1.6c-0.4,0.4-0.9,0.6-1.4,0.6c-1.4,0-2.3-0.6-2.7-1.7v-0.1c-0.2,0.1-0.8,0.4-1.8,0.9
			c-0.9,0.5-1.7,0.9-2.3,1.1c-0.6,0.2-1.3,0.3-1.9,0.3C200.6,509.8,199.2,509.6,197.9,509.1z"/>
		<path style="fill:#099788;" d="M221.9,508.5c-1.2-1-2.3-2.3-3.1-4c-0.8-1.5-1.5-3.4-2.1-5.6c-0.6-2.2-1.1-4.4-1.4-6.6
			c-0.3-1.9-0.6-4-0.8-6.3c-0.2-2.3-0.3-4.3-0.4-6.1c-0.1-2-0.1-3.5-0.1-4.3c0-1.5,0-3,0-4.4l-0.1-5.2c0-3.3,0.1-6.2,0.4-8.7
			c0.3-2.9,0.8-5.5,1.7-7.7c0.5-1.2,1-2.1,1.6-2.9c0.6-0.8,1.3-1.4,2.2-1.9c0.9-0.5,1.9-0.7,2.9-0.7c1.4,0,2.7,0.3,3.9,0.9
			c1.2,0.6,2.2,1.4,3,2.6c0.9,1.2,1.6,2.5,2.2,3.9c0.6,1.4,1.1,2.9,1.5,4.7c0.4,2.1,0.8,4,1,5.6c0.2,1.6,0.4,3.4,0.5,5.4
			c0.2,4,0.3,7.7,0.3,10.9v4.7c0,1.2-0.1,2.9-0.4,5.2c-0.2,2.3-0.4,4-0.4,5.1v0.4c-0.3,1.5-0.5,3.3-0.5,5.4c0,1.5-0.3,3.1-1,4.7
			c-0.6,1.6-1.6,3-2.8,4.2c-1.2,1.3-2.6,1.9-4.1,1.9C224.5,509.9,223.2,509.4,221.9,508.5z M228.9,502.4c0.7-1.8,1.2-4.1,1.5-6.7
			s0.6-5.6,0.8-8.7c0.1-1.9,0.2-3.7,0.2-5.4c0-2.5,0-5-0.1-7.6c-0.1-2.9-0.5-6.6-1-11.1c-0.5-3.7-1.3-7-2.4-10
			c-0.6-1.4-1.2-2.5-2.1-3.2c-0.8-0.7-1.7-1.1-2.7-1.1c-1.3,0-2.3,1.1-3,3.2c-0.8,2.4-1.4,4.9-1.6,7.4c-0.3,3.3-0.5,6-0.6,8.3l0,1.5
			c-0.1,2.6-0.1,4-0.1,4.3v0.4c0,3.6,0.4,8.1,1.1,13.5c0.5,3.5,1,6.5,1.6,9.1c0.6,2.6,1.4,4.7,2.3,6.5c1,1.9,2.1,2.8,3.4,2.8
			C227.2,505.5,228.1,504.4,228.9,502.4z"/>
		<path style="fill:#099788;" d="M242.1,507.8c-0.6-0.5-0.8-1.1-0.8-1.8c0-0.5,0.1-1.1,0.3-1.8c0.2-0.8,0.2-1.4,0.2-1.8
			c0-5.9-0.3-15.2-0.8-28c-0.6-12.4-0.8-21.7-0.8-27.9c0-0.5,0.2-0.9,0.6-1.2c0.4-0.3,0.9-0.5,1.4-0.5c0.7,0,1.2,0.2,1.7,0.7
			c0.5,0.5,0.7,1,0.7,1.7c0,3,0.1,7.9,0.4,14.8c0.3,6.2,0.4,11.2,0.4,14.7l0.1,1c0,0.3,0,0.6,0,1c0,0.3,0,0.5,0,0.6v0.4
			c0.2,5.1,0.3,12.2,0.3,21.4v2.1h6.2c1.2,0.8,1.8,1.6,1.8,2.4c0,0.6-0.2,1.2-0.6,1.6c-0.4,0.5-0.9,0.7-1.5,0.7
			c-0.3,0-0.5-0.1-0.8-0.2l-0.4-0.1c-0.4,0.1-0.9,0.2-1.6,0.2l-1.3-0.1c-0.4,0-0.8,0-1.3,0c-0.6,0.7-1.3,1-2.3,1
			C243.3,508.6,242.7,508.3,242.1,507.8z"/>
		<path style="fill:#099788;" d="M258.7,502.5c0-3.7-0.1-9.8-0.4-18.3c-0.3-8.5-0.6-16.2-1-23.1c-0.4-6.9-0.8-10.6-1.1-11.2
			c0-0.8,0.2-1.5,0.5-2.1c0.3-0.6,0.8-1.1,1.3-1.4c0.5-0.3,1.1-0.5,1.9-0.7c0.8-0.2,1.5-0.3,2.1-0.3c0.4,0,1.1,0,2.1,0
			c1.2,0,2.1,0.2,2.7,0.6s0.8,1.1,0.8,2.2c0,0.6-0.2,1-0.7,1.3c-0.4,0.3-1,0.5-1.6,0.5l-0.8,0c-0.3,0-0.7,0-1.2,0
			c-1.5,0-2.3,0.3-2.3,0.9c0,2.5,0.2,6.2,0.6,11.1c0.4,4.7,0.6,8.4,0.6,10.9c0.1,0,0.7-0.2,1.8-0.5c1.1-0.3,2.1-0.4,2.8-0.4
			c0.6,0,1.1,0.3,1.6,0.8c0.4,0.5,0.7,1.1,0.7,1.7c0,0.8-0.3,1.3-1,1.6c-0.5,0.2-0.8,0.4-1.2,0.5s-0.7,0.2-1.2,0.3
			c-0.9,0.1-1.7,0.2-2.5,0.2l-0.9,0c0,2.8,0.3,7.2,0.8,13.3c0.5,5.8,0.8,10.2,0.8,13.4l-0.1,0.3l-0.1,0.2c0.1,0.3,0.2,0.6,0.2,1
			c0,0.7-0.3,1.3-0.8,1.7c-0.5,0.4-1.2,0.6-2,0.6C259.5,507.7,258.7,506,258.7,502.5z"/>
		<path style="fill:#099788;" d="M272.4,505.1c0-1.3,0.8-2,2.5-2c0.4,0,0.7,0,1,0l0.8,0.1c0.4,0,0.7-0.1,0.9-0.4
			c0.2-0.3,0.3-0.8,0.3-1.5c0-4.4-0.3-10.8-0.8-19c-0.5-8.2-0.8-14.5-0.8-18.9l0.1-4.2l0.1-4.2c0-1.6-0.1-3.1-0.2-4.6
			c-0.7,0.2-1.4,0.4-1.9,0.4c-1.3,0-1.9-0.7-1.9-2c0-0.6,0.4-1.2,1.2-1.7c0.8-0.5,1.8-0.9,3.1-1.1c2.2-0.4,4.2-0.6,5.8-0.6
			c0.6,0,1.2,0.2,1.7,0.7s0.7,1,0.7,1.6c0,0.6-0.2,1.1-0.5,1.5c-0.4,0.4-0.8,0.7-1.4,0.7c-0.3,0-0.6,0-0.8,0h-0.6
			c-0.6,0-1,0.1-1.2,0.4s-0.4,0.7-0.4,1.3c0,5.6,0.3,13.5,1,24c0.7,10.4,1,18.4,1,24v3.2c0.6-0.1,1.1-0.1,1.7-0.1
			c2.3,0,3.4,1,3.4,2.9v0.5l-2,1.4l-2.2,0.1c-1.3,0.1-2.4,0.1-3.4,0.1C274.8,507.5,272.4,506.7,272.4,505.1z"/>
		<path style="fill:#099788;" d="M304.9,492c-3.5-11.9-6.8-23.9-9.9-36.3v26.9c0,2.6,0.2,6.5,0.6,11.7c0.4,5.4,0.6,9.3,0.6,11.7
			c0,0.5-0.3,0.9-0.9,1.2c-0.6,0.3-1.3,0.5-2,0.5c-1.2,0-1.8-0.4-1.8-1.3c0-0.2,0.1-1,0.2-2.4c0.1-1.4,0.2-2.6,0.2-3.4
			c0-3-0.2-7.6-0.5-13.8c-0.3-6.1-0.5-10-0.5-11.7v-10.5c0-1.9,0.1-4.4,0.3-7.5c0.2-3.1,0.3-5.6,0.3-7.5v-0.5c0-2.7,0.6-4.1,1.8-4.1
			c0.7,0,1.7,1.2,2.8,3.6c1.8,4,4.1,11,6.8,21.1c1.5,5.8,3.4,13.4,5.6,22.8l1.3,5.7l0.1,0.4c0-3.9,0.1-8.6,0.2-14.3
			c0.1-5.7,0.2-10.4,0.2-14.3v-24.3c0.3-1.4,1.2-2,2.7-2c1.5,0,2.2,1.1,2.2,3.2v0.5c-0.3,0.7-0.5,1.5-0.5,2.4
			c0,3.3-0.1,8.4-0.2,15.1c-0.2,6.3-0.3,11.4-0.3,15.2v25.1c0,0.9-0.2,1.7-0.7,2.5s-1,1.2-1.7,1.2
			C310.4,508.9,308.2,503.2,304.9,492z"/>
		<path style="fill:#099788;" d="M333.7,508.1c-0.3-0.5-0.5-1.2-0.5-2c0-10.4-0.2-20-0.7-28.9c-1.4-0.3-2.3-0.4-2.7-0.4
			c-2.3,0-3.9,0.2-4.8,0.6c0,2.9,0.2,7.5,0.7,13.8c0.5,6.4,0.7,11,0.7,14c0,0.6-0.2,1.1-0.5,1.5c-0.3,0.4-0.8,0.7-1.3,0.7
			c-0.7,0-1.4-1.3-1.9-3.8c-0.5-2.2-1-5.3-1.3-9.3s-0.6-8.6-0.8-14c-0.3-6.9-0.5-15.5-0.6-25.9c0-1.7,0-4.1,0-7.2
			c0-1,0.5-1.5,1.4-1.5c0.5,0,1,0.1,1.6,0.4c0.6,0.3,1,0.6,1.3,0.9c-0.2,1.8-0.3,3.9-0.3,6.2c0,2.1,0.1,4.9,0.3,8.4
			c0.2,3.5,0.3,6.3,0.3,8.4c0,0.6,0,1.1,0,1.5c0,0.5,0,1,0,1.6c0,0.9,0.1,1.6,0.2,2.1c1.3-0.1,2.6-0.2,4-0.3c1.5-0.1,2.8-0.2,4-0.3
			c0-3.4-0.1-7.8-0.2-13.1c-0.1-5.3-0.2-9.9-0.2-13.8v-2.2c0.7,0,1.3,0.1,1.9,0.4c0.5,0.3,1,0.6,1.3,0.9c0.2,0.3,0.4,0.8,0.6,1.4
			c0.1,0.6,0.2,1.2,0.3,1.7c0,0.3,0,0.9,0,1.8c0,5.7,0.3,14.7,0.8,27c0.5,11.7,0.8,20.8,0.8,27c0,0.7-0.2,1.4-0.7,2
			c-0.5,0.6-1,0.9-1.7,0.9C334.6,508.9,334.1,508.6,333.7,508.1z"/>
		<path style="fill:#099788;" d="M350.6,508.5c-1.2-1-2.3-2.3-3.1-4c-0.8-1.5-1.5-3.4-2.1-5.6c-0.6-2.2-1.1-4.4-1.4-6.6
			c-0.3-1.9-0.6-4-0.8-6.3c-0.2-2.3-0.3-4.3-0.4-6.1c-0.1-2-0.1-3.5-0.1-4.3c0-1.5,0-3,0-4.4l-0.1-5.2c0-3.3,0.1-6.2,0.4-8.7
			c0.3-2.9,0.8-5.5,1.7-7.7c0.5-1.2,1-2.1,1.6-2.9c0.6-0.8,1.3-1.4,2.2-1.9c0.9-0.5,1.9-0.7,2.9-0.7c1.4,0,2.7,0.3,3.9,0.9
			c1.2,0.6,2.2,1.4,3,2.6c0.9,1.2,1.6,2.5,2.2,3.9c0.6,1.4,1.1,2.9,1.5,4.7c0.4,2.1,0.8,4,1,5.6c0.2,1.6,0.4,3.4,0.5,5.4
			c0.2,4,0.3,7.7,0.3,10.9v4.7c0,1.2-0.1,2.9-0.4,5.2c-0.2,2.3-0.4,4-0.4,5.1v0.4c-0.3,1.5-0.5,3.3-0.5,5.4c0,1.5-0.3,3.1-1,4.7
			c-0.6,1.6-1.6,3-2.8,4.2c-1.2,1.3-2.6,1.9-4.1,1.9C353.2,509.9,351.9,509.4,350.6,508.5z M357.6,502.4c0.7-1.8,1.2-4.1,1.5-6.7
			s0.6-5.6,0.8-8.7c0.1-1.9,0.2-3.7,0.2-5.4c0-2.5,0-5-0.1-7.6c-0.1-2.9-0.5-6.6-1-11.1c-0.5-3.7-1.3-7-2.4-10
			c-0.6-1.4-1.2-2.5-2.1-3.2c-0.8-0.7-1.7-1.1-2.7-1.1c-1.3,0-2.3,1.1-3,3.2c-0.8,2.4-1.4,4.9-1.6,7.4c-0.3,3.3-0.5,6-0.6,8.3l0,1.5
			c-0.1,2.6-0.1,4-0.1,4.3v0.4c0,3.6,0.4,8.1,1.1,13.5c0.5,3.5,1,6.5,1.6,9.1c0.6,2.6,1.4,4.7,2.3,6.5c1,1.9,2.1,2.8,3.4,2.8
			C355.9,505.5,356.9,504.4,357.6,502.4z"/>
		<path style="fill:#099788;" d="M368.6,508.4c-0.9-0.4-1.3-1-1.3-1.7c0-0.6,0.2-1.2,0.5-1.6c0.3-0.4,0.8-0.6,1.4-0.6
			c0.6,0,1.5,0.2,2.4,0.6c1,0.4,1.7,0.6,2.1,0.6c1,0,2-0.5,2.8-1.4c0.9-0.9,1.6-2.1,2.1-3.5c0.5-1.3,0.8-2.7,1.1-4
			c0.3-1.3,0.4-2.5,0.4-3.4c0-2.3-0.4-4.8-1.1-7.4c-0.7-2.6-1.7-5.1-3-7.6l-1.2-2.3c-1.3-2.5-2.4-4.7-3.2-6.4
			c-0.8-1.7-1.5-3.6-2.1-5.5c-0.8-2.6-1.2-5.2-1.2-7.6c0-2,0.3-3.8,1-5.6c0.7-1.7,1.7-3.2,3.1-4.5c1.4-1.3,3.1-1.9,5-1.9
			c1,0,1.9,0.3,2.9,0.8c0.9,0.6,1.6,1.3,2,2.1l-1.4,1.8c-1.4,0-2.4-0.3-3.2-0.8c-1,0.1-1.8,0.6-2.6,1.4c-0.8,0.8-1.3,1.8-1.6,2.9
			c-0.3,1.1-0.5,2.1-0.5,3.1c0,2.1,0.3,4.3,0.8,6.4c0.6,2.2,1.3,4.2,2.2,6l0.6,1.2c2.6,5,4.3,8.5,5.1,10.3c0.9,1.9,1.7,4.2,2.2,6.6
			c0.6,2.5,0.8,4.9,0.8,7.4c0,1.7-0.2,3.4-0.7,5.2c-0.5,1.8-1.1,3.4-2,5c-0.9,1.6-2.1,2.9-3.6,3.9c-1.5,1-3.1,1.4-4.9,1.4
			C371.7,509.5,370,509.1,368.6,508.4z"/>
	</g>
	<g>
		<rect x="0.9" y="553.2" style="fill:none;" width="389.1" height="34.5"/>
		<path style="fill:#099788;" d="M103.8,555.4v1.6h-6v17.1H96V557h-6v-1.6H103.8z"/>
		<path style="fill:#099788;" d="M116.7,573.7c-0.5,0.1-1.2,0.3-2.1,0.5s-2,0.3-3.2,0.3c-1,0-1.9-0.2-2.6-0.5
			c-0.7-0.3-1.3-0.7-1.7-1.3c-0.4-0.6-0.7-1.2-0.9-2c-0.2-0.8-0.3-1.7-0.3-2.6v-7.8h1.8v7.3c0,1,0.1,1.8,0.2,2.5
			c0.1,0.7,0.4,1.2,0.7,1.7s0.7,0.7,1.3,0.9c0.5,0.2,1.1,0.3,1.9,0.3c0.8,0,1.5,0,2.2-0.1c0.6-0.1,1-0.2,1.2-0.2v-12.3h1.8V573.7z"
			/>
		<path style="fill:#099788;" d="M126.1,559.9c0.6,0,1.1,0,1.6,0.1c0.5,0.1,0.9,0.2,1.1,0.3l-0.4,1.5c-0.1-0.1-0.4-0.1-0.9-0.2
			c-0.4-0.1-1-0.1-1.7-0.1c-0.8,0-1.4,0.1-1.8,0.2s-0.8,0.2-0.9,0.3v12.2h-1.8v-13.3c0.5-0.2,1.1-0.4,1.9-0.6
			C124,560,125,559.9,126.1,559.9z"/>
		<path style="fill:#099788;" d="M133.6,556c0,0.4-0.1,0.7-0.4,1c-0.3,0.2-0.6,0.4-0.9,0.4c-0.4,0-0.7-0.1-0.9-0.4
			c-0.3-0.2-0.4-0.6-0.4-1s0.1-0.7,0.4-1c0.3-0.2,0.6-0.4,0.9-0.4c0.4,0,0.7,0.1,0.9,0.4C133.5,555.2,133.6,555.6,133.6,556z
			 M133.2,574.1h-1.8v-14h1.8V574.1z"/>
		<path style="fill:#099788;" d="M140.7,572.9c1,0,1.8-0.2,2.5-0.5c0.7-0.3,1-0.9,1-1.7c0-0.4-0.1-0.7-0.2-1
			c-0.1-0.3-0.3-0.5-0.6-0.7c-0.3-0.2-0.6-0.4-1.1-0.6c-0.4-0.2-1-0.4-1.6-0.7c-0.5-0.2-1-0.4-1.5-0.7s-0.9-0.5-1.2-0.8
			s-0.6-0.7-0.9-1.1c-0.2-0.4-0.3-0.9-0.3-1.5c0-1.1,0.4-2.1,1.3-2.8c0.9-0.7,2-1.1,3.5-1.1c1,0,1.7,0.1,2.4,0.2s1.1,0.3,1.3,0.4
			l-0.4,1.6c-0.2-0.1-0.6-0.3-1.1-0.4c-0.5-0.2-1.3-0.3-2.3-0.3c-0.4,0-0.8,0-1.1,0.1c-0.4,0.1-0.7,0.2-0.9,0.4s-0.5,0.4-0.6,0.6
			c-0.2,0.3-0.2,0.6-0.2,1s0.1,0.7,0.2,1c0.1,0.3,0.4,0.5,0.6,0.7s0.6,0.4,1,0.6c0.4,0.2,0.9,0.4,1.4,0.6c0.5,0.2,1.1,0.4,1.6,0.7
			c0.5,0.2,0.9,0.5,1.3,0.8c0.4,0.3,0.7,0.7,0.9,1.1c0.2,0.4,0.4,1,0.4,1.7c0,1.3-0.5,2.2-1.4,2.9c-0.9,0.6-2.2,1-3.9,1
			c-1.2,0-2.2-0.1-2.8-0.3c-0.6-0.2-1.1-0.4-1.3-0.5l0.5-1.6c0.1,0,0.2,0.1,0.4,0.2c0.2,0.1,0.4,0.2,0.7,0.3
			c0.3,0.1,0.7,0.2,1.1,0.3C139.7,572.9,140.1,572.9,140.7,572.9z"/>
		<path style="fill:#099788;" d="M149.4,560.7c0.5-0.1,1.2-0.3,2-0.5c0.8-0.2,1.9-0.3,3.3-0.3c1.8,0,3,0.5,3.8,1.5
			c0.1-0.1,0.3-0.2,0.5-0.4c0.3-0.2,0.6-0.3,1-0.5c0.4-0.2,0.9-0.3,1.4-0.5c0.5-0.1,1.1-0.2,1.8-0.2c1.1,0,1.9,0.2,2.6,0.5
			c0.7,0.3,1.2,0.8,1.5,1.3s0.6,1.2,0.7,2c0.1,0.8,0.2,1.7,0.2,2.6v7.8h-1.8v-7.2c0-0.9,0-1.7-0.1-2.4c-0.1-0.7-0.2-1.2-0.5-1.7
			c-0.2-0.4-0.6-0.8-1-1s-1-0.3-1.8-0.3c-0.5,0-1,0-1.5,0.1c-0.4,0.1-0.8,0.2-1.1,0.4c-0.3,0.1-0.6,0.3-0.8,0.4s-0.4,0.3-0.4,0.3
			c0.2,0.5,0.3,1,0.4,1.6c0.1,0.6,0.1,1.2,0.1,1.8v7.9h-1.8v-7.2c0-0.9,0-1.7-0.1-2.4c-0.1-0.7-0.2-1.2-0.5-1.7s-0.6-0.8-1.1-1
			s-1.1-0.3-1.8-0.3c-0.8,0-1.6,0-2.1,0.1c-0.6,0.1-1,0.2-1.1,0.2v12.3h-1.8V560.7z"/>
		<path style="fill:#099788;" d="M184.6,567.2c0,1.1-0.2,2.1-0.5,3c-0.3,0.9-0.8,1.7-1.3,2.3c-0.6,0.6-1.2,1.1-2,1.5
			c-0.8,0.4-1.6,0.5-2.6,0.5s-1.8-0.2-2.6-0.5c-0.8-0.4-1.4-0.8-2-1.5c-0.6-0.6-1-1.4-1.3-2.3c-0.3-0.9-0.5-1.9-0.5-3
			c0-1.1,0.2-2.1,0.5-3c0.3-0.9,0.8-1.7,1.3-2.3c0.6-0.6,1.2-1.1,2-1.5c0.8-0.4,1.6-0.5,2.6-0.5s1.8,0.2,2.6,0.5
			c0.8,0.4,1.4,0.8,2,1.5c0.6,0.6,1,1.4,1.3,2.3C184.4,565.1,184.6,566.1,184.6,567.2z M182.7,567.2c0-1.7-0.4-3.1-1.2-4.2
			c-0.8-1-1.9-1.6-3.3-1.6c-1.4,0-2.5,0.5-3.3,1.6c-0.8,1-1.2,2.4-1.2,4.2s0.4,3.1,1.2,4.2s1.9,1.5,3.3,1.5c1.4,0,2.5-0.5,3.3-1.5
			S182.7,568.9,182.7,567.2z"/>
		<path style="fill:#099788;" d="M205.3,569.3c0.4-0.6,0.8-1.3,1-2c0.2-0.7,0.4-1.5,0.5-2.3l1.5,0.2c-0.1,0.9-0.3,1.8-0.6,2.7
			c-0.3,0.9-0.8,1.7-1.4,2.5c0.7,0.7,1.4,1.4,1.9,2s0.9,1.2,1.3,1.8h-2c-0.3-0.4-0.6-0.8-0.9-1.2s-0.8-0.8-1.2-1.3
			c-0.7,0.9-1.5,1.5-2.5,2c-1,0.5-2.1,0.7-3.4,0.7c-1.1,0-2-0.2-2.8-0.5s-1.4-0.7-1.8-1.2c-0.5-0.5-0.8-1-1-1.6
			c-0.2-0.6-0.3-1.2-0.3-1.8c0-0.7,0.1-1.4,0.3-1.9c0.2-0.6,0.5-1.1,0.9-1.5c0.4-0.4,0.8-0.8,1.3-1.2c0.5-0.3,1-0.6,1.5-0.8
			c-0.8-0.8-1.3-1.5-1.6-2.2c-0.3-0.7-0.5-1.4-0.5-2.1c0-0.7,0.1-1.3,0.3-1.9c0.2-0.6,0.5-1,0.9-1.4c0.4-0.4,0.9-0.7,1.4-0.9
			c0.6-0.2,1.2-0.3,1.8-0.3c0.7,0,1.3,0.1,1.8,0.3c0.5,0.2,1,0.5,1.3,0.8c0.4,0.4,0.6,0.8,0.8,1.3c0.2,0.5,0.3,1,0.3,1.6
			c0,0.7-0.1,1.3-0.4,1.8c-0.2,0.5-0.5,1-0.9,1.4c-0.4,0.4-0.8,0.8-1.3,1.1c-0.5,0.3-1,0.6-1.6,0.9L205.3,569.3z M199.5,572.8
			c1,0,2-0.2,2.8-0.6c0.8-0.4,1.5-1,2.1-1.7l-5.5-5.6c-0.4,0.2-0.8,0.3-1.1,0.5c-0.4,0.2-0.8,0.5-1.1,0.8s-0.6,0.8-0.8,1.3
			c-0.2,0.5-0.3,1.1-0.3,1.7c0,0.4,0.1,0.8,0.2,1.3c0.1,0.4,0.4,0.8,0.7,1.1c0.3,0.3,0.7,0.6,1.2,0.8
			C198.1,572.7,198.7,572.8,199.5,572.8z M202.7,559c0-0.7-0.2-1.3-0.7-1.8c-0.5-0.5-1.1-0.7-1.8-0.7c-0.9,0-1.6,0.2-2.1,0.7
			s-0.7,1.2-0.7,2c0,0.6,0.1,1.3,0.4,1.9c0.3,0.6,0.8,1.3,1.5,2c1.1-0.5,1.9-1,2.6-1.6C202.4,560.9,202.7,560.1,202.7,559z"/>
		<path style="fill:#099788;" d="M226.1,574.5c-1.2,0-2.3-0.2-3.4-0.6c-1-0.4-1.9-1.1-2.7-1.9c-0.8-0.8-1.4-1.8-1.8-3.1
			c-0.4-1.2-0.7-2.6-0.7-4.2s0.2-3,0.7-4.2c0.5-1.2,1.1-2.2,1.9-3.1c0.8-0.8,1.7-1.5,2.8-1.9s2.1-0.6,3.3-0.6c0.7,0,1.3,0,1.9,0.1
			c0.6,0.1,1.1,0.2,1.5,0.3c0.4,0.1,0.8,0.3,1.1,0.4c0.3,0.1,0.5,0.3,0.7,0.4l-0.6,1.6c-0.5-0.3-1-0.5-1.7-0.8
			c-0.7-0.3-1.6-0.4-2.6-0.4c-1.2,0-2.2,0.2-3.1,0.6c-0.9,0.4-1.6,1-2.2,1.7c-0.6,0.7-1,1.6-1.3,2.6c-0.3,1-0.4,2.1-0.4,3.3
			c0,1.2,0.1,2.4,0.4,3.4s0.7,1.8,1.3,2.6c0.6,0.7,1.3,1.2,2.1,1.6c0.8,0.4,1.8,0.6,2.9,0.6c1.2,0,2.2-0.1,3-0.3
			c0.8-0.2,1.4-0.5,1.8-0.7l0.5,1.6c-0.1,0.1-0.3,0.2-0.6,0.3c-0.3,0.1-0.7,0.2-1.2,0.4c-0.5,0.1-1,0.2-1.6,0.3
			C227.5,574.5,226.9,574.5,226.1,574.5z"/>
		<path style="fill:#099788;" d="M236.8,556c0,0.4-0.1,0.7-0.4,1s-0.6,0.4-0.9,0.4c-0.4,0-0.7-0.1-0.9-0.4s-0.4-0.6-0.4-1
			s0.1-0.7,0.4-1c0.3-0.2,0.6-0.4,0.9-0.4c0.4,0,0.7,0.1,0.9,0.4C236.7,555.2,236.8,555.6,236.8,556z M236.4,574.1h-1.8v-14h1.8
			V574.1z"/>
		<path style="fill:#099788;" d="M240.2,567.1c0-1.2,0.2-2.3,0.5-3.2c0.4-0.9,0.8-1.7,1.4-2.3c0.6-0.6,1.2-1.1,1.9-1.4
			c0.7-0.3,1.5-0.4,2.3-0.4c1.7,0,3.1,0.6,4.1,1.7c1,1.1,1.5,2.8,1.5,5.2c0,0.1,0,0.3,0,0.4c0,0.1,0,0.3,0,0.4h-9.8
			c0.1,1.7,0.5,3,1.3,3.9c0.8,0.9,2.1,1.4,3.8,1.4c1,0,1.7-0.1,2.3-0.3c0.6-0.2,1-0.3,1.2-0.5l0.3,1.5c-0.3,0.1-0.7,0.3-1.4,0.5
			c-0.7,0.2-1.5,0.3-2.4,0.3c-1.2,0-2.3-0.2-3.1-0.5c-0.9-0.4-1.6-0.9-2.1-1.5c-0.6-0.6-1-1.4-1.2-2.3S240.2,568.2,240.2,567.1z
			 M250.1,566c0-1.5-0.4-2.6-1-3.4s-1.6-1.2-2.8-1.2c-0.6,0-1.2,0.1-1.7,0.4c-0.5,0.3-0.9,0.6-1.3,1c-0.4,0.4-0.7,0.9-0.9,1.5
			c-0.2,0.6-0.3,1.1-0.4,1.8H250.1z M243.5,558.4l-0.8-0.8l3.6-4l3.6,4l-0.8,0.8l-2.8-2.6L243.5,558.4z"/>
		<path style="fill:#099788;" d="M255.9,560.7c0.5-0.1,1.2-0.3,2.1-0.5c0.9-0.2,2-0.3,3.2-0.3c1.1,0,1.9,0.2,2.7,0.5
			c0.7,0.3,1.3,0.7,1.7,1.3s0.7,1.2,0.9,2s0.3,1.7,0.3,2.6v7.8H265v-7.2c0-1-0.1-1.8-0.2-2.5c-0.1-0.7-0.4-1.2-0.7-1.7
			s-0.7-0.7-1.2-0.9c-0.5-0.2-1.2-0.3-1.9-0.3c-0.8,0-1.5,0-2.1,0.1c-0.6,0.1-1,0.2-1.2,0.2v12.3h-1.8V560.7z"/>
		<path style="fill:#099788;" d="M277,574.4c-1.1,0-2-0.2-2.9-0.5c-0.8-0.3-1.5-0.8-2.1-1.5c-0.5-0.6-1-1.4-1.3-2.3
			c-0.3-0.9-0.4-1.9-0.4-3c0-1.1,0.1-2.1,0.4-3c0.3-0.9,0.7-1.7,1.3-2.3c0.6-0.6,1.2-1.1,2-1.5s1.7-0.5,2.7-0.5
			c0.8,0,1.5,0.1,2.1,0.2c0.7,0.1,1.2,0.3,1.5,0.5L280,562c-0.4-0.2-0.8-0.3-1.2-0.4c-0.5-0.1-1.1-0.2-1.8-0.2
			c-1.5,0-2.7,0.5-3.5,1.5s-1.2,2.4-1.2,4.3c0,0.8,0.1,1.6,0.3,2.3c0.2,0.7,0.5,1.3,0.9,1.8c0.4,0.5,0.9,0.9,1.6,1.2
			c0.6,0.3,1.4,0.4,2.3,0.4c0.8,0,1.4-0.1,1.9-0.3c0.5-0.2,0.9-0.3,1.1-0.4l0.4,1.5c-0.3,0.2-0.8,0.4-1.5,0.5
			C278.5,574.4,277.7,574.4,277,574.4z"/>
		<path style="fill:#099788;" d="M285.8,556c0,0.4-0.1,0.7-0.4,1c-0.3,0.2-0.6,0.4-0.9,0.4s-0.7-0.1-0.9-0.4c-0.3-0.2-0.4-0.6-0.4-1
			s0.1-0.7,0.4-1c0.3-0.2,0.6-0.4,0.9-0.4s0.7,0.1,0.9,0.4C285.7,555.2,285.8,555.6,285.8,556z M285.4,574.1h-1.8v-14h1.8V574.1z"/>
		<path style="fill:#099788;" d="M294.3,559.9c0.9,0,1.7,0.1,2.3,0.4c0.6,0.3,1.2,0.6,1.6,1.1c0.4,0.5,0.7,1,0.9,1.6
			c0.2,0.6,0.3,1.3,0.3,2.1v8.8c-0.2,0.1-0.4,0.1-0.8,0.2s-0.7,0.1-1.2,0.2c-0.5,0.1-0.9,0.1-1.5,0.2c-0.5,0-1.1,0.1-1.7,0.1
			c-0.7,0-1.4-0.1-2-0.2c-0.6-0.2-1.2-0.4-1.6-0.8s-0.8-0.8-1.1-1.4c-0.3-0.5-0.4-1.2-0.4-2c0-0.8,0.1-1.4,0.4-1.9
			c0.3-0.5,0.7-1,1.2-1.3c0.5-0.4,1.1-0.6,1.9-0.8c0.7-0.2,1.5-0.2,2.3-0.2c0.3,0,0.5,0,0.8,0c0.3,0,0.5,0.1,0.8,0.1
			c0.3,0,0.5,0.1,0.7,0.1s0.3,0.1,0.4,0.1v-0.9c0-0.5,0-1-0.1-1.4s-0.2-0.9-0.5-1.2c-0.2-0.4-0.6-0.7-1-0.9s-1-0.3-1.7-0.3
			c-1,0-1.8,0.1-2.3,0.2s-0.9,0.3-1.1,0.4l-0.2-1.5c0.3-0.1,0.8-0.3,1.4-0.4C292.6,559.9,293.4,559.9,294.3,559.9z M294.4,572.9
			c0.7,0,1.3,0,1.8-0.1s0.9-0.1,1.3-0.2v-4.9c-0.2-0.1-0.5-0.2-0.9-0.3c-0.4-0.1-1-0.1-1.8-0.1c-0.4,0-0.9,0-1.3,0.1
			c-0.5,0.1-0.9,0.2-1.3,0.4s-0.7,0.5-1,0.9s-0.4,0.8-0.4,1.4c0,0.5,0.1,1,0.3,1.3c0.2,0.4,0.4,0.6,0.7,0.9c0.3,0.2,0.7,0.4,1.1,0.5
			C293.4,572.8,293.9,572.9,294.4,572.9z"/>
	</g>
	<circle style="fill:none;stroke:#FFFFFF;stroke-width:4.9156;stroke-miterlimit:10;" cx="194.9" cy="199.9" r="179.8"/>
	<g>
		<defs>
			<circle id="SVGID_1_" cx="195.7" cy="199.9" r="161.7"/>
		</defs>
		<clipPath id="SVGID_2_">
			<use xlink:href="#SVGID_1_"  style="overflow:visible;"/>
		</clipPath>
		<rect x="48.6" y="302.2" style="clip-path:url(#SVGID_2_);fill:#FFFFFF;" width="311.9" height="98.7"/>
		<path style="clip-path:url(#SVGID_2_);fill:#FFFFFF;" d="M335.7,287.5c-36.3,14.3-45.9,3.2-42.7-4.1c3.3-7.3-14-13.8-29.7-1.2
			c-6.6,5.3-13.4,7.7-13.4,7.7l-0.1,0c-33.3,12.5-39.9,1.4-36.7-5.9c3.3-7.3-14-13.8-29.7-1.2c-6.6,5.3-13.4,7.7-13.4,7.7l-0.2,0
			c-33.3,12.5-39.9,1.4-36.7-5.9c3.3-7.3-14-13.8-29.7-1.2c-6.6,5.3-13.4,7.7-13.4,7.7L90,291c-33.3,12.5-39.9,1.4-36.7-5.9
			c3.3-7.3-16-12.1-32.1,0C5.1,297.2-15.4,297-15.4,297v27h342.7L335.7,287.5z"/>
	</g>
	<g>
		<path style="fill:#FFFFFF;" d="M319.8,129.7c-6.6,5.9-9.3,16-43.2,18.5c-23.6,2.9-32.9,6.6-44.1,11.6c-11.1,5-32.6,17.6-36.2,17.7
			v0c-3.6-0.1-25-12.7-36.2-17.7c-11.2-5-20.5-8.7-44.1-11.6c-33.9-2.4-36.6-12.6-43.2-18.5c-6.6-5.9-21.3-8.9-10.3,26.6
			c11,35.5,38.8,48.2,44.8,53.5c6,5.3,64.5,40.6,64.5,40.6s3.3,2.4,5.6,7.4c1.7,4.4,3.2,10.9,4.1,15.8c4.6-3.2,16.9-10.3,30.9-6.1
			c0.8-3.4,1.7-6.9,2.8-9.7c2.3-5,5.6-7.4,5.6-7.4s58.5-35.3,64.5-40.6c6-5.3,33.8-18,44.8-53.5
			C341.1,120.8,326.3,123.8,319.8,129.7z"/>
	</g>
	<g>
		<g>
			<g>
				<g>
					<path style="fill:#FFFFFF;" d="M174.1,415c1.8-0.1,5.9-0.2,5.8,0c0.1-0.2,0.1-0.2,2.8-0.4c-0.1,0.2,2.4,0.1,4,0.1
						c-1.3-0.1-3.1-0.1-6.6-0.2c-3.2,0.3-10-0.2-13,0.2C169.3,414.9,171.4,415.1,174.1,415z"/>
					<path style="fill:#FFFFFF;" d="M188.8,416.1l0.5-0.1l-5.6,0.2C184.7,416.1,188.6,416,188.8,416.1z"/>
					<path style="fill:#099788;" d="M207,415.8c-0.5,0.2,2.4,0.3,2.3,0.4c-0.1-0.4,4.5-0.1,7-0.1l1-0.3c-2.4-0.2-8.5-0.1-13.6-0.1
						L207,415.8z"/>
					<path style="fill:#FFFFFF;" d="M211.6,416l1.6-0.2C211.8,415.9,208.7,415.9,211.6,416z"/>
					<path style="fill:#FFFFFF;" d="M208.1,415.1c-4,0,2.4,0.1-1.6,0.2C207.8,415.2,209.4,415.2,208.1,415.1z"/>
					<polygon style="fill:#099788;" points="224.9,415.6 216.4,415.7 219.9,415.9 					"/>
					<path style="fill:#099788;" d="M225.4,416.2c-1.1,0-2.9-0.1-1.3-0.2c3.1,0.2,5-0.1,7.8,0.1l-2.7,0.1c0.4,0.2,5.7-0.2,5.5,0.2
						c3.7-0.3-2.8-0.3,2-0.5c-4.5,0.1-7.8,0-11.6-0.1c1.1,0.1,1.5,0.1,3.1,0.1c-2.7,0-6.3,0.1-9.4,0.2
						C220.4,416.3,222.7,416,225.4,416.2z"/>
					<path style="fill:#099788;" d="M239,416.2c2.9,0,7.4,0,8.1-0.3c-3.1-0.2-3.6,0-5,0.2c-0.9,0-3.8-0.1-2.6-0.2
						C240,416,237.7,416.1,239,416.2z"/>
					<path style="fill:#099788;" d="M250.4,416.3l2.1-0.3l-1.4,0l-0.2-0.2c-0.2,0-1.3,0.4-4.2,0.4
						C248.3,416.4,248.8,416.2,250.4,416.3z"/>
					<path style="fill:#099788;" d="M251.1,415c2,0.1,3.1,0.1,5.4,0c-3.1,0-7.6,0-8.5,0.1l0.2,0c0,0-3,0.1-5,0.3
						C246.3,415.2,252,415.5,251.1,415z"/>
					<path style="fill:#099788;" d="M247,414.9l2.3-0.2L247,414.9z"/>
					<polygon style="fill:#099788;" points="259.3,416.2 254.9,416.1 256,416.2 					"/>
					<path style="fill:#099788;" d="M254,415.4c3.6,0-1.9-0.2,1.4-0.2c0.9,0-4.9,0-5.2,0.1C251.1,415.4,253.7,415.2,254,415.4z"/>
					<path style="fill:#099788;" d="M262.2,416.3l3.6-0.2L262.2,416.3z"/>
					<path style="fill:#099788;" d="M271.4,416.4l0.7-0.1c3.5,0.1,8.3-0.1,10.9,0.2c-0.6-0.2,1.5-0.4-1.6-0.4
						c-0.5,0.1-1.6,0.1-1.4,0.2c-1.3,0-1.1-0.2-1.9-0.2c-2.3,0.2-5.8,0-7.7,0.2c0.9,0,1.1,0,1.8,0c-3.9,0.3-4.6-0.4-6.3,0.1
						C267.2,416.2,269.5,416.5,271.4,416.4z"/>
					<path style="fill:#099788;" d="M271,415.4l-3.1-0.1c1-0.2,3.8,0,4.3-0.2c-0.2-0.1-3.3-0.2-2.2-0.2c-0.4,0.5-4.3,0-2.6,0.5
						c-4,0.1-1.2-0.3-5.5-0.3l-1.2,0.2C265.5,415.3,266.3,415.5,271,415.4z"/>
					<path style="fill:#099788;" d="M283.1,415.5l1.5,0.1l-0.8-0.2c6.9,0,11,0.8,15.2,0.7c5.2-0.3,10.1,0.1,15.5,0.1
						c2.6-0.2-2.5-0.1-2.8-0.2c0.7-0.4,2.5,0.2,3.8-0.1c0.3-0.3-5.5-0.3-7.8-0.4c-2,0-2,0.1-2.6,0.3c-0.5-0.1-2.5-0.2-3-0.3
						c-4.2,0.2-6.3-0.2-10.4,0c-1.3-0.2,3.1,0,1.7-0.1l-2.2,0l0.2,0c-3,0.2-8.7,0-10.6-0.1c1.5,0.1,2.6,0.2,0.8,0.3l-1.5-0.2
						l-3.9,0.3C279.1,415.5,282.5,415.9,283.1,415.5z"/>
					<path style="fill:#099788;" d="M278.7,415.1c-4.7-0.1,0.6,0.3-4.5,0.2l5.4,0L278.7,415.1z"/>
					<path style="fill:#FFFFFF;" d="M301,415.6l2.3,0.2C302.1,415.5,298.4,415.9,301,415.6z"/>
					<polygon style="fill:#FFFFFF;" points="309.5,415.6 308.3,415.9 310.5,415.8 					"/>
					<path style="fill:#099788;" d="M317.3,416c1.7-0.1-0.3-0.3-2.3-0.2C316.7,415.8,317.7,415.9,317.3,416z"/>
					<path style="fill:#FFFFFF;" d="M330,416.5c-3.9,0,3.5,0.1,0.7,0.3C331.2,416.8,333.2,416.6,330,416.5z"/>
					<path style="fill:#099788;" d="M342.7,417.2c-1.4,0.1-2,0-2.2-0.1C341.5,417.2,342.3,417.2,342.7,417.2z"/>
					<path style="fill:#099788;" d="M294,416.3c-0.4,0-0.9,0-1.4,0C293.1,416.3,293.5,416.3,294,416.3z"/>
					<path style="fill:#099788;" d="M294.9,416.3c-0.3,0-0.6,0-0.9,0C294.3,416.3,294.6,416.3,294.9,416.3z"/>
					<path style="fill:#099788;" d="M323.8,417C323.8,417,323.8,417,323.8,417c-0.1,0-0.2,0-0.3,0L323.8,417z"/>
					<path style="fill:#099788;" d="M200.1,416.2c-0.8,0-1.3,0-1.8,0C198.9,416.2,199.5,416.2,200.1,416.2
						C200.1,416.2,200.1,416.2,200.1,416.2z"/>
					<path style="fill:#099788;" d="M198,415.8c3.2-0.2,3.4,0.4,8.6,0.3c-2.1,0-4.3,0.1-6.5,0.1C197.1,415.9,202.4,416.1,198,415.8z
						"/>
					<path style="fill:#099788;" d="M241.3,415.5c0.1,0,0.1,0,0.2,0C241.8,415.4,241.7,415.4,241.3,415.5z"/>
					<polygon style="fill:#FFFFFF;" points="57.1,416.1 57,416.2 54.2,416.1 					"/>
					<path style="fill:#FFFFFF;" d="M57.5,416.3l4.9,0.2l-28.8,0l0.9-0.1C34,416.2,58.3,416.4,57.5,416.3z"/>
					<path style="fill:#FFFFFF;" d="M58.9,416.1c2.8-0.3,4.7,0.1,8.1-0.1c-2.3,0.2-3.9,0.3-6.1,0.2L58.9,416.1z"/>
					<path style="fill:none;stroke:#099788;stroke-width:0;stroke-linecap:round;stroke-linejoin:round;" d="M68.5,415.5
						c1.5,0.1,3.4-0.1,4.3,0C72.2,415.7,69.8,415.5,68.5,415.5z"/>
					<path style="fill:#099788;" d="M72.6,414.5c0.2,0,0.5,0,0.7,0C73,414.5,72.8,414.5,72.6,414.5L72.6,414.5z"/>
					<path style="fill:#099788;" d="M72.6,414.6l0,0.1C72.1,414.6,72.2,414.6,72.6,414.6z"/>
					<path style="fill:#099788;" d="M73.3,414.5c0.6,0,1.4-0.1,1.8-0.1l-0.7,0c0.9,0,2.5-0.1,2.9-0.1c-1.8,0-1.8,0.1-1.9,0.2l2.9,0
						C77.9,414.9,75.9,414.5,73.3,414.5z"/>
					<path style="fill:none;stroke:#099788;stroke-width:0;stroke-linecap:round;stroke-linejoin:round;" d="M82.5,414.4l-3,0.2
						C78.7,414.4,81.4,414.4,82.5,414.4z"/>
					<path style="fill:#099788;" d="M86.9,414.7c-0.7,0.1-3.6,0-1.8,0.1c-0.5,0-1,0-1.6,0C85.4,414.8,83.5,414.5,86.9,414.7z"/>
					<path style="fill:#099788;" d="M83.4,414.8c-0.2,0-0.5,0-0.8,0C82.8,414.8,83.1,414.8,83.4,414.8z"/>
					<path style="fill:none;stroke:#099788;stroke-width:0;stroke-linecap:round;stroke-linejoin:round;" d="M52.3,415.8
						c0.4,0,0.3,0.1,0.2,0.1L52.3,415.8z"/>
					<path style="fill:#099788;" d="M92.8,414.9l1.1,0c-0.3,0-0.6,0-0.9,0L92.8,414.9z"/>
					<path style="fill:#099788;" d="M0.2,416.9c3.9,0.1,7.6,0.1,13.2,0c-0.1-0.3,2.3-0.1,2.6-0.4c-5.8,0,21.9-0.2,17.3-0.3l-1.4,0.1
						l1.4-0.3c2.8,0.1,6.6,0.3,8.5,0.1c0.5,0.1-23.8,0-22.9,0.1c-2.2-0.3,32.6-0.3,33.5-0.5l0.4,0.2c4.3-0.2,7.1-0.4,10.7-0.6
						l0.8,0.2c-2.7-0.1-3.4,0.1-6.1,0.2c4.7,0,5.6,0.1,9.1,0c-0.1-0.3-3.1-0.1,1.4-0.3c1.3,0.1-1.7,0.4,2.3,0.4
						c4.9,0.1,3.9-0.3,8.2-0.4l-2.9-0.1c1.6,0,4.5-0.1,6,0.1c-1.8,0-6.3,0.1-6.2,0.4c1.8-0.1,5.8,0,7.4,0l-1,0.2
						c1.7,0.2,2.7-0.1,4.9,0.1c2.1-0.1-1.2-0.3-0.1-0.4c0.4,0.1,4.4,0.2,5.8,0c-1-0.4-4.7,0.1-7.3-0.3l3.8,0.1c2.4-0.4-6,0-4.8-0.3
						c2.8-0.4,5.9,0.4,8.5-0.1c-1.7-0.1-7.3-0.1-6.6-0.3c2,0.1,3.4-0.1,6.1-0.2l3.3,0.2c1.4-0.1,0.3-0.1-0.8-0.2
						c4.8,0.2,13,0,19.8,0.2c4-0.1,0.5-0.2,2.3-0.3c2.2,0.2,5.8,0,8,0c0.7,0,1.9-0.2,1.2-0.3l-5.6,0.2c0.3-0.1-0.6-0.3-2.6-0.3
						c1.4,0.5-7.9-0.3-8.4,0.2l0.1-0.2l-7.2,0.2l0.2,0c0-0.1-6.1,0.2-10.1,0.1c1.1-0.1,7.8,0,3.9-0.3c3-0.1,8.2,0.1,13.6,0l-1.1-0.2
						c5.7-0.2,13.2,0.1,19.4,0l-1.9,0.2c2.2,0.1,5,0.3,7.1,0.1c-2.7,0-1.3-0.1-0.8-0.2c3.6-0.1,8.9,0,13.9-0.1c0,0-0.2,0,0,0.1
						l5.2-0.1c2.5,0,3.3,0.2,4.8,0.3c0.9,0,3.1,0,2.3-0.2c-0.5,0-1,0-1.3,0c2.6-0.2,1.8,0.1,5.1-0.1c-2.5,0.2,0.8,0.3,0.5,0.5
						c3.8-0.1,0.4-0.4,0.8-0.5c4.7,0.1,5.3,0.3,9.9,0.3c0.3-0.1-3.3-0.1-3.7-0.2c1.3,0,2.9,0,3.1,0l-2.9-0.1
						c4.9,0.2,9.5,0.2,14.9,0.1l-0.4-0.1l3.4,0l-1.2,0.2c1.8-0.1,3.7,0.2,4.7,0l-0.7,0l2.3-0.1l-2.3,0.2c2.9,0.1,6.8-0.4,11.5-0.3
						c1,0.3-8.1,0.1-8.7,0.5c1.5,0.1,4.2,0.1,5.1,0c-0.2-0.1-1.3-0.1-2.4-0.1c4.1-0.2,10.2,0.1,12.8-0.2l-3.1-0.1
						c3.6,0,5.9,0.4,7.1,0.2l-2.8,0.4c3.6-0.2,8.3-0.2,11.7-0.3c0.1-0.2-4.9,0-4.7,0l1.6-0.2c5.3,0.1,1.5,0.1,7.9,0.3l0.1-0.2
						c2.1,0.2,7.9-0.2,5.7,0.2l-1.7-0.1l0.1,0.2l7.4-0.1c-0.7,0.1,2.9,0.1,1.9,0.3l2.7-0.2c1.2,0.3-5,0.3-5.3,0.5
						c0.1,0.1,1.4,0.1,2,0.1c-3.3,0.2-4.9-0.3-8.2-0.3l-1.6,0.2l0.1-0.2c-1.4,0-2.5,0.2-3,0.3c-3.2-0.3-6.7,0.1-11.6,0
						c4.1-0.1-2.6-0.2-1.9-0.3c-2.2,0-7.8,0.4-9.7,0.1c-1.3-0.1,2.7-0.2-0.4-0.2c-2,0-3.4,0.2-2.1,0.3c-4.5,0.1-9.8,0-14.8,0
						l1.2-0.2c-3.1-0.1-6.1,0.1-7.7,0.3c-0.4-0.1-0.7,0-0.2-0.1c-3.9-0.3-5,0.3-11.5,0.3c0.4,0.2,3.3,0.2,5.3,0.1l-0.5,0.3
						c5.6,0,11.9,0,16.4-0.2l-2.1,0.2c3.9,0.3,2.8-0.3,6.5,0.1c2.7-0.1-2-0.1,0.1-0.2c1.9,0.1-0.5,0.4,2.7,0.5
						c-12.1,0.1-25.8,0.1-38.5,0.2c-0.2,0,0.4,0.1,1.1,0.1c-4.4,0.3-39.6-0.6-40.7,0.1c-0.6-0.1,1.4-0.2-1.3-0.2
						c-0.2,0-0.9,0.1-0.3,0.2c-6.8-0.4-15.9,0-24.1-0.2c0.2,0.1-1.6,0.2-1.7,0.3c-2.8-0.3-7.6,0-10.2-0.1l0.9,0.1l-8.3,0
						c-0.2,0,0.9,0,1.5,0.1c-1.8,0.1-2.2-0.1-2.4-0.2l-3.7,0.3c-10.8-0.5-24.2,0.3-36.6,0c-1.9,0.2-3.5,0.3-6.6,0.3l1.5,0.1
						c-3.2,0.2-0.2-0.1-2.9,0c-1.8,0.1-0.6,0.3,1.9,0.2c1.6,0.1,0.6,0.2-0.5,0.2C17.6,417.5,8.3,417.4,0.2,416.9z"/>
					<path style="fill:#099788;" d="M377.4,417.8c-1.1-0.1,4.3-0.1,1.7-0.3c-8.3-0.4-21.9-0.1-31.8-0.4c-2.6-0.2-3.3-0.2-5.7-0.3
						c0,0-0.1,0.1,0.1,0.1c-2.7,0-7,0-9.7-0.1c-0.8,0-1.3,0.2,0.1,0.2c-4.1,0.2-7-0.3-9.4-0.2c2,0.1-2,0.2,0.4,0.3
						c-4.3,0-3.9-0.6-7.3-0.7c-0.2,0-0.4,0.1,0.3,0.1c-3.7-0.3-11.3,0.2-11.7-0.3l-1.5,0.2c-1.6-0.1-1.2-0.2-3.9-0.3
						c-1.8,0.1,0.1,0.2-0.6,0.2c-0.7-0.2-5.5-0.1-7.6-0.3c-0.1-0.3,3.8,0.4,6,0.1c0.1-0.1-0.2-0.1-0.7-0.1c11.2,0.1,19.8,0.8,29,0.6
						c2,0.2,3.6,0,4.5-0.2c-1.7-0.1-6.4-0.3-6.5,0.1l-2.9-0.2c-1.1,0-1.1-0.4-1.5-0.4c2,0,4.3-0.3,1.6-0.5c5.3,0-1.7,0.8,3,0.7
						l0.7-0.3c-0.9,0.1,3.2,0.3,4.7,0.2l-0.6-0.1c12.6,0.1,29.4,0,43.4-0.1c3.4,0.7,10.2-0.2,13.4,0.3c1.5-0.1-2.2-0.2,0.8-0.3
						c1.5,0,1.6,0.1,1.5,0.2c0.4,0,0.9,0,1.3-0.1C389.5,416.8,386.9,417.3,377.4,417.8z"/>
				</g>
			</g>
		</g>
	</g>
	<g>
		<g>
			<g>
				<g>
					<path style="fill:#FFFFFF;" d="M214.5,530.9c-1.8,0.1-5.9,0.2-5.8,0c-0.1,0.2-0.1,0.2-2.8,0.4c0.1-0.2-2.4-0.1-4-0.1
						c1.3,0.1,3.1,0.1,6.6,0.2c3.2-0.3,10,0.2,13-0.2C219.3,531.1,217.2,530.8,214.5,530.9z"/>
					<path style="fill:#FFFFFF;" d="M199.9,529.8l-0.5,0.1l5.6-0.2C203.9,529.9,200.1,530,199.9,529.8z"/>
					<path style="fill:#099788;" d="M181.7,530.1c0.5-0.2-2.4-0.3-2.3-0.4c0.1,0.4-4.5,0.1-7,0.1l-1,0.3c2.4,0.2,8.5,0.1,13.6,0.1
						L181.7,530.1z"/>
					<path style="fill:#FFFFFF;" d="M177.1,529.9l-1.6,0.2C176.8,530,179.9,530,177.1,529.9z"/>
					<path style="fill:#FFFFFF;" d="M180.5,530.9c4,0-2.4-0.1,1.6-0.2C180.8,530.7,179.2,530.7,180.5,530.9z"/>
					<polygon style="fill:#099788;" points="163.7,530.3 172.3,530.2 168.7,530.1 					"/>
					<path style="fill:#099788;" d="M163.3,529.7c1.1,0,2.9,0.1,1.3,0.2c-3.1-0.2-5,0.1-7.8-0.1l2.7-0.1c-0.4-0.2-5.7,0.2-5.5-0.2
						c-3.7,0.3,2.8,0.3-2,0.5c4.5-0.1,7.8,0,11.6,0.1c-1.1-0.1-1.5-0.1-3.1-0.1c2.7,0,6.3-0.1,9.4-0.2
						C168.2,529.6,165.9,529.9,163.3,529.7z"/>
					<path style="fill:#099788;" d="M149.6,529.7c-2.9,0-7.4,0-8.1,0.3c3.1,0.2,3.6,0,5-0.2c0.9,0,3.8,0.1,2.6,0.2
						C148.6,529.9,150.9,529.8,149.6,529.7z"/>
					<path style="fill:#099788;" d="M138.3,529.6l-2.1,0.3l1.4,0l0.2,0.2c0.2,0,1.3-0.4,4.2-0.4
						C140.3,529.5,139.8,529.7,138.3,529.6z"/>
					<path style="fill:#099788;" d="M137.6,531c-2-0.1-3.1-0.1-5.4,0c3.1,0,7.6,0,8.5-0.1l-0.2,0c0,0,3-0.1,5-0.3
						C142.3,530.8,136.6,530.5,137.6,531z"/>
					<path style="fill:#099788;" d="M141.6,531l-2.3,0.2L141.6,531z"/>
					<polygon style="fill:#099788;" points="129.3,529.7 133.7,529.8 132.6,529.7 					"/>
					<path style="fill:#099788;" d="M134.6,530.5c-3.6,0,1.9,0.2-1.4,0.2c-0.9,0,4.9,0,5.2-0.1C137.5,530.5,135,530.7,134.6,530.5z"
						/>
					<path style="fill:#099788;" d="M126.4,529.7l-3.6,0.2L126.4,529.7z"/>
					<path style="fill:#099788;" d="M117.3,529.5l-0.7,0.1c-3.5-0.1-8.3,0.1-10.9-0.2c0.6,0.2-1.5,0.4,1.6,0.4
						c0.5-0.1,1.6-0.1,1.4-0.2c1.3,0,1.1,0.2,1.9,0.2c2.3-0.2,5.8,0,7.7-0.2c-0.9,0-1.1,0-1.8,0c3.9-0.3,4.6,0.4,6.3-0.1
						C121.5,529.8,119.1,529.5,117.3,529.5z"/>
					<path style="fill:#099788;" d="M117.6,530.5l3.1,0.1c-1,0.2-3.8,0-4.3,0.2c0.2,0.1,3.3,0.2,2.2,0.2c0.4-0.5,4.3,0,2.6-0.5
						c4-0.1,1.2,0.3,5.5,0.3l1.2-0.2C123.2,530.6,122.3,530.4,117.6,530.5z"/>
					<path style="fill:#099788;" d="M105.6,530.4l-1.5-0.1l0.8,0.2c-6.9,0-11-0.8-15.2-0.7c-5.2,0.3-10.1-0.1-15.5-0.1
						c-2.6,0.2,2.5,0.1,2.8,0.2c-0.7,0.4-2.5-0.2-3.8,0.1c-0.3,0.3,5.5,0.3,7.8,0.4c2,0,2-0.1,2.6-0.3c0.5,0.1,2.5,0.2,3,0.3
						c4.2-0.2,6.3,0.2,10.4,0c1.3,0.2-3.1,0-1.7,0.1l2.2,0l-0.2,0c3-0.2,8.7,0,10.6,0.1c-1.5-0.1-2.6-0.2-0.8-0.3l1.5,0.2l3.9-0.3
						C109.6,530.5,106.1,530,105.6,530.4z"/>
					<path style="fill:#099788;" d="M109.9,530.9c4.7,0.1-0.6-0.3,4.5-0.2l-5.4,0L109.9,530.9z"/>
					<path style="fill:#FFFFFF;" d="M87.6,530.3l-2.3-0.2C86.6,530.5,90.2,530,87.6,530.3z"/>
					<polygon style="fill:#FFFFFF;" points="79.1,530.3 80.3,530 78.2,530.2 					"/>
					<path style="fill:#099788;" d="M71.4,529.9c-1.7,0.1,0.3,0.3,2.3,0.2C71.9,530.2,71,530,71.4,529.9z"/>
					<path style="fill:#FFFFFF;" d="M58.6,529.4c3.9,0-3.5-0.1-0.7-0.3C57.4,529.2,55.5,529.3,58.6,529.4z"/>
					<path style="fill:#099788;" d="M46,528.7c1.4-0.1,2,0,2.2,0.1C47.1,528.7,46.3,528.7,46,528.7z"/>
					<path style="fill:#099788;" d="M94.7,529.6c0.4,0,0.9,0,1.4,0C95.6,529.6,95.1,529.6,94.7,529.6z"/>
					<path style="fill:#099788;" d="M93.8,529.6c0.3,0,0.6,0,0.9,0C94.3,529.6,94,529.6,93.8,529.6z"/>
					<path style="fill:#099788;" d="M64.8,529C64.8,529,64.8,529,64.8,529c0.1,0,0.2,0,0.3,0L64.8,529z"/>
					<path style="fill:#099788;" d="M188.5,529.7c0.8,0,1.3,0,1.8,0C189.7,529.7,189.1,529.7,188.5,529.7
						C188.5,529.7,188.5,529.7,188.5,529.7z"/>
					<path style="fill:#099788;" d="M190.6,530.1c-3.2,0.2-3.4-0.4-8.6-0.3c2.1,0,4.3-0.1,6.5-0.1
						C191.5,530,186.2,529.9,190.6,530.1z"/>
					<path style="fill:#099788;" d="M147.3,530.5c-0.1,0-0.1,0-0.2,0C146.8,530.5,147,530.5,147.3,530.5z"/>
					<polygon style="fill:#FFFFFF;" points="331.6,529.8 331.6,529.7 334.5,529.8 					"/>
					<path style="fill:#FFFFFF;" d="M331.2,529.7l-4.9-0.2l28.8,0l-0.9,0.1C354.6,529.7,330.3,529.5,331.2,529.7z"/>
					<path style="fill:#FFFFFF;" d="M329.8,529.8c-2.8,0.3-4.7-0.1-8.1,0.1c2.3-0.2,3.9-0.3,6.1-0.2L329.8,529.8z"/>
					<path style="fill:none;stroke:#099788;stroke-width:0;stroke-linecap:round;stroke-linejoin:round;" d="M320.2,530.4
						c-1.5-0.1-3.4,0.1-4.3,0C316.4,530.2,318.8,530.4,320.2,530.4z"/>
					<path style="fill:#099788;" d="M316,531.4c-0.2,0-0.5,0-0.7,0C315.6,531.4,315.8,531.4,316,531.4L316,531.4z"/>
					<path style="fill:#099788;" d="M316,531.4l0-0.1C316.6,531.3,316.4,531.3,316,531.4z"/>
					<path style="fill:#099788;" d="M315.3,531.4c-0.6,0-1.4,0.1-1.8,0.1l0.7,0c-0.9,0-2.5,0.1-2.9,0.1c1.8,0,1.8-0.1,1.9-0.2
						l-2.9,0C310.8,531,312.7,531.4,315.3,531.4z"/>
					<path style="fill:none;stroke:#099788;stroke-width:0;stroke-linecap:round;stroke-linejoin:round;" d="M306.2,531.5l3-0.2
						C310,531.5,307.3,531.5,306.2,531.5z"/>
					<path style="fill:#099788;" d="M301.8,531.3c0.7-0.1,3.6,0,1.8-0.1c0.5,0,1,0,1.6,0C303.3,531.1,305.1,531.4,301.8,531.3z"/>
					<path style="fill:#099788;" d="M305.2,531.1c0.2,0,0.5,0,0.8,0C305.8,531.1,305.5,531.1,305.2,531.1z"/>
					<path style="fill:none;stroke:#099788;stroke-width:0;stroke-linecap:round;stroke-linejoin:round;" d="M336.4,530.1
						c-0.4,0-0.3-0.1-0.2-0.1L336.4,530.1z"/>
					<path style="fill:#099788;" d="M295.8,531l-1.1,0c0.3,0,0.6,0,0.9,0L295.8,531z"/>
					<path style="fill:#099788;" d="M388.4,529c-3.9-0.1-7.6-0.1-13.2,0c0.1,0.3-2.3,0.1-2.6,0.4c5.8,0-21.9,0.2-17.3,0.3l1.4-0.1
						l-1.4,0.3c-2.8-0.1-6.6-0.3-8.5-0.1c-0.5-0.1,23.8,0,22.9-0.1c2.2,0.3-32.6,0.3-33.5,0.5l-0.4-0.2c-4.3,0.2-7.1,0.4-10.7,0.6
						l-0.8-0.2c2.7,0.1,3.4-0.1,6.1-0.2c-4.7,0-5.6-0.1-9.1,0c0.1,0.3,3.1,0.1-1.4,0.3c-1.3-0.1,1.7-0.4-2.3-0.4
						c-4.9-0.1-3.9,0.3-8.2,0.4l2.9,0.1c-1.6,0-4.5,0.1-6-0.1c1.8,0,6.3-0.1,6.2-0.4c-1.8,0.1-5.8,0-7.4,0l1-0.2
						c-1.7-0.2-2.7,0.1-4.9-0.1c-2.1,0.1,1.2,0.3,0.1,0.4c-0.4-0.1-4.4-0.2-5.8,0c1,0.4,4.7-0.1,7.3,0.3l-3.8-0.1
						c-2.4,0.4,6,0,4.8,0.3c-2.8,0.4-5.9-0.4-8.5,0.1c1.7,0.1,7.3,0.1,6.6,0.3c-2-0.1-3.4,0.1-6.1,0.2l-3.3-0.2
						c-1.4,0.1-0.3,0.1,0.8,0.2c-4.8-0.2-13,0-19.8-0.2c-4,0.1-0.5,0.2-2.3,0.3c-2.2-0.2-5.8,0-8,0c-0.7,0-1.9,0.2-1.2,0.3l5.6-0.2
						c-0.3,0.1,0.6,0.3,2.6,0.3c-1.4-0.5,7.9,0.3,8.4-0.2l-0.1,0.2l7.2-0.2l-0.2,0c0,0.1,6.1-0.2,10.1-0.1c-1.1,0.1-7.8,0-3.9,0.3
						c-3,0.1-8.2-0.1-13.6,0l1.1,0.2c-5.7,0.2-13.2-0.1-19.4,0l1.9-0.2c-2.2-0.1-5-0.3-7.1-0.1c2.7,0,1.3,0.1,0.8,0.2
						c-3.6,0.1-8.9,0-13.9,0.1c0,0,0.2,0,0-0.1l-5.2,0.1c-2.5,0-3.3-0.2-4.8-0.3c-0.9,0-3.1,0-2.3,0.2c0.5,0,1,0,1.3,0
						c-2.6,0.2-1.8-0.1-5.1,0.1c2.5-0.2-0.8-0.3-0.5-0.5c-3.8,0.1-0.4,0.4-0.8,0.5c-4.7-0.1-5.3-0.3-9.9-0.3
						c-0.3,0.1,3.3,0.1,3.7,0.2c-1.3,0-2.9,0-3.1,0l2.9,0.1c-4.9-0.2-9.5-0.2-14.9-0.1l0.4,0.1l-3.4,0l1.2-0.2
						c-1.8,0.1-3.7-0.2-4.7,0l0.7,0l-2.3,0.1l2.3-0.2c-2.9-0.1-6.8,0.4-11.5,0.3c-1-0.3,8.1-0.1,8.7-0.5c-1.5-0.1-4.2-0.1-5.1,0
						c0.2,0.1,1.3,0.1,2.4,0.1c-4.1,0.2-10.2-0.1-12.8,0.2l3.1,0.1c-3.6,0-5.9-0.4-7.1-0.2l2.8-0.4c-3.6,0.2-8.3,0.2-11.7,0.3
						c-0.1,0.2,4.9,0,4.7,0l-1.6,0.2c-5.3-0.1-1.5-0.1-7.9-0.3l-0.1,0.2c-2.1-0.2-7.9,0.2-5.7-0.2l1.7,0.1l-0.1-0.2l-7.4,0.1
						c0.7-0.1-2.9-0.1-1.9-0.3l-2.7,0.2c-1.2-0.3,5-0.3,5.3-0.5c-0.1-0.1-1.4-0.1-2-0.1c3.3-0.2,4.9,0.3,8.2,0.3l1.6-0.2l-0.1,0.2
						c1.4,0,2.5-0.2,3-0.3c3.2,0.3,6.7-0.1,11.6,0c-4.1,0.1,2.6,0.2,1.9,0.3c2.2,0,7.8-0.4,9.7-0.1c1.3,0.1-2.7,0.2,0.4,0.2
						c2,0,3.4-0.2,2.1-0.3c4.5-0.1,9.8,0,14.8,0l-1.2,0.2c3.1,0.1,6.1-0.1,7.7-0.3c0.4,0.1,0.7,0,0.2,0.1c3.9,0.3,5-0.3,11.5-0.3
						c-0.4-0.2-3.3-0.2-5.3-0.1l0.5-0.3c-5.6,0-11.9,0-16.4,0.2l2.1-0.2c-3.9-0.3-2.8,0.3-6.5-0.1c-2.7,0.1,2,0.1-0.1,0.2
						c-1.9-0.1,0.5-0.4-2.7-0.5c12.1-0.1,25.8-0.1,38.5-0.2c0.2,0-0.4-0.1-1.1-0.1c4.4-0.3,39.6,0.6,40.7-0.1
						c0.6,0.1-1.4,0.2,1.3,0.2c0.2,0,0.9-0.1,0.3-0.2c6.8,0.4,15.9,0,24.1,0.2c-0.2-0.1,1.6-0.2,1.7-0.3c2.8,0.3,7.6,0,10.2,0.1
						l-0.9-0.1l8.3,0c0.2,0-0.9,0-1.5-0.1c1.8-0.1,2.2,0.1,2.4,0.2l3.7-0.3c10.8,0.5,24.2-0.3,36.6,0c1.9-0.2,3.5-0.3,6.6-0.3
						l-1.5-0.1c3.2-0.2,0.2,0.1,2.9,0c1.8-0.1,0.6-0.3-1.9-0.2c-1.6-0.1-0.6-0.2,0.5-0.2C371.1,528.4,380.3,528.6,388.4,529z"/>
					<path style="fill:#099788;" d="M11.2,528.1c1.1,0.1-4.3,0.1-1.7,0.3c8.3,0.4,21.9,0.1,31.8,0.4c2.6,0.2,3.3,0.2,5.7,0.3
						c0,0,0.1-0.1-0.1-0.1c2.7,0,7,0,9.7,0.1c0.8,0,1.3-0.2-0.1-0.2c4.1-0.2,7,0.3,9.4,0.2c-2-0.1,2-0.2-0.4-0.3
						c4.3,0,3.9,0.6,7.3,0.7c0.2,0,0.4-0.1-0.3-0.1c3.7,0.3,11.3-0.2,11.7,0.3l1.5-0.2c1.6,0.1,1.2,0.2,3.9,0.3
						c1.8-0.1-0.1-0.2,0.6-0.2c0.7,0.2,5.5,0.1,7.6,0.3c0.1,0.3-3.8-0.4-6-0.1c-0.1,0.1,0.2,0.1,0.7,0.1c-11.2-0.1-19.8-0.8-29-0.6
						c-2-0.2-3.6,0-4.5,0.2c1.7,0.1,6.4,0.3,6.5-0.1l2.9,0.2c1.1,0,1.1,0.4,1.5,0.4c-2,0-4.3,0.3-1.6,0.5c-5.3,0,1.7-0.8-3-0.7
						l-0.7,0.3c0.9-0.1-3.2-0.3-4.7-0.2l0.6,0.1c-12.6-0.1-29.4,0-43.4,0.1c-3.4-0.7-10.2,0.2-13.4-0.3c-1.5,0.1,2.2,0.2-0.8,0.3
						c-1.5,0-1.6-0.1-1.5-0.2c-0.4,0-0.9,0-1.3,0.1C-0.8,529.2,1.7,528.6,11.2,528.1z"/>
				</g>
			</g>
		</g>
	</g>
</g>
<g>
</g>
<g>
</g>
<g>
</g>
<g>
</g>
<g>
</g>
<g>
</g>
</svg>
