<?xml version="1.0" encoding="utf-8"?>
<!-- Generator: Adobe Illustrator 19.0.0, SVG Export Plug-In . SVG Version: 6.00 Build 0)  -->
<svg version="1.1" id="Layer_1" xmlns="http://www.w3.org/2000/svg" xmlns:xlink="http://www.w3.org/1999/xlink" x="0px" y="0px"
	 viewBox="0 0 388.7 388.7" style="enable-background:new 0 0 388.7 388.7;" xml:space="preserve">
<g>
	<circle style="fill:#099788;" cx="194.4" cy="194.4" r="194.4"/>
	<g style="display:none;">
		<rect x="-0.7" y="447.8" style="display:inline;fill:none;" width="389.6" height="67.9"/>
		<path style="display:inline;fill:#099788;" d="M4.3,500.6c0-1.7,0.1-5.1,0.2-10.1c0.1-5,0.2-8.4,0.2-10.1c0-4.2-0.1-9.7-0.3-16.7
			c-0.2-6.9-0.3-12.5-0.3-16.7v-0.5c0-0.8,0-1.5,0.1-2c0.1-0.6,0.2-1.2,0.4-1.9c0.2-0.7,0.5-1.3,0.9-1.7c0.5-0.4,1-0.6,1.7-0.6
			c2.6,0,4.8,0.6,6.6,1.7c1.9,1.1,3.3,2.7,4.3,4.7c1,2,1.5,4.4,1.5,7c0,1.6-0.3,3.3-0.9,5.1s-1.4,3.5-2.4,5c-1,1.5-2.1,2.7-3.3,3.6
			c3.2,2.1,5.5,4.9,7,8.3c1.5,3.4,2.3,7.1,2.3,11.1c0,2-0.6,4.3-1.9,7.1c-0.8,1.7-1.7,3.1-2.7,4.3c-1,1.2-2.3,2.2-3.8,3
			c-1.7,0.9-3.4,1.3-5.4,1.3H8.1C5.6,502.7,4.3,502,4.3,500.6z M10.9,465.3c0.6-0.6,1.2-1.4,1.7-2.4c0.8-1.6,1.6-3.4,2.3-5.6
			c0.3-1.1,0.6-1.8,0.8-2.2v-2.9c0-1.1-0.3-2.1-0.8-3.2c-0.6-1.1-1.3-2-2.2-2.7c-0.9-0.7-1.9-1.1-2.8-1.1c-0.8,0-1.2,0.9-1.2,2.6
			c0,2.7,0.1,5.9,0.2,9.6c0.1,3.7,0.2,6.8,0.2,9.2C9.6,466.3,10.3,465.9,10.9,465.3z M13.9,496.4c1.3-1,2.3-2.4,3-3.9
			c0.7-1.6,1.1-3.3,1.1-5.3c0-2.5-0.2-4.8-0.6-6.9c-0.4-2.1-0.9-3.7-1.6-4.8c-0.6-1-1.2-1.9-1.8-2.6c-0.6-0.7-1.1-1.2-1.6-1.4
			l-0.6-0.3H8.9c0.3,7.2,0.4,16.3,0.4,27.2C11,498.1,12.6,497.5,13.9,496.4z"/>
		<path style="display:inline;fill:#099788;" d="M40.2,501.5c-0.4-0.3-0.6-0.9-0.6-1.6v-10.7c-0.7-0.5-2-1-4-1.3
			c-1.9-0.4-3.8-0.6-5.6-0.7c-0.5,0.9-1,2.3-1.4,4.2l-0.2,1.2c-0.4,2.2-0.8,4-1.2,5.3s-0.8,2.5-1.3,3.3c-2.1,0-3.3-0.5-3.6-1.6
			c0.5-0.7,1.2-3.3,2-7.7c0.7-3.8,1.6-8.8,2.7-15c1.2-7.3,2.3-13.4,3.4-18.3c1-5,2.1-9.1,3.2-12.5c1.2-3.8,2.4-5.7,3.6-5.7
			s2.1,0.2,2.6,0.7c0,2,0.5,7.3,1.6,15.8c1.1,8.5,1.6,14.1,1.6,16.8c0,2.6,0.3,6.7,0.9,12.4c0.6,5.9,0.8,10.3,0.8,13.2
			c0,1.8-0.9,2.8-2.7,2.8C41.2,501.9,40.6,501.8,40.2,501.5z M39.5,484.1c-0.1-1.2-0.4-4.2-0.8-8.9c-1.3-12.7-1.9-20.2-1.9-22.7
			c0-0.4,0-0.6,0-0.7c-0.5,0.5-1.3,3-2.2,7.4s-1.9,9.1-2.7,14.2c-0.8,5.1-1.3,8.4-1.4,10c2.3,0.6,4.8,0.9,7.3,0.9
			C38.3,484.3,38.9,484.3,39.5,484.1z"/>
		<path style="display:inline;fill:#099788;" d="M48.5,499.4c0-1.3,0.8-2,2.5-2c0.4,0,0.7,0,1,0l0.8,0.1c0.4,0,0.7-0.1,0.9-0.4
			c0.2-0.3,0.3-0.8,0.3-1.5c0-4.4-0.3-10.8-0.8-19c-0.5-8.2-0.8-14.5-0.8-18.9l0.1-4.2l0.1-4.2c0-1.6-0.1-3.1-0.2-4.6
			c-0.7,0.2-1.4,0.4-1.9,0.4c-1.3,0-1.9-0.7-1.9-2c0-0.6,0.4-1.2,1.2-1.7c0.8-0.5,1.8-0.9,3.1-1.1c2.2-0.4,4.2-0.6,5.8-0.6
			c0.6,0,1.2,0.2,1.7,0.7s0.7,1,0.7,1.6c0,0.6-0.2,1.1-0.5,1.5s-0.8,0.7-1.4,0.7c-0.3,0-0.6,0-0.8,0h-0.6c-0.6,0-1,0.1-1.2,0.4
			s-0.4,0.7-0.4,1.3c0,5.6,0.3,13.5,1,24c0.7,10.4,1,18.4,1,24v3.2c0.6-0.1,1.1-0.1,1.7-0.1c2.3,0,3.4,1,3.4,2.9v0.5l-2,1.4
			l-2.2,0.1c-1.3,0.1-2.4,0.1-3.4,0.1C50.9,501.9,48.5,501.1,48.5,499.4z M51.3,437.3c-0.3-0.2-0.4-0.5-0.4-0.8
			c0-0.3,0.1-0.5,0.4-0.8c1.2-1.2,3.2-2.9,5.9-5.2c2.5-2.1,4.2-3.5,4.8-4.2c0.3-0.1,0.5-0.2,0.7-0.2c0.6,0,1.2,0.3,1.8,1
			c0.6,0.7,0.9,1.4,0.9,2.1c0,0.6-0.2,1-0.6,1.3c-2.2,1.6-6.2,3.9-11.9,6.9c-0.2,0.1-0.4,0.2-0.7,0.2
			C51.9,437.6,51.6,437.5,51.3,437.3z"/>
		<path style="display:inline;fill:#099788;" d="M81.8,501.5c-0.4-0.3-0.6-0.9-0.6-1.6v-10.7c-0.7-0.5-2-1-4-1.3
			c-1.9-0.4-3.8-0.6-5.6-0.7c-0.5,0.9-1,2.3-1.4,4.2l-0.2,1.2c-0.4,2.2-0.8,4-1.2,5.3c-0.3,1.4-0.8,2.5-1.3,3.3
			c-2.1,0-3.3-0.5-3.6-1.6c0.5-0.7,1.2-3.3,2-7.7c0.7-3.8,1.6-8.8,2.7-15c1.2-7.3,2.3-13.4,3.4-18.3c1-5,2.1-9.1,3.2-12.5
			c1.2-3.8,2.4-5.7,3.6-5.7c1.2,0,2.1,0.2,2.6,0.7c0,2,0.5,7.3,1.6,15.8c1.1,8.5,1.6,14.1,1.6,16.8c0,2.6,0.3,6.7,0.9,12.4
			c0.6,5.9,0.8,10.3,0.8,13.2c0,1.8-0.9,2.8-2.7,2.8C82.8,501.9,82.2,501.8,81.8,501.5z M81.1,484.1c-0.1-1.2-0.4-4.2-0.8-8.9
			c-1.3-12.7-1.9-20.2-1.9-22.7c0-0.4,0-0.6,0-0.7c-0.5,0.5-1.3,3-2.2,7.4s-1.9,9.1-2.7,14.2c-0.8,5.1-1.3,8.4-1.4,10
			c2.3,0.6,4.8,0.9,7.3,0.9C79.9,484.3,80.4,484.3,81.1,484.1z"/>
		<path style="display:inline;fill:#099788;" d="M104.3,501.4c-0.8-0.5-1.2-1.2-1.2-2.1c1.2-1.3,1.8-4.5,1.8-9.6
			c0-3.2-0.3-7.7-0.8-13.6c-0.5-5.8-0.8-10.3-0.8-13.5c0-1,0-2.4,0.1-4.4s0.1-3.5,0.1-4.5c0-1.5-0.3-3.5-0.9-5.8
			c-0.6-2.5-0.9-4.2-0.9-5.2c0-1.9,2.1-2.8,6.3-2.8h1.2c1.5,0,2.9,0.2,4.3,0.7c1.3,0.5,2.5,1.2,3.5,2c0.9,0.7,1.7,1.7,2.5,2.9
			c0.8,1.2,1.4,2.4,1.9,3.7c0.5,1.1,0.9,2.4,1.2,3.9c0.4,1.5,0.6,2.9,0.9,4.2c0.1,1.1,0.3,2.3,0.4,3.7c0.1,1.4,0.2,2.6,0.2,3.5v2.6
			v3.8c-0.1,0.2-0.2,0.5-0.2,0.7c0,0.3,0,0.6,0.1,1l0.1,0.8c0,1.8-0.3,3.8-0.8,6.2c-0.5,2.4-1.3,4.9-2.3,7.4
			c-1.1,2.9-2.4,5.4-3.7,7.5c-1.3,2.1-2.9,3.9-4.6,5.3c-1.8,1.5-3.7,2.2-5.6,2.2C106,502.2,105.1,501.9,104.3,501.4z M114.1,491.9
			c1.5-2.4,2.7-5,3.5-7.9c1.5-5.4,2.2-10.8,2.2-16.2c0-3-0.3-6.2-0.8-9.6c-0.6-3.4-1.9-6.4-3.8-9.2c-0.9-1.3-2.1-2.3-3.5-3
			c-1.5-0.7-3.1-1.1-4.9-1.1v0.1c0,5.1,0.3,12.6,1,22.3c0.6,9.9,1,17.4,1,22.4v7.8C110.8,496.1,112.6,494.3,114.1,491.9z"/>
		<path style="display:inline;fill:#099788;" d="M136.7,502.8c-1.2-1-2.3-2.3-3.1-4c-0.8-1.5-1.5-3.4-2.1-5.6
			c-0.6-2.2-1.1-4.4-1.4-6.6c-0.3-1.9-0.6-4-0.8-6.3c-0.2-2.3-0.3-4.3-0.4-6.1c-0.1-2-0.1-3.5-0.1-4.3c0-1.5,0-3,0-4.4l-0.1-5.2
			c0-3.3,0.1-6.2,0.4-8.7c0.3-2.9,0.8-5.5,1.7-7.7c0.5-1.2,1-2.1,1.6-2.9c0.6-0.8,1.3-1.4,2.2-1.9c0.9-0.5,1.9-0.7,2.9-0.7
			c1.4,0,2.7,0.3,3.9,0.9c1.2,0.6,2.2,1.4,3,2.6c0.9,1.2,1.6,2.5,2.2,3.9c0.6,1.4,1.1,2.9,1.5,4.7c0.4,2.1,0.8,4,1,5.6
			c0.2,1.6,0.4,3.4,0.5,5.4c0.2,4,0.3,7.7,0.3,10.9v4.7c0,1.2-0.1,2.9-0.4,5.2c-0.2,2.3-0.4,4-0.4,5.1v0.4c-0.3,1.5-0.5,3.3-0.5,5.4
			c0,1.5-0.3,3.1-1,4.7c-0.6,1.6-1.6,3-2.8,4.2c-1.2,1.3-2.6,1.9-4.1,1.9C139.3,504.3,137.9,503.8,136.7,502.8z M143.7,496.7
			c0.7-1.8,1.2-4.1,1.5-6.7s0.6-5.6,0.8-8.7c0.1-1.9,0.2-3.7,0.2-5.4c0-2.5,0-5-0.1-7.6c-0.1-2.9-0.5-6.6-1-11.1
			c-0.5-3.7-1.3-7-2.4-10c-0.6-1.4-1.2-2.5-2.1-3.2c-0.8-0.7-1.7-1.1-2.7-1.1c-1.3,0-2.3,1.1-3,3.2c-0.8,2.4-1.4,4.9-1.6,7.4
			c-0.3,3.3-0.5,6-0.6,8.3l0,1.5c-0.1,2.6-0.1,4-0.1,4.3v0.4c0,3.6,0.4,8.1,1.1,13.5c0.5,3.5,1,6.5,1.6,9.1c0.6,2.6,1.4,4.7,2.3,6.5
			c1,1.9,2.1,2.8,3.4,2.8C141.9,499.8,142.9,498.8,143.7,496.7z"/>
		<path style="display:inline;fill:#099788;" d="M154.6,502.7c-0.9-0.4-1.3-1-1.3-1.7c0-0.6,0.2-1.2,0.5-1.6
			c0.3-0.4,0.8-0.6,1.4-0.6c0.6,0,1.5,0.2,2.4,0.6c1,0.4,1.7,0.6,2.1,0.6c1,0,2-0.5,2.8-1.4c0.9-0.9,1.6-2.1,2.1-3.5
			c0.5-1.3,0.8-2.7,1.1-4c0.3-1.3,0.4-2.5,0.4-3.4c0-2.3-0.4-4.8-1.1-7.4c-0.7-2.6-1.7-5.1-3-7.6l-1.2-2.3c-1.3-2.5-2.4-4.7-3.2-6.4
			c-0.8-1.7-1.5-3.6-2.1-5.5c-0.8-2.6-1.2-5.2-1.2-7.6c0-2,0.3-3.8,1-5.6c0.7-1.7,1.7-3.2,3.1-4.5c1.4-1.3,3.1-1.9,5-1.9
			c1,0,1.9,0.3,2.9,0.8c0.9,0.6,1.6,1.3,2,2.1l-1.4,1.8c-1.4,0-2.4-0.3-3.2-0.8c-1,0.1-1.8,0.6-2.6,1.4c-0.8,0.8-1.3,1.8-1.6,2.9
			c-0.3,1.1-0.5,2.1-0.5,3.1c0,2.1,0.3,4.3,0.8,6.4c0.6,2.2,1.3,4.2,2.2,6l0.6,1.2c2.6,5,4.3,8.5,5.1,10.3c0.9,1.9,1.7,4.2,2.2,6.6
			c0.6,2.5,0.8,4.9,0.8,7.4c0,1.7-0.2,3.4-0.7,5.2s-1.1,3.4-2,5c-0.9,1.6-2.1,2.9-3.6,3.9c-1.5,1-3.1,1.4-4.9,1.4
			C157.7,503.8,156,503.4,154.6,502.7z"/>
		<path style="display:inline;fill:#099788;" d="M196,503.4c-1.3-0.5-2.4-1.1-3.3-2c-0.9-0.7-1.7-1.7-2.4-2.9
			c-0.7-1.2-1.4-2.5-1.9-3.9c-0.5-1.1-0.8-2.5-1.2-4.1c-0.3-1.6-0.6-3.2-0.8-4.7c-0.2-1.3-0.3-2.7-0.4-4.5c-0.1-1.7-0.2-3.1-0.2-4.2
			c0-0.7,0-1.9,0-3.7v-2.8c0-0.9,0-2,0-3.2c0-2.6,0.1-5.4,0.3-8.4c0.2-2.9,0.6-5.7,1.3-8.6c0.4-1.5,0.8-2.8,1.3-3.9
			c0.5-1.1,1.1-2.2,1.8-3.3c0.7-1.1,1.5-2,2.4-2.7c0.9-0.7,1.9-1.3,3.1-1.7c1.1-0.4,2.4-0.6,3.9-0.6c2.3,0,3.4,0.8,3.4,2.3
			c0,0.6-0.2,1-0.6,1.4c-0.4,0.4-0.9,0.5-1.5,0.5c-0.2,0-0.6-0.1-1.2-0.2c-0.6-0.1-1-0.2-1.2-0.2c-1,0-1.9,0.3-2.8,0.9
			c-0.8,0.6-1.5,1.5-2.1,2.7c-0.6,1.3-1.1,2.7-1.6,4s-0.7,2.9-1,4.6c-0.3,2.2-0.6,4-0.7,5.4c-0.1,1.4-0.2,2.9-0.3,4.6
			c-0.1,2.5-0.2,5.1-0.2,7.8v2.2c0,0.7,0,1.7,0,2.8c0,1.7,0,3.1,0.1,4.2c0,1.2,0.1,2.5,0.3,4c0.2,1.7,0.4,3.1,0.7,4.4
			c0.3,1.3,0.7,2.5,1.1,3.8c0.5,1.3,1.1,2.4,1.8,3.3c0.7,0.9,1.5,1.5,2.6,2.1c1,0.6,2.1,0.8,3.4,0.8c2.4,0,4.4-1.1,6-3.4
			c0-1.8-0.2-3.7-0.4-5.5c-0.2-1.9-0.5-3.1-0.9-3.8l-1.3,0.2c-0.7,0.1-1.4,0.2-1.9,0.2c-1.9,0-2.8-0.8-2.8-2.3c0-0.5,0.3-1,0.8-1.3
			c0.6-0.4,1.3-0.7,2.2-0.9c1.6-0.3,3-0.5,4.1-0.5s1.9,0.4,2.6,1.2c0.6,0.8,0.9,1.9,0.9,3.1c0,1.6,0.3,4.1,0.8,7.3
			c0.5,3.3,0.8,5.8,0.8,7.3c0,0.6-0.2,1.2-0.6,1.6c-0.4,0.4-0.9,0.6-1.4,0.6c-1.4,0-2.3-0.6-2.7-1.7v-0.1c-0.2,0.1-0.8,0.4-1.8,0.9
			c-0.9,0.5-1.7,0.9-2.3,1.1c-0.6,0.2-1.3,0.3-1.9,0.3C198.6,504.2,197.3,503.9,196,503.4z"/>
		<path style="display:inline;fill:#099788;" d="M220,502.8c-1.2-1-2.3-2.3-3.1-4c-0.8-1.5-1.5-3.4-2.1-5.6
			c-0.6-2.2-1.1-4.4-1.4-6.6c-0.3-1.9-0.6-4-0.8-6.3s-0.3-4.3-0.4-6.1c-0.1-2-0.1-3.5-0.1-4.3c0-1.5,0-3,0-4.4l-0.1-5.2
			c0-3.3,0.1-6.2,0.4-8.7c0.3-2.9,0.8-5.5,1.7-7.7c0.5-1.2,1-2.1,1.6-2.9c0.6-0.8,1.3-1.4,2.2-1.9c0.9-0.5,1.9-0.7,2.9-0.7
			c1.4,0,2.7,0.3,3.9,0.9c1.2,0.6,2.2,1.4,3,2.6c0.9,1.2,1.6,2.5,2.2,3.9c0.6,1.4,1.1,2.9,1.5,4.7c0.4,2.1,0.8,4,1,5.6
			c0.2,1.6,0.4,3.4,0.5,5.4c0.2,4,0.3,7.7,0.3,10.9v4.7c0,1.2-0.1,2.9-0.4,5.2c-0.2,2.3-0.4,4-0.4,5.1v0.4c-0.3,1.5-0.5,3.3-0.5,5.4
			c0,1.5-0.3,3.1-1,4.7c-0.6,1.6-1.6,3-2.8,4.2c-1.2,1.3-2.6,1.9-4.1,1.9C222.6,504.3,221.2,503.8,220,502.8z M227,496.7
			c0.7-1.8,1.2-4.1,1.5-6.7s0.6-5.6,0.8-8.7c0.1-1.9,0.2-3.7,0.2-5.4c0-2.5,0-5-0.1-7.6c-0.1-2.9-0.5-6.6-1-11.1
			c-0.5-3.7-1.3-7-2.4-10c-0.6-1.4-1.2-2.5-2.1-3.2c-0.8-0.7-1.7-1.1-2.7-1.1c-1.3,0-2.3,1.1-3,3.2c-0.8,2.4-1.4,4.9-1.6,7.4
			c-0.3,3.3-0.5,6-0.6,8.3l0,1.5c-0.1,2.6-0.1,4-0.1,4.3v0.4c0,3.6,0.4,8.1,1.1,13.5c0.5,3.5,1,6.5,1.6,9.1s1.4,4.7,2.3,6.5
			c1,1.9,2.1,2.8,3.4,2.8C225.3,499.8,226.2,498.8,227,496.7z"/>
		<path style="display:inline;fill:#099788;" d="M240.2,502.1c-0.6-0.5-0.8-1.1-0.8-1.8c0-0.5,0.1-1.1,0.3-1.8
			c0.2-0.8,0.2-1.4,0.2-1.8c0-5.9-0.3-15.2-0.8-28c-0.6-12.4-0.8-21.7-0.8-27.9c0-0.5,0.2-0.9,0.6-1.2c0.4-0.3,0.9-0.5,1.4-0.5
			c0.7,0,1.2,0.2,1.7,0.7c0.5,0.5,0.7,1,0.7,1.7c0,3,0.1,7.9,0.4,14.8c0.3,6.2,0.4,11.2,0.4,14.7l0.1,1c0,0.3,0,0.6,0,1
			c0,0.3,0,0.5,0,0.6v0.4c0.2,5.1,0.3,12.2,0.3,21.4v2.1h6.2c1.2,0.8,1.8,1.6,1.8,2.4c0,0.6-0.2,1.2-0.6,1.6
			c-0.4,0.5-0.9,0.7-1.5,0.7c-0.3,0-0.5-0.1-0.8-0.2l-0.4-0.1c-0.4,0.1-0.9,0.2-1.6,0.2l-1.3-0.1c-0.4,0-0.8,0-1.3,0
			c-0.6,0.7-1.3,1-2.3,1C241.4,502.9,240.8,502.6,240.2,502.1z"/>
		<path style="display:inline;fill:#099788;" d="M256.7,496.8c0-3.7-0.1-9.8-0.4-18.3c-0.3-8.5-0.6-16.2-1-23.1
			c-0.4-6.9-0.8-10.6-1.1-11.2c0-0.8,0.2-1.5,0.5-2.1c0.3-0.6,0.8-1.1,1.3-1.4c0.5-0.3,1.1-0.5,1.9-0.7c0.8-0.2,1.5-0.3,2.1-0.3
			c0.4,0,1.1,0,2.1,0c1.2,0,2.1,0.2,2.7,0.6c0.5,0.4,0.8,1.1,0.8,2.2c0,0.6-0.2,1-0.7,1.3c-0.4,0.3-1,0.5-1.6,0.5l-0.8,0
			c-0.3,0-0.7,0-1.2,0c-1.5,0-2.3,0.3-2.3,0.9c0,2.5,0.2,6.2,0.6,11.1c0.4,4.7,0.6,8.4,0.6,10.9c0.1,0,0.7-0.2,1.8-0.5
			c1.1-0.3,2.1-0.4,2.8-0.4c0.6,0,1.1,0.3,1.6,0.8c0.4,0.5,0.7,1.1,0.7,1.7c0,0.8-0.3,1.3-1,1.6c-0.5,0.2-0.8,0.4-1.2,0.5
			s-0.7,0.2-1.2,0.3c-0.9,0.1-1.7,0.2-2.5,0.2l-0.9,0c0,2.8,0.3,7.2,0.8,13.3c0.5,5.8,0.8,10.2,0.8,13.4l-0.1,0.3l-0.1,0.2
			c0.1,0.3,0.2,0.6,0.2,1c0,0.7-0.3,1.3-0.8,1.7c-0.5,0.4-1.2,0.6-2,0.6C257.5,502.1,256.7,500.3,256.7,496.8z"/>
		<path style="display:inline;fill:#099788;" d="M270.5,499.4c0-1.3,0.8-2,2.5-2c0.4,0,0.7,0,1,0l0.8,0.1c0.4,0,0.7-0.1,0.9-0.4
			c0.2-0.3,0.3-0.8,0.3-1.5c0-4.4-0.3-10.8-0.8-19c-0.5-8.2-0.8-14.5-0.8-18.9l0.1-4.2l0.1-4.2c0-1.6-0.1-3.1-0.2-4.6
			c-0.7,0.2-1.4,0.4-1.9,0.4c-1.3,0-1.9-0.7-1.9-2c0-0.6,0.4-1.2,1.2-1.7c0.8-0.5,1.8-0.9,3.1-1.1c2.2-0.4,4.2-0.6,5.8-0.6
			c0.6,0,1.2,0.2,1.7,0.7s0.7,1,0.7,1.6c0,0.6-0.2,1.1-0.5,1.5c-0.4,0.4-0.8,0.7-1.4,0.7c-0.3,0-0.6,0-0.8,0h-0.6
			c-0.6,0-1,0.1-1.2,0.4s-0.4,0.7-0.4,1.3c0,5.6,0.3,13.5,1,24c0.7,10.4,1,18.4,1,24v3.2c0.6-0.1,1.1-0.1,1.7-0.1
			c2.3,0,3.4,1,3.4,2.9v0.5l-2,1.4l-2.2,0.1c-1.3,0.1-2.4,0.1-3.4,0.1C272.8,501.9,270.5,501.1,270.5,499.4z"/>
		<path style="display:inline;fill:#099788;" d="M302.9,486.3c-3.5-11.9-6.8-23.9-9.9-36.3v26.9c0,2.6,0.2,6.5,0.6,11.7
			c0.4,5.4,0.6,9.3,0.6,11.7c0,0.5-0.3,0.9-0.9,1.2c-0.6,0.3-1.3,0.5-2,0.5c-1.2,0-1.8-0.4-1.8-1.3c0-0.2,0.1-1,0.2-2.4
			c0.1-1.4,0.2-2.6,0.2-3.4c0-3-0.2-7.6-0.5-13.8c-0.3-6.1-0.5-10-0.5-11.7V459c0-1.9,0.1-4.4,0.3-7.5c0.2-3.1,0.3-5.6,0.3-7.5v-0.5
			c0-2.7,0.6-4.1,1.8-4.1c0.7,0,1.7,1.2,2.8,3.6c1.8,4,4.1,11,6.8,21.1c1.5,5.8,3.4,13.4,5.6,22.8l1.3,5.7l0.1,0.4
			c0-3.9,0.1-8.6,0.2-14.3c0.1-5.7,0.2-10.4,0.2-14.3v-24.3c0.3-1.4,1.2-2,2.7-2c1.5,0,2.2,1.1,2.2,3.2v0.5
			c-0.3,0.7-0.5,1.5-0.5,2.4c0,3.3-0.1,8.4-0.2,15.1c-0.2,6.3-0.3,11.4-0.3,15.2v25.1c0,0.9-0.2,1.7-0.7,2.5s-1,1.2-1.7,1.2
			C308.5,503.2,306.3,497.6,302.9,486.3z"/>
		<path style="display:inline;fill:#099788;" d="M331.8,502.5c-0.3-0.5-0.5-1.2-0.5-2c0-10.4-0.2-20-0.7-28.9
			c-1.4-0.3-2.3-0.4-2.7-0.4c-2.3,0-3.9,0.2-4.8,0.6c0,2.9,0.2,7.5,0.7,13.8c0.5,6.4,0.7,11,0.7,14c0,0.6-0.2,1.1-0.5,1.5
			c-0.3,0.4-0.8,0.7-1.3,0.7c-0.7,0-1.4-1.3-1.9-3.8c-0.5-2.2-1-5.3-1.3-9.3s-0.6-8.6-0.8-14c-0.3-6.9-0.5-15.5-0.6-25.9
			c0-1.7,0-4.1,0-7.2c0-1,0.5-1.5,1.4-1.5c0.5,0,1,0.1,1.6,0.4c0.6,0.3,1,0.6,1.3,0.9c-0.2,1.8-0.3,3.9-0.3,6.2
			c0,2.1,0.1,4.9,0.3,8.4c0.2,3.5,0.3,6.3,0.3,8.4c0,0.6,0,1.1,0,1.5c0,0.5,0,1,0,1.6c0,0.9,0.1,1.6,0.2,2.1c1.3-0.1,2.6-0.2,4-0.3
			c1.5-0.1,2.8-0.2,4-0.3c0-3.4-0.1-7.8-0.2-13.1c-0.1-5.3-0.2-9.9-0.2-13.8v-2.2c0.7,0,1.3,0.1,1.9,0.4c0.5,0.3,1,0.6,1.3,0.9
			c0.2,0.3,0.4,0.8,0.6,1.4c0.1,0.6,0.2,1.2,0.3,1.7c0,0.3,0,0.9,0,1.8c0,5.7,0.3,14.7,0.8,27c0.5,11.7,0.8,20.8,0.8,27
			c0,0.7-0.2,1.4-0.7,2c-0.5,0.6-1,0.9-1.7,0.9C332.7,503.2,332.2,503,331.8,502.5z"/>
		<path style="display:inline;fill:#099788;" d="M348.7,502.8c-1.2-1-2.3-2.3-3.1-4c-0.8-1.5-1.5-3.4-2.1-5.6
			c-0.6-2.2-1.1-4.4-1.4-6.6c-0.3-1.9-0.6-4-0.8-6.3c-0.2-2.3-0.3-4.3-0.4-6.1c-0.1-2-0.1-3.5-0.1-4.3c0-1.5,0-3,0-4.4l-0.1-5.2
			c0-3.3,0.1-6.2,0.4-8.7c0.3-2.9,0.8-5.5,1.7-7.7c0.5-1.2,1-2.1,1.6-2.9c0.6-0.8,1.3-1.4,2.2-1.9c0.9-0.5,1.9-0.7,2.9-0.7
			c1.4,0,2.7,0.3,3.9,0.9c1.2,0.6,2.2,1.4,3,2.6c0.9,1.2,1.6,2.5,2.2,3.9c0.6,1.4,1.1,2.9,1.5,4.7c0.4,2.1,0.8,4,1,5.6
			c0.2,1.6,0.4,3.4,0.5,5.4c0.2,4,0.3,7.7,0.3,10.9v4.7c0,1.2-0.1,2.9-0.4,5.2c-0.2,2.3-0.4,4-0.4,5.1v0.4c-0.3,1.5-0.5,3.3-0.5,5.4
			c0,1.5-0.3,3.1-1,4.7c-0.6,1.6-1.6,3-2.8,4.2c-1.2,1.3-2.6,1.9-4.1,1.9C351.3,504.3,350,503.8,348.7,502.8z M355.7,496.7
			c0.7-1.8,1.2-4.1,1.5-6.7s0.6-5.6,0.8-8.7c0.1-1.9,0.2-3.7,0.2-5.4c0-2.5,0-5-0.1-7.6c-0.1-2.9-0.5-6.6-1-11.1
			c-0.5-3.7-1.3-7-2.4-10c-0.6-1.4-1.2-2.5-2.1-3.2c-0.8-0.7-1.7-1.1-2.7-1.1c-1.3,0-2.3,1.1-3,3.2c-0.8,2.4-1.4,4.9-1.6,7.4
			c-0.3,3.3-0.5,6-0.6,8.3l0,1.5c-0.1,2.6-0.1,4-0.1,4.3v0.4c0,3.6,0.4,8.1,1.1,13.5c0.5,3.5,1,6.5,1.6,9.1c0.6,2.6,1.4,4.7,2.3,6.5
			c1,1.9,2.1,2.8,3.4,2.8C354,499.8,354.9,498.8,355.7,496.7z"/>
		<path style="display:inline;fill:#099788;" d="M366.7,502.7c-0.9-0.4-1.3-1-1.3-1.7c0-0.6,0.2-1.2,0.5-1.6
			c0.3-0.4,0.8-0.6,1.4-0.6c0.6,0,1.5,0.2,2.4,0.6c1,0.4,1.7,0.6,2.1,0.6c1,0,2-0.5,2.8-1.4c0.9-0.9,1.6-2.1,2.1-3.5
			c0.5-1.3,0.8-2.7,1.1-4c0.3-1.3,0.4-2.5,0.4-3.4c0-2.3-0.4-4.8-1.1-7.4c-0.7-2.6-1.7-5.1-3-7.6l-1.2-2.3c-1.3-2.5-2.4-4.7-3.2-6.4
			c-0.8-1.7-1.5-3.6-2.1-5.5c-0.8-2.6-1.2-5.2-1.2-7.6c0-2,0.3-3.8,1-5.6c0.7-1.7,1.7-3.2,3.1-4.5c1.4-1.3,3.1-1.9,5-1.9
			c1,0,1.9,0.3,2.9,0.8c0.9,0.6,1.6,1.3,2,2.1l-1.4,1.8c-1.4,0-2.4-0.3-3.2-0.8c-1,0.1-1.8,0.6-2.6,1.4c-0.8,0.8-1.3,1.8-1.6,2.9
			c-0.3,1.1-0.5,2.1-0.5,3.1c0,2.1,0.3,4.3,0.8,6.4c0.6,2.2,1.3,4.2,2.2,6l0.6,1.2c2.6,5,4.3,8.5,5.1,10.3c0.9,1.9,1.7,4.2,2.2,6.6
			c0.6,2.5,0.8,4.9,0.8,7.4c0,1.7-0.2,3.4-0.7,5.2c-0.5,1.8-1.1,3.4-2,5c-0.9,1.6-2.1,2.9-3.6,3.9c-1.5,1-3.1,1.4-4.9,1.4
			C369.7,503.8,368,503.4,366.7,502.7z"/>
	</g>
	<g style="display:none;">
		<rect x="55.8" y="547.5" style="display:inline;fill:none;" width="277.7" height="34.5"/>
		<path style="display:inline;fill:#099788;" d="M70.1,549.8v1.6h-6v17.1h-1.8v-17.1h-6v-1.6H70.1z"/>
		<path style="display:inline;fill:#099788;" d="M83,568c-0.5,0.1-1.2,0.3-2.1,0.5s-2,0.3-3.2,0.3c-1,0-1.9-0.2-2.6-0.5
			c-0.7-0.3-1.3-0.7-1.7-1.3c-0.4-0.6-0.7-1.2-0.9-2c-0.2-0.8-0.3-1.7-0.3-2.6v-7.8h1.8v7.3c0,1,0.1,1.8,0.2,2.5
			c0.1,0.7,0.4,1.2,0.7,1.7s0.7,0.7,1.3,0.9c0.5,0.2,1.1,0.3,1.9,0.3c0.8,0,1.5,0,2.2-0.1c0.6-0.1,1-0.2,1.2-0.2v-12.3H83V568z"/>
		<path style="display:inline;fill:#099788;" d="M92.4,554.2c0.6,0,1.1,0,1.6,0.1c0.5,0.1,0.9,0.2,1.1,0.3l-0.4,1.5
			c-0.1-0.1-0.4-0.1-0.9-0.2c-0.4-0.1-1-0.1-1.7-0.1c-0.8,0-1.4,0.1-1.8,0.2s-0.8,0.2-0.9,0.3v12.2h-1.8v-13.3
			c0.5-0.2,1.1-0.4,1.9-0.6C90.3,554.3,91.3,554.2,92.4,554.2z"/>
		<path style="display:inline;fill:#099788;" d="M99.9,550.3c0,0.4-0.1,0.7-0.4,1c-0.3,0.2-0.6,0.4-0.9,0.4c-0.4,0-0.7-0.1-0.9-0.4
			c-0.3-0.2-0.4-0.6-0.4-1s0.1-0.7,0.4-1c0.3-0.2,0.6-0.4,0.9-0.4c0.4,0,0.7,0.1,0.9,0.4C99.8,549.6,99.9,549.9,99.9,550.3z
			 M99.5,568.5h-1.8v-14h1.8V568.5z"/>
		<path style="display:inline;fill:#099788;" d="M107,567.2c1,0,1.8-0.2,2.5-0.5c0.7-0.3,1-0.9,1-1.7c0-0.4-0.1-0.7-0.2-1
			c-0.1-0.3-0.3-0.5-0.6-0.7c-0.3-0.2-0.6-0.4-1.1-0.6c-0.4-0.2-1-0.4-1.6-0.7c-0.5-0.2-1-0.4-1.5-0.7s-0.9-0.5-1.2-0.8
			s-0.6-0.7-0.9-1.1c-0.2-0.4-0.3-0.9-0.3-1.5c0-1.1,0.4-2.1,1.3-2.8c0.9-0.7,2-1.1,3.5-1.1c1,0,1.7,0.1,2.4,0.2s1.1,0.3,1.3,0.4
			l-0.4,1.6c-0.2-0.1-0.6-0.3-1.1-0.4c-0.5-0.2-1.3-0.3-2.3-0.3c-0.4,0-0.8,0-1.1,0.1c-0.4,0.1-0.7,0.2-0.9,0.4s-0.5,0.4-0.6,0.6
			c-0.2,0.3-0.2,0.6-0.2,1s0.1,0.7,0.2,1c0.1,0.3,0.4,0.5,0.6,0.7s0.6,0.4,1,0.6c0.4,0.2,0.9,0.4,1.4,0.6c0.5,0.2,1.1,0.4,1.6,0.7
			c0.5,0.2,0.9,0.5,1.3,0.8c0.4,0.3,0.7,0.7,0.9,1.1c0.2,0.4,0.4,1,0.4,1.7c0,1.3-0.5,2.2-1.4,2.9c-0.9,0.6-2.2,1-3.9,1
			c-1.2,0-2.2-0.1-2.8-0.3c-0.6-0.2-1.1-0.4-1.3-0.5l0.5-1.6c0.1,0,0.2,0.1,0.4,0.2c0.2,0.1,0.4,0.2,0.7,0.3
			c0.3,0.1,0.7,0.2,1.1,0.3C106,567.2,106.5,567.2,107,567.2z"/>
		<path style="display:inline;fill:#099788;" d="M115.7,555c0.5-0.1,1.2-0.3,2-0.5c0.8-0.2,1.9-0.3,3.3-0.3c1.8,0,3,0.5,3.8,1.5
			c0.1-0.1,0.3-0.2,0.5-0.4c0.3-0.2,0.6-0.3,1-0.5c0.4-0.2,0.9-0.3,1.4-0.5c0.5-0.1,1.1-0.2,1.8-0.2c1.1,0,1.9,0.2,2.6,0.5
			c0.7,0.3,1.2,0.8,1.5,1.3s0.6,1.2,0.7,2c0.1,0.8,0.2,1.7,0.2,2.6v7.8h-1.8v-7.2c0-0.9,0-1.7-0.1-2.4c-0.1-0.7-0.2-1.2-0.5-1.7
			c-0.2-0.4-0.6-0.8-1-1s-1-0.3-1.8-0.3c-0.5,0-1,0-1.5,0.1c-0.4,0.1-0.8,0.2-1.1,0.4c-0.3,0.1-0.6,0.3-0.8,0.4s-0.4,0.3-0.4,0.3
			c0.2,0.5,0.3,1,0.4,1.6c0.1,0.6,0.1,1.2,0.1,1.8v7.9h-1.8v-7.2c0-0.9,0-1.7-0.1-2.4c-0.1-0.7-0.2-1.2-0.5-1.7s-0.6-0.8-1.1-1
			s-1.1-0.3-1.8-0.3c-0.8,0-1.6,0-2.1,0.1c-0.6,0.1-1,0.2-1.1,0.2v12.3h-1.8V555z"/>
		<path style="display:inline;fill:#099788;" d="M150.9,561.5c0,1.1-0.2,2.1-0.5,3c-0.3,0.9-0.8,1.7-1.3,2.3c-0.6,0.6-1.2,1.1-2,1.5
			c-0.8,0.4-1.6,0.5-2.6,0.5s-1.8-0.2-2.6-0.5c-0.8-0.4-1.4-0.8-2-1.5c-0.6-0.6-1-1.4-1.3-2.3c-0.3-0.9-0.5-1.9-0.5-3
			c0-1.1,0.2-2.1,0.5-3c0.3-0.9,0.8-1.7,1.3-2.3c0.6-0.6,1.2-1.1,2-1.5c0.8-0.4,1.6-0.5,2.6-0.5s1.8,0.2,2.6,0.5
			c0.8,0.4,1.4,0.8,2,1.5c0.6,0.6,1,1.4,1.3,2.3C150.8,559.4,150.9,560.4,150.9,561.5z M149.1,561.5c0-1.7-0.4-3.1-1.2-4.2
			c-0.8-1-1.9-1.6-3.3-1.6c-1.4,0-2.5,0.5-3.3,1.6c-0.8,1-1.2,2.4-1.2,4.2s0.4,3.1,1.2,4.2s1.9,1.5,3.3,1.5c1.4,0,2.5-0.5,3.3-1.5
			S149.1,563.3,149.1,561.5z"/>
		<path style="display:inline;fill:#099788;" d="M171.6,563.6c0.4-0.6,0.8-1.3,1-2c0.2-0.7,0.4-1.5,0.5-2.3l1.5,0.2
			c-0.1,0.9-0.3,1.8-0.6,2.7c-0.3,0.9-0.8,1.7-1.4,2.5c0.7,0.7,1.4,1.4,1.9,2s0.9,1.2,1.3,1.8h-2c-0.3-0.4-0.6-0.8-0.9-1.2
			s-0.8-0.8-1.2-1.3c-0.7,0.9-1.5,1.5-2.5,2c-1,0.5-2.1,0.7-3.4,0.7c-1.1,0-2-0.2-2.8-0.5s-1.4-0.7-1.8-1.2c-0.5-0.5-0.8-1-1-1.6
			c-0.2-0.6-0.3-1.2-0.3-1.8c0-0.7,0.1-1.4,0.3-1.9c0.2-0.6,0.5-1.1,0.9-1.5c0.4-0.4,0.8-0.8,1.3-1.2c0.5-0.3,1-0.6,1.5-0.8
			c-0.8-0.8-1.3-1.5-1.6-2.2c-0.3-0.7-0.5-1.4-0.5-2.1c0-0.7,0.1-1.3,0.3-1.9c0.2-0.6,0.5-1,0.9-1.4c0.4-0.4,0.9-0.7,1.4-0.9
			c0.6-0.2,1.2-0.3,1.8-0.3c0.7,0,1.3,0.1,1.8,0.3c0.5,0.2,1,0.5,1.3,0.8c0.4,0.4,0.6,0.8,0.8,1.3c0.2,0.5,0.3,1,0.3,1.6
			c0,0.7-0.1,1.3-0.4,1.8c-0.2,0.5-0.5,1-0.9,1.4c-0.4,0.4-0.8,0.8-1.3,1.1c-0.5,0.3-1,0.6-1.6,0.9L171.6,563.6z M165.8,567.2
			c1,0,2-0.2,2.8-0.6c0.8-0.4,1.5-1,2.1-1.7l-5.5-5.6c-0.4,0.2-0.8,0.3-1.1,0.5c-0.4,0.2-0.8,0.5-1.1,0.8s-0.6,0.8-0.8,1.3
			c-0.2,0.5-0.3,1.1-0.3,1.7c0,0.4,0.1,0.8,0.2,1.3c0.1,0.4,0.4,0.8,0.7,1.1c0.3,0.3,0.7,0.6,1.2,0.8
			C164.4,567.1,165.1,567.2,165.8,567.2z M169.1,553.3c0-0.7-0.2-1.3-0.7-1.8c-0.5-0.5-1.1-0.7-1.8-0.7c-0.9,0-1.6,0.2-2.1,0.7
			s-0.7,1.2-0.7,2c0,0.6,0.1,1.3,0.4,1.9c0.3,0.6,0.8,1.3,1.5,2c1.1-0.5,1.9-1,2.6-1.6C168.8,555.2,169.1,554.4,169.1,553.3z"/>
		<path style="display:inline;fill:#099788;" d="M184.7,549.8h1.8v18.7h-1.8V549.8z"/>
		<path style="display:inline;fill:#099788;" d="M191.3,555c0.5-0.1,1.2-0.3,2.1-0.5c0.9-0.2,2-0.3,3.2-0.3c1.1,0,1.9,0.2,2.7,0.5
			c0.7,0.3,1.3,0.7,1.7,1.3c0.4,0.6,0.7,1.2,0.9,2s0.3,1.7,0.3,2.6v7.8h-1.8v-7.2c0-1-0.1-1.8-0.2-2.5c-0.1-0.7-0.4-1.2-0.7-1.7
			c-0.3-0.4-0.7-0.7-1.2-0.9s-1.2-0.3-1.9-0.3c-0.8,0-1.5,0-2.1,0.1c-0.6,0.1-1,0.2-1.2,0.2v12.3h-1.8V555z"/>
		<path style="display:inline;fill:#099788;" d="M210.8,566.6c0.4-0.8,0.8-1.7,1.2-2.7s0.8-2,1.2-3.1c0.4-1.1,0.7-2.2,1-3.2
			c0.3-1.1,0.6-2.1,0.8-3.1h1.8c-0.3,1.3-0.7,2.5-1.1,3.8c-0.4,1.2-0.8,2.5-1.3,3.6s-0.9,2.3-1.4,3.4c-0.5,1.1-0.9,2.1-1.4,3.1H210
			c-0.5-1-0.9-2-1.4-3.1c-0.5-1.1-0.9-2.2-1.4-3.4s-0.9-2.4-1.3-3.6c-0.4-1.2-0.8-2.5-1.1-3.8h1.9c0.2,1,0.5,2,0.8,3.1
			c0.3,1.1,0.7,2.2,1,3.2s0.8,2.1,1.2,3.1S210.5,565.8,210.8,566.6z"/>
		<path style="display:inline;fill:#099788;" d="M218.7,561.5c0-1.2,0.2-2.3,0.5-3.2c0.4-0.9,0.8-1.7,1.4-2.3
			c0.6-0.6,1.2-1.1,1.9-1.4c0.7-0.3,1.5-0.4,2.3-0.4c1.7,0,3.1,0.6,4.1,1.7c1,1.1,1.5,2.8,1.5,5.2c0,0.1,0,0.3,0,0.4
			c0,0.1,0,0.3,0,0.4h-9.8c0.1,1.7,0.5,3,1.3,3.9s2.1,1.4,3.8,1.4c1,0,1.7-0.1,2.3-0.3c0.6-0.2,1-0.3,1.2-0.5l0.3,1.5
			c-0.3,0.1-0.7,0.3-1.4,0.5s-1.5,0.3-2.4,0.3c-1.2,0-2.3-0.2-3.1-0.5s-1.6-0.9-2.1-1.5s-1-1.4-1.2-2.3S218.7,562.5,218.7,561.5z
			 M228.7,560.4c0-1.5-0.4-2.6-1-3.4s-1.6-1.2-2.8-1.2c-0.6,0-1.2,0.1-1.7,0.4c-0.5,0.3-0.9,0.6-1.3,1c-0.4,0.4-0.7,0.9-0.9,1.5
			c-0.2,0.6-0.3,1.1-0.4,1.8H228.7z"/>
		<path style="display:inline;fill:#099788;" d="M237.2,567.2c1,0,1.8-0.2,2.5-0.5c0.7-0.3,1-0.9,1-1.7c0-0.4-0.1-0.7-0.2-1
			c-0.1-0.3-0.3-0.5-0.6-0.7c-0.3-0.2-0.6-0.4-1.1-0.6c-0.4-0.2-1-0.4-1.6-0.7c-0.5-0.2-1-0.4-1.5-0.7c-0.5-0.2-0.9-0.5-1.2-0.8
			c-0.4-0.3-0.6-0.7-0.9-1.1s-0.3-0.9-0.3-1.5c0-1.1,0.4-2.1,1.3-2.8s2-1.1,3.5-1.1c1,0,1.7,0.1,2.4,0.2s1.1,0.3,1.3,0.4l-0.4,1.6
			c-0.2-0.1-0.6-0.3-1.1-0.4c-0.5-0.2-1.3-0.3-2.3-0.3c-0.4,0-0.8,0-1.1,0.1s-0.7,0.2-0.9,0.4s-0.5,0.4-0.6,0.6
			c-0.2,0.3-0.2,0.6-0.2,1s0.1,0.7,0.2,1c0.1,0.3,0.4,0.5,0.6,0.7c0.3,0.2,0.6,0.4,1,0.6c0.4,0.2,0.9,0.4,1.4,0.6
			c0.5,0.2,1.1,0.4,1.6,0.7s0.9,0.5,1.3,0.8c0.4,0.3,0.7,0.7,0.9,1.1c0.2,0.4,0.4,1,0.4,1.7c0,1.3-0.5,2.2-1.4,2.9s-2.2,1-3.9,1
			c-1.2,0-2.2-0.1-2.8-0.3c-0.6-0.2-1.1-0.4-1.3-0.5l0.5-1.6c0.1,0,0.2,0.1,0.4,0.2c0.2,0.1,0.4,0.2,0.7,0.3
			c0.3,0.1,0.7,0.2,1.1,0.3C236.2,567.2,236.7,567.2,237.2,567.2z"/>
		<path style="display:inline;fill:#099788;" d="M247.6,554.5h5.6v1.5h-5.6v7.4c0,0.8,0.1,1.4,0.2,1.9c0.1,0.5,0.3,0.9,0.6,1.1
			c0.3,0.3,0.6,0.5,0.9,0.5c0.4,0.1,0.8,0.1,1.2,0.1c0.7,0,1.3-0.1,1.8-0.3c0.5-0.2,0.8-0.3,1.1-0.5l0.4,1.5
			c-0.3,0.2-0.7,0.3-1.3,0.6c-0.6,0.2-1.3,0.3-2.1,0.3c-0.9,0-1.6-0.1-2.2-0.3c-0.6-0.2-1.1-0.6-1.4-1c-0.4-0.5-0.6-1-0.7-1.7
			c-0.1-0.7-0.2-1.5-0.2-2.4v-12.9l1.8-0.3V554.5z"/>
		<path style="display:inline;fill:#099788;" d="M258.5,550.3c0,0.4-0.1,0.7-0.4,1c-0.3,0.2-0.6,0.4-0.9,0.4s-0.7-0.1-0.9-0.4
			c-0.3-0.2-0.4-0.6-0.4-1s0.1-0.7,0.4-1c0.3-0.2,0.6-0.4,0.9-0.4s0.7,0.1,0.9,0.4C258.4,549.6,258.5,549.9,258.5,550.3z
			 M258.1,568.5h-1.8v-14h1.8V568.5z"/>
		<path style="display:inline;fill:#099788;" d="M271.9,566.9c-0.1,0.1-0.3,0.2-0.5,0.3c-0.2,0.1-0.5,0.2-0.8,0.4
			c-0.3,0.1-0.7,0.2-1.1,0.3c-0.4,0.1-0.9,0.1-1.4,0.1c-0.8,0-1.6-0.1-2.3-0.4c-0.8-0.3-1.4-0.6-2-1.2s-1-1.2-1.4-2.1
			c-0.3-0.9-0.5-1.9-0.5-3.1c0-1,0.2-1.9,0.5-2.8c0.3-0.8,0.7-1.6,1.3-2.2c0.6-0.6,1.3-1.1,2.1-1.5c0.8-0.4,1.7-0.5,2.8-0.5
			c1.3,0,2.3,0.1,3.1,0.3c0.8,0.2,1.4,0.3,1.9,0.5v12.7c0,2.1-0.5,3.6-1.6,4.5c-1.1,0.9-2.7,1.3-4.9,1.3c-0.9,0-1.7-0.1-2.4-0.2
			c-0.7-0.1-1.4-0.3-1.9-0.5l0.4-1.6c0.4,0.2,1,0.4,1.8,0.5s1.5,0.2,2.3,0.2c1.7,0,2.9-0.3,3.6-1c0.7-0.6,1.1-1.7,1.1-3.3V566.9z
			 M271.9,556.2c-0.3-0.1-0.7-0.2-1.2-0.3s-1.2-0.1-2.1-0.1c-0.8,0-1.4,0.1-2,0.4c-0.6,0.3-1.1,0.6-1.5,1.1c-0.4,0.5-0.7,1-0.9,1.7
			c-0.2,0.7-0.3,1.4-0.3,2.2c0,0.9,0.1,1.7,0.4,2.4c0.3,0.7,0.6,1.2,1,1.6c0.4,0.4,0.9,0.7,1.4,0.9c0.5,0.2,1.1,0.3,1.6,0.3
			c0.8,0,1.5-0.1,2.2-0.4c0.7-0.2,1.2-0.5,1.5-0.8V556.2z"/>
		<path style="display:inline;fill:#099788;" d="M282.5,554.2c0.9,0,1.7,0.1,2.3,0.4c0.6,0.3,1.2,0.6,1.6,1.1c0.4,0.5,0.7,1,0.9,1.6
			c0.2,0.6,0.3,1.3,0.3,2.1v8.8c-0.2,0.1-0.4,0.1-0.8,0.2s-0.7,0.1-1.2,0.2c-0.5,0.1-0.9,0.1-1.5,0.2c-0.5,0-1.1,0.1-1.7,0.1
			c-0.7,0-1.4-0.1-2-0.2c-0.6-0.2-1.2-0.4-1.6-0.8s-0.8-0.8-1.1-1.4c-0.3-0.5-0.4-1.2-0.4-2c0-0.8,0.1-1.4,0.4-1.9
			c0.3-0.5,0.7-1,1.2-1.3c0.5-0.4,1.1-0.6,1.9-0.8c0.7-0.2,1.5-0.2,2.3-0.2c0.3,0,0.5,0,0.8,0c0.3,0,0.5,0.1,0.8,0.1
			c0.3,0,0.5,0.1,0.7,0.1s0.3,0.1,0.4,0.1v-0.9c0-0.5,0-1-0.1-1.4s-0.2-0.9-0.5-1.2c-0.2-0.4-0.6-0.7-1-0.9s-1-0.3-1.7-0.3
			c-1,0-1.8,0.1-2.3,0.2s-0.9,0.3-1.1,0.4l-0.2-1.5c0.3-0.1,0.8-0.3,1.4-0.4C280.8,554.3,281.6,554.2,282.5,554.2z M282.7,567.2
			c0.7,0,1.3,0,1.8-0.1s0.9-0.1,1.3-0.2V562c-0.2-0.1-0.5-0.2-0.9-0.3c-0.4-0.1-1-0.1-1.8-0.1c-0.4,0-0.9,0-1.3,0.1
			c-0.5,0.1-0.9,0.2-1.3,0.4s-0.7,0.5-1,0.9s-0.4,0.8-0.4,1.4c0,0.5,0.1,1,0.3,1.3c0.2,0.4,0.4,0.6,0.7,0.9c0.3,0.2,0.7,0.4,1.1,0.5
			C281.6,567.2,282.1,567.2,282.7,567.2z"/>
		<path style="display:inline;fill:#099788;" d="M297.6,569.4c0.5,0.2,0.9,0.5,1.2,0.8c0.3,0.3,0.4,0.7,0.4,1.3c0,0.2,0,0.4-0.1,0.7
			c-0.1,0.2-0.2,0.5-0.4,0.7c-0.2,0.2-0.5,0.4-0.8,0.5s-0.8,0.2-1.3,0.2c-0.4,0-0.7,0-1.1-0.1c-0.4-0.1-0.6-0.1-0.8-0.2l0.2-1.2
			c0.2,0.1,0.4,0.2,0.7,0.2s0.6,0.1,0.9,0.1c0.7,0,1.1-0.3,1.1-0.8c0-0.3-0.1-0.5-0.4-0.7c-0.3-0.2-0.6-0.4-1.2-0.6
			c0.1-0.2,0.2-0.5,0.3-0.7c0.1-0.3,0.2-0.5,0.4-0.8c-1.8-0.2-3.2-1-4.1-2.2c-0.9-1.3-1.4-2.9-1.4-4.9c0-1.1,0.1-2.1,0.4-3
			c0.3-0.9,0.7-1.7,1.3-2.3c0.6-0.6,1.2-1.1,2-1.5s1.7-0.5,2.7-0.5c0.8,0,1.5,0.1,2.1,0.2c0.7,0.1,1.2,0.3,1.5,0.5l-0.5,1.5
			c-0.4-0.2-0.8-0.3-1.2-0.4c-0.4-0.1-1.1-0.2-1.8-0.2c-1.5,0-2.7,0.5-3.5,1.5s-1.2,2.4-1.2,4.3c0,0.8,0.1,1.6,0.3,2.3
			c0.2,0.7,0.5,1.3,0.9,1.8c0.4,0.5,0.9,0.9,1.6,1.2c0.6,0.3,1.4,0.4,2.3,0.4c0.8,0,1.4-0.1,1.9-0.3c0.5-0.2,0.9-0.3,1.1-0.4
			l0.4,1.5c-0.3,0.2-0.8,0.4-1.5,0.5c-0.7,0.2-1.4,0.3-2.1,0.3c-0.1,0.1-0.1,0.2-0.2,0.4C297.7,569.3,297.6,569.4,297.6,569.4z"/>
		<path style="display:inline;fill:#099788;" d="M308.7,554.2c0.9,0,1.7,0.1,2.3,0.4c0.6,0.3,1.2,0.6,1.6,1.1c0.4,0.5,0.7,1,0.9,1.6
			c0.2,0.6,0.3,1.3,0.3,2.1v8.8c-0.2,0.1-0.4,0.1-0.8,0.2s-0.7,0.1-1.2,0.2c-0.5,0.1-0.9,0.1-1.5,0.2s-1.1,0.1-1.7,0.1
			c-0.7,0-1.4-0.1-2-0.2c-0.6-0.2-1.2-0.4-1.6-0.8s-0.8-0.8-1.1-1.4c-0.3-0.5-0.4-1.2-0.4-2c0-0.8,0.1-1.4,0.4-1.9s0.7-1,1.2-1.3
			s1.1-0.6,1.9-0.8s1.5-0.2,2.3-0.2c0.3,0,0.5,0,0.8,0s0.5,0.1,0.8,0.1c0.3,0,0.5,0.1,0.7,0.1c0.2,0,0.3,0.1,0.4,0.1v-0.9
			c0-0.5,0-1-0.1-1.4c-0.1-0.5-0.2-0.9-0.5-1.2s-0.6-0.7-1-0.9s-1-0.3-1.7-0.3c-1,0-1.8,0.1-2.3,0.2c-0.5,0.1-0.9,0.3-1.1,0.4
			l-0.2-1.5c0.3-0.1,0.8-0.3,1.4-0.4C307,554.3,307.8,554.2,308.7,554.2z M310.8,551.5c-0.4,0-0.8-0.1-1.1-0.2s-0.6-0.3-0.9-0.4
			c-0.3-0.2-0.6-0.3-0.8-0.4s-0.4-0.1-0.6-0.1c-0.4,0-0.7,0.1-0.9,0.4c-0.2,0.3-0.4,0.5-0.6,0.8l-1-0.5c0.1-0.2,0.2-0.4,0.4-0.7
			c0.2-0.3,0.3-0.5,0.5-0.7s0.4-0.4,0.7-0.5s0.6-0.2,1-0.2c0.4,0,0.8,0.1,1.1,0.2s0.6,0.3,0.9,0.4c0.3,0.2,0.6,0.3,0.8,0.4
			c0.2,0.1,0.4,0.1,0.6,0.1c0.4,0,0.7-0.1,0.9-0.4c0.2-0.3,0.4-0.5,0.6-0.8l1,0.5c-0.1,0.2-0.2,0.5-0.4,0.7
			c-0.2,0.3-0.3,0.5-0.5,0.7c-0.2,0.2-0.5,0.4-0.7,0.5C311.5,551.4,311.2,551.5,310.8,551.5z M308.8,567.2c0.7,0,1.3,0,1.8-0.1
			c0.5,0,0.9-0.1,1.3-0.2V562c-0.2-0.1-0.5-0.2-0.9-0.3c-0.4-0.1-1-0.1-1.8-0.1c-0.4,0-0.9,0-1.4,0.1c-0.5,0.1-0.9,0.2-1.3,0.4
			c-0.4,0.2-0.7,0.5-1,0.9s-0.4,0.8-0.4,1.4c0,0.5,0.1,1,0.3,1.3c0.2,0.4,0.4,0.6,0.7,0.9c0.3,0.2,0.7,0.4,1.1,0.5
			C307.8,567.2,308.3,567.2,308.8,567.2z"/>
		<path style="display:inline;fill:#099788;" d="M330.1,561.5c0,1.1-0.2,2.1-0.5,3c-0.3,0.9-0.8,1.7-1.3,2.3s-1.2,1.1-2,1.5
			s-1.6,0.5-2.6,0.5c-0.9,0-1.8-0.2-2.6-0.5s-1.4-0.8-2-1.5s-1-1.4-1.3-2.3c-0.3-0.9-0.5-1.9-0.5-3c0-1.1,0.2-2.1,0.5-3
			c0.3-0.9,0.8-1.7,1.3-2.3c0.6-0.6,1.2-1.1,2-1.5s1.6-0.5,2.6-0.5c0.9,0,1.8,0.2,2.6,0.5s1.4,0.8,2,1.5c0.6,0.6,1,1.4,1.3,2.3
			C329.9,559.4,330.1,560.4,330.1,561.5z M328.2,561.5c0-1.7-0.4-3.1-1.2-4.2c-0.8-1-1.9-1.6-3.3-1.6c-1.4,0-2.5,0.5-3.3,1.6
			c-0.8,1-1.2,2.4-1.2,4.2s0.4,3.1,1.2,4.2c0.8,1,1.9,1.5,3.3,1.5c1.4,0,2.5-0.5,3.3-1.5C327.8,564.6,328.2,563.3,328.2,561.5z"/>
	</g>
	<circle style="fill:none;stroke:#FFFFFF;stroke-width:4.9156;stroke-miterlimit:10;" cx="194" cy="194.2" r="179.8"/>
	<g>
		<defs>
			<circle id="SVGID_1_" cx="194.8" cy="194.3" r="161.7"/>
		</defs>
		<clipPath id="SVGID_2_">
			<use xlink:href="#SVGID_1_"  style="overflow:visible;"/>
		</clipPath>
		<rect x="47.7" y="306.4" style="clip-path:url(#SVGID_2_);fill:#FFFFFF;" width="311.9" height="79"/>
		<path style="clip-path:url(#SVGID_2_);fill:#FFFFFF;" d="M334.8,281.9c-36.3,14.3-45.9,3.2-42.7-4.1c3.3-7.3-14-13.8-29.7-1.2
			c-6.6,5.3-13.4,7.7-13.4,7.7l-0.1,0c-33.3,12.5-39.9,1.4-36.7-5.9c3.3-7.3-14-13.8-29.7-1.2c-6.6,5.3-13.4,7.7-13.4,7.7l-0.2,0
			c-33.3,12.5-39.9,1.4-36.7-5.9c3.3-7.3-14-13.8-29.7-1.2c-6.6,5.3-13.4,7.7-13.4,7.7l-0.1,0.1c-33.3,12.5-39.9,1.4-36.7-5.9
			c3.3-7.3-20.9,38.9-20.9,38.9h294.9L334.8,281.9z"/>
	</g>
	<g>
		<path style="fill:#FFFFFF;" d="M318.9,124c-6.6,5.9-9.3,16-43.2,18.5c-23.6,2.9-32.9,6.6-44.1,11.6c-11.1,5-32.6,17.6-36.2,17.7v0
			c-3.6-0.1-25-12.7-36.2-17.7c-11.2-5-20.5-8.7-44.1-11.6C81.2,140,78.5,129.9,71.9,124c-6.6-5.9-21.3-8.9-10.3,26.6
			c11,35.5,38.8,48.2,44.8,53.5c6,5.3,64.5,40.6,64.5,40.6s3.3,2.4,5.6,7.4c1.7,4.4,3.2,10.9,4.1,15.8c4.6-3.2,16.9-10.3,30.9-6.1
			c0.8-3.4,1.7-6.9,2.8-9.7c2.3-5,5.6-7.4,5.6-7.4s58.5-35.3,64.5-40.6c6-5.3,33.8-18,44.8-53.5C340.2,115.2,325.4,118.2,318.9,124z
			"/>
	</g>
	<g style="display:none;">
		<g style="display:inline;">
			<g>
				<g>
					<path style="fill:#FFFFFF;" d="M173.3,409.4c1.8-0.1,5.9-0.2,5.8,0c0.1-0.2,0.1-0.2,2.8-0.4c-0.1,0.2,2.4,0.1,4,0.1
						c-1.3-0.1-3.1-0.1-6.6-0.2c-3.2,0.3-10-0.2-13,0.2C168.4,409.2,170.5,409.4,173.3,409.4z"/>
					<path style="fill:#FFFFFF;" d="M187.9,410.4l0.5-0.1l-5.6,0.2C183.8,410.4,187.7,410.3,187.9,410.4z"/>
					<path style="fill:#099788;" d="M206.1,410.2c-0.5,0.2,2.4,0.3,2.3,0.4c-0.1-0.4,4.5-0.1,7-0.1l1-0.3c-2.4-0.2-8.5-0.1-13.6-0.1
						L206.1,410.2z"/>
					<path style="fill:#FFFFFF;" d="M210.7,410.4l1.6-0.2C210.9,410.2,207.8,410.3,210.7,410.4z"/>
					<path style="fill:#FFFFFF;" d="M207.2,409.4c-4,0,2.4,0.1-1.6,0.2C206.9,409.5,208.5,409.5,207.2,409.4z"/>
					<polygon style="fill:#099788;" points="224,409.9 215.5,410.1 219,410.2 					"/>
					<path style="fill:#099788;" d="M224.5,410.5c-1.1,0-2.9-0.1-1.3-0.2c3.1,0.2,5-0.1,7.8,0.1l-2.7,0.1c0.4,0.2,5.7-0.2,5.5,0.2
						c3.7-0.3-2.8-0.3,2-0.5c-4.5,0.1-7.8,0-11.6-0.1c1.1,0.1,1.5,0.1,3.1,0.1l-9.4,0.2C219.5,410.6,221.8,410.4,224.5,410.5z"/>
					<path style="fill:#099788;" d="M238.1,410.6c2.9,0,7.4,0,8.1-0.3c-3.1-0.2-3.6,0-5,0.2c-0.9-0.1-3.8-0.1-2.6-0.2
						C239.1,410.3,236.8,410.5,238.1,410.6z"/>
					<path style="fill:#099788;" d="M249.5,410.6l2.1-0.3l-1.4,0l-0.2-0.2c-0.2,0-1.3,0.4-4.2,0.4
						C247.4,410.7,247.9,410.6,249.5,410.6z"/>
					<path style="fill:#099788;" d="M250.2,409.3c2,0.1,3.1,0.1,5.4,0c-3.1,0-7.6,0-8.5,0.1l0.2,0c0,0-3,0.1-5,0.3
						C245.4,409.5,251.1,409.8,250.2,409.3z"/>
					<path style="fill:#099788;" d="M246.2,409.3l2.3-0.2L246.2,409.3z"/>
					<polygon style="fill:#099788;" points="258.4,410.6 254,410.5 255.1,410.6 					"/>
					<path style="fill:#099788;" d="M253.1,409.8c3.6,0-1.9-0.2,1.4-0.2c0.9,0-4.9,0-5.2,0.1C250.2,409.7,252.8,409.5,253.1,409.8z"
						/>
					<path style="fill:#099788;" d="M261.3,410.6l3.7-0.2L261.3,410.6z"/>
					<path style="fill:#099788;" d="M270.5,410.7l0.7-0.1c3.5,0.1,8.3-0.1,10.9,0.2c-0.6-0.2,1.5-0.4-1.6-0.4
						c-0.5,0.1-1.6,0.1-1.4,0.2c-1.3,0-1.1-0.2-1.9-0.2c-2.3,0.2-5.8,0-7.7,0.2c0.9,0,1.1,0,1.8,0c-3.9,0.3-4.6-0.4-6.3,0.1
						C266.3,410.5,268.6,410.8,270.5,410.7z"/>
					<path style="fill:#099788;" d="M270.1,409.7l-3.1-0.1c1-0.2,3.8,0,4.3-0.2c-0.2-0.1-3.3-0.2-2.2-0.2c-0.4,0.5-4.3,0-2.6,0.5
						c-4,0.1-1.2-0.3-5.5-0.3l-1.2,0.2C264.6,409.6,265.4,409.9,270.1,409.7z"/>
					<path style="fill:#099788;" d="M282.2,409.8l1.5,0.1l-0.8-0.2c6.9,0,11,0.8,15.2,0.7c5.2-0.3,10.1,0.1,15.5,0.1
						c2.6-0.2-2.5-0.1-2.8-0.2c0.8-0.4,2.5,0.2,3.8-0.1c0.3-0.3-5.5-0.3-7.8-0.4c-2,0-2,0.1-2.6,0.3c-0.5-0.1-2.5-0.2-3-0.3
						c-4.2,0.2-6.3-0.2-10.4,0c-1.3-0.2,3.1,0,1.7-0.1l-2.2,0l0.2,0c-3,0.2-8.7,0-10.6-0.1c1.5,0.1,2.6,0.2,0.8,0.3l-1.5-0.2
						l-3.9,0.3C278.2,409.8,281.6,410.2,282.2,409.8z"/>
					<path style="fill:#099788;" d="M277.8,409.4c-4.7-0.1,0.6,0.3-4.5,0.2l5.4,0L277.8,409.4z"/>
					<path style="fill:#FFFFFF;" d="M300.1,410l2.3,0.2C301.2,409.8,297.5,410.2,300.1,410z"/>
					<polygon style="fill:#FFFFFF;" points="308.6,410 307.4,410.3 309.6,410.1 					"/>
					<path style="fill:#099788;" d="M316.4,410.3c1.7-0.1-0.3-0.3-2.3-0.2C315.8,410.1,316.8,410.2,316.4,410.3z"/>
					<path style="fill:#FFFFFF;" d="M329.1,410.9c-3.9,0,3.5,0.1,0.7,0.3C330.3,411.1,332.3,410.9,329.1,410.9z"/>
					<path style="fill:#099788;" d="M341.8,411.6c-1.4,0.1-2,0-2.2-0.1C340.6,411.5,341.4,411.5,341.8,411.6z"/>
					<path style="fill:#099788;" d="M293.1,410.7l-1.4,0L293.1,410.7z"/>
					<path style="fill:#099788;" d="M294,410.7l-0.9,0L294,410.7z"/>
					<polygon style="fill:#099788;" points="322.9,411.3 322.9,411.3 322.6,411.3 					"/>
					<polygon style="fill:#099788;" points="199.2,410.5 197.4,410.6 199.2,410.5 					"/>
					<path style="fill:#099788;" d="M197.1,410.1c3.2-0.2,3.4,0.4,8.6,0.3l-6.5,0.1C196.2,410.2,201.5,410.4,197.1,410.1z"/>
					<path style="fill:#099788;" d="M240.4,409.8l0.2,0C240.9,409.8,240.8,409.8,240.4,409.8z"/>
					<polygon style="fill:#FFFFFF;" points="56.2,410.4 56.1,410.5 53.3,410.4 					"/>
					<path style="fill:#FFFFFF;" d="M56.6,410.6l4.9,0.2l-28.8,0l0.9-0.1C33.1,410.5,57.4,410.7,56.6,410.6z"/>
					<path style="fill:#FFFFFF;" d="M58,410.5c2.8-0.3,4.7,0.1,8.1-0.1c-2.3,0.2-3.9,0.3-6.1,0.2L58,410.5z"/>
					<path style="fill:none;stroke:#099788;stroke-width:0;stroke-linecap:round;stroke-linejoin:round;" d="M67.6,409.8
						c1.5,0.1,3.4-0.1,4.3,0C71.3,410,68.9,409.9,67.6,409.8z"/>
					<polygon style="fill:#099788;" points="71.7,408.8 72.4,408.8 71.7,408.9 					"/>
					<path style="fill:#099788;" d="M71.7,408.9l0,0.1C71.2,409,71.3,408.9,71.7,408.9z"/>
					<path style="fill:#099788;" d="M72.4,408.8c0.6,0,1.4-0.1,1.8-0.1l-0.7,0c0.9,0,2.5-0.1,2.9-0.1c-1.8,0-1.8,0.1-1.9,0.2l2.9,0
						C77,409.3,75,408.9,72.4,408.8z"/>
					<path style="fill:none;stroke:#099788;stroke-width:0;stroke-linecap:round;stroke-linejoin:round;" d="M81.6,408.7l-3,0.2
						C77.8,408.8,80.5,408.7,81.6,408.7z"/>
					<path style="fill:#099788;" d="M86,409c-0.7,0.1-3.6,0-1.8,0.1c-0.5,0-1,0-1.6,0C84.5,409.1,82.6,408.9,86,409z"/>
					<path style="fill:#099788;" d="M82.5,409.2l-0.8,0L82.5,409.2z"/>
					<path style="fill:none;stroke:#099788;stroke-width:0;stroke-linecap:round;stroke-linejoin:round;" d="M51.4,410.1
						c0.4,0,0.3,0.1,0.2,0.1L51.4,410.1z"/>
					<polygon style="fill:#099788;" points="91.9,409.2 93,409.2 92.1,409.2 					"/>
					<path style="fill:#099788;" d="M-0.7,411.3c3.9,0.1,7.6,0.1,13.2,0c-0.1-0.3,2.3-0.1,2.6-0.4c-5.8,0,21.9-0.2,17.3-0.3
						l-1.4,0.1l1.4-0.3c2.8,0.1,6.6,0.3,8.5,0.1c0.5,0.1-23.8,0-22.9,0.1c-2.2-0.3,32.6-0.3,33.5-0.5l0.4,0.2
						c4.3-0.2,7.1-0.4,10.7-0.6l0.8,0.2c-2.7-0.1-3.4,0.1-6.1,0.2c4.7,0,5.6,0.1,9.1,0c-0.1-0.3-3.1-0.1,1.4-0.3
						c1.3,0.1-1.7,0.4,2.3,0.4c4.9,0.1,3.9-0.3,8.2-0.4l-2.9-0.1c1.6,0,4.5-0.1,6,0.1c-1.8,0-6.3,0.1-6.2,0.4c1.8-0.1,5.8,0,7.4,0
						l-1,0.2c1.7,0.2,2.7-0.1,4.9,0.1c2.1-0.1-1.2-0.3-0.1-0.4c0.4,0.1,4.4,0.2,5.8,0c-1-0.4-4.7,0.1-7.3-0.3l3.8,0.1
						c2.4-0.4-6,0-4.8-0.3c2.8-0.4,5.9,0.4,8.5-0.1c-1.7-0.1-7.3-0.1-6.6-0.3c2,0.1,3.4-0.1,6.1-0.2l3.3,0.2
						c1.4-0.1,0.3-0.1-0.8-0.2c4.8,0.2,13,0,19.8,0.2c4-0.1,0.5-0.2,2.3-0.3c2.2,0.2,5.8,0,8,0c0.7,0,1.9-0.2,1.2-0.3l-5.6,0.2
						c0.3-0.1-0.6-0.3-2.6-0.3c1.4,0.5-7.9-0.3-8.4,0.2l0.1-0.2l-7.2,0.2l0.2,0c0-0.1-6.1,0.2-10.1,0.1c1.1-0.1,7.8,0,3.9-0.3
						c3-0.1,8.2,0.1,13.6,0l-1.1-0.2c5.7-0.2,13.2,0.1,19.4,0l-1.9,0.2c2.2,0.1,5,0.3,7.1,0.1c-2.7,0-1.3-0.1-0.8-0.2
						c3.6-0.1,8.9,0,13.9-0.1c0,0-0.2,0,0,0.1l5.2-0.1c2.5,0,3.3,0.2,4.8,0.3c0.9,0,3.1,0,2.3-0.2c-0.5,0-1,0-1.3,0
						c2.6-0.2,1.8,0.1,5.1-0.1c-2.5,0.2,0.8,0.3,0.5,0.5c3.8-0.1,0.4-0.4,0.8-0.5c4.7,0.1,5.3,0.3,9.9,0.3c0.3-0.1-3.3-0.1-3.7-0.2
						c1.3,0,2.9,0,3.1,0l-2.9-0.1c4.9,0.2,9.5,0.2,14.9,0.1l-0.4-0.1l3.4,0l-1.2,0.2c1.8-0.1,3.7,0.2,4.7,0l-0.7,0l2.3-0.1l-2.3,0.2
						c2.9,0.1,6.8-0.4,11.5-0.3c1,0.3-8.1,0.1-8.7,0.5c1.5,0.1,4.2,0.1,5.1,0c-0.2-0.1-1.3-0.1-2.4-0.1c4.1-0.2,10.2,0.1,12.8-0.2
						l-3.1-0.1c3.6,0,5.9,0.4,7.1,0.2l-2.8,0.4c3.6-0.2,8.3-0.2,11.7-0.3c0.1-0.2-4.9,0-4.7,0l1.6-0.2c5.3,0.1,1.5,0.1,7.9,0.3
						l0.1-0.2c2.1,0.2,7.9-0.2,5.7,0.2l-1.7-0.1l0.1,0.2l7.4-0.1c-0.7,0.1,2.9,0.1,1.9,0.3l2.7-0.2c1.2,0.3-5,0.3-5.3,0.5
						c0.1,0.1,1.4,0.1,2,0.1c-3.3,0.2-4.9-0.3-8.2-0.3l-1.6,0.2l0.1-0.2c-1.4,0-2.5,0.2-3,0.3c-3.2-0.3-6.7,0.1-11.6,0
						c4.1-0.1-2.6-0.2-1.9-0.3c-2.2,0-7.8,0.4-9.7,0.1c-1.3-0.1,2.7-0.2-0.4-0.2c-2,0-3.4,0.2-2.1,0.3c-4.5,0.1-9.8,0-14.8,0
						l1.2-0.2c-3.1-0.1-6.1,0.1-7.7,0.3c-0.4-0.1-0.7,0-0.2-0.1c-3.9-0.3-5,0.3-11.5,0.3c0.4,0.2,3.3,0.2,5.3,0.1l-0.5,0.3
						c5.6,0,11.9,0,16.4-0.2l-2.1,0.2c3.9,0.3,2.8-0.3,6.5,0.1c2.7-0.1-2-0.1,0.1-0.2c1.9,0.1-0.5,0.4,2.7,0.5
						c-12.1,0.1-25.8,0.1-38.5,0.2c-0.2,0,0.4,0.1,1.1,0.1c-4.4,0.3-39.6-0.6-40.7,0.1c-0.6-0.1,1.4-0.2-1.3-0.2
						c-0.2,0-0.9,0.1-0.3,0.2c-6.8-0.4-15.9,0-24.1-0.2c0.2,0.1-1.6,0.2-1.7,0.3c-2.8-0.3-7.6,0-10.2-0.1l0.9,0.1l-8.3,0
						c-0.2,0,0.9,0,1.5,0.1c-1.8,0.1-2.2-0.1-2.4-0.2l-3.7,0.3c-10.8-0.5-24.2,0.3-36.6,0c-1.9,0.2-3.5,0.3-6.6,0.3l1.5,0.1
						c-3.2,0.2-0.2-0.1-2.9,0c-1.8,0.1-0.6,0.3,1.9,0.2c1.6,0.1,0.6,0.2-0.5,0.2C16.7,411.8,7.4,411.7-0.7,411.3z"/>
					<path style="fill:#099788;" d="M376.5,412.1c-1.1-0.1,4.3-0.1,1.7-0.3c-8.3-0.4-21.9-0.1-31.8-0.4c-2.6-0.2-3.3-0.2-5.7-0.3
						c0,0-0.1,0.1,0.1,0.1c-2.7,0-7,0-9.7-0.1c-0.8,0-1.3,0.2,0.1,0.2c-4.1,0.2-7-0.3-9.3-0.2c2,0.1-2,0.2,0.4,0.3
						c-4.3,0-3.9-0.6-7.3-0.7c-0.2,0-0.4,0.1,0.3,0.1c-3.7-0.3-11.3,0.2-11.7-0.3l-1.5,0.2c-1.6-0.1-1.2-0.2-3.9-0.3
						c-1.8,0.1,0.1,0.2-0.6,0.2c-0.7-0.2-5.5-0.1-7.6-0.3c-0.1-0.3,3.8,0.4,6,0.1c0.1-0.1-0.2-0.1-0.7-0.1c11.2,0.1,19.7,0.8,29,0.6
						c2,0.2,3.6,0,4.5-0.2c-1.7-0.1-6.4-0.3-6.5,0.1l-2.9-0.2c-1.1,0-1.1-0.4-1.5-0.4c2,0,4.3-0.3,1.6-0.5c5.3,0-1.7,0.8,3,0.7
						l0.7-0.3c-0.9,0.1,3.2,0.3,4.7,0.2l-0.6-0.1c12.6,0.1,29.4,0,43.4-0.1c3.4,0.7,10.2-0.2,13.4,0.3c1.5-0.1-2.2-0.2,0.8-0.3
						c1.5,0,1.6,0.1,1.5,0.2l1.3-0.1C388.6,411.1,386,411.7,376.5,412.1z"/>
				</g>
			</g>
		</g>
	</g>
	<g style="display:none;">
		<g style="display:inline;">
			<g>
				<g>
					<path style="fill:#FFFFFF;" d="M213.6,525.2c-1.8,0.1-5.9,0.2-5.8,0c-0.1,0.2-0.1,0.2-2.8,0.4c0.1-0.2-2.4-0.1-4-0.1
						c1.3,0.1,3.1,0.1,6.6,0.2c3.2-0.3,10,0.2,13-0.2C218.5,525.4,216.3,525.1,213.6,525.2z"/>
					<path style="fill:#FFFFFF;" d="M199,524.2l-0.5,0.1l5.6-0.2C203,524.2,199.2,524.3,199,524.2z"/>
					<path style="fill:#099788;" d="M180.8,524.4c0.5-0.2-2.4-0.3-2.3-0.4c0.1,0.4-4.5,0.1-7,0.1l-1,0.3c2.4,0.2,8.5,0.1,13.6,0.1
						L180.8,524.4z"/>
					<path style="fill:#FFFFFF;" d="M176.2,524.2l-1.6,0.2C175.9,524.4,179,524.3,176.2,524.2z"/>
					<path style="fill:#FFFFFF;" d="M179.6,525.2c4,0-2.4-0.1,1.6-0.2C179.9,525.1,178.3,525.1,179.6,525.2z"/>
					<polygon style="fill:#099788;" points="162.8,524.6 171.4,524.5 167.8,524.4 					"/>
					<path style="fill:#099788;" d="M162.4,524.1c1.1,0,2.9,0.1,1.3,0.2c-3.1-0.2-5,0.1-7.8-0.1l2.7-0.1c-0.4-0.2-5.7,0.2-5.5-0.2
						c-3.7,0.3,2.8,0.3-2,0.5c4.5-0.1,7.8,0,11.6,0.1c-1.1-0.1-1.5-0.1-3.1-0.1l9.4-0.2C167.3,524,165,524.2,162.4,524.1z"/>
					<path style="fill:#099788;" d="M148.7,524c-2.9,0-7.4,0-8.1,0.3c3.1,0.2,3.6,0,5-0.2c0.9,0.1,3.8,0.1,2.6,0.2
						C147.8,524.3,150,524.1,148.7,524z"/>
					<path style="fill:#099788;" d="M137.4,524l-2.1,0.3l1.4,0l0.2,0.2c0.2,0,1.3-0.4,4.2-0.4C139.4,523.8,138.9,524,137.4,524z"/>
					<path style="fill:#099788;" d="M136.7,525.3c-2-0.1-3.1-0.1-5.4,0c3.1,0,7.6,0,8.5-0.1l-0.2,0c0,0,3-0.1,5-0.3
						C141.4,525.1,135.7,524.8,136.7,525.3z"/>
					<path style="fill:#099788;" d="M140.7,525.3l-2.3,0.2L140.7,525.3z"/>
					<polygon style="fill:#099788;" points="128.4,524 132.8,524.1 131.8,524 					"/>
					<path style="fill:#099788;" d="M133.7,524.8c-3.6,0,1.9,0.2-1.4,0.2c-0.9,0,4.9,0,5.2-0.1C136.6,524.9,134.1,525.1,133.7,524.8
						z"/>
					<path style="fill:#099788;" d="M125.5,524l-3.7,0.2L125.5,524z"/>
					<path style="fill:#099788;" d="M116.4,523.9l-0.7,0.1c-3.5-0.1-8.3,0.1-10.9-0.2c0.6,0.2-1.5,0.4,1.6,0.4
						c0.5-0.1,1.6-0.1,1.4-0.2c1.3,0,1.1,0.2,1.9,0.2c2.3-0.2,5.8,0,7.7-0.2c-0.9,0-1.1,0-1.8,0c3.9-0.3,4.6,0.4,6.3-0.1
						C120.6,524.1,118.2,523.8,116.4,523.9z"/>
					<path style="fill:#099788;" d="M116.7,524.8l3.1,0.1c-1,0.2-3.8,0-4.3,0.2c0.2,0.1,3.3,0.2,2.2,0.2c0.4-0.5,4.3,0,2.6-0.5
						c4-0.1,1.2,0.3,5.5,0.3l1.2-0.2C122.3,524.9,121.4,524.7,116.7,524.8z"/>
					<path style="fill:#099788;" d="M104.7,524.8l-1.5-0.1l0.8,0.2c-6.9,0-11-0.8-15.2-0.7c-5.2,0.3-10.1-0.1-15.5-0.1
						c-2.6,0.2,2.5,0.1,2.8,0.2c-0.7,0.4-2.5-0.2-3.8,0.1c-0.3,0.3,5.5,0.3,7.8,0.4c2,0,2-0.1,2.6-0.3c0.5,0.1,2.5,0.2,3,0.3
						c4.2-0.2,6.3,0.2,10.4,0c1.3,0.2-3.1,0-1.7,0.1l2.2,0l-0.2,0c3-0.2,8.7,0,10.6,0.1c-1.5-0.1-2.6-0.2-0.8-0.3l1.5,0.2l3.9-0.3
						C108.7,524.8,105.2,524.4,104.7,524.8z"/>
					<path style="fill:#099788;" d="M109,525.2c4.7,0.1-0.6-0.3,4.5-0.2l-5.4,0L109,525.2z"/>
					<path style="fill:#FFFFFF;" d="M86.7,524.6l-2.3-0.2C85.7,524.8,89.3,524.4,86.7,524.6z"/>
					<polygon style="fill:#FFFFFF;" points="78.2,524.6 79.4,524.3 77.3,524.5 					"/>
					<path style="fill:#099788;" d="M70.5,524.3c-1.7,0.1,0.3,0.3,2.3,0.2C71,524.5,70.1,524.4,70.5,524.3z"/>
					<path style="fill:#FFFFFF;" d="M57.7,523.7c3.9,0-3.5-0.1-0.7-0.3C56.5,523.5,54.6,523.7,57.7,523.7z"/>
					<path style="fill:#099788;" d="M45.1,523c1.4-0.1,2,0,2.2,0.1C46.2,523.1,45.4,523.1,45.1,523z"/>
					<path style="fill:#099788;" d="M93.8,523.9l1.4,0L93.8,523.9z"/>
					<path style="fill:#099788;" d="M92.9,523.9l0.9,0L92.9,523.9z"/>
					<polygon style="fill:#099788;" points="63.9,523.3 63.9,523.3 64.2,523.3 					"/>
					<polygon style="fill:#099788;" points="187.6,524 189.4,524 187.6,524 					"/>
					<path style="fill:#099788;" d="M189.7,524.4c-3.2,0.2-3.4-0.4-8.6-0.3l6.5-0.1C190.6,524.3,185.3,524.2,189.7,524.4z"/>
					<path style="fill:#099788;" d="M146.4,524.8l-0.2,0C145.9,524.8,146.1,524.8,146.4,524.8z"/>
					<polygon style="fill:#FFFFFF;" points="330.7,524.1 330.7,524.1 333.6,524.2 					"/>
					<path style="fill:#FFFFFF;" d="M330.3,524l-4.9-0.2l28.8,0l-0.9,0.1C353.7,524.1,329.4,523.9,330.3,524z"/>
					<path style="fill:#FFFFFF;" d="M328.9,524.1c-2.8,0.3-4.7-0.1-8.1,0.1c2.3-0.2,3.9-0.3,6.1-0.2L328.9,524.1z"/>
					<path style="fill:none;stroke:#099788;stroke-width:0;stroke-linecap:round;stroke-linejoin:round;" d="M319.3,524.8
						c-1.5-0.1-3.4,0.1-4.3,0C315.5,524.5,317.9,524.7,319.3,524.8z"/>
					<polygon style="fill:#099788;" points="315.1,525.7 314.4,525.7 315.1,525.7 					"/>
					<path style="fill:#099788;" d="M315.1,525.7l0-0.1C315.7,525.6,315.5,525.7,315.1,525.7z"/>
					<path style="fill:#099788;" d="M314.4,525.7c-0.6,0-1.4,0.1-1.8,0.1l0.7,0c-0.9,0-2.5,0.1-2.9,0.1c1.8,0,1.8-0.1,1.9-0.2
						l-2.9,0C309.9,525.3,311.8,525.7,314.4,525.7z"/>
					<path style="fill:none;stroke:#099788;stroke-width:0;stroke-linecap:round;stroke-linejoin:round;" d="M305.3,525.8l3-0.2
						C309.1,525.8,306.4,525.8,305.3,525.8z"/>
					<path style="fill:#099788;" d="M300.9,525.6c0.7-0.1,3.6,0,1.8-0.1c0.5,0,1,0,1.6,0C302.4,525.5,304.2,525.7,300.9,525.6z"/>
					<path style="fill:#099788;" d="M304.3,525.4l0.8,0L304.3,525.4z"/>
					<path style="fill:none;stroke:#099788;stroke-width:0;stroke-linecap:round;stroke-linejoin:round;" d="M335.5,524.5
						c-0.4,0-0.3-0.1-0.2-0.1L335.5,524.5z"/>
					<polygon style="fill:#099788;" points="294.9,525.4 293.8,525.3 294.7,525.3 					"/>
					<path style="fill:#099788;" d="M387.5,523.3c-3.9-0.1-7.6-0.1-13.2,0c0.1,0.3-2.3,0.1-2.6,0.4c5.8,0-21.9,0.2-17.3,0.3l1.4-0.1
						l-1.4,0.3c-2.8-0.1-6.6-0.3-8.5-0.1c-0.5-0.1,23.8,0,22.9-0.1c2.2,0.3-32.6,0.3-33.5,0.5l-0.4-0.2c-4.3,0.2-7.1,0.4-10.7,0.6
						l-0.8-0.2c2.7,0.1,3.4-0.1,6.1-0.2c-4.7,0-5.6-0.1-9.1,0c0.1,0.3,3.1,0.1-1.4,0.3c-1.3-0.1,1.7-0.4-2.3-0.4
						c-4.9-0.1-3.9,0.3-8.2,0.4l2.9,0.1c-1.6,0-4.5,0.1-6-0.1c1.8,0,6.3-0.1,6.2-0.4c-1.8,0.1-5.8,0-7.4,0l1-0.2
						c-1.7-0.2-2.7,0.1-4.9-0.1c-2.1,0.1,1.2,0.3,0.1,0.4c-0.4-0.1-4.4-0.2-5.8,0c1,0.4,4.7-0.1,7.3,0.3l-3.8-0.1
						c-2.4,0.4,6,0,4.8,0.3c-2.8,0.4-5.9-0.4-8.5,0.1c1.7,0.1,7.3,0.1,6.6,0.3c-2-0.1-3.4,0.1-6.1,0.2l-3.3-0.2
						c-1.4,0.1-0.3,0.1,0.8,0.2c-4.8-0.2-13,0-19.8-0.2c-4,0.1-0.5,0.2-2.3,0.3c-2.2-0.2-5.8,0-8,0c-0.7,0-1.9,0.2-1.2,0.3l5.6-0.2
						c-0.3,0.1,0.6,0.3,2.6,0.3c-1.4-0.5,7.9,0.3,8.4-0.2l-0.1,0.2l7.2-0.2l-0.2,0c0,0.1,6.1-0.2,10.1-0.1c-1.1,0.1-7.8,0-3.9,0.3
						c-3,0.1-8.2-0.1-13.6,0l1.1,0.2c-5.7,0.2-13.2-0.1-19.4,0l1.9-0.2c-2.2-0.1-5-0.3-7.1-0.1c2.7,0,1.3,0.1,0.8,0.2
						c-3.6,0.1-8.9,0-13.9,0.1c0,0,0.2,0,0-0.1l-5.2,0.1c-2.5,0-3.3-0.2-4.8-0.3c-0.9,0-3.1,0-2.3,0.2c0.5,0,1,0,1.3,0
						c-2.6,0.2-1.8-0.1-5.1,0.1c2.5-0.2-0.8-0.3-0.5-0.5c-3.8,0.1-0.4,0.4-0.8,0.5c-4.7-0.1-5.3-0.3-9.9-0.3
						c-0.3,0.1,3.3,0.1,3.7,0.2c-1.3,0-2.9,0-3.1,0l2.9,0.1c-4.9-0.2-9.5-0.2-14.9-0.1l0.4,0.1l-3.3,0l1.2-0.2
						c-1.8,0.1-3.7-0.2-4.7,0l0.7,0l-2.3,0.1l2.3-0.2c-2.9-0.1-6.8,0.4-11.5,0.3c-1-0.3,8.1-0.1,8.7-0.5c-1.5-0.1-4.2-0.1-5.1,0
						c0.2,0.1,1.3,0.1,2.4,0.1c-4.1,0.2-10.2-0.1-12.8,0.2l3.1,0.1c-3.6,0-5.9-0.4-7.1-0.2l2.8-0.4c-3.6,0.2-8.3,0.2-11.7,0.3
						c-0.1,0.2,4.9,0,4.7,0l-1.6,0.2c-5.3-0.1-1.5-0.1-7.9-0.3l-0.1,0.2c-2.1-0.2-7.9,0.2-5.7-0.2l1.7,0.1l-0.2-0.2l-7.4,0.1
						c0.7-0.1-2.9-0.1-1.9-0.3l-2.7,0.2c-1.2-0.3,5-0.3,5.3-0.5c-0.1-0.1-1.4-0.1-2-0.1c3.3-0.2,4.9,0.3,8.2,0.3l1.6-0.2l-0.1,0.2
						c1.4,0,2.5-0.2,3-0.3c3.2,0.3,6.7-0.1,11.6,0c-4.1,0.1,2.6,0.2,1.9,0.3c2.2,0,7.8-0.4,9.7-0.1c1.3,0.1-2.7,0.2,0.4,0.2
						c2,0,3.4-0.2,2.1-0.3c4.5-0.1,9.8,0,14.8,0l-1.2,0.2c3.1,0.1,6.1-0.1,7.7-0.3c0.4,0.1,0.7,0,0.2,0.1c3.9,0.3,5-0.3,11.5-0.3
						c-0.4-0.2-3.3-0.2-5.3-0.1l0.5-0.3c-5.6,0-11.9,0-16.4,0.2l2.1-0.2c-3.9-0.3-2.8,0.3-6.5-0.1c-2.7,0.1,2,0.1-0.1,0.2
						c-1.9-0.1,0.5-0.4-2.7-0.5c12.1-0.1,25.8-0.1,38.5-0.2c0.2,0-0.4-0.1-1.1-0.1c4.4-0.3,39.6,0.6,40.7-0.1
						c0.6,0.1-1.4,0.2,1.3,0.2c0.2,0,0.9-0.1,0.3-0.2c6.8,0.4,15.9,0,24.1,0.2c-0.2-0.1,1.6-0.2,1.7-0.3c2.8,0.3,7.6,0,10.2,0.1
						l-0.9-0.1l8.3,0c0.2,0-0.9,0-1.5-0.1c1.8-0.1,2.2,0.1,2.4,0.2l3.7-0.3c10.8,0.5,24.2-0.3,36.6,0c1.9-0.2,3.5-0.3,6.6-0.3
						l-1.5-0.1c3.2-0.2,0.2,0.1,2.9,0c1.8-0.1,0.6-0.3-1.9-0.2c-1.6-0.1-0.6-0.2,0.5-0.2C370.2,522.8,379.4,522.9,387.5,523.3z"/>
					<path style="fill:#099788;" d="M10.3,522.5c1.1,0.1-4.3,0.1-1.7,0.3c8.3,0.4,21.9,0.1,31.8,0.4c2.6,0.2,3.3,0.2,5.7,0.3
						c0,0,0.1-0.1-0.1-0.1c2.7,0,7,0,9.7,0.1c0.8,0,1.3-0.2-0.1-0.2c4.1-0.2,7,0.3,9.4,0.2c-2-0.1,2-0.2-0.4-0.3
						c4.3,0,3.9,0.6,7.3,0.7c0.2,0,0.4-0.1-0.3-0.1c3.7,0.3,11.3-0.2,11.7,0.3l1.5-0.2c1.6,0.1,1.2,0.2,3.9,0.3
						c1.8-0.1-0.1-0.2,0.6-0.2c0.7,0.2,5.5,0.1,7.6,0.3c0.1,0.3-3.8-0.4-6-0.1c-0.1,0.1,0.2,0.1,0.7,0.1c-11.2-0.1-19.8-0.8-29-0.6
						c-2-0.2-3.6,0-4.5,0.2c1.7,0.1,6.4,0.3,6.5-0.1l2.9,0.2c1.1,0,1.1,0.4,1.5,0.4c-2,0-4.3,0.3-1.6,0.5c-5.3,0,1.7-0.8-3-0.7
						l-0.7,0.3c0.9-0.1-3.2-0.3-4.7-0.2l0.6,0.1c-12.6-0.1-29.4,0-43.4,0.1C13,523.6,6.2,524.5,3,524c-1.5,0.1,2.2,0.2-0.8,0.3
						c-1.5,0-1.6-0.1-1.5-0.2l-1.3,0.1C-1.7,523.5,0.8,522.9,10.3,522.5z"/>
				</g>
			</g>
		</g>
	</g>
</g>
<g>
</g>
<g>
</g>
<g>
</g>
<g>
</g>
<g>
</g>
<g>
</g>
</svg>
