<?xml version="1.0" encoding="utf-8"?>
<!-- Generator: Adobe Illustrator 19.0.0, SVG Export Plug-In . SVG Version: 6.00 Build 0)  -->
<svg version="1.1" id="Layer_1" xmlns="http://www.w3.org/2000/svg" xmlns:xlink="http://www.w3.org/1999/xlink" x="0px" y="0px"
	 viewBox="0 0 414 48.5" style="enable-background:new 0 0 414 48.5;" xml:space="preserve">
<style type="text/css">
	.st0{fill-rule:evenodd;clip-rule:evenodd;fill:#A9D5B5;}
</style>
<path class="st0" d="M218,33c-4,0-9.5,0-9.5,0s-5.5,0-9.5,0c-4,0-9.3-0.6-9-9.4c0.3-8.8,3-9.6,9.2-10.6c6.2-1,9.3-13,9.3-13
	s3,12,9.3,13c6.2,1,8.9,1.8,9.2,10.6C227.3,32.4,222,33,218,33z M207.4,11c0,0-1.8,0.9-4.4,2.7c-2.9,2.1-4,2.2-7.4,3.6
	c-3.4,1.4-4,8-2.8,11c1.2,3,6.7,1.6,6.7,1.6h7.8V11z M221.4,17.3c-3.4-1.4-4.7-1.7-7.4-3.6c-2.6-1.8-4.4-2.7-4.4-2.7v18.9h7.8
	c0,0,5.5,1.4,6.7-1.6C225.4,25.3,224.8,18.6,221.4,17.3z"/>
<path class="st0" d="M207,35.5c114.3,0,207,0.7,207,1.5c0,0.8-92.7,1.5-207,1.5S0,37.8,0,37C0,36.2,92.7,35.5,207,35.5z"/>
<path class="st0" d="M207.5,46.5c37.3,0,67.5,0.4,67.5,1c0,0.6-30.2,1-67.5,1s-67.5-0.4-67.5-1C140,46.9,170.2,46.5,207.5,46.5z"/>
</svg>
